<?xml version="1.0" standalone="no"?>
<!DOCTYPE svg PUBLIC "-//W3C//DTD SVG 1.1//EN" "http://www.w3.org/Graphics/SVG/1.1/DTD/svg11.dtd" >
<svg>
<metadata>
Created by FontForge 20090622 at Mon Dec  7 09:07:31 2015
 By deploy user
Copyright (c) 2010-2011 by Software Industry Promotion Agency (Public Organization) (SIPA). All rights reserved.
Created by : Suppakit CHALERMLARP.
</metadata>
<defs>
<font id="THSarabunNew" horiz-adv-x="0" >
  <font-face 
    font-family="TH Sarabun New"
    font-weight="400"
    font-stretch="normal"
    units-per-em="1000"
    panose-1="2 11 5 0 4 2 0 2 0 3"
    ascent="800"
    descent="-200"
    x-height="340"
    cap-height="476"
    bbox="-427 -421 947 836"
    underline-thickness="30"
    underline-position="-20"
    unicode-range="U+0020-U+FB02"
  />
<missing-glyph horiz-adv-x="692" 
d="M642 0h-592v809h592v-809zM612 28v753h-532v-753h532z" />
    <glyph glyph-name="Agrave" unicode="A&#x300;" horiz-adv-x="400" 
d="M400 0h-43l-55 153h-205l-54 -153h-43l180 483h40zM290 186l-90 254l-91 -254h181zM244 526h-31l-58 81l39 10z" />
    <glyph glyph-name="Aacute" unicode="A&#x301;" horiz-adv-x="400" 
d="M400 0h-43l-55 153h-205l-54 -153h-43l180 483h40zM290 186l-90 254l-91 -254h181zM186 526h-31l50 91l39 -10z" />
    <glyph glyph-name="Atilde" unicode="A&#x303;" horiz-adv-x="400" 
d="M400 0h-43l-55 153h-205l-54 -153h-43l180 483h40zM290 186l-90 254l-91 -254h181zM286 588q-2 -60 -50 -60q-10 0 -21 5t-21.5 11.5t-20 11.5t-16.5 5q-8 0 -15 -9t-8 -26h-25q1 30 14.5 45t34.5 15q11 0 21.5 -5t21 -11.5t20.5 -11.5t20 -5q17 0 20 35h25z" />
    <glyph glyph-name="Egrave" unicode="E&#x300;" horiz-adv-x="351" 
d="M313 0h-259v476h259v-33h-220v-175h196v-33h-196v-202h220v-33zM220 526h-31l-58 81l39 10z" />
    <glyph glyph-name="Eacute" unicode="E&#x301;" horiz-adv-x="351" 
d="M313 0h-259v476h259v-33h-220v-175h196v-33h-196v-202h220v-33zM162 526h-31l50 91l39 -10z" />
    <glyph glyph-name="Igrave" unicode="I&#x300;" horiz-adv-x="147" 
d="M93 0h-39v476h39v-476zM118 526h-31l-58 81l39 10z" />
    <glyph glyph-name="Iacute" unicode="I&#x301;" horiz-adv-x="147" 
d="M93 0h-39v476h39v-476zM60 526h-31l50 91l39 -10z" />
    <glyph glyph-name="Ograve" unicode="O&#x300;" horiz-adv-x="486" 
d="M464 237q0 -107 -61.5 -177t-159.5 -70t-159.5 70t-61.5 177t61.5 177t159.5 70t159.5 -70t61.5 -177zM425 237q0 88 -51 150.5t-131 62.5t-131 -62.5t-51 -150.5t51 -150.5t131 -62.5t131 62.5t51 150.5zM287 526h-31l-58 81l39 10z" />
    <glyph glyph-name="Oacute" unicode="O&#x301;" horiz-adv-x="486" 
d="M464 237q0 -107 -61.5 -177t-159.5 -70t-159.5 70t-61.5 177t61.5 177t159.5 70t159.5 -70t61.5 -177zM425 237q0 88 -51 150.5t-131 62.5t-131 -62.5t-51 -150.5t51 -150.5t131 -62.5t131 62.5t51 150.5zM229 526h-31l50 91l39 -10z" />
    <glyph glyph-name="Otilde" unicode="O&#x303;" horiz-adv-x="486" 
d="M464 237q0 -107 -61.5 -177t-159.5 -70t-159.5 70t-61.5 177t61.5 177t159.5 70t159.5 -70t61.5 -177zM425 237q0 88 -51 150.5t-131 62.5t-131 -62.5t-51 -150.5t51 -150.5t131 -62.5t131 62.5t51 150.5zM329 588q-2 -60 -50 -60q-10 0 -21 5t-21.5 11.5t-20 11.5
t-16.5 5q-8 0 -15 -9t-8 -26h-25q1 30 14.5 45t34.5 15q11 0 21.5 -5t21 -11.5t20.5 -11.5t20 -5q17 0 20 35h25z" />
    <glyph glyph-name="Ugrave" unicode="U&#x300;" horiz-adv-x="466" 
d="M412 201q0 -210 -179 -210t-179 210v275h39v-274q0 -94 38.5 -136t101.5 -42q64 0 102.5 42t37.5 136v274h39v-275zM260 526h-31l-58 81l39 10z" />
    <glyph glyph-name="Uacute" unicode="U&#x301;" horiz-adv-x="466" 
d="M412 201q0 -210 -179 -210t-179 210v275h39v-274q0 -94 38.5 -136t101.5 -42q64 0 102.5 42t37.5 136v274h39v-275zM229 526h-31l50 91l39 -10z" />
    <glyph glyph-name="Yacute" unicode="Y&#x301;" horiz-adv-x="366" 
d="M366 476l-164 -266v-210h-38v209l-164 267h45l138 -233l138 233h45zM184 526h-31l50 91l39 -10z" />
    <glyph glyph-name="agrave" unicode="a&#x300;" horiz-adv-x="344" 
d="M304 0l-35 -7l-14 55q-46 -57 -121 -57q-44 0 -76 25t-32 69q0 127 221 127h6v6q0 33 -15 58q-23 40 -78 40q-35 0 -108 -23l-5 36q56 18 116 18q129 0 129 -142v-122q0 -42 12 -83zM253 110v68q-186 0 -186 -86q0 -33 20 -50.5t50 -17.5q79 0 111 67q5 11 5 19zM216 390
h-31l-58 81l39 10z" />
    <glyph glyph-name="aacute" unicode="a&#x301;" horiz-adv-x="344" 
d="M304 0l-35 -7l-14 55q-46 -57 -121 -57q-44 0 -76 25t-32 69q0 127 221 127h6v6q0 33 -15 58q-23 40 -78 40q-35 0 -108 -23l-5 36q56 18 116 18q129 0 129 -142v-122q0 -42 12 -83zM253 110v68q-186 0 -186 -86q0 -33 20 -50.5t50 -17.5q79 0 111 67q5 11 5 19zM158 390
h-31l50 91l39 -10z" />
    <glyph glyph-name="atilde" unicode="a&#x303;" horiz-adv-x="344" 
d="M304 0l-35 -7l-14 55q-46 -57 -121 -57q-44 0 -76 25t-32 69q0 127 221 127h6v6q0 33 -15 58q-23 40 -78 40q-35 0 -108 -23l-5 36q56 18 116 18q129 0 129 -142v-122q0 -42 12 -83zM253 110v68q-186 0 -186 -86q0 -33 20 -50.5t50 -17.5q79 0 111 67q5 11 5 19zM258 452
q-2 -60 -50 -60q-10 0 -21 5t-21.5 11.5t-20 11.5t-16.5 5q-8 0 -15 -9t-8 -26h-25q1 30 14.5 45t34.5 15q11 0 21.5 -5t21 -11.5t20.5 -11.5t20 -5q17 0 20 35h25z" />
    <glyph glyph-name="egrave" unicode="e&#x300;" horiz-adv-x="374" 
d="M324 48l3 -33q-58 -24 -126 -24q-78 0 -126 48t-48 122q0 84 48 135t122 51q143 0 146 -179h-278q2 -68 40.5 -105.5t99.5 -37.5q60 0 119 23zM306 199q-1 41 -23 73q-30 44 -91 44q-55 0 -90 -40q-28 -32 -35 -77h239zM231 390h-31l-58 81l39 10z" />
    <glyph glyph-name="eacute" unicode="e&#x301;" horiz-adv-x="374" 
d="M324 48l3 -33q-58 -24 -126 -24q-78 0 -126 48t-48 122q0 84 48 135t122 51q143 0 146 -179h-278q2 -68 40.5 -105.5t99.5 -37.5q60 0 119 23zM306 199q-1 41 -23 73q-30 44 -91 44q-55 0 -90 -40q-28 -32 -35 -77h239zM173 390h-31l50 91l39 -10z" />
    <glyph glyph-name="igrave" unicode="i&#x300;" horiz-adv-x="143" 
d="M90 0h-38v340h38v-340zM116 390h-31l-58 81l39 10z" />
    <glyph glyph-name="iacute" unicode="i&#x301;" horiz-adv-x="143" 
d="M90 0h-38v340h38v-340zM58 390h-31l50 91l39 -10z" />
    <glyph glyph-name="ograve" unicode="o&#x300;" horiz-adv-x="398" 
d="M370 169q0 -75 -47 -127t-124 -52t-124 52t-47 127t47 126.5t124 51.5t124 -51.5t47 -126.5zM332 169q0 62 -37.5 103.5t-95.5 41.5t-95.5 -41.5t-37.5 -103.5t37.5 -104t95.5 -42t95.5 42t37.5 104zM243 390h-31l-58 81l39 10z" />
    <glyph glyph-name="oacute" unicode="o&#x301;" horiz-adv-x="398" 
d="M370 169q0 -75 -47 -127t-124 -52t-124 52t-47 127t47 126.5t124 51.5t124 -51.5t47 -126.5zM332 169q0 62 -37.5 103.5t-95.5 41.5t-95.5 -41.5t-37.5 -103.5t37.5 -104t95.5 -42t95.5 42t37.5 104zM185 390h-31l50 91l39 -10z" />
    <glyph glyph-name="otilde" unicode="o&#x303;" horiz-adv-x="398" 
d="M370 169q0 -75 -47 -127t-124 -52t-124 52t-47 127t47 126.5t124 51.5t124 -51.5t47 -126.5zM332 169q0 62 -37.5 103.5t-95.5 41.5t-95.5 -41.5t-37.5 -103.5t37.5 -104t95.5 -42t95.5 42t37.5 104zM285 452q-2 -60 -50 -60q-10 0 -21 5t-21.5 11.5t-20 11.5t-16.5 5
q-8 0 -15 -9t-8 -26h-25q1 30 14.5 45t34.5 15q11 0 21.5 -5t21 -11.5t20.5 -11.5t20 -5q17 0 20 35h25z" />
    <glyph glyph-name="ugrave" unicode="u&#x300;" horiz-adv-x="390" 
d="M355 1l-37 -8q-12 34 -16 66q-44 -68 -128 -68q-122 0 -122 158v191h39v-184q0 -131 92 -131q43 0 78 28q38 32 38 81v206h39v-257q0 -37 17 -82zM239 390h-31l-58 81l39 10z" />
    <glyph glyph-name="uacute" unicode="u&#x301;" horiz-adv-x="390" 
d="M355 1l-37 -8q-12 34 -16 66q-44 -68 -128 -68q-122 0 -122 158v191h39v-184q0 -131 92 -131q43 0 78 28q38 32 38 81v206h39v-257q0 -37 17 -82zM181 390h-31l50 91l39 -10z" />
    <glyph glyph-name="yacute" unicode="y&#x301;" horiz-adv-x="337" 
d="M184 0q-59 -133 -157 -156l-9 31q85 19 129 136q0 3 -3 12l-141 317h42l127 -288l119 288h43zM155 390h-31l50 91l39 -10z" />
    <glyph glyph-name="fi" unicode="fi" horiz-adv-x="347" 
d="M295 340v-340h-39v309h-157v-309h-39v309h-50v31h50v17q0 71 35.5 113.5t103.5 42.5q48 0 85 -27l-17 -30q-38 24 -75 24q-93 0 -93 -123v-17h196z" />
    <glyph glyph-name="fl" unicode="fl" horiz-adv-x="404" 
d="M386 27l-4 -34q-126 6 -126 178v299q-20 10 -49 10q-31 0 -52 -10.5t-33.5 -27.5t-17.5 -40t-5 -47v-15h98v-31h-98v-309h-39v309h-50v31h50v10q0 81 44 122t111 41q39 0 80 -20v-307q0 -73 13 -106q20 -52 78 -53z" />
    <glyph glyph-name="PSK" unicode="PSK&#x2e;Design&#x28;c&#x29;" horiz-adv-x="954" 
d="M212 520q0 28 -44 28h-38v-57h38q44 0 44 29zM271 519q0 -73 -100 -73h-41v-80h-58v225h110q89 0 89 -72zM779 366l-82 114v-114h-60v225h60v-96l82 96h70l-89 -100l96 -125h-77zM916 666q-5 -26 -30 -26q-31 0 -31 36t31 36q27 0 29 -24h-16q-3 10 -13 10q-13 0 -13 -21
q0 -24 14 -24q11 0 12 13h17zM237 120q0 26 -25 26q-27 0 -27 -25t27 -25q25 0 25 24zM261 121q0 -42 -51 -42q-48 0 -48 42q0 41 50 41q49 0 49 -41zM325 135q0 10 -17 10h-15v-21h15q17 0 17 11zM348 135q0 -27 -38 -27h-17v-25h-21v79h41q35 0 35 -27zM404 83h-23v28
l-36 51h26l24 -34q3 4 22 34h23l-36 -52v-27zM196 17l-7 17l-8 -17h15zM215 0h-13l-4 9h-20l-4 -9h-12l20 43h15zM689 0h-34v43h34v-9h-23v-8h21v-8h-21v-9h23v-9zM774 43l-17 -43h-12l-18 43h12l12 -32l12 32h11zM847 21q0 13 -13 13h-8v-24h8q13 0 13 11zM858 21
q0 -21 -24 -21h-20v43h20q24 0 24 -22zM249 0h-32v43h10v-34h22v-9zM332 30q0 5 -8 5h-6v-9h6q8 0 8 4zM345 32q0 -8 -8 -11q6 -2 10 -21h-13q0 4 -1 8q-3 9 -9 9h-6v-17h-11v43h21q17 0 17 -11zM361 43v-43h-9v43h9zM412 3q-9 -4 -19 -4q-26 0 -26 22q0 23 25 23
q19 0 20 -16h-11q-1 7 -9 7q-13 0 -13 -13q0 -14 14 -14q5 0 8 1v7h-9v8h20v-21zM462 0h-11v18h-22v-18h-11v43h11v-17h22v17h11v-43zM506 34h-14v-34h-12v34h-15v9h41v-9zM565 83h-25v79h25v-79zM668 86q-18 -5 -41 -5q-51 0 -51 41t49 41q40 0 43 -27h-26q-2 11 -18 11
q-24 0 -24 -24q0 -26 27 -26l16 2v14h-19v13h44v-40zM768 83h-23v32h-40v-32h-24v79h24v-31h40v31h23v-79zM864 144h-33v-61h-23v61h-31v18h87v-18zM506 137q0 8 -18 8h-15v-19h15q18 0 18 11zM531 83h-22l-5 20q-1 10 -17 10h-14v-30h-23v79h45q34 0 34 -21q0 -13 -17 -19
q15 -3 15 -19zM650 13q0 -14 -20 -14q-18 0 -18 16h11q0 -7 8 -7q7 0 7 4q0 1 -12.5 5.5t-12.5 12.5q0 14 18 14t18 -14h-11q0 6 -7 6t-7 -5q0 -4 13 -7t13 -11zM809 0h-33v43h33v-9h-21v-8h20v-8h-20v-9h21v-9zM608 9v-9h-34v43h33v-9h-22v-8h21v-8h-21v-9h23zM156 109
q-3 -30 -43 -30q-47 0 -47 43q0 42 49 42q37 0 41 -30h-26q-1 13 -17 13q-23 0 -23 -25t22 -25q17 0 18 12h26zM867 199h-809v25h809v-25zM562 406q0 -79 -58 -116q-46 -30 -118 -30q-61 0 -95.5 26t-34.5 73q0 16 4 31h38q-1 -7 -1 -17q0 -79 99 -79q44 0 79 21
q45 27 45 77q0 38 -52 58l-95 32q-52 22 -52 64q0 68 52 104q46 31 119 31q50 0 79.5 -21t29.5 -59q0 -15 -5 -33h-36q2 14 2 19q0 60 -66 60q-60 0 -95.5 -23t-35.5 -62q0 -26 18 -39t75.5 -29.5t80.5 -36t23 -51.5zM947 675q0 -26 -17 -42t-43 -16q-25 0 -41.5 16
t-16.5 42t16.5 42.5t41.5 16.5q26 0 43 -16.5t17 -42.5zM938 674q0 21 -15 35.5t-36 14.5q-20 0 -34 -14.5t-14 -35.5t14 -35t34 -14q21 0 36 14t15 35zM557 30q0 5 -7 5h-7v-9h7q7 0 7 4zM569 32q0 -8 -8 -11q6 -2 10 -21h-12q0 4 -1 8q-3 9 -8 9h-7v-17h-12v43h22
q16 0 16 -11zM702 26h7q7 0 7 4q0 5 -7 5h-7v-9zM730 0h-12q0 4 -1 8q-3 9 -8 9h-7v-17h-10v43h21q15 0 15 -11q0 -8 -8 -11q6 -2 10 -21zM284 0h-32v43h10v-34h22v-9z" />
    <glyph glyph-name="uni1EA0" unicode="A&#x323;" horiz-adv-x="400" 
d="M400 0h-43l-55 153h-205l-54 -153h-43l180 483h40zM290 186l-90 254l-91 -254h181zM229 -77q0 -12 -8 -20.5t-21 -8.5q-12 0 -20.5 8.5t-8.5 20.5q0 10 8.5 19t20.5 9q13 0 21 -9t8 -19z" />
    <glyph glyph-name="uni1EA1" unicode="a&#x323;" horiz-adv-x="344" 
d="M304 0l-35 -7l-14 55q-46 -57 -121 -57q-44 0 -76 25t-32 69q0 127 221 127h6v6q0 33 -15 58q-23 40 -78 40q-35 0 -108 -23l-5 36q56 18 116 18q129 0 129 -142v-122q0 -42 12 -83zM253 110v68q-186 0 -186 -86q0 -33 20 -50.5t50 -17.5q79 0 111 67q5 11 5 19zM201 -77
q0 -12 -8 -20.5t-21 -8.5q-12 0 -20.5 8.5t-8.5 20.5q0 10 8.5 19t20.5 9q13 0 21 -9t8 -19z" />
    <glyph glyph-name="uni1EA2" unicode="A&#x309;" horiz-adv-x="400" 
d="M400 0h-43l-55 153h-205l-54 -153h-43l180 483h40zM290 186l-90 254l-91 -254h181zM272 607q0 -31 -28 -53t-28 -34h-31q1 26 28.5 46t27.5 41q0 14 -9.5 21.5t-25.5 7.5q-26 0 -45 -28l-19 15q22 40 69 40q27 0 44 -14.5t17 -41.5z" />
    <glyph glyph-name="uni1EA3" unicode="a&#x309;" horiz-adv-x="344" 
d="M304 0l-35 -7l-14 55q-46 -57 -121 -57q-44 0 -76 25t-32 69q0 127 221 127h6v6q0 33 -15 58q-23 40 -78 40q-35 0 -108 -23l-5 36q56 18 116 18q129 0 129 -142v-122q0 -42 12 -83zM253 110v68q-186 0 -186 -86q0 -33 20 -50.5t50 -17.5q79 0 111 67q5 11 5 19z
M230.897 461.911q0 -27.9004 -25.2002 -47.7012q-25.2012 -19.7998 -25.2012 -30.6006h-27.9004q0.899414 23.4004 25.6504 41.4014q24.751 18 24.751 36.9004q0 12.6006 -8.55078 19.3506q-8.5498 6.75 -22.9502 6.75q-23.4004 0 -40.501 -25.2002l-17.1006 13.5
q19.8008 36.001 62.1016 36.001q24.3008 0 39.6016 -13.0498q15.2998 -13.0508 15.2998 -37.3516z" />
    <glyph glyph-name="uni1EA4" unicode="&#xc2;&#x301;" horiz-adv-x="400" 
d="M400 0h-43l-55 153h-205l-54 -153h-43l180 483h40zM290 186l-90 254l-91 -254h181zM214 606l69 -78h-37l-46 52l-46 -52h-37l69 78h28zM309.396 580.01h-27.9004l45.001 81.9023l35.1016 -9.00098z" />
    <glyph glyph-name="uni1EA5" unicode="&#xe2;&#x301;" horiz-adv-x="344" 
d="M304 0l-35 -7l-14 55q-46 -57 -121 -57q-44 0 -76 25t-32 69q0 127 221 127h6v6q0 33 -15 58q-23 40 -78 40q-35 0 -108 -23l-5 36q56 18 116 18q129 0 129 -142v-122q0 -42 12 -83zM253 110v68q-186 0 -186 -86q0 -33 20 -50.5t50 -17.5q79 0 111 67q5 11 5 19zM186 470
l69 -78h-37l-46 52l-46 -52h-37l69 78h28zM269.396 446.01h-27.9004l45.001 81.9023l35.1016 -9.00098z" />
    <glyph glyph-name="uni1EA6" unicode="&#xc2;&#x300;" horiz-adv-x="400" 
d="M400 0h-43l-55 153h-205l-54 -153h-43l180 483h40zM290 186l-90 254l-91 -254h181zM214 606l69 -78h-37l-46 52l-46 -52h-37l69 78h28zM331.599 580.01h-27.9004l-52.2021 72.9014l35.1016 9.00098z" />
    <glyph glyph-name="uni1EA7" unicode="&#xe2;&#x300;" horiz-adv-x="344" 
d="M304 0l-35 -7l-14 55q-46 -57 -121 -57q-44 0 -76 25t-32 69q0 127 221 127h6v6q0 33 -15 58q-23 40 -78 40q-35 0 -108 -23l-5 36q56 18 116 18q129 0 129 -142v-122q0 -42 12 -83zM253 110v68q-186 0 -186 -86q0 -33 20 -50.5t50 -17.5q79 0 111 67q5 11 5 19zM186 470
l69 -78h-37l-46 52l-46 -52h-37l69 78h28zM296.599 446.01h-27.9004l-52.2021 72.9014l35.1016 9.00098z" />
    <glyph glyph-name="uni1EA8" unicode="&#xc2;&#x309;" horiz-adv-x="400" 
d="M400 0h-43l-55 153h-205l-54 -153h-43l180 483h40zM290 186l-90 254l-91 -254h181zM214 606l69 -78h-37l-46 52l-46 -52h-37l69 78h28zM369.897 655.911q0 -27.9004 -25.2002 -47.7012q-25.2012 -19.7998 -25.2012 -30.6006h-27.9004q0.899414 23.4004 25.6504 41.4014
q24.751 18 24.751 36.9004q0 12.6006 -8.55078 19.3506q-8.5498 6.75 -22.9502 6.75q-23.4004 0 -40.501 -25.2002l-17.1006 13.5q19.8008 36.001 62.1016 36.001q24.3008 0 39.6016 -13.0498q15.2998 -13.0508 15.2998 -37.3516z" />
    <glyph glyph-name="uni1EA9" unicode="&#xe2;&#x309;" horiz-adv-x="344" 
d="M304 0l-35 -7l-14 55q-46 -57 -121 -57q-44 0 -76 25t-32 69q0 127 221 127h6v6q0 33 -15 58q-23 40 -78 40q-35 0 -108 -23l-5 36q56 18 116 18q129 0 129 -142v-122q0 -42 12 -83zM253 110v68q-186 0 -186 -86q0 -33 20 -50.5t50 -17.5q79 0 111 67q5 11 5 19zM186 470
l69 -78h-37l-46 52l-46 -52h-37l69 78h28zM324.897 533.911q0 -27.9004 -25.2002 -47.7012q-25.2012 -19.7998 -25.2012 -30.6006h-27.9004q0.899414 23.4004 25.6504 41.4014q24.751 18 24.751 36.9004q0 12.6006 -8.55078 19.3506q-8.5498 6.75 -22.9502 6.75
q-23.4004 0 -40.501 -25.2002l-17.1006 13.5q19.8008 36.001 62.1016 36.001q24.3008 0 39.6016 -13.0498q15.2998 -13.0508 15.2998 -37.3516z" />
    <glyph glyph-name="uni1EAA" unicode="&#xc2;&#x303;" horiz-adv-x="400" 
d="M400 0h-43l-55 153h-205l-54 -153h-43l180 483h40zM290 186l-90 254l-91 -254h181zM214 606l69 -78h-37l-46 52l-46 -52h-37l69 78h28zM288 694q-2 -60 -50 -60q-10 0 -21 5t-21.5 11.5t-20 11.5t-16.5 5q-8 0 -15 -9t-8 -26h-25q1 30 14.5 45t34.5 15q11 0 21.5 -5
t21 -11.5t20.5 -11.5t20 -5q17 0 20 35h25z" />
    <glyph glyph-name="uni1EAB" unicode="&#xe2;&#x303;" horiz-adv-x="344" 
d="M304 0l-35 -7l-14 55q-46 -57 -121 -57q-44 0 -76 25t-32 69q0 127 221 127h6v6q0 33 -15 58q-23 40 -78 40q-35 0 -108 -23l-5 36q56 18 116 18q129 0 129 -142v-122q0 -42 12 -83zM253 110v68q-186 0 -186 -86q0 -33 20 -50.5t50 -17.5q79 0 111 67q5 11 5 19zM186 470
l69 -78h-37l-46 52l-46 -52h-37l69 78h28zM260 557q-2 -60 -50 -60q-10 0 -21 5t-21.5 11.5t-20 11.5t-16.5 5q-8 0 -15 -9t-8 -26h-25q1 30 14.5 45t34.5 15q11 0 21.5 -5t21 -11.5t20.5 -11.5t20 -5q17 0 20 35h25z" />
    <glyph glyph-name="uni1EAC" unicode="&#xc2;&#x323;" horiz-adv-x="400" 
d="M400 0h-43l-55 153h-205l-54 -153h-43l180 483h40zM290 186l-90 254l-91 -254h181zM229 -77q0 -12 -8 -20.5t-21 -8.5q-12 0 -20.5 8.5t-8.5 20.5q0 10 8.5 19t20.5 9q13 0 21 -9t8 -19zM214 606l69 -78h-37l-46 52l-46 -52h-37l69 78h28z" />
    <glyph glyph-name="uni1EAD" unicode="&#xe2;&#x323;" horiz-adv-x="344" 
d="M304 0l-35 -7l-14 55q-46 -57 -121 -57q-44 0 -76 25t-32 69q0 127 221 127h6v6q0 33 -15 58q-23 40 -78 40q-35 0 -108 -23l-5 36q56 18 116 18q129 0 129 -142v-122q0 -42 12 -83zM253 110v68q-186 0 -186 -86q0 -33 20 -50.5t50 -17.5q79 0 111 67q5 11 5 19zM201 -77
q0 -12 -8 -20.5t-21 -8.5q-12 0 -20.5 8.5t-8.5 20.5q0 10 8.5 19t20.5 9q13 0 21 -9t8 -19zM186 470l69 -78h-37l-46 52l-46 -52h-37l69 78h28z" />
    <glyph glyph-name="uni1EAE" unicode="&#x102;&#x301;" horiz-adv-x="400" 
d="M400 0h-43l-55 153h-205l-54 -153h-43l180 483h40zM290 186l-90 254l-91 -254h181zM289 589q-5 -27 -24 -44q-26 -24 -65 -24t-66 24q-18 17 -24 44h35q4 -11 11 -19q16 -18 44 -18t43 18q8 8 12 19h34zM206.396 598.01h-27.9004l45.001 81.9023l35.1016 -9.00098z" />
    <glyph glyph-name="uni1EAF" unicode="&#x103;&#x301;" horiz-adv-x="344" 
d="M304 0l-35 -7l-14 55q-46 -57 -121 -57q-44 0 -76 25t-32 69q0 127 221 127h6v6q0 33 -15 58q-23 40 -78 40q-35 0 -108 -23l-5 36q56 18 116 18q129 0 129 -142v-122q0 -42 12 -83zM253 110v68q-186 0 -186 -86q0 -33 20 -50.5t50 -17.5q79 0 111 67q5 11 5 19zM261 453
q-5 -27 -24 -44q-26 -24 -65 -24t-66 24q-18 17 -24 44h35q4 -11 11 -19q16 -18 44 -18t43 18q8 8 12 19h34zM179.396 465.01h-27.9004l45.001 81.9023l35.1016 -9.00098z" />
    <glyph glyph-name="uni1EB0" unicode="&#x102;&#x300;" horiz-adv-x="400" 
d="M400 0h-43l-55 153h-205l-54 -153h-43l180 483h40zM290 186l-90 254l-91 -254h181zM289 589q-5 -27 -24 -44q-26 -24 -65 -24t-66 24q-18 17 -24 44h35q4 -11 11 -19q16 -18 44 -18t43 18q8 8 12 19h34zM220.599 600.01h-27.9004l-52.2021 72.9014l35.1016 9.00098z" />
    <glyph glyph-name="uni1EB1" unicode="&#x103;&#x300;" horiz-adv-x="344" 
d="M304 0l-35 -7l-14 55q-46 -57 -121 -57q-44 0 -76 25t-32 69q0 127 221 127h6v6q0 33 -15 58q-23 40 -78 40q-35 0 -108 -23l-5 36q56 18 116 18q129 0 129 -142v-122q0 -42 12 -83zM253 110v68q-186 0 -186 -86q0 -33 20 -50.5t50 -17.5q79 0 111 67q5 11 5 19zM261 453
q-5 -27 -24 -44q-26 -24 -65 -24t-66 24q-18 17 -24 44h35q4 -11 11 -19q16 -18 44 -18t43 18q8 8 12 19h34zM192.599 464.01h-27.9004l-52.2021 72.9014l35.1016 9.00098z" />
    <glyph glyph-name="uni1EB2" unicode="&#x102;&#x309;" horiz-adv-x="400" 
d="M400 0h-43l-55 153h-205l-54 -153h-43l180 483h40zM290 186l-90 254l-91 -254h181zM289 589q-5 -27 -24 -44q-26 -24 -65 -24t-66 24q-18 17 -24 44h35q4 -11 11 -19q16 -18 44 -18t43 18q8 8 12 19h34zM258.897 678.911q0 -27.9004 -25.2002 -47.7012
q-25.2012 -19.7998 -25.2012 -30.6006h-27.9004q0.899414 23.4004 25.6504 41.4014q24.751 18 24.751 36.9004q0 12.6006 -8.55078 19.3506q-8.5498 6.75 -22.9502 6.75q-23.4004 0 -40.501 -25.2002l-17.1006 13.5q19.8008 36.001 62.1016 36.001
q24.3008 0 39.6016 -13.0498q15.2998 -13.0508 15.2998 -37.3516z" />
    <glyph glyph-name="uni1EB3" unicode="&#x103;&#x309;" horiz-adv-x="344" 
d="M304 0l-35 -7l-14 55q-46 -57 -121 -57q-44 0 -76 25t-32 69q0 127 221 127h6v6q0 33 -15 58q-23 40 -78 40q-35 0 -108 -23l-5 36q56 18 116 18q129 0 129 -142v-122q0 -42 12 -83zM253 110v68q-186 0 -186 -86q0 -33 20 -50.5t50 -17.5q79 0 111 67q5 11 5 19zM261 453
q-5 -27 -24 -44q-26 -24 -65 -24t-66 24q-18 17 -24 44h35q4 -11 11 -19q16 -18 44 -18t43 18q8 8 12 19h34zM231.897 545.911q0 -27.9004 -25.2002 -47.7012q-25.2012 -19.7998 -25.2012 -30.6006h-27.9004q0.899414 23.4004 25.6504 41.4014q24.751 18 24.751 36.9004
q0 12.6006 -8.55078 19.3506q-8.5498 6.75 -22.9502 6.75q-23.4004 0 -40.501 -25.2002l-17.1006 13.5q19.8008 36.001 62.1016 36.001q24.3008 0 39.6016 -13.0498q15.2998 -13.0508 15.2998 -37.3516z" />
    <glyph glyph-name="uni1EB4" unicode="&#x102;&#x303;" horiz-adv-x="400" 
d="M400 0h-43l-55 153h-205l-54 -153h-43l180 483h40zM290 186l-90 254l-91 -254h181zM289 589q-5 -27 -24 -44q-26 -24 -65 -24t-66 24q-18 17 -24 44h35q4 -11 11 -19q16 -18 44 -18t43 18q8 8 12 19h34zM286 684q-2 -60 -50 -60q-10 0 -21 5t-21.5 11.5t-20 11.5t-16.5 5
q-8 0 -15 -9t-8 -26h-25q1 30 14.5 45t34.5 15q11 0 21.5 -5t21 -11.5t20.5 -11.5t20 -5q17 0 20 35h25z" />
    <glyph glyph-name="uni1EB5" unicode="&#x103;&#x303;" horiz-adv-x="344" 
d="M304 0l-35 -7l-14 55q-46 -57 -121 -57q-44 0 -76 25t-32 69q0 127 221 127h6v6q0 33 -15 58q-23 40 -78 40q-35 0 -108 -23l-5 36q56 18 116 18q129 0 129 -142v-122q0 -42 12 -83zM253 110v68q-186 0 -186 -86q0 -33 20 -50.5t50 -17.5q79 0 111 67q5 11 5 19zM261 453
q-5 -27 -24 -44q-26 -24 -65 -24t-66 24q-18 17 -24 44h35q4 -11 11 -19q16 -18 44 -18t43 18q8 8 12 19h34zM258 546q-2 -60 -50 -60q-10 0 -21 5t-21.5 11.5t-20 11.5t-16.5 5q-8 0 -15 -9t-8 -26h-25q1 30 14.5 45t34.5 15q11 0 21.5 -5t21 -11.5t20.5 -11.5t20 -5
q17 0 20 35h25z" />
    <glyph glyph-name="uni1EB6" unicode="&#x102;&#x323;" horiz-adv-x="400" 
d="M400 0h-43l-55 153h-205l-54 -153h-43l180 483h40zM290 186l-90 254l-91 -254h181zM229 -77q0 -12 -8 -20.5t-21 -8.5q-12 0 -20.5 8.5t-8.5 20.5q0 10 8.5 19t20.5 9q13 0 21 -9t8 -19zM289 589q-5 -27 -24 -44q-26 -24 -65 -24t-66 24q-18 17 -24 44h35q4 -11 11 -19
q16 -18 44 -18t43 18q8 8 12 19h34z" />
    <glyph glyph-name="uni1EB7" unicode="&#x103;&#x323;" horiz-adv-x="344" 
d="M304 0l-35 -7l-14 55q-46 -57 -121 -57q-44 0 -76 25t-32 69q0 127 221 127h6v6q0 33 -15 58q-23 40 -78 40q-35 0 -108 -23l-5 36q56 18 116 18q129 0 129 -142v-122q0 -42 12 -83zM253 110v68q-186 0 -186 -86q0 -33 20 -50.5t50 -17.5q79 0 111 67q5 11 5 19zM201 -77
q0 -12 -8 -20.5t-21 -8.5q-12 0 -20.5 8.5t-8.5 20.5q0 10 8.5 19t20.5 9q13 0 21 -9t8 -19zM261 453q-5 -27 -24 -44q-26 -24 -65 -24t-66 24q-18 17 -24 44h35q4 -11 11 -19q16 -18 44 -18t43 18q8 8 12 19h34z" />
    <glyph glyph-name="uni1EB8" unicode="E&#x323;" horiz-adv-x="351" 
d="M313 0h-259v476h259v-33h-220v-175h196v-33h-196v-202h220v-33zM204 -77q0 -12 -8 -20.5t-21 -8.5q-12 0 -20.5 8.5t-8.5 20.5q0 10 8.5 19t20.5 9q13 0 21 -9t8 -19z" />
    <glyph glyph-name="uni1EB9" unicode="e&#x323;" horiz-adv-x="374" 
d="M324 48l3 -33q-58 -24 -126 -24q-78 0 -126 48t-48 122q0 84 48 135t122 51q143 0 146 -179h-278q2 -68 40.5 -105.5t99.5 -37.5q60 0 119 23zM306 199q-1 41 -23 73q-30 44 -91 44q-55 0 -90 -40q-28 -32 -35 -77h239zM216 -77q0 -12 -8 -20.5t-21 -8.5q-12 0 -20.5 8.5
t-8.5 20.5q0 10 8.5 19t20.5 9q13 0 21 -9t8 -19z" />
    <glyph glyph-name="uni1EBA" unicode="E&#x309;" horiz-adv-x="351" 
d="M313 0h-259v476h259v-33h-220v-175h196v-33h-196v-202h220v-33zM248 607q0 -31 -28 -53t-28 -34h-31q1 26 28.5 46t27.5 41q0 14 -9.5 21.5t-25.5 7.5q-26 0 -45 -28l-19 15q22 40 69 40q27 0 44 -14.5t17 -41.5z" />
    <glyph glyph-name="uni1EBB" unicode="e&#x309;" horiz-adv-x="374" 
d="M324 48l3 -33q-58 -24 -126 -24q-78 0 -126 48t-48 122q0 84 48 135t122 51q143 0 146 -179h-278q2 -68 40.5 -105.5t99.5 -37.5q60 0 119 23zM306 199q-1 41 -23 73q-30 44 -91 44q-55 0 -90 -40q-28 -32 -35 -77h239zM245.897 461.911q0 -27.9004 -25.2002 -47.7012
q-25.2012 -19.7998 -25.2012 -30.6006h-27.9004q0.899414 23.4004 25.6504 41.4014q24.751 18 24.751 36.9004q0 12.6006 -8.55078 19.3506q-8.5498 6.75 -22.9502 6.75q-23.4004 0 -40.501 -25.2002l-17.1006 13.5q19.8008 36.001 62.1016 36.001
q24.3008 0 39.6016 -13.0498q15.2998 -13.0508 15.2998 -37.3516z" />
    <glyph glyph-name="uni1EBC" unicode="E&#x303;" horiz-adv-x="351" 
d="M313 0h-259v476h259v-33h-220v-175h196v-33h-196v-202h220v-33zM262 588q-2 -60 -50 -60q-10 0 -21 5t-21.5 11.5t-20 11.5t-16.5 5q-8 0 -15 -9t-8 -26h-25q1 30 14.5 45t34.5 15q11 0 21.5 -5t21 -11.5t20.5 -11.5t20 -5q17 0 20 35h25z" />
    <glyph glyph-name="uni1EBD" unicode="e&#x303;" horiz-adv-x="374" 
d="M324 26l3 -33q-58 -24 -126 -24q-78 0 -126 48t-48 122q0 84 48 135t122 51q143 0 146 -179h-278q2 -68 40.5 -105.5t99.5 -37.5q60 0 119 23zM306 177q-1 41 -23 73q-30 44 -91 44q-55 0 -90 -40q-28 -32 -35 -77h239zM273 430q-2 -60 -50 -60q-10 0 -21 5t-21.5 11.5
t-20 11.5t-16.5 5q-8 0 -15 -9t-8 -26h-25q1 30 14.5 45t34.5 15q11 0 21.5 -5t21 -11.5t20.5 -11.5t20 -5q17 0 20 35h25z" />
    <glyph glyph-name="uni1EBE" unicode="&#xca;&#x301;" horiz-adv-x="351" 
d="M313 0h-259v476h259v-33h-220v-175h196v-33h-196v-202h220v-33zM189 606l69 -78h-37l-46 52l-46 -52h-37l69 78h28zM274.396 580.01h-27.9004l45.001 81.9023l35.1016 -9.00098z" />
    <glyph glyph-name="uni1EBF" unicode="&#xea;&#x301;" horiz-adv-x="374" 
d="M324 48l3 -33q-58 -24 -126 -24q-78 0 -126 48t-48 122q0 84 48 135t122 51q143 0 146 -179h-278q2 -68 40.5 -105.5t99.5 -37.5q60 0 119 23zM306 199q-1 41 -23 73q-30 44 -91 44q-55 0 -90 -40q-28 -32 -35 -77h239zM201 470l69 -78h-37l-46 52l-46 -52h-37l69 78h28z
M296.396 446.01h-27.9004l45.001 81.9023l35.1016 -9.00098z" />
    <glyph glyph-name="uni1EC0" unicode="&#xca;&#x300;" horiz-adv-x="351" 
d="M313 0h-259v476h259v-33h-220v-175h196v-33h-196v-202h220v-33zM189 606l69 -78h-37l-46 52l-46 -52h-37l69 78h28zM297.599 580.01h-27.9004l-52.2021 72.9014l35.1016 9.00098z" />
    <glyph glyph-name="uni1EC1" unicode="&#xea;&#x300;" horiz-adv-x="374" 
d="M324 48l3 -33q-58 -24 -126 -24q-78 0 -126 48t-48 122q0 84 48 135t122 51q143 0 146 -179h-278q2 -68 40.5 -105.5t99.5 -37.5q60 0 119 23zM306 199q-1 41 -23 73q-30 44 -91 44q-55 0 -90 -40q-28 -32 -35 -77h239zM201 470l69 -78h-37l-46 52l-46 -52h-37l69 78h28z
M321 437h-31l-58 81l39 10z" />
    <glyph glyph-name="uni1EC2" unicode="&#xca;&#x309;" horiz-adv-x="351" 
d="M313 0h-259v476h259v-33h-220v-175h196v-33h-196v-202h220v-33zM189 606l69 -78h-37l-46 52l-46 -52h-37l69 78h28zM341.897 655.911q0 -27.9004 -25.2002 -47.7012q-25.2012 -19.7998 -25.2012 -30.6006h-27.9004q0.899414 23.4004 25.6504 41.4014
q24.751 18 24.751 36.9004q0 12.6006 -8.55078 19.3506q-8.5498 6.75 -22.9502 6.75q-23.4004 0 -40.501 -25.2002l-17.1006 13.5q19.8008 36.001 62.1016 36.001q24.3008 0 39.6016 -13.0498q15.2998 -13.0508 15.2998 -37.3516z" />
    <glyph glyph-name="uni1EC3" unicode="&#xea;&#x309;" horiz-adv-x="374" 
d="M324 48l3 -33q-58 -24 -126 -24q-78 0 -126 48t-48 122q0 84 48 135t122 51q143 0 146 -179h-278q2 -68 40.5 -105.5t99.5 -37.5q60 0 119 23zM306 199q-1 41 -23 73q-30 44 -91 44q-55 0 -90 -40q-28 -32 -35 -77h239zM201 470l69 -78h-37l-46 52l-46 -52h-37l69 78h28z
M349.897 533.911q0 -27.9004 -25.2002 -47.7012q-25.2012 -19.7998 -25.2012 -30.6006h-27.9004q0.899414 23.4004 25.6504 41.4014q24.751 18 24.751 36.9004q0 12.6006 -8.55078 19.3506q-8.5498 6.75 -22.9502 6.75q-23.4004 0 -40.501 -25.2002l-17.1006 13.5
q19.8008 36.001 62.1016 36.001q24.3008 0 39.6016 -13.0498q15.2998 -13.0508 15.2998 -37.3516z" />
    <glyph glyph-name="uni1EC4" unicode="&#xca;&#x303;" horiz-adv-x="351" 
d="M313 0h-259v476h259v-33h-220v-175h196v-33h-196v-202h220v-33zM189 606l69 -78h-37l-46 52l-46 -52h-37l69 78h28zM261 694q-2 -60 -50 -60q-10 0 -21 5t-21.5 11.5t-20 11.5t-16.5 5q-8 0 -15 -9t-8 -26h-25q1 30 14.5 45t34.5 15q11 0 21.5 -5t21 -11.5t20.5 -11.5
t20 -5q17 0 20 35h25z" />
    <glyph glyph-name="uni1EC5" unicode="&#xea;&#x303;" horiz-adv-x="374" 
d="M324 48l3 -33q-58 -24 -126 -24q-78 0 -126 48t-48 122q0 84 48 135t122 51q143 0 146 -179h-278q2 -68 40.5 -105.5t99.5 -37.5q60 0 119 23zM306 199q-1 41 -23 73q-30 44 -91 44q-55 0 -90 -40q-28 -32 -35 -77h239zM201 470l69 -78h-37l-46 52l-46 -52h-37l69 78h28z
M273 557q-2 -60 -50 -60q-10 0 -21 5t-21.5 11.5t-20 11.5t-16.5 5q-8 0 -15 -9t-8 -26h-25q1 30 14.5 45t34.5 15q11 0 21.5 -5t21 -11.5t20.5 -11.5t20 -5q17 0 20 35h25z" />
    <glyph glyph-name="uni1EC6" unicode="&#xca;&#x323;" horiz-adv-x="351" 
d="M313 0h-259v476h259v-33h-220v-175h196v-33h-196v-202h220v-33zM204 -77q0 -12 -8 -20.5t-21 -8.5q-12 0 -20.5 8.5t-8.5 20.5q0 10 8.5 19t20.5 9q13 0 21 -9t8 -19zM189 606l69 -78h-37l-46 52l-46 -52h-37l69 78h28z" />
    <glyph glyph-name="uni1EC7" unicode="&#xea;&#x323;" horiz-adv-x="374" 
d="M324 48l3 -33q-58 -24 -126 -24q-78 0 -126 48t-48 122q0 84 48 135t122 51q143 0 146 -179h-278q2 -68 40.5 -105.5t99.5 -37.5q60 0 119 23zM306 199q-1 41 -23 73q-30 44 -91 44q-55 0 -90 -40q-28 -32 -35 -77h239zM216 -77q0 -12 -8 -20.5t-21 -8.5q-12 0 -20.5 8.5
t-8.5 20.5q0 10 8.5 19t20.5 9q13 0 21 -9t8 -19zM201 470l69 -78h-37l-46 52l-46 -52h-37l69 78h28z" />
    <glyph glyph-name="uni1EC8" unicode="I&#x309;" horiz-adv-x="147" 
d="M93 0h-39v476h39v-476zM146 607q0 -31 -28 -53t-28 -34h-31q1 26 28.5 46t27.5 41q0 14 -9.5 21.5t-25.5 7.5q-26 0 -45 -28l-19 15q22 40 69 40q27 0 44 -14.5t17 -41.5z" />
    <glyph glyph-name="uni1EC9" unicode="i&#x309;" horiz-adv-x="143" 
d="M144 471q0 -31 -28 -53t-28 -34h-31q1 26 28.5 46t27.5 41q0 14 -9.5 21.5t-25.5 7.5q-26 0 -45 -28l-19 15q22 40 69 40q27 0 44 -14.5t17 -41.5zM90 0h-38v340h38v-340z" />
    <glyph glyph-name="uni1ECA" unicode="I&#x323;" horiz-adv-x="147" 
d="M93 0h-39v476h39v-476zM103 -77q0 -12 -8 -20.5t-21 -8.5q-12 0 -20.5 8.5t-8.5 20.5q0 10 8.5 19t20.5 9q13 0 21 -9t8 -19z" />
    <glyph glyph-name="uni1ECB" unicode="i&#x323;" horiz-adv-x="143" 
d="M91 0h-39v340h39v-340zM102 443q0 -14 -9 -22.5t-23 -8.5t-22.5 8.5t-8.5 22.5t8.5 23t22.5 9t23 -9t9 -23zM101 -77q0 -12 -8 -20.5t-21 -8.5q-12 0 -20.5 8.5t-8.5 20.5q0 10 8.5 19t20.5 9q13 0 21 -9t8 -19z" />
    <glyph glyph-name="uni1ECC" unicode="O&#x323;" horiz-adv-x="486" 
d="M464 237q0 -107 -61.5 -177t-159.5 -70t-159.5 70t-61.5 177t61.5 177t159.5 70t159.5 -70t61.5 -177zM425 237q0 88 -51 150.5t-131 62.5t-131 -62.5t-51 -150.5t51 -150.5t131 -62.5t131 62.5t51 150.5zM272 -77q0 -12 -8 -20.5t-21 -8.5q-12 0 -20.5 8.5t-8.5 20.5
q0 10 8.5 19t20.5 9q13 0 21 -9t8 -19z" />
    <glyph glyph-name="uni1ECD" unicode="o&#x323;" horiz-adv-x="398" 
d="M370 169q0 -75 -47 -127t-124 -52t-124 52t-47 127t47 126.5t124 51.5t124 -51.5t47 -126.5zM332 169q0 62 -37.5 103.5t-95.5 41.5t-95.5 -41.5t-37.5 -103.5t37.5 -104t95.5 -42t95.5 42t37.5 104zM228 -77q0 -12 -8 -20.5t-21 -8.5q-12 0 -20.5 8.5t-8.5 20.5
q0 10 8.5 19t20.5 9q13 0 21 -9t8 -19z" />
    <glyph glyph-name="uni1ECE" unicode="O&#x309;" horiz-adv-x="486" 
d="M464 237q0 -107 -61.5 -177t-159.5 -70t-159.5 70t-61.5 177t61.5 177t159.5 70t159.5 -70t61.5 -177zM425 237q0 88 -51 150.5t-131 62.5t-131 -62.5t-51 -150.5t51 -150.5t131 -62.5t131 62.5t51 150.5zM315 607q0 -31 -28 -53t-28 -34h-31q1 26 28.5 46t27.5 41
q0 14 -9.5 21.5t-25.5 7.5q-26 0 -45 -28l-19 15q22 40 69 40q27 0 44 -14.5t17 -41.5z" />
    <glyph glyph-name="uni1ECF" unicode="o&#x309;" horiz-adv-x="398" 
d="M370 169q0 -75 -47 -127t-124 -52t-124 52t-47 127t47 126.5t124 51.5t124 -51.5t47 -126.5zM332 169q0 62 -37.5 103.5t-95.5 41.5t-95.5 -41.5t-37.5 -103.5t37.5 -104t95.5 -42t95.5 42t37.5 104zM271 471q0 -31 -28 -53t-28 -34h-31q1 26 28.5 46t27.5 41
q0 14 -9.5 21.5t-25.5 7.5q-26 0 -45 -28l-19 15q22 40 69 40q27 0 44 -14.5t17 -41.5z" />
    <glyph glyph-name="uni1ED0" unicode="&#xd4;&#x301;" horiz-adv-x="486" 
d="M464 237q0 -107 -61.5 -177t-159.5 -70t-159.5 70t-61.5 177t61.5 177t159.5 70t159.5 -70t61.5 -177zM425 237q0 88 -51 150.5t-131 62.5t-131 -62.5t-51 -150.5t51 -150.5t131 -62.5t131 62.5t51 150.5zM257 606l69 -78h-37l-46 52l-46 -52h-37l69 78h28z
M363.396 580.01h-27.9004l45.001 81.9023l35.1016 -9.00098z" />
    <glyph glyph-name="uni1ED1" unicode="&#xf4;&#x301;" horiz-adv-x="398" 
d="M370 169q0 -75 -47 -127t-124 -52t-124 52t-47 127t47 126.5t124 51.5t124 -51.5t47 -126.5zM332 169q0 62 -37.5 103.5t-95.5 41.5t-95.5 -41.5t-37.5 -103.5t37.5 -104t95.5 -42t95.5 42t37.5 104zM213 470l69 -78h-37l-46 52l-46 -52h-37l69 78h28zM311.396 446.01
h-27.9004l45.001 81.9023l35.1016 -9.00098z" />
    <glyph glyph-name="uni1ED2" unicode="&#xd4;&#x300;" horiz-adv-x="486" 
d="M464 237q0 -107 -61.5 -177t-159.5 -70t-159.5 70t-61.5 177t61.5 177t159.5 70t159.5 -70t61.5 -177zM425 237q0 88 -51 150.5t-131 62.5t-131 -62.5t-51 -150.5t51 -150.5t131 -62.5t131 62.5t51 150.5zM257 606l69 -78h-37l-46 52l-46 -52h-37l69 78h28z
M384.599 580.01h-27.9004l-52.2021 72.9014l35.1016 9.00098z" />
    <glyph glyph-name="uni1ED3" unicode="&#xf4;&#x300;" horiz-adv-x="398" 
d="M370 169q0 -75 -47 -127t-124 -52t-124 52t-47 127t47 126.5t124 51.5t124 -51.5t47 -126.5zM332 169q0 62 -37.5 103.5t-95.5 41.5t-95.5 -41.5t-37.5 -103.5t37.5 -104t95.5 -42t95.5 42t37.5 104zM213 470l69 -78h-37l-46 52l-46 -52h-37l69 78h28zM334.599 446.01
h-27.9004l-52.2021 72.9014l35.1016 9.00098z" />
    <glyph glyph-name="uni1ED4" unicode="&#xd4;&#x309;" horiz-adv-x="486" 
d="M464 237q0 -107 -61.5 -177t-159.5 -70t-159.5 70t-61.5 177t61.5 177t159.5 70t159.5 -70t61.5 -177zM425 237q0 88 -51 150.5t-131 62.5t-131 -62.5t-51 -150.5t51 -150.5t131 -62.5t131 62.5t51 150.5zM257 606l69 -78h-37l-46 52l-46 -52h-37l69 78h28z
M413.897 655.911q0 -27.9004 -25.2002 -47.7012q-25.2012 -19.7998 -25.2012 -30.6006h-27.9004q0.899414 23.4004 25.6504 41.4014q24.751 18 24.751 36.9004q0 12.6006 -8.55078 19.3506q-8.5498 6.75 -22.9502 6.75q-23.4004 0 -40.501 -25.2002l-17.1006 13.5
q19.8008 36.001 62.1016 36.001q24.3008 0 39.6016 -13.0498q15.2998 -13.0508 15.2998 -37.3516z" />
    <glyph glyph-name="uni1ED5" unicode="&#xf4;&#x309;" horiz-adv-x="398" 
d="M370 169q0 -75 -47 -127t-124 -52t-124 52t-47 127t47 126.5t124 51.5t124 -51.5t47 -126.5zM332 169q0 62 -37.5 103.5t-95.5 41.5t-95.5 -41.5t-37.5 -103.5t37.5 -104t95.5 -42t95.5 42t37.5 104zM213 470l69 -78h-37l-46 52l-46 -52h-37l69 78h28zM358.897 533.911
q0 -27.9004 -25.2002 -47.7012q-25.2012 -19.7998 -25.2012 -30.6006h-27.9004q0.899414 23.4004 25.6504 41.4014q24.751 18 24.751 36.9004q0 12.6006 -8.55078 19.3506q-8.5498 6.75 -22.9502 6.75q-23.4004 0 -40.501 -25.2002l-17.1006 13.5
q19.8008 36.001 62.1016 36.001q24.3008 0 39.6016 -13.0498q15.2998 -13.0508 15.2998 -37.3516z" />
    <glyph glyph-name="uni1ED6" unicode="&#xd4;&#x303;" horiz-adv-x="486" 
d="M464 237q0 -107 -61.5 -177t-159.5 -70t-159.5 70t-61.5 177t61.5 177t159.5 70t159.5 -70t61.5 -177zM425 237q0 88 -51 150.5t-131 62.5t-131 -62.5t-51 -150.5t51 -150.5t131 -62.5t131 62.5t51 150.5zM257 606l69 -78h-37l-46 52l-46 -52h-37l69 78h28zM329 694
q-2 -60 -50 -60q-10 0 -21 5t-21.5 11.5t-20 11.5t-16.5 5q-8 0 -15 -9t-8 -26h-25q1 30 14.5 45t34.5 15q11 0 21.5 -5t21 -11.5t20.5 -11.5t20 -5q17 0 20 35h25z" />
    <glyph glyph-name="uni1ED7" unicode="&#xf4;&#x303;" horiz-adv-x="398" 
d="M370 169q0 -75 -47 -127t-124 -52t-124 52t-47 127t47 126.5t124 51.5t124 -51.5t47 -126.5zM332 169q0 62 -37.5 103.5t-95.5 41.5t-95.5 -41.5t-37.5 -103.5t37.5 -104t95.5 -42t95.5 42t37.5 104zM213 470l69 -78h-37l-46 52l-46 -52h-37l69 78h28zM285 557
q-2 -60 -50 -60q-10 0 -21 5t-21.5 11.5t-20 11.5t-16.5 5q-8 0 -15 -9t-8 -26h-25q1 30 14.5 45t34.5 15q11 0 21.5 -5t21 -11.5t20.5 -11.5t20 -5q17 0 20 35h25z" />
    <glyph glyph-name="uni1ED8" unicode="&#xd4;&#x323;" horiz-adv-x="486" 
d="M464 237q0 -107 -61.5 -177t-159.5 -70t-159.5 70t-61.5 177t61.5 177t159.5 70t159.5 -70t61.5 -177zM425 237q0 88 -51 150.5t-131 62.5t-131 -62.5t-51 -150.5t51 -150.5t131 -62.5t131 62.5t51 150.5zM272 -77q0 -12 -8 -20.5t-21 -8.5q-12 0 -20.5 8.5t-8.5 20.5
q0 10 8.5 19t20.5 9q13 0 21 -9t8 -19zM257 606l69 -78h-37l-46 52l-46 -52h-37l69 78h28z" />
    <glyph glyph-name="uni1ED9" unicode="&#xf4;&#x323;" horiz-adv-x="398" 
d="M370 169q0 -75 -47 -127t-124 -52t-124 52t-47 127t47 126.5t124 51.5t124 -51.5t47 -126.5zM332 169q0 62 -37.5 103.5t-95.5 41.5t-95.5 -41.5t-37.5 -103.5t37.5 -104t95.5 -42t95.5 42t37.5 104zM228 -77q0 -12 -8 -20.5t-21 -8.5q-12 0 -20.5 8.5t-8.5 20.5
q0 10 8.5 19t20.5 9q13 0 21 -9t8 -19zM213 470l69 -78h-37l-46 52l-46 -52h-37l69 78h28z" />
    <glyph glyph-name="uni1EDA" unicode="&#x1a0;&#x301;" horiz-adv-x="486" 
d="M464 237q0 -107 -61.5 -177t-159.5 -70t-159.5 70t-61.5 177t61.5 177t159.5 70q87 0 147 -57q42 45 42 94h32q0 -22 -14 -52q-17 -35 -44 -59q58 -69 58 -173zM425 237q0 88 -51 150.5t-131 62.5t-131 -62.5t-51 -150.5t51 -150.5t131 -62.5t131 62.5t51 150.5zM225 526
h-31l50 91l39 -10z" />
    <glyph glyph-name="uni1EDB" unicode="&#x1a1;&#x301;" horiz-adv-x="398" 
d="M370 169q0 -75 -47 -127t-124 -52t-124 52t-47 127t47 126.5t124 51.5q67 0 115 -43q36 34 39 94h33q-2 -61 -56 -111q40 -50 40 -118zM332 169q0 62 -37.5 103.5t-95.5 41.5t-95.5 -41.5t-37.5 -103.5t37.5 -104t95.5 -42t95.5 42t37.5 104zM181 390h-31l50 91l39 -10z
" />
    <glyph glyph-name="uni1EDC" unicode="&#x1a0;&#x300;" horiz-adv-x="486" 
d="M464 237q0 -107 -61.5 -177t-159.5 -70t-159.5 70t-61.5 177t61.5 177t159.5 70q87 0 147 -57q42 45 42 94h32q0 -22 -14 -52q-17 -35 -44 -59q58 -69 58 -173zM425 237q0 88 -51 150.5t-131 62.5t-131 -62.5t-51 -150.5t51 -150.5t131 -62.5t131 62.5t51 150.5zM293 526
h-31l-58 81l39 10z" />
    <glyph glyph-name="uni1EDD" unicode="&#x1a1;&#x300;" horiz-adv-x="398" 
d="M370 169q0 -75 -47 -127t-124 -52t-124 52t-47 127t47 126.5t124 51.5q67 0 115 -43q36 34 39 94h33q-2 -61 -56 -111q40 -50 40 -118zM332 169q0 62 -37.5 103.5t-95.5 41.5t-95.5 -41.5t-37.5 -103.5t37.5 -104t95.5 -42t95.5 42t37.5 104zM249 390h-31l-58 81l39 10z
" />
    <glyph glyph-name="uni1EDE" unicode="&#x1a0;&#x309;" horiz-adv-x="486" 
d="M464 237q0 -107 -61.5 -177t-159.5 -70t-159.5 70t-61.5 177t61.5 177t159.5 70q87 0 147 -57q42 45 42 94h32q0 -22 -14 -52q-17 -35 -44 -59q58 -69 58 -173zM425 237q0 88 -51 150.5t-131 62.5t-131 -62.5t-51 -150.5t51 -150.5t131 -62.5t131 62.5t51 150.5zM315 607
q0 -31 -28 -53t-28 -34h-31q1 26 28.5 46t27.5 41q0 14 -9.5 21.5t-25.5 7.5q-26 0 -45 -28l-19 15q22 40 69 40q27 0 44 -14.5t17 -41.5z" />
    <glyph glyph-name="uni1EDF" unicode="&#x1a1;&#x309;" horiz-adv-x="398" 
d="M370 169q0 -75 -47 -127t-124 -52t-124 52t-47 127t47 126.5t124 51.5q67 0 115 -43q36 34 39 94h33q-2 -61 -56 -111q40 -50 40 -118zM332 169q0 62 -37.5 103.5t-95.5 41.5t-95.5 -41.5t-37.5 -103.5t37.5 -104t95.5 -42t95.5 42t37.5 104zM257.897 461.911
q0 -27.9004 -25.2002 -47.7012q-25.2012 -19.7998 -25.2012 -30.6006h-27.9004q0.899414 23.4004 25.6504 41.4014q24.751 18 24.751 36.9004q0 12.6006 -8.55078 19.3506q-8.5498 6.75 -22.9502 6.75q-23.4004 0 -40.501 -25.2002l-17.1006 13.5
q19.8008 36.001 62.1016 36.001q24.3008 0 39.6016 -13.0498q15.2998 -13.0508 15.2998 -37.3516z" />
    <glyph glyph-name="uni1EE0" unicode="&#x1a0;&#x303;" horiz-adv-x="486" 
d="M464 237q0 -107 -61.5 -177t-159.5 -70t-159.5 70t-61.5 177t61.5 177t159.5 70q87 0 147 -57q42 45 42 94h32q0 -22 -14 -52q-17 -35 -44 -59q58 -69 58 -173zM425 237q0 88 -51 150.5t-131 62.5t-131 -62.5t-51 -150.5t51 -150.5t131 -62.5t131 62.5t51 150.5zM329 588
q-2 -60 -50 -60q-10 0 -21 5t-21.5 11.5t-20 11.5t-16.5 5q-8 0 -15 -9t-8 -26h-25q1 30 14.5 45t34.5 15q11 0 21.5 -5t21 -11.5t20.5 -11.5t20 -5q17 0 20 35h25z" />
    <glyph glyph-name="uni1EE1" unicode="&#x1a1;&#x303;" horiz-adv-x="398" 
d="M370 169q0 -75 -47 -127t-124 -52t-124 52t-47 127t47 126.5t124 51.5q67 0 115 -43q36 34 39 94h33q-2 -61 -56 -111q40 -50 40 -118zM332 169q0 62 -37.5 103.5t-95.5 41.5t-95.5 -41.5t-37.5 -103.5t37.5 -104t95.5 -42t95.5 42t37.5 104zM285 452q-2 -60 -50 -60
q-10 0 -21 5t-21.5 11.5t-20 11.5t-16.5 5q-8 0 -15 -9t-8 -26h-25q1 30 14.5 45t34.5 15q11 0 21.5 -5t21 -11.5t20.5 -11.5t20 -5q17 0 20 35h25z" />
    <glyph glyph-name="uni1EE2" unicode="&#x1a0;&#x323;" horiz-adv-x="486" 
d="M464 237q0 -107 -61.5 -177t-159.5 -70t-159.5 70t-61.5 177t61.5 177t159.5 70q87 0 147 -57q42 45 42 94h32q0 -22 -14 -52q-17 -35 -44 -59q58 -69 58 -173zM425 237q0 88 -51 150.5t-131 62.5t-131 -62.5t-51 -150.5t51 -150.5t131 -62.5t131 62.5t51 150.5zM272 -77
q0 -12 -8 -20.5t-21 -8.5q-12 0 -20.5 8.5t-8.5 20.5q0 10 8.5 19t20.5 9q13 0 21 -9t8 -19z" />
    <glyph glyph-name="uni1EE3" unicode="&#x1a1;&#x323;" horiz-adv-x="398" 
d="M370 169q0 -75 -47 -127t-124 -52t-124 52t-47 127t47 126.5t124 51.5q67 0 115 -43q36 34 39 94h33q-2 -61 -56 -111q40 -50 40 -118zM332 169q0 62 -37.5 103.5t-95.5 41.5t-95.5 -41.5t-37.5 -103.5t37.5 -104t95.5 -42t95.5 42t37.5 104zM228 -77q0 -12 -8 -20.5
t-21 -8.5q-12 0 -20.5 8.5t-8.5 20.5q0 10 8.5 19t20.5 9q13 0 21 -9t8 -19z" />
    <glyph glyph-name="uni1EE4" unicode="U&#x323;" horiz-adv-x="466" 
d="M412 201q0 -210 -179 -210t-179 210v275h39v-274q0 -94 38.5 -136t101.5 -42q64 0 102.5 42t37.5 136v274h39v-275zM262 -77q0 -12 -8 -20.5t-21 -8.5q-12 0 -20.5 8.5t-8.5 20.5q0 10 8.5 19t20.5 9q13 0 21 -9t8 -19z" />
    <glyph glyph-name="uni1EE5" unicode="u&#x323;" horiz-adv-x="390" 
d="M355 1l-37 -8q-12 34 -16 66q-44 -68 -128 -68q-122 0 -122 158v191h39v-184q0 -131 92 -131q43 0 78 28q38 32 38 81v206h39v-257q0 -37 17 -82zM224 -77q0 -12 -8 -20.5t-21 -8.5q-12 0 -20.5 8.5t-8.5 20.5q0 10 8.5 19t20.5 9q13 0 21 -9t8 -19z" />
    <glyph glyph-name="uni1EE6" unicode="U&#x309;" horiz-adv-x="466" 
d="M412 201q0 -210 -179 -210t-179 210v275h39v-274q0 -94 38.5 -136t101.5 -42q64 0 102.5 42t37.5 136v274h39v-275zM305 607q0 -31 -28 -53t-28 -34h-31q1 26 28.5 46t27.5 41q0 14 -9.5 21.5t-25.5 7.5q-26 0 -45 -28l-19 15q22 40 69 40q27 0 44 -14.5t17 -41.5z" />
    <glyph glyph-name="uni1EE7" unicode="u&#x309;" horiz-adv-x="390" 
d="M355 1l-37 -8q-12 34 -16 66q-44 -68 -128 -68q-122 0 -122 158v191h39v-184q0 -131 92 -131q43 0 78 28q38 32 38 81v206h39v-257q0 -37 17 -82zM253.897 461.911q0 -27.9004 -25.2002 -47.7012q-25.2012 -19.7998 -25.2012 -30.6006h-27.9004
q0.899414 23.4004 25.6504 41.4014q24.751 18 24.751 36.9004q0 12.6006 -8.55078 19.3506q-8.5498 6.75 -22.9502 6.75q-23.4004 0 -40.501 -25.2002l-17.1006 13.5q19.8008 36.001 62.1016 36.001q24.3008 0 39.6016 -13.0498q15.2998 -13.0508 15.2998 -37.3516z" />
    <glyph glyph-name="uni1EE8" unicode="&#x1af;&#x301;" horiz-adv-x="466" 
d="M412 201q0 -210 -179 -210t-179 210v275h39v-274q0 -94 38.5 -136t101.5 -42q64 0 102.5 42t37.5 136v274h39v-44q45 39 48 89h32q-9 -71 -80 -119v-201zM238 526h-31l50 91l39 -10z" />
    <glyph glyph-name="uni1EE9" unicode="&#x1b0;&#x301;" horiz-adv-x="373" 
d="M355 1l-37 -8q-12 34 -16 66q-44 -68 -128 -68q-122 0 -122 158v191h39v-184q0 -131 92 -131q43 0 78 28q38 32 38 81v206h39v-41q40 38 44 99h32q-7 -82 -76 -127v-188q0 -37 17 -82zM191 390h-31l50 91l39 -10z" />
    <glyph glyph-name="uni1EEA" unicode="&#x1af;&#x300;" horiz-adv-x="466" 
d="M412 201q0 -210 -179 -210t-179 210v275h39v-274q0 -94 38.5 -136t101.5 -42q64 0 102.5 42t37.5 136v274h39v-44q45 39 48 89h32q-9 -71 -80 -119v-201zM269 526h-31l-58 81l39 10z" />
    <glyph glyph-name="uni1EEB" unicode="&#x1b0;&#x300;" horiz-adv-x="373" 
d="M355 1l-37 -8q-12 34 -16 66q-44 -68 -128 -68q-122 0 -122 158v191h39v-184q0 -131 92 -131q43 0 78 28q38 32 38 81v206h39v-41q40 38 44 99h32q-7 -82 -76 -127v-188q0 -37 17 -82zM217 390h-31l-58 81l39 10z" />
    <glyph glyph-name="uni1EEC" unicode="&#x1af;&#x309;" horiz-adv-x="466" 
d="M412 201q0 -210 -179 -210t-179 210v275h39v-274q0 -94 38.5 -136t101.5 -42q64 0 102.5 42t37.5 136v274h39v-44q45 39 48 89h32q-9 -71 -80 -119v-201zM299 607q0 -31 -28 -53t-28 -34h-31q1 26 28.5 46t27.5 41q0 14 -9.5 21.5t-25.5 7.5q-26 0 -45 -28l-19 15
q22 40 69 40q27 0 44 -14.5t17 -41.5z" />
    <glyph glyph-name="uni1EED" unicode="&#x1b0;&#x309;" horiz-adv-x="373" 
d="M355 1l-37 -8q-12 34 -16 66q-44 -68 -128 -68q-122 0 -122 158v191h39v-184q0 -131 92 -131q43 0 78 28q38 32 38 81v206h39v-41q40 38 44 99h32q-7 -82 -76 -127v-188q0 -37 17 -82zM254.897 461.911q0 -27.9004 -25.2002 -47.7012
q-25.2012 -19.7998 -25.2012 -30.6006h-27.9004q0.899414 23.4004 25.6504 41.4014q24.751 18 24.751 36.9004q0 12.6006 -8.55078 19.3506q-8.5498 6.75 -22.9502 6.75q-23.4004 0 -40.501 -25.2002l-17.1006 13.5q19.8008 36.001 62.1016 36.001
q24.3008 0 39.6016 -13.0498q15.2998 -13.0508 15.2998 -37.3516z" />
    <glyph glyph-name="uni1EEE" unicode="&#x1af;&#x303;" horiz-adv-x="466" 
d="M412 201q0 -210 -179 -210t-179 210v275h39v-274q0 -94 38.5 -136t101.5 -42q64 0 102.5 42t37.5 136v274h39v-44q45 39 48 89h32q-9 -71 -80 -119v-201zM324 588q-2 -60 -50 -60q-10 0 -21 5t-21.5 11.5t-20 11.5t-16.5 5q-8 0 -15 -9t-8 -26h-25q1 30 14.5 45t34.5 15
q11 0 21.5 -5t21 -11.5t20.5 -11.5t20 -5q17 0 20 35h25z" />
    <glyph glyph-name="uni1EEF" unicode="&#x1b0;&#x303;" horiz-adv-x="373" 
d="M355 1l-37 -8q-12 34 -16 66q-44 -68 -128 -68q-122 0 -122 158v191h39v-184q0 -131 92 -131q43 0 78 28q38 32 38 81v206h39v-41q40 38 44 99h32q-7 -82 -76 -127v-188q0 -37 17 -82zM287 452q-2 -60 -50 -60q-10 0 -21 5t-21.5 11.5t-20 11.5t-16.5 5q-8 0 -15 -9
t-8 -26h-25q1 30 14.5 45t34.5 15q11 0 21.5 -5t21 -11.5t20.5 -11.5t20 -5q17 0 20 35h25z" />
    <glyph glyph-name="uni1EF0" unicode="&#x1af;&#x323;" horiz-adv-x="466" 
d="M412 201q0 -210 -179 -210t-179 210v275h39v-274q0 -94 38.5 -136t101.5 -42q64 0 102.5 42t37.5 136v274h39v-44q45 39 48 89h32q-9 -71 -80 -119v-201zM262 -77q0 -12 -8 -20.5t-21 -8.5q-12 0 -20.5 8.5t-8.5 20.5q0 10 8.5 19t20.5 9q13 0 21 -9t8 -19z" />
    <glyph glyph-name="uni1EF1" unicode="&#x1b0;&#x323;" horiz-adv-x="373" 
d="M355 1l-37 -8q-12 34 -16 66q-44 -68 -128 -68q-122 0 -122 158v191h39v-184q0 -131 92 -131q43 0 78 28q38 32 38 81v206h39v-41q40 38 44 99h32q-7 -82 -76 -127v-188q0 -37 17 -82zM215 -77q0 -12 -8 -20.5t-21 -8.5q-12 0 -20.5 8.5t-8.5 20.5q0 10 8.5 19t20.5 9
q13 0 21 -9t8 -19z" />
    <glyph glyph-name="Ygrave" unicode="Y&#x300;" horiz-adv-x="366" 
d="M366 476l-164 -266v-210h-38v209l-164 267h45l138 -233l138 233h45zM215 526h-31l-58 81l39 10z" />
    <glyph glyph-name="ygrave" unicode="y&#x300;" horiz-adv-x="337" 
d="M184 0q-59 -133 -157 -156l-9 31q85 19 129 136q0 3 -3 12l-141 317h42l127 -288l119 288h43zM194 390h-31l-58 81l39 10z" />
    <glyph glyph-name="uni1EF4" unicode="Y&#x323;" horiz-adv-x="366" 
d="M366 476l-164 -266v-210h-38v209l-164 267h45l138 -233l138 233h45zM212 -77q0 -12 -8 -20.5t-21 -8.5q-12 0 -20.5 8.5t-8.5 20.5q0 10 8.5 19t20.5 9q13 0 21 -9t8 -19z" />
    <glyph glyph-name="uni1EF5" unicode="y&#x323;" horiz-adv-x="337" 
d="M184 0q-59 -133 -157 -156l-9 31q85 19 129 136q0 3 -3 12l-141 317h42l127 -288l119 288h43zM266 -77q0 -12 -8 -20.5t-21 -8.5q-12 0 -20.5 8.5t-8.5 20.5q0 10 8.5 19t20.5 9q13 0 21 -9t8 -19z" />
    <glyph glyph-name="uni1EF6" unicode="Y&#x309;" horiz-adv-x="366" 
d="M366 476l-164 -266v-210h-38v209l-164 267h45l138 -233l138 233h45zM255 607q0 -31 -28 -53t-28 -34h-31q1 26 28.5 46t27.5 41q0 14 -9.5 21.5t-25.5 7.5q-26 0 -45 -28l-19 15q22 40 69 40q27 0 44 -14.5t17 -41.5z" />
    <glyph glyph-name="uni1EF7" unicode="y&#x309;" horiz-adv-x="337" 
d="M184 0q-59 -133 -157 -156l-9 31q85 19 129 136q0 3 -3 12l-141 317h42l127 -288l119 288h43zM226.897 461.911q0 -27.9004 -25.2002 -47.7012q-25.2012 -19.7998 -25.2012 -30.6006h-27.9004q0.899414 23.4004 25.6504 41.4014q24.751 18 24.751 36.9004
q0 12.6006 -8.55078 19.3506q-8.5498 6.75 -22.9502 6.75q-23.4004 0 -40.501 -25.2002l-17.1006 13.5q19.8008 36.001 62.1016 36.001q24.3008 0 39.6016 -13.0498q15.2998 -13.0508 15.2998 -37.3516z" />
    <glyph glyph-name="uni1EF8" unicode="Y&#x303;" horiz-adv-x="366" 
d="M366 476l-164 -266v-210h-38v209l-164 267h45l138 -233l138 233h45zM269 588q-2 -60 -50 -60q-10 0 -21 5t-21.5 11.5t-20 11.5t-16.5 5q-8 0 -15 -9t-8 -26h-25q1 30 14.5 45t34.5 15q11 0 21.5 -5t21 -11.5t20.5 -11.5t20 -5q17 0 20 35h25z" />
    <glyph glyph-name="uni1EF9" unicode="y&#x303;" horiz-adv-x="337" 
d="M184 0q-59 -133 -157 -156l-9 31q85 19 129 136q0 3 -3 12l-141 317h42l127 -288l119 288h43zM255 452q-2 -60 -50 -60q-10 0 -21 5t-21.5 11.5t-20 11.5t-16.5 5q-8 0 -15 -9t-8 -26h-25q1 30 14.5 45t34.5 15q11 0 21.5 -5t21 -11.5t20.5 -11.5t20 -5q17 0 20 35h25z
" />
    <glyph glyph-name="Itilde" unicode="I&#x303;" horiz-adv-x="147" 
d="M93 0h-39v476h39v-476zM160 588q-2 -60 -50 -60q-10 0 -21 5t-21.5 11.5t-20 11.5t-16.5 5q-8 0 -15 -9t-8 -26h-25q1 30 14.5 45t34.5 15q11 0 21.5 -5t21 -11.5t20.5 -11.5t20 -5q17 0 20 35h25z" />
    <glyph glyph-name="itilde" unicode="i&#x303;" horiz-adv-x="143" 
d="M90 0h-38v340h38v-340zM158 452q-2 -60 -50 -60q-10 0 -21 5t-21.5 11.5t-20 11.5t-16.5 5q-8 0 -15 -9t-8 -26h-25q1 30 14.5 45t34.5 15q11 0 21.5 -5t21 -11.5t20.5 -11.5t20 -5q17 0 20 35h25z" />
    <glyph glyph-name="Utilde" unicode="U&#x303;" horiz-adv-x="476" 
d="M417 201q0 -210 -179 -210t-179 210v275h39v-274q0 -94 38.5 -136t101.5 -42q64 0 102.5 42t37.5 136v274h39v-275zM324 588q-2 -60 -50 -60q-10 0 -21 5t-21.5 11.5t-20 11.5t-16.5 5q-8 0 -15 -9t-8 -26h-25q1 30 14.5 45t34.5 15q11 0 21.5 -5t21 -11.5t20.5 -11.5
t20 -5q17 0 20 35h25z" />
    <glyph glyph-name="utilde" unicode="u&#x303;" horiz-adv-x="405" 
d="M355 1l-37 -8q-12 34 -16 66q-44 -68 -128 -68q-122 0 -122 158v191h39v-184q0 -131 92 -131q43 0 78 28q38 32 38 81v206h39v-257q0 -37 17 -82zM288 452q-2 -60 -50 -60q-10 0 -21 5t-21.5 11.5t-20 11.5t-16.5 5q-8 0 -15 -9t-8 -26h-25q1 30 14.5 45t34.5 15
q11 0 21.5 -5t21 -11.5t20.5 -11.5t20 -5q17 0 20 35h25z" />
    <glyph glyph-name="uni0E4F.liga" unicode="&#xe4f;&#x22;" horiz-adv-x="443" 
d="M289 163q0 26 -18.5 45t-45.5 19t-45.5 -19t-18.5 -45q0 -27 18.5 -45.5t45.5 -18.5t45.5 18.5t18.5 45.5zM324 163q0 -41 -29 -70.5t-70 -29.5t-70 29.5t-29 70.5t29 70t70 29t70 -29t29 -70zM359 163q0 56 -39 95t-95 39t-95 -39t-39 -95q0 -57 38.5 -96t95.5 -39
q56 0 95 39.5t39 95.5zM394 163q0 -71 -49.5 -120t-119.5 -49q-71 0 -120 49t-49 120q0 70 49 119.5t120 49.5q69 0 119 -50t50 -119zM278 385h-27l-10 161h47zM191 385h-27l-10 161h47z" />
    <glyph glyph-name="uni0E24.liga" unicode="&#xe24;&#xe32;" horiz-adv-x="575" 
d="M322 -200h-36v461q0 51 -30 79t-79 28q-34 0 -65 -19.5t-43 -49.5q61 -5 79 -43q-23 -5 -41 -26.5t-18 -46.5v-65q16 7 30 7q28 0 47.5 -19.5t19.5 -47.5t-19.5 -47t-47.5 -19t-47 19t-19 47v124q0 54 51 79q-27 11 -78 11q8 55 52 91.5t101 36.5q64 0 103.5 -36
t39.5 -99v-465zM154 57q0 14 -10 24t-24 10t-23.5 -10t-9.5 -24t9.5 -23.5t23.5 -9.5t24 9.5t10 23.5zM519 -200h-36v499q0 30 -22.5 49.5t-61.5 19.5q-35 0 -56 -23.5t-23 -50.5h-37q1 42 33.5 74t83.5 32q58 0 88.5 -28t30.5 -74v-498z" />
    <glyph glyph-name="uni0E26.liga" unicode="&#xe26;&#xe32;" horiz-adv-x="621" 
d="M565 -200h-36v499q0 30 -22.5 49.5t-61.5 19.5q-35 0 -56 -23.5t-23 -50.5h-37q1 42 33.5 74t83.5 32q58 0 88.5 -28t30.5 -74v-498zM369 -200h-36v460q0 49 -30.5 78.5t-78.5 29.5q-34 0 -65.5 -19.5t-43.5 -49.5q53 -5 81 -44q-54 -18 -54 -73q0 -39 9 -80q4 -18 4 -42
q0 -29 -19.5 -48.5t-46.5 -19.5t-46 19t-19 46t19 46.5t46 19.5q11 0 24 -5q-6 46 -6 70q0 46 40 72q-27 12 -53 12q-13 0 -19 -1q5 56 48.5 92.5t101.5 36.5q64 0 104 -36.5t40 -99.5v-464zM123 57q0 14 -10 24t-24 10t-23.5 -10t-9.5 -24t9.5 -23.5t23.5 -9.5t24 9.5
t10 23.5z" />
    <glyph glyph-name=".notdef" horiz-adv-x="692" 
d="M642 0h-592v809h592v-809zM612 28v753h-532v-753h532z" />
    <glyph glyph-name="nonbreakingspace" unicode="&#xa0;" horiz-adv-x="216" 
 />
    <glyph glyph-name="exclam" unicode="!" horiz-adv-x="147" 
d="M88 120h-32l-7 355h47zM107 28q0 -14 -10.5 -24t-24.5 -10t-24 10t-10 24t10 24.5t24 10.5t24.5 -10.5t10.5 -24.5z" />
    <glyph glyph-name="quotedbl" unicode="&#x22;" horiz-adv-x="208" 
d="M161 338h-27l-10 161h47zM74 338h-27l-10 161h47z" />
    <glyph glyph-name="numbersign" unicode="#" horiz-adv-x="403" 
d="M365 137h-92l-28 -133h-29l29 133h-126l-29 -133h-29l29 133h-56v30h61l26 127h-87v30h93l28 134h30l-28 -134h124l29 134h31l-28 -134h52v-30h-58l-26 -127h84v-30zM276 294h-125l-27 -127h126z" />
    <glyph glyph-name="dollar" unicode="$" horiz-adv-x="361" 
d="M308 133q0 -40 -27 -72q-31 -35 -85 -45v-74h-35v74q-64 0 -109 35l18 31q40 -34 100 -34q45 0 72.5 23.5t27.5 59.5q0 58 -88 95q-120 50 -120 124q0 43 29 73t78 37v76h34v-76q49 -3 92 -29l-18 -32q-34 29 -90 29q-44 0 -68 -25q-20 -20 -20 -48q0 -30 21 -49.5
t73 -42.5q59 -26 84 -51q31 -32 31 -79z" />
    <glyph glyph-name="percent" unicode="%" horiz-adv-x="585" 
d="M453 476l-290 -485h-34l290 485h34zM248 334q0 -142 -107 -142t-107 142t107 142t107 -142zM212 334q0 110 -71 110t-71 -110t71 -110t71 110zM550 139q0 -142 -107 -142t-107 142t107 142t107 -142zM514 139q0 110 -71 110t-71 -110t71 -110t71 110z" />
    <glyph glyph-name="ampersand" unicode="&#x26;" horiz-adv-x="423" 
d="M413 256q-24 -127 -67 -176l84 -80h-50l-56 53q-74 -62 -161 -62q-60 0 -102 39.5t-42 97.5q0 95 101 145q-43 57 -43 102q0 48 32 83t86 35q44 0 72 -27.5t28 -70.5q0 -80 -122 -135l150 -159q34 46 53 155h37zM260 391q0 29 -16 49q-19 23 -53 23q-35 0 -56 -25
t-21 -59q0 -39 42 -94q104 50 104 106zM301 77q-91 91 -161 171q-83 -44 -83 -115q0 -49 33 -79.5t82 -30.5q75 0 129 54z" />
    <glyph glyph-name="quotesingle" unicode="'" horiz-adv-x="120" 
d="M74 338h-27l-10 161h46z" />
    <glyph glyph-name="parenleft" unicode="(" horiz-adv-x="190" 
d="M169 -58h-38q-111 121 -111 292q0 162 110 298h40q-112 -128 -112 -298q0 -159 111 -292z" />
    <glyph glyph-name="parenright" unicode=")" horiz-adv-x="190" 
d="M169 237q0 -166 -111 -295h-38q111 139 111 295q0 158 -111 295h38q111 -125 111 -295z" />
    <glyph glyph-name="asterisk" unicode="*" horiz-adv-x="285" 
d="M267 356l-103 9l64 -86l-33 -21l-53 99l-52 -99l-33 21l64 86l-103 -9v38l103 -7l-64 85l38 22l48 -92l47 92l38 -22l-64 -85l103 7v-38z" />
    <glyph glyph-name="plus" unicode="+" horiz-adv-x="411" 
d="M373 165h-150v-165h-35v165h-150v33h150v159h35v-159h150v-33z" />
    <glyph glyph-name="comma" unicode="," horiz-adv-x="162" 
d="M123 27q-2 -54 -33 -95q-21 -29 -46 -41l-14 15q52 35 58 87q-16 0 -27.5 11t-11.5 26t11 26.5t26 11.5q16 0 26.5 -12t10.5 -29z" />
    <glyph glyph-name="hyphen" unicode="-" horiz-adv-x="216" 
d="M195 165h-175v33h175v-33z" />
    <glyph glyph-name="period" unicode="." horiz-adv-x="162" 
d="M115 28q0 -14 -10.5 -24t-24.5 -10t-24 10t-10 24t10 24.5t24 10.5t24.5 -10.5t10.5 -24.5z" />
    <glyph glyph-name="slash" unicode="/" horiz-adv-x="270" 
d="M278 493l-258 -522h-38l255 522h41z" />
    <glyph glyph-name="zero" unicode="0" horiz-adv-x="362" 
d="M330 227q0 -83 -32 -151q-41 -87 -117 -87q-77 0 -118 87q-32 67 -32 151q0 101 35 171q41 81 115 81t115 -81q34 -70 34 -171zM290 228q0 87 -25 147q-30 70 -84 70q-55 0 -85 -70q-25 -59 -25 -147q0 -72 24 -130q30 -75 86 -75q55 0 85 75q24 58 24 130z" />
    <glyph glyph-name="one" unicode="1" horiz-adv-x="362" 
d="M287 0h-190v36h75v381l-75 -65l-22 25l115 101q22 0 22 -38v-404h75v-36z" />
    <glyph glyph-name="two" unicode="2" horiz-adv-x="362" 
d="M335 39l-8 -39h-301q4 25 14 57l95 94t116 127q32 43 32 82t-25 60t-65 21q-90 0 -102 -90l-36 10q6 58 46 89q36 28 93 28q56 0 92.5 -34.5t36.5 -86.5q0 -76 -120 -191q-87 -86 -123 -127h255z" />
    <glyph glyph-name="three" unicode="3" horiz-adv-x="362" 
d="M328 161q0 -76 -52 -123t-134 -49q-66 -2 -108 37l17 31q37 -28 97 -28q58 0 99 39t41 91q0 39 -24 65t-61 26q-43 0 -67 -23l-19 32l76 59q57 48 57 75q0 49 -68 49q-75 0 -112 -75l-28 15q16 44 55 70t88 26q42 0 72 -22.5t30 -61.5q0 -46 -82 -108h6q53 0 85 -35.5
t32 -89.5z" />
    <glyph glyph-name="four" unicode="4" horiz-adv-x="362" 
d="M234 148v289q-69 -34 -114 -119q-43 -81 -45 -170h159zM274 148h71l-5 -37h-66v-111h-40v111h-202q2 149 67.5 252t174.5 125v-340z" />
    <glyph glyph-name="five" unicode="5" horiz-adv-x="362" 
d="M318 164q0 -77 -52 -124.5t-134 -47.5q-69 0 -108 37l17 31q14 -9 30 -17q28 -13 69 -13q54 0 95.5 35t41.5 98q0 54 -36 81q-30 24 -78 24q-42 0 -67 -33l-21 -2l15 242h213l-7 -38h-168l-9 -141q26 10 56 10q58 0 99 -36q44 -40 44 -106z" />
    <glyph glyph-name="six" unicode="6" horiz-adv-x="362" 
d="M322 145q0 -65 -36.5 -109t-99.5 -44q-71 0 -112 54q-36 48 -36 121q0 115 71 205.5t181 111.5l3 -29q-67 -19 -122 -71q-62 -58 -85 -138q4 15 29 32q32 20 74 20q59 0 96 -45t37 -108zM282 145q0 50 -27 85t-74 35q-43 0 -73 -35t-30 -85q0 -49 30 -84t73 -35
q48 0 74.5 35t26.5 84z" />
    <glyph glyph-name="seven" unicode="7" horiz-adv-x="362" 
d="M173 0h-42q0 151 60 289q14 32 48 89.5t35 58.5h-241l15 38h281l-8 -40q-67 -88 -107.5 -190.5t-40.5 -244.5z" />
    <glyph glyph-name="eight" unicode="8" horiz-adv-x="362" 
d="M288 125q0 39 -27 74.5t-81 38.5q-53 -3 -80 -38.5t-27 -74.5q0 -45 30.5 -71.5t77.5 -26.5q46 0 76.5 26.5t30.5 71.5zM273 361q0 35 -25 58t-67 23q-43 0 -68 -23t-25 -58q0 -62 92 -85q93 23 93 85zM328 128q0 -64 -40 -100t-108 -36q-67 0 -107 36t-40 100
q0 49 28.5 84.5t72.5 44.5q-37 11 -61.5 39.5t-24.5 61.5q0 53 37 87t96 34q58 0 95 -34t37 -87q0 -33 -24.5 -61.5t-61.5 -39.5q44 -9 72.5 -44.5t28.5 -84.5z" />
    <glyph glyph-name="nine" unicode="9" horiz-adv-x="362" 
d="M322 305q0 -115 -71 -205.5t-181 -111.5l-3 29q67 19 122 71q62 58 85 138q-4 -15 -29 -32q-32 -20 -74 -20q-59 0 -96 45t-37 108q0 65 36.5 109t99.5 44q71 0 112 -54q36 -48 36 -121zM282 327q0 49 -30 84t-73 35q-48 0 -74.5 -35t-26.5 -84q0 -50 27 -85t74 -35
q43 0 73 35t30 85z" />
    <glyph glyph-name="colon" unicode=":" horiz-adv-x="162" 
d="M115 28q0 -14 -10.5 -24t-24.5 -10t-24 10t-10 24t10 24.5t24 10.5t24.5 -10.5t10.5 -24.5zM115 283q0 -14 -10.5 -24t-24.5 -10t-24 10t-10 24t10 24.5t24 10.5t24.5 -10.5t10.5 -24.5z" />
    <glyph glyph-name="semicolon" unicode=";" horiz-adv-x="162" 
d="M123 27q-2 -54 -33 -95q-21 -29 -46 -41l-14 15q52 35 58 87q-16 0 -27.5 11t-11.5 26t11 26.5t26 11.5q16 0 26.5 -12t10.5 -29zM115 283q0 -14 -10.5 -24t-24.5 -10t-24 10t-10 24t10 24.5t24 10.5t24.5 -10.5t10.5 -24.5z" />
    <glyph glyph-name="less" unicode="&#x3c;" horiz-adv-x="411" 
d="M366 36v-38l-322 176v27l322 176v-37l-282 -153z" />
    <glyph glyph-name="equal" unicode="=" horiz-adv-x="411" 
d="M356 265v-33h-301v33h301zM356 135v-33h-301v33h301z" />
    <glyph glyph-name="greater" unicode="&#x3e;" horiz-adv-x="411" 
d="M366 201v-27l-322 -176v38l282 152l-282 152v37z" />
    <glyph glyph-name="question" unicode="?" horiz-adv-x="283" 
d="M138 123h-34q-5 15 -5 35q0 53 54.5 114t54.5 104q0 72 -82 72q-47 0 -80 -26l-15 30q48 31 102 31q57 0 87 -33q27 -29 27 -72q0 -53 -63 -120q-49 -52 -49 -103q0 -18 3 -32zM154 28q0 -14 -10.5 -24t-24.5 -10t-24 10t-10 24t10 24.5t24 10.5t24.5 -10.5t10.5 -24.5z
" />
    <glyph glyph-name="at" unicode="@" horiz-adv-x="536" 
d="M510 176q0 -68 -42 -116t-91 -51l-31 -2l-10 45q-40 -51 -106 -51q-12 0 -19 1q-32 5 -54.5 28t-22.5 53q0 112 200 112v5q0 85 -81 85q-44 0 -75 -24l-11 25q39 29 88 29q114 0 114 -127v-107q0 -22 4 -41q39 2 71 41t32 92q0 83 -52 137.5t-141 54.5q-94 0 -156 -62
q-66 -66 -66 -170q0 -86 55 -142.5t136 -56.5q69 0 117 30l14 -29q-60 -32 -134 -32q-94 0 -160 64t-66 163q0 109 70 184q74 80 195 80q100 0 161 -62t61 -156zM334 105v61q-163 -2 -163 -77q0 -60 61 -60q72 0 100 63q2 4 2 13z" />
    <glyph glyph-name="A" unicode="A" horiz-adv-x="400" 
d="M400 0h-43l-55 153h-205l-54 -153h-43l180 483h40zM290 186l-90 254l-91 -254h181z" />
    <glyph glyph-name="B" unicode="B" horiz-adv-x="378" 
d="M346 133q0 -139 -201 -139q-44 0 -91 10v465q50 13 100 13q173 0 173 -120q0 -36 -21.5 -65.5t-57.5 -42.5q36 -9 67 -40.5t31 -80.5zM288 361q0 88 -134 88q-31 0 -61 -7v-174h81q53 0 85 28q29 26 29 65zM308 132q0 53 -41.5 78.5t-104.5 25.5h-69v-204q27 -6 60 -6
q64 0 105 23q50 28 50 83z" />
    <glyph glyph-name="C" unicode="C" horiz-adv-x="406" 
d="M367 50l12 -32q-53 -25 -130 -25q-97 0 -161.5 69.5t-64.5 176.5t64.5 175.5t161.5 68.5q77 0 130 -25l-12 -32q-54 23 -116 23q-77 0 -131 -57q-57 -60 -57 -154t57 -154q54 -57 131 -57q62 0 116 23z" />
    <glyph glyph-name="D" unicode="D" horiz-adv-x="431" 
d="M402 248q0 -252 -226 -252q-30 0 -122 9v464q92 12 142 12q91 0 148 -61q58 -64 58 -172zM363 248q0 95 -50 149q-46 50 -120 50q-31 0 -100 -8v-403q50 -6 95 -6q81 0 128 57.5t47 160.5z" />
    <glyph glyph-name="E" unicode="E" horiz-adv-x="351" 
d="M313 0h-259v476h259v-33h-220v-175h196v-33h-196v-202h220v-33z" />
    <glyph glyph-name="F" unicode="F" horiz-adv-x="351" 
d="M308 229h-215v-229h-39v476h269v-33h-230v-181h215v-33z" />
    <glyph glyph-name="G" unicode="G" horiz-adv-x="425" 
d="M383 238v-228q-8 6 -21 6l-59 -10.5t-79 -10.5q-91 0 -146 66.5t-55 177.5q0 106 57 172q59 70 161 70q73 0 128 -24l-12 -32q-60 23 -118 23q-75 0 -125.5 -59t-50.5 -151q0 -98 43.5 -154.5t123.5 -56.5q63 0 115 25v154h-121v32h159z" />
    <glyph glyph-name="H" unicode="H" horiz-adv-x="441" 
d="M387 0h-39v237h-255v-237h-39v476h39v-206h255v206h39v-476z" />
    <glyph glyph-name="I" unicode="I" horiz-adv-x="147" 
d="M93 0h-39v476h39v-476z" />
    <glyph glyph-name="J" unicode="J" horiz-adv-x="264" 
d="M210 156q0 -165 -140 -165q-39 0 -71 15l10 31q23 -12 61 -12q52 0 76.5 30.5t24.5 110.5v310h39v-320z" />
    <glyph glyph-name="K" unicode="K" horiz-adv-x="376" 
d="M390 9l-35 -14l-211 253l-51 -51v-197h-39v476h39v-229l237 235l39 -11l-198 -198z" />
    <glyph glyph-name="L" unicode="L" horiz-adv-x="353" 
d="M327 0h-273v476h39v-443h234v-33z" />
    <glyph glyph-name="M" unicode="M" horiz-adv-x="548" 
d="M508 0h-37l-30 420l-154 -420h-26l-154 420l-30 -420h-37l33 476h46l155 -427l155 427h46z" />
    <glyph glyph-name="N" unicode="N" horiz-adv-x="441" 
d="M387 0h-41l-252 421v-421h-40v476h45l250 -415v415h38v-476z" />
    <glyph glyph-name="O" unicode="O" horiz-adv-x="486" 
d="M464 237q0 -107 -61.5 -177t-159.5 -70t-159.5 70t-61.5 177t61.5 177t159.5 70t159.5 -70t61.5 -177zM425 237q0 88 -51 150.5t-131 62.5t-131 -62.5t-51 -150.5t51 -150.5t131 -62.5t131 62.5t51 150.5z" />
    <glyph glyph-name="P" unicode="P" horiz-adv-x="378" 
d="M345 344q0 -75 -60 -116q-52 -35 -130 -34q-32 0 -62 6v-200h-39v471q60 10 115 10q72 0 121 -33q55 -38 55 -104zM308 341q0 106 -140 106q-50 0 -75 -5v-208q27 -7 70 -7q145 8 145 114z" />
    <glyph glyph-name="Q" unicode="Q" horiz-adv-x="487" 
d="M464 237q0 -86 -42 -151q-44 -68 -120 -87q59 -25 136 -29l-14 -37q-99 23 -181 57q-98 0 -159.5 70t-61.5 177t61.5 177t159.5 70t159.5 -70t61.5 -177zM425 237q0 88 -51 150.5t-131 62.5t-131 -62.5t-51 -150.5t51 -150.5t131 -62.5t131 62.5t51 150.5z" />
    <glyph glyph-name="R" unicode="R" horiz-adv-x="379" 
d="M358 0h-38q-27 217 -135 217h-92v-217h-39v470q56 11 117 11q77 -1 122 -30q52 -34 52 -98q0 -89 -92 -123q53 -29 80 -108q13 -41 25 -122zM308 348q0 99 -137 99q-55 0 -78 -7v-192h89q59 0 92.5 26.5t33.5 73.5z" />
    <glyph glyph-name="S" unicode="S" horiz-adv-x="352" 
d="M320 124q0 -54 -39 -90q-44 -43 -123 -43q-78 0 -131 36l16 34q49 -37 119 -37q56 0 88 26.5t32 70.5q0 40 -24.5 64.5t-81.5 42.5q-133 43 -133 134q0 53 41 88t107 35q67 0 109 -25l-17 -31q-43 23 -93 23q-56 0 -86 -29q-24 -24 -24 -56q0 -66 106 -102q69 -24 99 -52
q35 -33 35 -89z" />
    <glyph glyph-name="T" unicode="T" horiz-adv-x="379" 
d="M384 443h-175v-443h-38v443h-176v33h389v-33z" />
    <glyph glyph-name="U" unicode="U" horiz-adv-x="466" 
d="M412 201q0 -210 -179 -210t-179 210v275h39v-274q0 -94 38.5 -136t101.5 -42q64 0 102.5 42t37.5 136v274h39v-275z" />
    <glyph glyph-name="V" unicode="V" horiz-adv-x="390" 
d="M390 476l-174 -476h-42l-174 476h44l151 -431l151 431h44z" />
    <glyph glyph-name="W" unicode="W" horiz-adv-x="588" 
d="M588 476l-144 -476h-42l-108 432l-108 -432h-42l-144 476h44l121 -431l107 431h44l107 -431l121 431h44z" />
    <glyph glyph-name="X" unicode="X" horiz-adv-x="418" 
d="M401 0h-46l-146 215l-146 -215h-46l169 244l-162 232h47l138 -208l138 208h47l-162 -232z" />
    <glyph glyph-name="Y" unicode="Y" horiz-adv-x="366" 
d="M366 476l-164 -266v-210h-38v209l-164 267h45l138 -233l138 233h45z" />
    <glyph glyph-name="Z" unicode="Z" horiz-adv-x="424" 
d="M408 33l-8 -33h-378v26l323 417h-303l6 33h347v-27l-322 -416h335z" />
    <glyph glyph-name="bracketleft" unicode="[" horiz-adv-x="196" 
d="M185 -48v-30h-133v584h133v-30h-98v-524h98z" />
    <glyph glyph-name="backslash" unicode="\" horiz-adv-x="262" 
d="M279 -28h-40l-248 511h39z" />
    <glyph glyph-name="bracketright" unicode="]" horiz-adv-x="196" 
d="M145 -78h-134v30h98v524h-98v30h134v-584z" />
    <glyph glyph-name="asciicircum" unicode="^" horiz-adv-x="412" 
d="M223 480l144 -321h-37l-125 283l-125 -283h-37l144 321h36z" />
    <glyph glyph-name="underscore" unicode="_" horiz-adv-x="352" 
d="M352 -152v-31h-352v31h352z" />
    <glyph glyph-name="grave" unicode="`" horiz-adv-x="204" 
d="M148 390h-31l-58 81l39 10z" />
    <glyph glyph-name="a" unicode="a" horiz-adv-x="344" 
d="M304 0l-35 -7l-14 55q-46 -57 -121 -57q-44 0 -76 25t-32 69q0 127 221 127h6v6q0 33 -15 58q-23 40 -78 40q-35 0 -108 -23l-5 36q56 18 116 18q129 0 129 -142v-122q0 -42 12 -83zM253 110v68q-186 0 -186 -86q0 -33 20 -50.5t50 -17.5q79 0 111 67q5 11 5 19z" />
    <glyph glyph-name="b" unicode="b" horiz-adv-x="401" 
d="M373 174q0 -82 -43 -132.5t-116 -50.5q-80 0 -127 69q0 -34 -2 -60h-36q3 26 3 83v422h39v-230q44 72 129 72q71 0 112 -49t41 -124zM335 173q0 63 -32 103t-90 40q-48 0 -83 -33q-39 -35 -39 -90v-57q0 -48 34 -80t84 -32q126 0 126 149z" />
    <glyph glyph-name="c" unicode="c" horiz-adv-x="331" 
d="M298 47l14 -32q-43 -24 -105 -24q-84 0 -132 48.5t-48 129.5t48 129.5t132 48.5q62 0 105 -24l-14 -32q-37 24 -93 24q-61 0 -100.5 -39t-39.5 -107t39.5 -107t100.5 -39q56 0 93 24z" />
    <glyph glyph-name="d" unicode="d" horiz-adv-x="401" 
d="M352 0h-36q-2 26 -2 60q-47 -69 -127 -69q-73 0 -116 50.5t-43 132.5q0 75 41 124t112 49q85 0 129 -72v230h39v-422q0 -57 3 -83zM310 136v57q0 55 -39 90q-35 33 -83 33q-58 0 -90 -40t-32 -103q0 -149 126 -149q50 0 84 32t34 80z" />
    <glyph glyph-name="e" unicode="e" horiz-adv-x="374" 
d="M324 48l3 -33q-58 -24 -126 -24q-78 0 -126 48t-48 122q0 84 48 135t122 51q143 0 146 -179h-278q2 -68 40.5 -105.5t99.5 -37.5q60 0 119 23zM306 199q-1 41 -23 73q-30 44 -91 44q-55 0 -90 -40q-28 -32 -35 -77h239z" />
    <glyph glyph-name="f" unicode="f" horiz-adv-x="206" 
d="M241 497l-11 -28q-22 11 -49 11q-80 0 -80 -127v-13h98v-31h-98v-309h-39v309h-57v31h58v13q0 160 121 160q38 0 57 -16z" />
    <glyph glyph-name="g" unicode="g" horiz-adv-x="311" 
d="M275 228q0 -56 -34.5 -89t-85.5 -33q-31 0 -53 11q-6 -15 -6 -29q0 -26 81 -49q96 -27 96 -98q0 -43 -31 -70.5t-91 -27.5q-53 0 -97 27l14 32q43 -25 86 -25q37 0 61 17t24 44q0 48 -79 74q-48 15 -66 27q-31 19 -31 49q0 18 10 48q-37 40 -37 85q0 54 34 87t80 33h133
v-32l-49 5q41 -40 41 -86zM241 223q0 33 -21 58q-24 30 -65 30q-40 0 -62 -26.5t-22 -62.5q0 -40 27 -64q25 -22 57 -22q36 0 61 23t25 64z" />
    <glyph glyph-name="h" unicode="h" horiz-adv-x="390" 
d="M338 193v-193h-39v193q0 122 -102 122q-41 0 -73.5 -34.5t-32.5 -74.5v-206h-39v505h39v-226q41 68 114 68q133 0 133 -154z" />
    <glyph glyph-name="i" unicode="i" horiz-adv-x="143" 
d="M91 0h-39v340h39v-340zM102 443q0 -14 -9 -22.5t-23 -8.5t-22.5 8.5t-8.5 22.5t8.5 23t22.5 9t23 -9t9 -23z" />
    <glyph glyph-name="j" unicode="j" horiz-adv-x="155" 
d="M103 7q-2 -152 -141 -155l-4 31q69 6 91 48q15 29 15 87v322h39v-333zM114 443q0 -14 -9 -22.5t-23 -8.5t-22.5 8.5t-8.5 22.5t8.5 23t22.5 9t23 -9t9 -23z" />
    <glyph glyph-name="k" unicode="k" horiz-adv-x="316" 
d="M327 1l-39 -11l-162 187l-35 -34v-143h-39v505h39v-318l169 158l40 -8l-146 -138z" />
    <glyph glyph-name="l" unicode="l" horiz-adv-x="200" 
d="M182 27l-4 -34q-126 6 -126 178v334h39v-319q0 -73 13 -106q20 -52 78 -53z" />
    <glyph glyph-name="m" unicode="m" horiz-adv-x="601" 
d="M549 0h-39v188q0 58 -23.5 92.5t-68.5 34.5q-39 0 -68.5 -30.5t-29.5 -68.5v-216h-39v206q0 109 -86 109q-40 0 -72 -34.5t-32 -74.5v-206h-39v256q0 27 -7 84h37q7 -21 8 -61q39 68 114 68q69 0 103 -76q40 76 122 76q56 0 88 -42.5t32 -115.5v-189z" />
    <glyph glyph-name="n" unicode="n" horiz-adv-x="390" 
d="M338 0h-39v193q0 122 -102 122q-41 0 -73.5 -34.5t-32.5 -74.5v-206h-39v256q0 27 -7 84h37q7 -21 8 -61q39 68 115 68q133 0 133 -154v-193z" />
    <glyph glyph-name="o" unicode="o" horiz-adv-x="398" 
d="M370 169q0 -75 -47 -127t-124 -52t-124 52t-47 127t47 126.5t124 51.5t124 -51.5t47 -126.5zM332 169q0 62 -37.5 103.5t-95.5 41.5t-95.5 -41.5t-37.5 -103.5t37.5 -104t95.5 -42t95.5 42t37.5 104z" />
    <glyph glyph-name="p" unicode="p" horiz-adv-x="401" 
d="M373 164q0 -75 -40 -122q-42 -51 -113 -51q-85 0 -129 72v-230h-39v422q0 58 -3 83h36q2 -26 2 -60q47 69 127 69q73 0 116 -50.5t43 -132.5zM336 165q0 70 -32.5 109.5t-94.5 39.5q-50 0 -84 -32t-34 -80v-57q0 -55 39 -90q35 -33 83 -33q58 0 92 41q31 39 31 102z" />
    <glyph glyph-name="q" unicode="q" horiz-adv-x="401" 
d="M370 -167h-39v230q-44 -72 -129 -72q-71 0 -113 51q-40 47 -40 122q0 82 43 132.5t116 50.5q80 0 127 -69q0 34 2 60h36q-3 -25 -3 -83v-422zM331 145v57q0 48 -34 80t-84 32q-62 0 -94.5 -39.5t-32.5 -109.5q0 -63 31 -102q34 -41 92 -41q48 0 83 33q39 35 39 90z" />
    <glyph glyph-name="r" unicode="r" horiz-adv-x="217" 
d="M208 312q-3 1 -12 1q-77 0 -102 -96q-3 -11 -3 -34v-183h-39v229q0 75 -10 111h33q11 -22 11 -68q32 75 103 75q9 0 19 -2v-33z" />
    <glyph glyph-name="s" unicode="s" horiz-adv-x="282" 
d="M248 90q0 -43 -32.5 -71t-90.5 -28q-50 0 -96 27l15 32q48 -26 84 -26q84 0 84 63q0 49 -79 73q-91 28 -91 92q0 39 29.5 67t82.5 28t84 -23l-16 -32q-30 24 -75 24q-32 0 -50 -17t-18 -42q0 -40 78 -67q91 -31 91 -100z" />
    <glyph glyph-name="t" unicode="t" horiz-adv-x="238" 
d="M210 31l4 -31q-20 -9 -53 -9q-44 0 -67 34q-20 30 -20 75v209h-68v31h68v101l39 18v-119h109v-31h-109v-208q0 -76 51 -76q31 0 46 6z" />
    <glyph glyph-name="u" unicode="u" horiz-adv-x="390" 
d="M355 1l-37 -8q-12 34 -16 66q-44 -68 -128 -68q-122 0 -122 158v191h39v-184q0 -131 92 -131q43 0 78 28q38 32 38 81v206h39v-257q0 -37 17 -82z" />
    <glyph glyph-name="v" unicode="v" horiz-adv-x="341" 
d="M338 340l-153 -340h-35l-147 340h40l126 -298l129 298h40z" />
    <glyph glyph-name="w" unicode="w" horiz-adv-x="507" 
d="M507 340l-122 -340h-34l-98 300l-103 -300h-36l-111 340h41l90 -294l102 294h37l96 -294l99 294h39z" />
    <glyph glyph-name="x" unicode="x" horiz-adv-x="318" 
d="M318 0h-46l-114 147l-113 -147h-45l138 173l-129 167h44l108 -138l107 138h43l-130 -166z" />
    <glyph glyph-name="y" unicode="y" horiz-adv-x="337" 
d="M184 0q-59 -133 -157 -156l-9 31q85 19 129 136q0 3 -3 12l-141 317h42l127 -288l119 288h43z" />
    <glyph glyph-name="z" unicode="z" horiz-adv-x="321" 
d="M301 0h-286v24l240 284h-228l6 32h271l-1 -27l-239 -281h245z" />
    <glyph glyph-name="braceleft" unicode="{" horiz-adv-x="208" 
d="M180 -47v-30h-11q-108 0 -108 95q0 19 7 58.5t7 59.5q0 50 -62 52v30q62 2 62 52q0 20 -7 59.5t-7 58.5q0 95 108 95h11v-30h-15q-69 0 -69 -69q14 -101 14 -111q0 -51 -40 -70q40 -19 40 -70q0 -10 -14 -111q0 -69 69 -69h15z" />
    <glyph glyph-name="bar" unicode="|" horiz-adv-x="153" 
d="M93 528v-702h-33v702h33z" />
    <glyph glyph-name="braceright" unicode="}" horiz-adv-x="208" 
d="M28 -77v30h15q69 0 69 69q-14 101 -14 111q0 51 40 70q-40 19 -40 70q0 10 14 111q0 69 -69 69h-15v30h11q108 0 108 -95q0 -19 -7 -58.5t-7 -59.5q0 -50 62 -52v-30q-62 -2 -62 -52q0 -20 7 -59.5t7 -58.5q0 -95 -108 -95h-11z" />
    <glyph glyph-name="asciitilde" unicode="~" horiz-adv-x="416" 
d="M389 249v-6q0 -46 -25 -71q-21 -21 -53 -21q-39 0 -104.5 32.5t-100.5 32.5q-47 0 -49 -65h-31v8q0 42 23.5 66t56.5 24q38 0 104.5 -31.5t102.5 -31.5q43 0 45 63h31z" />
    <glyph glyph-name="uni0E33.alt1" horiz-adv-x="316" 
d="M260 0h-36v299q0 30 -22.5 49.5t-61.5 19.5q-35 0 -56 -23.5t-23 -50.5h-37q1 42 33.5 74t83.5 32q58 0 88.5 -28t30.5 -74v-298zM-150 538q0 -32 -22 -54t-54 -22t-54.5 22t-22.5 54t22.5 54.5t54.5 22.5t54 -22.5t22 -54.5zM-183 538q0 18 -13 31t-30 13q-18 0 -31 -13
t-13 -31t13 -30.5t31 -12.5q17 0 30 12.5t13 30.5z" />
    <glyph glyph-name="glyph97" 
 />
    <glyph glyph-name="CR.001" horiz-adv-x="216" 
 />
    <glyph glyph-name="uni0E4E.alt1" 
d="M-122 664l-9 -25q-17 5 -37 5q-46 0 -46 -31q0 -33 50 -39l-9 -23q-12 4 -24 4q-28 0 -45.5 -12.5t-17.5 -27.5q0 -27 45 -27q13 0 32 8l1 -25q-19 -8 -46 -8q-25 0 -43 14.5t-18 38.5q0 25 20 42t45 17q-20 13 -20 38q0 58 77 58q27 0 45 -7z" />
    <glyph glyph-name="exclamdown" unicode="&#xa1;" horiz-adv-x="151" 
d="M102 -140h-55l10 348h35zM112 304q0 -15 -11 -26t-26 -11t-26 11t-11 26t11 26t26 11t26 -11t11 -26z" />
    <glyph glyph-name="cent" unicode="&#xa2;" horiz-adv-x="411" 
d="M378 48q-48 -26 -131 -26h-5v-81h-33v83q-76 11 -124 61q-53 55 -53 153q0 83 44 138q48 60 133 75v91h33v-87q7 1 21 1q60 0 112 -19l-8 -36q-45 23 -102 23q-92 0 -143 -48.5t-51 -139.5q0 -86 47 -131q50 -48 141 -48q63 0 107 20z" />
    <glyph glyph-name="sterling" unicode="&#xa3;" horiz-adv-x="411" 
d="M353 0h-296v25q85 52 85 133q0 23 -5 58h-79v31h76q-8 48 -8 81q0 133 128 133q41 0 83 -20l-12 -29q-40 16 -73 16q-91 0 -91 -101q0 -37 9 -80h113v-31h-109q4 -23 4 -51q0 -84 -54 -132h229v-33z" />
    <glyph glyph-name="currency" unicode="&#xa4;" horiz-adv-x="411" 
d="M387 225q0 -66 -38 -111l40 -41l-29 -30l-42 42q-46 -42 -114 -42q-65 0 -113 42l-40 -42l-29 30l39 41q-39 48 -39 111q0 64 39 114l-39 40l29 31l40 -42q52 41 113 41q64 0 114 -41l43 42l28 -31l-40 -40q38 -44 38 -114zM347 225q0 60 -41.5 104.5t-101.5 44.5
q-58 0 -100.5 -44t-42.5 -105t42.5 -103.5t100.5 -42.5q60 0 101.5 43.5t41.5 102.5z" />
    <glyph glyph-name="yen" unicode="&#xa5;" horiz-adv-x="411" 
d="M345 95h-121v-76h-37v76h-120v29h120v57h-120v29h120l-153 249h46l125 -211l125 211h47l-153 -248h121v-30h-121v-57h121v-29z" />
    <glyph glyph-name="brokenbar" unicode="&#xa6;" horiz-adv-x="153" 
d="M93 227h-33v248h33v-248zM93 -123h-33v249h33v-249z" />
    <glyph glyph-name="section" unicode="&#xa7;" horiz-adv-x="374" 
d="M301 65q0 -48 -36 -76t-90 -28q-63 0 -103 33l16 28q33 -31 89 -31q41 0 65.5 19t24.5 50q0 43 -55 68l-102 41q-55 28 -55 80q0 44 45 80q-23 23 -23 54q0 43 33.5 69.5t86.5 26.5t97 -26l-17 -29q-35 26 -85 26q-34 0 -56.5 -17.5t-22.5 -43.5q0 -27 29 -45
q19 -12 71 -30q106 -36 106 -103q0 -46 -42 -86q24 -24 24 -60zM282 206q0 20 -21 40.5t-55 32.5q-60 20 -83 34q-34 -29 -34 -62q0 -28 35 -49q21 -13 72 -31q47 -17 60 -27q26 31 26 62z" />
    <glyph glyph-name="dieresis" unicode="&#xa8;" horiz-adv-x="212" 
d="M75 422q0 -13 -9 -21.5t-22 -8.5t-21.5 8.5t-8.5 21.5t8.5 22t21.5 9t22 -9t9 -22zM199 422q0 -13 -9 -21.5t-22 -8.5t-21.5 8.5t-8.5 21.5t8.5 22t21.5 9t22 -9t9 -22z" />
    <glyph glyph-name="copyright" unicode="&#xa9;" horiz-adv-x="536" 
d="M370 117q-38 -29 -105 -29q-65 0 -104 42t-39 103q0 70 41 110.5t107 40.5q63 0 95 -24l-12 -30q-38 22 -83 22q-108 -6 -108 -114q0 -109 109 -115q51 0 86 25zM511 240q0 -100 -71.5 -171.5t-171.5 -71.5t-171.5 71.5t-71.5 171.5t71.5 171.5t171.5 71.5t171.5 -71.5
t71.5 -171.5zM475 240q0 86 -60.5 146.5t-146.5 60.5t-146.5 -60.5t-60.5 -146.5t60.5 -146.5t146.5 -60.5t146.5 60.5t60.5 146.5z" />
    <glyph glyph-name="ordfeminine" unicode="&#xaa;" horiz-adv-x="246" 
d="M212 247h-31l-5 33q-28 -36 -75 -36q-77 0 -77 68q0 78 150 80v7q0 14 -8 27q-16 23 -51 23q-34 0 -62 -21l-11 25q37 26 80 26q87 0 87 -107v-67q0 -29 3 -58zM174 322v42q-115 0 -115 -52q0 -38 48 -38q19 0 43 14.5t24 33.5z" />
    <glyph glyph-name="guillemotleft" unicode="&#xab;" horiz-adv-x="298" 
d="M233 48l-111 129l110 132h42l-110 -132l111 -129h-42zM122 48l-111 129l110 132h42l-110 -132l111 -129h-42z" />
    <glyph glyph-name="logicalnot" unicode="&#xac;" horiz-adv-x="420" 
d="M387 91h-39v148h-325v33h364v-181z" />
    <glyph glyph-name="registered" unicode="&#xae;" horiz-adv-x="536" 
d="M511 240q0 -100 -71.5 -171.5t-171.5 -71.5t-171.5 71.5t-71.5 171.5t71.5 171.5t171.5 71.5t171.5 -71.5t71.5 -171.5zM475 240q0 86 -60.5 146.5t-146.5 60.5t-146.5 -60.5t-60.5 -146.5t60.5 -146.5t146.5 -60.5t146.5 60.5t60.5 146.5zM380 93h-39q-18 127 -65 127
h-61v-127h-40v291q36 7 83 8q53 0 82.5 -22.5t29.5 -61.5q0 -52 -41 -74q39 -35 51 -141zM331 303q0 54 -69 54q-27 0 -47 -3v-97h54q28 0 45 12t17 34z" />
    <glyph glyph-name="macron" unicode="&#xaf;" horiz-adv-x="352" 
d="M352 559v-31h-352v31h352z" />
    <glyph glyph-name="degree" unicode="&#xb0;" horiz-adv-x="212" 
d="M191 397q0 -35 -25.5 -60t-60.5 -25t-60 25t-25 60t25 60.5t60 25.5t60.5 -25.5t25.5 -60.5zM161 397q0 23 -16.5 40t-39.5 17t-39 -17t-16 -40t16 -39.5t39 -16.5t39.5 16.5t16.5 39.5z" />
    <glyph glyph-name="plusminus" unicode="&#xb1;" horiz-adv-x="411" 
d="M373 201h-150v-133h-35v133h-150v32h150v124h35v-124h150v-32zM373 0h-335v32h335v-32z" />
    <glyph glyph-name="twosuperior" unicode="&#xb2;" horiz-adv-x="254" 
d="M210 227l-4 -31h-181q2 41 69 105q27 25 52.5 52t25.5 54q0 43 -43 43q-48 0 -53 -55l-34 6q4 38 27 59t57 21q35 0 57.5 -20t22.5 -54q0 -41 -54 -97l-81 -83h139z" />
    <glyph glyph-name="threesuperior" unicode="&#xb3;" horiz-adv-x="254" 
d="M215 298q0 -46 -30 -73.5t-79 -28.5q-44 -1 -71 20l15 32q23 -19 53 -19q37 0 58 19t21 49q0 44 -42 44q-28 0 -44 -14l-14 25q50 35 56 40q23 19 23 37q0 20 -33 20q-41 0 -58 -44l-29 15q27 62 90 62t63 -52q0 -18 -14 -37t-31 -26q66 -4 66 -69z" />
    <glyph glyph-name="acute" unicode="&#xb4;" horiz-adv-x="212" 
d="M85 528h-31l50 91h50z" />
    <glyph glyph-name="mu" unicode="&#xb5;" horiz-adv-x="406" 
d="M358 0h-37q-5 28 -5 52v11q-57 -72 -128 -72q-58 0 -93 51v-182h-38v480h38v-194q0 -121 102 -121q44 0 80 33.5t36 74.5v207h38v-257q0 -62 7 -83z" />
    <glyph glyph-name="paragraph" unicode="&#xb6;" horiz-adv-x="374" 
d="M321 -63h-34v506h-48v-506h-35v243h-4q-60 0 -104 35q-51 40 -51 106q0 154 198 154q53 0 78 -5v-533z" />
    <glyph glyph-name="periodcentered" unicode="&#xb7;" horiz-adv-x="162" 
d="M115 181q0 -14 -10.5 -24t-24.5 -10t-24 10t-10 24t10 24.5t24 10.5t24.5 -10.5t10.5 -24.5z" />
    <glyph glyph-name="cedilla" unicode="&#xb8;" horiz-adv-x="212" 
d="M153 -81q0 -58 -70 -58q-24 0 -48 13l10 22q21 -10 39 -10q38 0 38 28q0 25 -63 30l39 60h32l-27 -38q50 -12 50 -47z" />
    <glyph glyph-name="onesuperior" unicode="&#xb9;" horiz-adv-x="254" 
d="M194 201h-122v24h44v205l-38 -33l-19 24l71 63q21 -2 21 -28v-231h43v-24z" />
    <glyph glyph-name="ordmasculine" unicode="&#xba;" horiz-adv-x="285" 
d="M265 360q0 -50 -37 -86t-86 -36q-50 0 -86 36t-36 86q0 49 36 86t86 37q49 0 86 -37t37 -86zM230 360q0 36 -26 62t-62 26t-61.5 -26t-25.5 -62t25.5 -61.5t61.5 -25.5t62 25.5t26 61.5z" />
    <glyph glyph-name="guillemotright" unicode="&#xbb;" horiz-adv-x="294" 
d="M61 48h-42l111 129l-110 132h42l110 -132zM172 48h-42l111 129l-110 132h42l110 -132z" />
    <glyph glyph-name="onequarter" unicode="&#xbc;" horiz-adv-x="536" 
d="M423 95v148q-28 -24 -51 -72q-22 -44 -24 -76h75zM500 62h-42v-62h-35v62h-112q1 67 38 137q44 85 109 87v-191h44zM146 -9h-33l284 476h33zM165 186h-122v24h44v201l-38 -33l-19 24l71 63q21 -2 21 -28v-227h43v-24z" />
    <glyph glyph-name="onehalf" unicode="&#xbd;" horiz-adv-x="536" 
d="M146 -9h-33l284 476h33zM165 186h-122v24h44v201l-38 -33l-19 24l71 63q21 -2 21 -28v-227h43v-24zM506 0h-181q2 41 69 105q27 25 52.5 52t25.5 54q0 43 -43 43q-48 0 -53 -55l-34 6q4 38 27 59t57 21q36 0 58.5 -19.5t22.5 -54.5q0 -41 -54 -97l-78 -83h135z" />
    <glyph glyph-name="threequarters" unicode="&#xbe;" horiz-adv-x="536" 
d="M146 -9h-33l284 476h33zM215 286q0 -46 -30 -73.5t-79 -28.5q-44 -1 -71 20l15 32q23 -19 53 -19q37 0 58 19t21 49q0 44 -42 44q-28 0 -44 -14l-14 25q50 35 56 40q23 19 23 37q0 20 -33 20q-45 0 -58 -44l-29 15q27 62 90 62t63 -52q0 -18 -14 -37t-31 -26
q66 -10 66 -69zM423 95v148q-28 -24 -51 -72q-22 -44 -24 -76h75zM500 62h-42v-62h-35v62h-112q1 67 38 137q44 85 109 87v-191h44z" />
    <glyph glyph-name="questiondown" unicode="&#xbf;" horiz-adv-x="289" 
d="M250 -122q-48 -31 -102 -31q-57 0 -87 33q-27 29 -27 72q0 53 63 120q49 52 49 103q0 18 -3 32h34q5 -15 5 -35q0 -53 -54.5 -114t-54.5 -104q0 -72 82 -72q47 0 80 26zM198 304q0 -15 -11 -26t-26 -11t-26 11t-11 26t11 26t26 11t26 -11t11 -26z" />
    <glyph glyph-name="Acircumflex" unicode="&#xc2;" horiz-adv-x="400" 
d="M400 0h-43l-55 153h-205l-54 -153h-43l180 483h40zM290 186l-90 254l-91 -254h181zM214 606l69 -78h-37l-46 52l-46 -52h-37l69 78h28z" />
    <glyph glyph-name="Adieresis" unicode="&#xc4;" horiz-adv-x="400" 
d="M400 0h-43l-55 153h-205l-54 -153h-43l180 483h40zM290 186l-90 254l-91 -254h181zM168 558q0 -13 -9 -21.5t-22 -8.5t-21.5 8.5t-8.5 21.5t8.5 22t21.5 9t22 -9t9 -22zM292 558q0 -13 -9 -21.5t-22 -8.5t-21.5 8.5t-8.5 21.5t8.5 22t21.5 9t22 -9t9 -22z" />
    <glyph glyph-name="Aring" unicode="&#xc5;" horiz-adv-x="400" 
d="M400 0h-43l-55 153h-205l-54 -153h-43l180 483h40zM290 186l-90 254l-91 -254h181zM273 576q0 -29 -21.5 -50.5t-52.5 -21.5q-29 0 -50.5 21.5t-21.5 50.5q0 31 21.5 53t50.5 22q31 0 52.5 -22t21.5 -53zM244 575q0 19 -12.5 31.5t-31.5 12.5q-18 0 -30 -12.5t-12 -31.5
q0 -17 12 -29t30 -12q19 0 31.5 12t12.5 29z" />
    <glyph glyph-name="AE" unicode="&#xc6;" horiz-adv-x="582" 
d="M544 0h-214l-28 196h-164l-104 -196h-41l255 476h284v-33h-228l24 -176h193v-33h-188l30 -201h181v-33zM297 228l-27 220l-116 -220h143z" />
    <glyph glyph-name="Ccedilla" unicode="&#xc7;" horiz-adv-x="406" 
d="M367 50l12 -32q-53 -25 -130 -25q-97 0 -161.5 69.5t-64.5 176.5t64.5 175.5t161.5 68.5q77 0 130 -25l-12 -32q-54 23 -116 23q-77 0 -131 -57q-57 -60 -57 -154t57 -154q54 -57 131 -57q62 0 116 23zM262 -81q0 -58 -70 -58q-24 0 -48 13l10 22q21 -10 39 -10
q38 0 38 28q0 25 -63 30l39 60h32l-27 -38q50 -12 50 -47z" />
    <glyph glyph-name="Ecircumflex" unicode="&#xca;" horiz-adv-x="351" 
d="M313 0h-259v476h259v-33h-220v-175h196v-33h-196v-202h220v-33zM189 606l69 -78h-37l-46 52l-46 -52h-37l69 78h28z" />
    <glyph glyph-name="Edieresis" unicode="&#xcb;" horiz-adv-x="351" 
d="M313 0h-259v476h259v-33h-220v-175h196v-33h-196v-202h220v-33zM144 558q0 -13 -9 -21.5t-22 -8.5t-21.5 8.5t-8.5 21.5t8.5 22t21.5 9t22 -9t9 -22zM268 558q0 -13 -9 -21.5t-22 -8.5t-21.5 8.5t-8.5 21.5t8.5 22t21.5 9t22 -9t9 -22z" />
    <glyph glyph-name="Icircumflex" unicode="&#xce;" horiz-adv-x="147" 
d="M93 0h-39v476h39v-476zM102 606l69 -78h-37l-46 52l-46 -52h-37l69 78h28z" />
    <glyph glyph-name="Idieresis" unicode="&#xcf;" horiz-adv-x="147" 
d="M93 0h-39v476h39v-476zM56 558q0 -13 -9 -21.5t-22 -8.5t-21.5 8.5t-8.5 21.5t8.5 22t21.5 9t22 -9t9 -22zM180 558q0 -13 -9 -21.5t-22 -8.5t-21.5 8.5t-8.5 21.5t8.5 22t21.5 9t22 -9t9 -22z" />
    <glyph glyph-name="Eth" unicode="&#xd0;" horiz-adv-x="431" 
d="M402 248q0 -252 -226 -252q-30 0 -122 9v208h-49v33h49v223q92 12 142 12q91 0 148 -61q58 -64 58 -172zM363 248q0 95 -50 149q-46 50 -120 50q-31 0 -100 -8v-193h168v-33h-168v-177q50 -6 95 -6q81 0 128 57.5t47 160.5z" />
    <glyph glyph-name="Ntilde" unicode="&#xd1;" horiz-adv-x="441" 
d="M387 0h-41l-252 421v-421h-40v476h45l250 -415v415h38v-476zM307 588q-2 -60 -50 -60q-10 0 -21 5t-21.5 11.5t-20 11.5t-16.5 5q-8 0 -15 -9t-8 -26h-25q1 30 14.5 45t34.5 15q11 0 21.5 -5t21 -11.5t20.5 -11.5t20 -5q17 0 20 35h25z" />
    <glyph glyph-name="Ocircumflex" unicode="&#xd4;" horiz-adv-x="486" 
d="M464 237q0 -107 -61.5 -177t-159.5 -70t-159.5 70t-61.5 177t61.5 177t159.5 70t159.5 -70t61.5 -177zM425 237q0 88 -51 150.5t-131 62.5t-131 -62.5t-51 -150.5t51 -150.5t131 -62.5t131 62.5t51 150.5zM257 606l69 -78h-37l-46 52l-46 -52h-37l69 78h28z" />
    <glyph glyph-name="Odieresis" unicode="&#xd6;" horiz-adv-x="486" 
d="M464 237q0 -107 -61.5 -177t-159.5 -70t-159.5 70t-61.5 177t61.5 177t159.5 70t159.5 -70t61.5 -177zM425 237q0 88 -51 150.5t-131 62.5t-131 -62.5t-51 -150.5t51 -150.5t131 -62.5t131 62.5t51 150.5zM211 558q0 -13 -9 -21.5t-22 -8.5t-21.5 8.5t-8.5 21.5t8.5 22
t21.5 9t22 -9t9 -22zM335 558q0 -13 -9 -21.5t-22 -8.5t-21.5 8.5t-8.5 21.5t8.5 22t21.5 9t22 -9t9 -22z" />
    <glyph glyph-name="multiply" unicode="&#xd7;" horiz-adv-x="411" 
d="M337 11l-132 138l-132 -138l-26 24l132 139l-132 139l26 24l132 -138l132 138l26 -24l-132 -139l132 -139z" />
    <glyph glyph-name="Oslash" unicode="&#xd8;" horiz-adv-x="486" 
d="M464 237q0 -107 -61.5 -177t-159.5 -70q-51 0 -92 18l-18 -37h-38l26 54q-20 15 -38 35q-61 70 -61 177t61.5 177t159.5 70q51 0 93 -20l14 29h41l-24 -47q19 -14 35 -32q62 -70 62 -177zM320 432q-35 18 -77 18q-80 0 -131 -62.5t-51 -150.5t51 -151q12 -15 26 -26z
M425 237q0 88 -51 150q-11 14 -24 24l-183 -370q34 -17 76 -17q80 0 131 62.5t51 150.5z" />
    <glyph glyph-name="Ucircumflex" unicode="&#xdb;" horiz-adv-x="466" 
d="M412 201q0 -210 -179 -210t-179 210v275h39v-274q0 -94 38.5 -136t101.5 -42q64 0 102.5 42t37.5 136v274h39v-275zM247 606l69 -78h-37l-46 52l-46 -52h-37l69 78h28z" />
    <glyph glyph-name="Udieresis" unicode="&#xdc;" horiz-adv-x="466" 
d="M412 201q0 -210 -179 -210t-179 210v275h39v-274q0 -94 38.5 -136t101.5 -42q64 0 102.5 42t37.5 136v274h39v-275zM201 558q0 -13 -9 -21.5t-22 -8.5t-21.5 8.5t-8.5 21.5t8.5 22t21.5 9t22 -9t9 -22zM325 558q0 -13 -9 -21.5t-22 -8.5t-21.5 8.5t-8.5 21.5t8.5 22
t21.5 9t22 -9t9 -22z" />
    <glyph glyph-name="Thorn" unicode="&#xde;" horiz-adv-x="380" 
d="M351 262q0 -75 -50.5 -113.5t-137.5 -38.5q-25 0 -65 8v-118h-38v476h38v-94q42 11 82 11q67 0 116 -32q55 -37 55 -99zM314 257q0 53 -41 81q-35 23 -93 23q-37 0 -82 -14v-194q36 -11 67 -11q72 0 110.5 30.5t38.5 84.5z" />
    <glyph glyph-name="germandbls" unicode="&#xdf;" horiz-adv-x="392" 
d="M356 102q0 -49 -30 -79q-33 -32 -91 -32q-49 0 -85 20l12 33q38 -20 74 -20q40 0 62 20.5t22 51.5q0 34 -51 78.5t-51 82.5q0 27 34 59.5t34 52.5q0 82 -87 82q-100 0 -100 -164v-341q0 -54 -22 -94l-36 10q19 39 19 84v358q0 183 146 183q50 0 83.5 -31.5t33.5 -84.5
q0 -40 -33 -67t-33 -50q0 -17 33 -46t40 -39q26 -35 26 -67z" />
    <glyph glyph-name="acircumflex" unicode="&#xe2;" horiz-adv-x="344" 
d="M304 0l-35 -7l-14 55q-46 -57 -121 -57q-44 0 -76 25t-32 69q0 127 221 127h6v6q0 33 -15 58q-23 40 -78 40q-35 0 -108 -23l-5 36q56 18 116 18q129 0 129 -142v-122q0 -42 12 -83zM253 110v68q-186 0 -186 -86q0 -33 20 -50.5t50 -17.5q79 0 111 67q5 11 5 19zM186 470
l69 -78h-37l-46 52l-46 -52h-37l69 78h28z" />
    <glyph glyph-name="adieresis" unicode="&#xe4;" horiz-adv-x="344" 
d="M304 0l-35 -7l-14 55q-46 -57 -121 -57q-44 0 -76 25t-32 69q0 127 221 127h6v6q0 33 -15 58q-23 40 -78 40q-35 0 -108 -23l-5 36q56 18 116 18q129 0 129 -142v-122q0 -42 12 -83zM253 110v68q-186 0 -186 -86q0 -33 20 -50.5t50 -17.5q79 0 111 67q5 11 5 19zM140 422
q0 -13 -9 -21.5t-22 -8.5t-21.5 8.5t-8.5 21.5t8.5 22t21.5 9t22 -9t9 -22zM264 422q0 -13 -9 -21.5t-22 -8.5t-21.5 8.5t-8.5 21.5t8.5 22t21.5 9t22 -9t9 -22z" />
    <glyph glyph-name="aring" unicode="&#xe5;" horiz-adv-x="344" 
d="M304 0l-35 -7l-14 55q-46 -57 -121 -57q-44 0 -76 25t-32 69q0 127 221 127h6v6q0 33 -15 58q-23 40 -78 40q-35 0 -108 -23l-5 36q56 18 116 18q129 0 129 -142v-122q0 -42 12 -83zM253 110v68q-186 0 -186 -86q0 -33 20 -50.5t50 -17.5q79 0 111 67q5 11 5 19zM245 440
q0 -29 -21.5 -50.5t-52.5 -21.5q-29 0 -50.5 21.5t-21.5 50.5q0 31 21.5 53t50.5 22q31 0 52.5 -22t21.5 -53zM216 439q0 19 -12.5 31.5t-31.5 12.5q-18 0 -30 -12.5t-12 -31.5q0 -17 12 -29t30 -12q19 0 31.5 12t12.5 29z" />
    <glyph glyph-name="ae" unicode="&#xe6;" horiz-adv-x="608" 
d="M550 48l3 -33q-58 -24 -126 -24q-103 0 -152 87q-28 -87 -141 -87q-44 0 -76 25t-32 69q0 127 221 127h6v6q0 33 -15 58q-23 40 -78 40q-35 0 -108 -23l-5 36q56 18 116 18q92 0 119 -76q48 76 141 76q143 0 146 -179h-278q2 -68 40.5 -105.5t99.5 -37.5q60 0 119 23z
M253 143v35q-186 0 -186 -86q0 -33 20 -50.5t50 -17.5q44 0 75 23q41 31 41 96zM293 199h239q-1 41 -23 73q-30 44 -91 44q-55 0 -90 -40q-28 -32 -35 -77z" />
    <glyph glyph-name="ccedilla" unicode="&#xe7;" horiz-adv-x="331" 
d="M298 47l14 -32q-43 -24 -105 -24q-84 0 -132 48.5t-48 129.5t48 129.5t132 48.5q62 0 105 -24l-14 -32q-37 24 -93 24q-61 0 -100.5 -39t-39.5 -107t39.5 -107t100.5 -39q56 0 93 24zM218.704 -72.9023q0 -52.2012 -63.002 -52.2012q-21.6006 0 -43.2012 11.7002
l9 19.8008q18.9004 -9 35.1006 -9q34.2012 0 34.2012 25.2002q0 22.501 -56.7012 27.001l35.1006 54.001h28.8008l-24.3008 -34.2002q45.002 -10.8008 45.002 -42.3018z" />
    <glyph glyph-name="ecircumflex" unicode="&#xea;" horiz-adv-x="374" 
d="M324 48l3 -33q-58 -24 -126 -24q-78 0 -126 48t-48 122q0 84 48 135t122 51q143 0 146 -179h-278q2 -68 40.5 -105.5t99.5 -37.5q60 0 119 23zM306 199q-1 41 -23 73q-30 44 -91 44q-55 0 -90 -40q-28 -32 -35 -77h239zM201 470l69 -78h-37l-46 52l-46 -52h-37l69 78h28z
" />
    <glyph glyph-name="edieresis" unicode="&#xeb;" horiz-adv-x="374" 
d="M324 48l3 -33q-58 -24 -126 -24q-78 0 -126 48t-48 122q0 84 48 135t122 51q143 0 146 -179h-278q2 -68 40.5 -105.5t99.5 -37.5q60 0 119 23zM306 199q-1 41 -23 73q-30 44 -91 44q-55 0 -90 -40q-28 -32 -35 -77h239zM155 422q0 -13 -9 -21.5t-22 -8.5t-21.5 8.5
t-8.5 21.5t8.5 22t21.5 9t22 -9t9 -22zM279 422q0 -13 -9 -21.5t-22 -8.5t-21.5 8.5t-8.5 21.5t8.5 22t21.5 9t22 -9t9 -22z" />
    <glyph glyph-name="icircumflex" unicode="&#xee;" horiz-adv-x="143" 
d="M90 0h-38v340h38v-340zM100 470l69 -78h-37l-46 52l-46 -52h-37l69 78h28z" />
    <glyph glyph-name="idieresis" unicode="&#xef;" horiz-adv-x="143" 
d="M90 0h-38v340h38v-340zM54 422q0 -13 -9 -21.5t-22 -8.5t-21.5 8.5t-8.5 21.5t8.5 22t21.5 9t22 -9t9 -22zM178 422q0 -13 -9 -21.5t-22 -8.5t-21.5 8.5t-8.5 21.5t8.5 22t21.5 9t22 -9t9 -22z" />
    <glyph glyph-name="eth" unicode="&#xf0;" horiz-adv-x="362" 
d="M322 163q0 -73 -36 -121q-41 -54 -112 -54q-63 0 -99.5 44t-36.5 109q0 63 37 108t96 45q42 0 74 -20q23 -16 28 -30q-23 78 -84 136l-87 -55l-17 27l78 50q-45 34 -96 49l3 29q71 -14 126 -57l75 49l17 -27l-67 -44q16 -15 30 -33q71 -90 71 -205zM282 141q0 50 -30 85
t-73 35q-47 0 -74 -35t-27 -85q0 -49 26.5 -84t74.5 -35q43 0 73 35t30 84z" />
    <glyph glyph-name="ntilde" unicode="&#xf1;" horiz-adv-x="390" 
d="M338 0h-39v193q0 122 -102 122q-41 0 -73.5 -34.5t-32.5 -74.5v-206h-39v256q0 27 -7 84h37q7 -21 8 -61q39 68 115 68q133 0 133 -154v-193zM281 452q-2 -60 -50 -60q-10 0 -21 5t-21.5 11.5t-20 11.5t-16.5 5q-8 0 -15 -9t-8 -26h-25q1 30 14.5 45t34.5 15
q11 0 21.5 -5t21 -11.5t20.5 -11.5t20 -5q17 0 20 35h25z" />
    <glyph glyph-name="ocircumflex" unicode="&#xf4;" horiz-adv-x="398" 
d="M370 169q0 -75 -47 -127t-124 -52t-124 52t-47 127t47 126.5t124 51.5t124 -51.5t47 -126.5zM332 169q0 62 -37.5 103.5t-95.5 41.5t-95.5 -41.5t-37.5 -103.5t37.5 -104t95.5 -42t95.5 42t37.5 104zM213 470l69 -78h-37l-46 52l-46 -52h-37l69 78h28z" />
    <glyph glyph-name="odieresis" unicode="&#xf6;" horiz-adv-x="398" 
d="M370 169q0 -75 -47 -127t-124 -52t-124 52t-47 127t47 126.5t124 51.5t124 -51.5t47 -126.5zM332 169q0 62 -37.5 103.5t-95.5 41.5t-95.5 -41.5t-37.5 -103.5t37.5 -104t95.5 -42t95.5 42t37.5 104zM167 422q0 -13 -9 -21.5t-22 -8.5t-21.5 8.5t-8.5 21.5t8.5 22t21.5 9
t22 -9t9 -22zM291 422q0 -13 -9 -21.5t-22 -8.5t-21.5 8.5t-8.5 21.5t8.5 22t21.5 9t22 -9t9 -22z" />
    <glyph glyph-name="divide" unicode="&#xf7;" horiz-adv-x="411" 
d="M239 302q0 -14 -9 -24.5t-23 -10.5q-15 0 -24 10.5t-9 24.5q1 14 10 24t23 10t23 -10t9 -24zM238 59q0 -14 -9 -24t-23 -10q-15 0 -23.5 10t-8.5 24t9 24.5t24 10.5q14 0 22.5 -10.5t8.5 -24.5zM373 165h-335v33h335v-33z" />
    <glyph glyph-name="oslash" unicode="&#xf8;" horiz-adv-x="398" 
d="M370 169q0 -75 -47 -127t-124 -52q-44 0 -84 20l-24 -39h-40l36 59q-59 51 -59 139q0 75 47 126.5t124 51.5q36 0 73 -15l31 51h43l-43 -69q67 -51 67 -145zM332 169q0 71 -48 114l-150 -243q29 -17 65 -17q58 0 95.5 42t37.5 104zM106 61l148 241q-25 12 -55 12
q-58 0 -95.5 -41.5t-37.5 -103.5q0 -65 40 -108z" />
    <glyph glyph-name="ucircumflex" unicode="&#xfb;" horiz-adv-x="390" 
d="M355 1l-37 -8q-12 34 -16 66q-44 -68 -128 -68q-122 0 -122 158v191h39v-184q0 -131 92 -131q43 0 78 28q38 32 38 81v206h39v-257q0 -37 17 -82zM209 470l69 -78h-37l-46 52l-46 -52h-37l69 78h28z" />
    <glyph glyph-name="udieresis" unicode="&#xfc;" horiz-adv-x="390" 
d="M355 1l-37 -8q-12 34 -16 66q-44 -68 -128 -68q-122 0 -122 158v191h39v-184q0 -131 92 -131q43 0 78 28q38 32 38 81v206h39v-257q0 -37 17 -82zM163 422q0 -13 -9 -21.5t-22 -8.5t-21.5 8.5t-8.5 21.5t8.5 22t21.5 9t22 -9t9 -22zM287 422q0 -13 -9 -21.5t-22 -8.5
t-21.5 8.5t-8.5 21.5t8.5 22t21.5 9t22 -9t9 -22z" />
    <glyph glyph-name="thorn" unicode="&#xfe;" horiz-adv-x="432" 
d="M401 176q0 -87 -52 -138q-48 -47 -122 -47q-82 0 -128 62v-193h-38v610h38v-192q51 69 139 69q72 0 119 -51q44 -48 44 -120zM364 175q0 61 -36.5 101t-96.5 40q-91 0 -124 -83q-8 -20 -8 -40v-59q0 -10 5 -30q15 -34 48.5 -57t77.5 -23q59 0 96.5 40t37.5 111z" />
    <glyph glyph-name="ydieresis" unicode="&#xff;" horiz-adv-x="337" 
d="M184 0q-59 -133 -157 -156l-9 31q85 19 129 136q0 3 -3 12l-141 317h42l127 -288l119 288h43zM137 422q0 -13 -9 -21.5t-22 -8.5t-21.5 8.5t-8.5 21.5t8.5 22t21.5 9t22 -9t9 -22zM261 422q0 -13 -9 -21.5t-22 -8.5t-21.5 8.5t-8.5 21.5t8.5 22t21.5 9t22 -9t9 -22z" />
    <glyph glyph-name="dotlessi" unicode="&#x131;" horiz-adv-x="143" 
d="M90 0h-38v340h38v-340z" />
    <glyph glyph-name="Lslash" unicode="&#x141;" horiz-adv-x="361" 
d="M333 0h-273v194l-33 -10l-9 31l42 13v248h39v-235l217 69v-37l-217 -66v-174h234v-33z" />
    <glyph glyph-name="lslash" unicode="&#x142;" horiz-adv-x="209" 
d="M181 268v-35l-82 -27v-20q0 -74 13 -106q19 -51 78 -53l-4 -34q-126 6 -126 178v23l-33 -10l-9 31l42 13v277h39v-264z" />
    <glyph glyph-name="OE" unicode="&#x152;" horiz-adv-x="711" 
d="M673 33v-33h-259v74q-63 -84 -171 -84q-98 0 -159.5 70t-61.5 177t61.5 177t159.5 70q108 0 171 -84v76h259v-33h-220v-175h196v-33h-196v-202h220zM414 145v175q-7 49 -57 89q-53 41 -114 41q-80 0 -131 -62.5t-51 -150.5t51 -150.5t131 -62.5q57 0 102.5 33t68.5 88z
" />
    <glyph glyph-name="oe" unicode="&#x153;" horiz-adv-x="679" 
d="M629 48l3 -33q-58 -24 -126 -24q-110 0 -157 90q-45 -91 -150 -91q-77 0 -124 52t-47 127t47 126.5t124 51.5q108 0 152 -93q43 93 151 93q143 0 146 -179h-278q0 -71 39 -107t101 -36q59 0 119 23zM332 169q1 61 -36.5 103t-96.5 42q-58 0 -95.5 -41.5t-37.5 -103.5
t37.5 -104t95.5 -42q57 0 94.5 41.5t38.5 104.5zM611 199q-2 51 -32.5 84t-81.5 33q-49 0 -83 -32.5t-42 -84.5h239z" />
    <glyph glyph-name="Scaron" unicode="&#x160;" horiz-adv-x="352" 
d="M320 124q0 -54 -39 -90q-44 -43 -123 -43q-78 0 -131 36l16 34q49 -37 119 -37q56 0 88 26.5t32 70.5q0 40 -24.5 64.5t-81.5 42.5q-133 43 -133 134q0 53 41 88t107 35q67 0 109 -25l-17 -31q-43 23 -93 23q-56 0 -86 -29q-24 -24 -24 -56q0 -66 106 -102q69 -24 99 -52
q35 -33 35 -89zM190 520h-28l-69 78h37l46 -52l46 52h37z" />
    <glyph glyph-name="scaron" unicode="&#x161;" horiz-adv-x="282" 
d="M248 90q0 -43 -32.5 -71t-90.5 -28q-50 0 -96 27l15 32q48 -26 84 -26q84 0 84 63q0 49 -79 73q-91 28 -91 92q0 39 29.5 67t82.5 28t84 -23l-16 -32q-30 24 -75 24q-32 0 -50 -17t-18 -42q0 -40 78 -67q91 -31 91 -100zM155 384h-28l-69 78h37l46 -52l46 52h37z" />
    <glyph glyph-name="Ydieresis" unicode="&#x178;" horiz-adv-x="382" 
d="M373 476l-164 -266v-210h-38v209l-164 267h45l138 -233l138 233h45zM160 555q0 -13 -9 -21.5t-22 -8.5t-21.5 8.5t-8.5 21.5t8.5 22t21.5 9t22 -9t9 -22zM284 555q0 -13 -9 -21.5t-22 -8.5t-21.5 8.5t-8.5 21.5t8.5 22t21.5 9t22 -9t9 -22z" />
    <glyph glyph-name="Zcaron" unicode="&#x17d;" horiz-adv-x="424" 
d="M408 33l-8 -33h-378v26l323 417h-303l6 33h347v-27l-322 -416h335zM226 520h-28l-69 78h37l46 -52l46 52h37z" />
    <glyph glyph-name="zcaron" unicode="&#x17e;" horiz-adv-x="321" 
d="M301 0h-286v24l240 284h-228l6 32h271l-1 -27l-239 -281h245zM174 384h-28l-69 78h37l46 -52l46 52h37z" />
    <glyph glyph-name="florin" unicode="&#x192;" horiz-adv-x="398" 
d="M409 446l-17 -28q-19 11 -47 11q-78 0 -107 -127l-6 -26h98l-6 -31h-98l-34 -157q-35 -160 -155 -160q-38 0 -54 16l17 28q19 -11 47 -11q78 0 106 127l34 157h-57l6 31h58l6 26q37 160 155 160q38 0 54 -16z" />
    <glyph glyph-name="circumflex" unicode="&#x2c6;" horiz-adv-x="212" 
d="M120 470l69 -78h-37l-46 52l-46 -52h-37l69 78h28z" />
    <glyph glyph-name="caron" unicode="&#x2c7;" horiz-adv-x="212" 
d="M120 384h-28l-69 78h37l46 -52l46 52h37z" />
    <glyph glyph-name="breve" unicode="&#x2d8;" horiz-adv-x="302" 
d="M239 453q-5 -27 -24 -44q-26 -24 -65 -24t-66 24q-18 17 -24 44h35q4 -11 11 -19q16 -18 44 -18t43 18q8 8 12 19h34z" />
    <glyph glyph-name="dotaccent" unicode="&#x2d9;" horiz-adv-x="302" 
d="M185 540q0 -14 -10 -23.5t-25 -9.5q-14 0 -23.5 9.5t-9.5 23.5t9.5 24.5t23.5 10.5q15 0 25 -10.5t10 -24.5z" />
    <glyph glyph-name="ring" unicode="&#x2da;" horiz-adv-x="302" 
d="M223 440q0 -29 -21.5 -50.5t-52.5 -21.5q-29 0 -50.5 21.5t-21.5 50.5q0 31 21.5 53t50.5 22q31 0 52.5 -22t21.5 -53zM194 439q0 19 -12.5 31.5t-31.5 12.5q-18 0 -30 -12.5t-12 -31.5q0 -17 12 -29t30 -12q19 0 31.5 12t12.5 29z" />
    <glyph glyph-name="ogonek" unicode="&#x2db;" horiz-adv-x="302" 
d="M218 -143q-19 -8 -35 -11.5t-33 -3.5q-36 0 -53 21.5t-17 50.5q0 18 5 41t13 49h40q-19 -49 -19 -80q0 -43 39 -46q30 0 59 15z" />
    <glyph glyph-name="tilde" unicode="&#x2dc;" horiz-adv-x="212" 
d="M193 457q-1 -26 -13.5 -44t-35.5 -18q-9 0 -19.5 4.5t-21 9.5l-20 9.5t-16.5 4.5q-8 0 -13 -9t-6 -23h-25q1 24 10.5 44t32.5 20q10 0 20 -4.5t20 -10.5t20 -10.5t21 -4.5q7 0 13 7.5t7 24.5h26z" />
    <glyph glyph-name="hungarumlaut" unicode="&#x2dd;" horiz-adv-x="279" 
d="M156 330h-27l59 161h47zM69 330h-27l59 161h47z" />
    <glyph glyph-name="uni0E00" unicode="&#xe00;" 
 />
    <glyph glyph-name="uni0E01" unicode="&#xe01;" horiz-adv-x="386" 
d="M330 0h-36v261q0 49 -30.5 78t-78.5 29q-34 0 -66 -19t-44 -49q59 -5 81 -44q-24 -5 -42 -26.5t-18 -47.5v-182h-36v181q0 59 52 80q-33 16 -76 11q8 56 50.5 92t100.5 36q65 0 104 -36t39 -99v-265z" />
    <glyph glyph-name="uni0E02" unicode="&#xe02;" horiz-adv-x="378" 
d="M322 83q0 -91 -92 -91q-90 0 -90 91v95q0 25 25 68t25 67q0 23 -19.5 40.5t-47.5 17.5q-44 0 -67 -29q9 4 23 4q26 0 42.5 -16.5t16.5 -41.5q0 -26 -16.5 -43.5t-42.5 -17.5q-31 0 -47.5 23t-16.5 56q0 37 28.5 65.5t79.5 28.5q44 0 72.5 -22t28.5 -60q0 -29 -24 -76
t-24 -69v-93q0 -56 55 -56t55 56v312h36v-309zM111 287q0 14 -9 23t-23 9t-23 -9t-9 -23t9 -23t23 -9t23 9t9 23z" />
    <glyph glyph-name="uni0E03" unicode="&#xe03;" horiz-adv-x="382" 
d="M326 83q0 -91 -92 -91q-90 0 -90 91v63q0 32 30 80.5t30 79.5q0 52 -38 60l-35 -42l-36 41q-32 -22 -43 -58q14 6 32 6q29 0 46 -18.5t17 -46.5q0 -29 -18.5 -47t-45.5 -18q-34 0 -52 28q-16 25 -16 61q0 43 24 80q26 41 67 49l25 -35l27 35q36 -4 59 -34q20 -28 20 -64
q0 -31 -28.5 -81t-28.5 -79v-63q0 -56 55 -56t55 56v312h36v-309zM115 249q0 14 -9 23t-23 9t-23 -9t-9 -23t9 -23t23 -9t23 9t9 23z" />
    <glyph glyph-name="uni0E04" unicode="&#xe04;" horiz-adv-x="393" 
d="M337 0h-36v269q0 48 -35.5 73.5t-80.5 25.5q-46 0 -80.5 -31.5t-34.5 -77.5q0 -22 8 -53q11 -44 12 -50q9 57 31 97q29 52 73 52q25 0 41 -16t16 -43q0 -25 -17 -42.5t-42 -17.5q-26 0 -46 24q-14 -21 -28 -60q-17 -48 -17 -85v-65h-36v92q0 29 -16 82t-16 81
q0 65 44 105t110 40q61 0 105.5 -32.5t44.5 -95.5v-272zM223 246q0 13 -9 22t-22 9t-22 -9t-9 -22t9 -22t22 -9t22 9t9 22z" />
    <glyph glyph-name="uni0E05" unicode="&#xe05;" horiz-adv-x="393" 
d="M337 0h-36v280q-1 69 -67 85l-48 -54l-53 55q-32 -17 -49 -52q-13 -26 -13 -49q0 -34 19 -119q27 136 102 136q26 0 42 -16t16 -42q0 -25 -16.5 -42t-40.5 -17q-32 0 -52 23q-13 -14 -25 -53q-13 -43 -13 -81v-54h-36v80q0 31 -17 89t-17 88q0 115 109 145l44 -51l40 51
q110 -22 111 -120v-282zM223 224q0 13 -9 22t-22 9t-22 -9t-9 -22t9 -22t22 -9t22 9t9 22z" />
    <glyph glyph-name="uni0E06" unicode="&#xe06;" horiz-adv-x="408" 
d="M175 61q0 14 -10.5 24.5t-24.5 10.5t-24.5 -10.5t-10.5 -24.5t10.5 -24.5t24.5 -10.5t24.5 10.5t10.5 24.5zM352 0h-36q-43 82 -122 99q14 -16 14 -38q0 -29 -19.5 -49t-48.5 -20q-30 0 -49.5 20t-19.5 49t20 48.5t49 19.5h4v17q0 32 30 80.5t30 79.5q0 52 -38 60
l-35 -42l-36 41q-32 -22 -43 -58q14 6 32 6q29 0 46 -18.5t17 -46.5q0 -29 -18.5 -47t-45.5 -18q-34 0 -52 28q-16 25 -16 61q0 43 24 80q26 41 67 49l25 -35l27 35q36 -4 57.5 -31.5t21.5 -66.5q0 -31 -28.5 -81t-28.5 -79v-15q89 -10 136 -74v338h36v-392zM115 249
q0 14 -9 23t-23 9t-23 -9t-9 -23t9 -23t23 -9t23 9t9 23z" />
    <glyph glyph-name="uni0E07" unicode="&#xe07;" horiz-adv-x="294" 
d="M238 0h-36l-186 208l20 23l166 -180v224q-14 -7 -31 -7q-27 0 -46.5 19.5t-19.5 45.5q0 29 19 48t47 19q32 0 51 -21q16 -19 16 -46v-333zM205 335q0 14 -10 24t-24 10t-24 -10t-10 -24t10 -24t24 -10t24 10t10 24z" />
    <glyph glyph-name="uni0E08" unicode="&#xe08;" horiz-adv-x="367" 
d="M311 65q0 -74 -71 -74q-56 0 -64 56l-17 112q-15 -9 -34 -9q-25 0 -42 17t-17 42q0 26 17 43.5t42 17.5q22 0 39 -14.5t21 -36.5l29 -170q4 -25 28 -25q33 0 33 36v235q0 39 -31 55.5t-72 16.5q-45 0 -74.5 -19t-36.5 -52h-37q5 42 39 70q41 34 108 34q140 0 140 -105
v-230zM157 209q0 13 -9 22t-22 9t-21.5 -9t-8.5 -22t8.5 -21.5t21.5 -8.5t22 8.5t9 21.5z" />
    <glyph glyph-name="uni0E09" unicode="&#xe09;" horiz-adv-x="377" 
d="M339 55q0 -26 -17 -44t-46 -18q-26 0 -44 18t-18 44q0 9 1 13q-57 -24 -87 -68h-45v93q0 29 7 44h-4q-25 0 -42.5 17.5t-17.5 42.5q0 26 17.5 43.5t42.5 17.5q26 0 43.5 -17.5t17.5 -43.5q0 -19 -14 -47.5t-14 -50.5v-64q33 48 109 71q57 26 57 86v100q0 35 -36 57
q-31 18 -72 18q-38 0 -70 -18q-36 -21 -44 -55h-37q3 42 40 72q42 34 109 34q65 0 104 -26q42 -29 42 -83v-101q0 -48 -27 -75q45 -14 45 -60zM310 55q0 14 -9.5 23.5t-23.5 9.5q-13 0 -23 -9.5t-10 -23.5q0 -13 10 -23t23 -10q14 0 23.5 10t9.5 23zM117 197q0 13 -8.5 21.5
t-21.5 8.5t-21.5 -8.5t-8.5 -21.5t8.5 -21.5t21.5 -8.5t21.5 8.5t8.5 21.5z" />
    <glyph glyph-name="uni0E0A" unicode="&#xe0a;" horiz-adv-x="380" 
d="M324 83q0 -91 -93 -91q-91 0 -91 91v95q0 25 25 68t25 67q0 23 -19.5 40.5t-47.5 17.5q-44 0 -67 -29q9 4 23 4q26 0 42.5 -16.5t16.5 -41.5q0 -26 -16.5 -43.5t-42.5 -17.5q-31 0 -47.5 23t-16.5 56q0 37 28.5 65.5t79.5 28.5q44 0 72.5 -22t28.5 -60q0 -29 -24 -76
t-24 -69v-93q0 -56 56 -56t56 56v161q0 44 -43 59q2 6 2 23q55 23 58 93h38q-3 -38 -21 -66t-37 -38q39 -15 39 -67v-162zM111 287q0 14 -9 23t-23 9t-23 -9t-9 -23t9 -23t23 -9t23 9t9 23z" />
    <glyph glyph-name="uni0E0B" unicode="&#xe0b;" horiz-adv-x="384" 
d="M115 249q0 14 -9 23t-23 9t-23 -9t-9 -23t9 -23t23 -9t23 9t9 23zM328 83q0 -91 -93 -91q-91 0 -91 91v63q0 32 30 80.5t30 79.5q0 52 -38 60l-35 -42l-36 41q-32 -22 -43 -58q14 6 32 6q29 0 46 -18.5t17 -46.5q0 -29 -18.5 -47t-45.5 -18q-34 0 -52 28q-16 25 -16 61
q0 43 24 80q26 41 67 49l25 -35l27 35q36 -4 59 -34q20 -28 20 -64q0 -31 -28.5 -81t-28.5 -79v-62q0 -57 56 -57t56 56v161q0 44 -40 58q1 9 -1 24q55 23 58 93h38q-3 -38 -21 -66t-37 -38q39 -15 39 -67v-162z" />
    <glyph glyph-name="uni0E0C" unicode="&#xe0c;" horiz-adv-x="519" 
d="M463 0h-37q-24 37 -80 70q2 -8 2 -13q0 -27 -17.5 -46.5t-48.5 -19.5q-27 0 -46.5 19.5t-19.5 46.5q0 26 17.5 45t42.5 21v142q0 103 -103 103q-32 0 -60.5 -19.5t-39.5 -49.5q56 -4 80 -44q-24 -5 -42 -26t-18 -47v-63q9 4 23 4q27 0 46.5 -19.5t19.5 -46.5t-18.5 -46.5
t-47.5 -19.5t-47.5 19.5t-18.5 46.5q0 16 7 29v95q0 54 52 79q-38 15 -79 11q9 56 49.5 92.5t95.5 36.5q63 0 100 -34.5t37 -96.5v-150q82 -28 115 -72v345h36v-392zM315 57q0 14 -10 24t-24 10t-23.5 -10t-9.5 -24t9.5 -23.5t23.5 -9.5t24 9.5t10 23.5zM150 57q0 14 -10 24
t-24 10t-23.5 -10t-9.5 -24t9.5 -23.5t23.5 -9.5t24 9.5t10 23.5z" />
    <glyph glyph-name="uni0E0D" unicode="&#xe0d;" horiz-adv-x="519" 
d="M478 -34q-2 -60 -31.5 -98.5t-92.5 -38.5q-40 0 -72 25t-32 62q0 22 16 38t38 16q23 0 39 -16t16 -38q0 -37 -35 -51q12 -7 29 -7q86 0 88 108h37zM332 -84q0 11 -8 19t-19 8t-19 -8t-8 -19t8 -19t19 -8t19 8t8 19zM157 57q0 14 -10 24t-24 10t-23.5 -10t-9.5 -24
t9.5 -23.5t23.5 -9.5t24 9.5t10 23.5zM463 82q0 -90 -98 -90q-97 0 -97 91v182q0 103 -97 103q-32 0 -59.5 -19t-38.5 -50q56 -4 80 -44q-24 -5 -42 -26t-18 -47v-65q13 6 30 6q28 0 47 -19t19 -46t-15.5 -47t-50.5 -20q-29 0 -47.5 18.5t-18.5 49.5v122q0 54 52 79
q-38 15 -79 11q9 56 48.5 92.5t94.5 36.5q62 0 96.5 -34t34.5 -97v-189q0 -56 62 -56q61 0 61 56v312h36v-310z" />
    <glyph glyph-name="uni0E0E" unicode="&#xe0e;" horiz-adv-x="425" 
d="M369 -215h-40q-8 24 -45.5 48t-67.5 32v-7q0 -32 -19 -54.5t-51 -22.5q-30 0 -47 17.5t-17 43.5q0 31 22 49t53 18q5 0 26 -3q4 37 37 56l27 -16q-30 -19 -31 -48q80 -28 117 -67v429q0 49 -30.5 78.5t-78.5 29.5q-34 0 -65.5 -19.5t-43.5 -49.5q53 -5 81 -44
q-54 -18 -54 -73q0 -39 9 -80q4 -18 4 -42q0 -29 -19.5 -48.5t-46.5 -19.5t-46 19t-19 46t19 46.5t46 19.5q11 0 24 -5q-6 46 -6 70q0 46 40 72q-27 12 -53 12q-13 0 -19 -1q5 56 48.5 92.5t101.5 36.5q64 0 104 -36.5t40 -99.5v-479zM180 -127q-9 3 -21 3q-45 0 -45 -32
q0 -31 33 -31q35 0 35 45q0 7 -2 15zM123 57q0 14 -10 24t-24 10t-23.5 -10t-9.5 -24t9.5 -23.5t23.5 -9.5t24 9.5t10 23.5z" />
    <glyph glyph-name="uni0E0F" unicode="&#xe0f;" horiz-adv-x="425" 
d="M147 -134q-9 9 -30 9q-39 0 -39 -34q0 -30 32 -30q37 0 37 55zM369 -215h-40l-54 61l-44 -60l-55 60q-1 -31 -20 -48.5t-44 -17.5q-31 0 -47.5 18t-16.5 44q0 29 19 46.5t47 17.5q19 0 33 -7q2 35 41 58l27 -16q-34 -21 -36 -56l49 -52l47 63l58 -65v429q0 49 -30.5 78.5
t-78.5 29.5q-34 0 -65.5 -19.5t-43.5 -49.5q53 -5 81 -44q-54 -18 -54 -73q0 -39 9 -80q4 -18 4 -42q0 -29 -19.5 -48.5t-46.5 -19.5t-46 19t-19 46t19 46.5t46 19.5q11 0 24 -5q-6 46 -6 70q0 46 40 72q-27 12 -53 12q-13 0 -19 -1q5 56 48.5 92.5t101.5 36.5
q64 0 104 -36.5t40 -99.5v-479zM123 57q0 14 -10 24t-24 10t-23.5 -10t-9.5 -24t9.5 -23.5t23.5 -9.5t24 9.5t10 23.5z" />
    <glyph glyph-name="uni0E10" unicode="&#xe10;" horiz-adv-x="343" 
d="M283 79q0 -88 -80 -88q-79 0 -79 88v51q-11 -4 -25 -4q-25 0 -42 16.5t-17 41.5q0 26 17 43.5t42 17.5q26 0 43.5 -15.5t17.5 -43.5v-110q0 -52 43 -52q44 0 44 52v145q0 24 -97 48q-58 15 -124 24q3 46 35 76.5t85 30.5q21 0 56.5 -11t54.5 -11q24 0 29 22l31 -7
q-16 -52 -58 -52q-22 0 -60.5 12t-58.5 12q-23 0 -44.5 -13.5t-23.5 -31.5q100 -20 142 -36q69 -25 69 -60v-145zM286 -216h-39l-43 27l-44 -26l-45 55q-1 -28 -20 -44t-45 -16q-64 1 -64 57q0 24 20 37t47 13q23 0 35 -5q6 41 44 61l27 -15q-41 -20 -42 -59l44 -51l43 22
l48 -30v45q-5 -1 -16 -1q-21 0 -36 13.5t-15 32.5t15 32.5t36 13.5q20 0 35 -12.5t15 -33.5v-116zM84 -147q-10 7 -34 7q-33 -2 -33 -26q0 -26 31 -26q38 0 38 32q0 5 -2 13zM260 -100q0 22 -24 22t-24 -22q0 -23 24 -23t24 23zM126 185q0 11 -8 19t-19 8t-18.5 -8t-7.5 -19
t7.5 -18.5t18.5 -7.5t19 7.5t8 18.5z" />
    <glyph glyph-name="uni0E11" unicode="&#xe11;" horiz-adv-x="461" 
d="M405 0h-36v320q0 45 -29 45q-11 0 -24 -26l-127 -339h-45v146q0 32 27 80.5t27 79.5q0 54 -32 60l-35 -42l-36 41q-32 -22 -43 -58q14 6 32 6q29 0 46 -18.5t17 -46.5q0 -29 -18.5 -47t-45.5 -18q-34 0 -52 28q-16 25 -16 61q0 43 25 82t66 47l25 -35l27 35q73 -9 73 -98
q0 -31 -25.5 -82t-25.5 -83l-4 -85q11 42 24 75l82 216q21 56 61 56q62 0 62 -80v-320zM115 249q0 14 -9 23t-23 9t-23 -9t-9 -23t9 -23t23 -9t23 9t9 23z" />
    <glyph glyph-name="uni0E12" unicode="&#xe12;" horiz-adv-x="532" 
d="M476 0h-36q-26 43 -81 71q2 -6 2 -14q0 -26 -18 -45.5t-48 -19.5t-48 19.5t-18 46.5q0 26 17.5 45t42.5 21v136q0 72 -46 102l-64 -58l-59 59q-23 -15 -37.5 -45t-14.5 -60q0 -29 20.5 -83.5t21.5 -88.5q8 17 30 39q26 24 35 37q-25 3 -39.5 19.5t-14.5 39.5q0 25 17 42
t42 17t42.5 -17.5t16.5 -41.5q-2 -46 -64 -110.5t-65 -110.5h-36v91q0 30 -21 82.5t-21 80.5q0 49 23 89q26 44 71 56l54 -57l54 58q44 -8 67.5 -48t23.5 -88v-145q82 -28 115 -67v340h36v-392zM211 222q0 14 -9 23t-23 9t-22.5 -9t-8.5 -23t8.5 -22.5t22.5 -8.5t23 8.5
t9 22.5zM328 57q0 14 -10 24t-24 10t-23.5 -10t-9.5 -24t9.5 -23.5t23.5 -9.5t24 9.5t10 23.5z" />
    <glyph glyph-name="uni0E13" unicode="&#xe13;" horiz-adv-x="543" 
d="M508 56q0 -28 -19 -46.5t-48 -18.5q-28 0 -47 18.5t-19 46.5v6q-36 -14 -64 -62h-43v265q0 103 -97 103q-32 0 -59.5 -19t-38.5 -50q56 -4 80 -44q-24 -5 -42 -26t-18 -47v-65q13 6 30 6q28 0 47 -19t19 -46q0 -29 -18.5 -48t-47.5 -19t-47.5 19.5t-18.5 48.5v122
q0 54 52 79q-38 15 -79 11q9 56 48.5 92.5t94.5 36.5q62 0 96.5 -34t34.5 -97v-221q23 30 64 49q49 24 58 31q25 22 25 67v197h36v-195q0 -60 -19 -79q40 -17 40 -62zM157 57q0 14 -10 24t-24 10t-23.5 -10t-9.5 -24t9.5 -23.5t23.5 -9.5t24 9.5t10 23.5zM475 56
q0 14 -10 24t-24 10t-24 -10t-10 -24t10 -24t24 -10t24 10t10 24z" />
    <glyph glyph-name="uni0E14" unicode="&#xe14;" horiz-adv-x="391" 
d="M335 0h-36v260q0 108 -115 108q-46 0 -81 -31.5t-35 -77.5q0 -29 16 -78.5t16 -76.5q0 -20 -2 -27q12 26 41 58l47 51q-25 0 -42 17t-17 42t17 42t42 17t42 -17t17 -42q0 -48 -70.5 -122t-73.5 -123h-36v90q0 29 -16.5 82.5t-16.5 81.5q0 68 45 107t112 39
q69 0 107.5 -36.5t38.5 -98.5v-265zM217 245q0 13 -9 22t-22 9t-22 -9t-9 -22t9 -22t22 -9t22 9t9 22z" />
    <glyph glyph-name="uni0E15" unicode="&#xe15;" horiz-adv-x="391" 
d="M335 0h-36v260q0 74 -48 103l-64 -59l-68 59q-50 -32 -50 -104q0 -31 16 -85.5t16 -94.5q10 20 40.5 45t40.5 40q-23 2 -38.5 18t-15.5 40q0 25 16.5 42t41.5 17t42 -17t17 -42q0 -46 -70 -110t-73 -112h-36v90q0 29 -17 82.5t-17 81.5q0 49 22 89q26 45 71 57l62 -55
l57 55q44 -8 69 -51q22 -37 22 -84v-265zM219 223q0 13 -9 22t-22 9t-22 -9t-9 -22t9 -22t22 -9t22 9t9 22z" />
    <glyph glyph-name="uni0E16" unicode="&#xe16;" horiz-adv-x="378" 
d="M322 0h-36v261q0 51 -30 79t-79 28q-34 0 -65 -19.5t-43 -49.5q61 -5 79 -43q-23 -5 -41 -26.5t-18 -46.5v-65q16 7 30 7q28 0 47.5 -19.5t19.5 -47.5q0 -30 -19 -48t-48 -18q-28 0 -47 19t-19 47v124q0 54 51 79q-27 11 -78 11q8 55 52 91.5t101 36.5q64 0 103.5 -36
t39.5 -99v-265zM154 57q0 14 -10 24t-24 10t-23.5 -10t-9.5 -24t9.5 -23.5t23.5 -9.5t24 9.5t10 23.5z" />
    <glyph glyph-name="uni0E17" unicode="&#xe17;" horiz-adv-x="430" 
d="M374 0h-36v320q0 45 -29 45q-18 0 -31 -26l-127 -339h-38v275q-13 -7 -30 -7q-27 0 -46.5 19.5t-19.5 46.5t19.5 46.5t46.5 19.5t46.5 -19.5t19.5 -46.5v-196q-2 -46 -5 -66q6 20 18 56l81 216q21 56 69 56q62 0 62 -80v-320zM117 334q0 14 -10 24t-24 10t-24 -10
t-10 -24t10 -24t24 -10t24 10t10 24z" />
    <glyph glyph-name="uni0E18" unicode="&#xe18;" horiz-adv-x="335" 
d="M277 76q0 -83 -110 -83t-110 83v156h36v-158q0 -49 74 -49t74 49v148q0 24 -97 48q-59 15 -124 24q3 45 32.5 75.5t80.5 30.5q23 0 60 -11t55 -11q24 0 28 23l31 -7q-15 -49 -57 -49q-22 0 -60.5 11.5t-58.5 11.5q-21 0 -41.5 -14t-23.5 -33q108 -22 133 -30
q78 -26 78 -66v-149z" />
    <glyph glyph-name="uni0E19" unicode="&#xe19;" horiz-adv-x="420" 
d="M384 57q0 -27 -19.5 -46t-46.5 -19t-46 19t-19 46v7q-62 -25 -96 -64h-44v275q-13 -7 -30 -7q-27 0 -46.5 19.5t-19.5 46.5t19.5 46.5t46.5 19.5t46.5 -19.5t19.5 -46.5v-295q20 22 71 45q57 26 74 40q34 27 34 69v199h36v-204q0 -48 -22 -70q42 -17 42 -61zM117 334
q0 14 -10 24t-24 10t-24 -10t-10 -24t10 -24t24 -10t24 10t10 24zM352 58q0 14 -10 24t-24 10t-24 -10t-10 -24t10 -24t24 -10t24 10t10 24z" />
    <glyph glyph-name="uni0E1A" unicode="&#xe1a;" horiz-adv-x="428" 
d="M372 85q0 -93 -129 -93q-130 0 -130 93v190q-13 -7 -30 -7q-27 0 -46.5 19.5t-19.5 46.5t19.5 46.5t46.5 19.5t46.5 -19.5t19.5 -46.5v-246q0 -63 94 -63q93 0 93 63v304h36v-307zM117 334q0 14 -10 24t-24 10t-24 -10t-10 -24t10 -24t24 -10t24 10t10 24z" />
    <glyph glyph-name="uni0E1B" unicode="&#xe1b;" horiz-adv-x="428" 
d="M372 85q0 -93 -129 -93q-130 0 -130 93v190q-13 -7 -30 -7q-27 0 -46.5 19.5t-19.5 46.5t19.5 46.5t46.5 19.5t46.5 -19.5t19.5 -46.5v-246q0 -63 94 -63q93 0 93 63v471h36v-474zM117 334q0 14 -10 24t-24 10t-24 -10t-10 -24t10 -24t24 -10t24 10t10 24z" />
    <glyph glyph-name="uni0E1C" unicode="&#xe1c;" horiz-adv-x="381" 
d="M325 0h-40l-103 158l-102 -158h-40v334q0 27 19 46.5t47 19.5q27 0 46.5 -19.5t19.5 -46.5q0 -26 -19 -46t-47 -20q-14 0 -30 7v-221l92 142h27l94 -142v338h36v-392zM141 334q0 14 -10 24t-24 10t-24 -10t-10 -24t10 -24t24 -10t24 10t10 24z" />
    <glyph glyph-name="uni0E1D" unicode="&#xe1d;" horiz-adv-x="381" 
d="M325 0h-40l-103 158l-102 -158h-40v334q0 27 19 46.5t47 19.5q27 0 46.5 -19.5t19.5 -46.5q0 -26 -19 -46t-47 -20q-14 0 -30 7v-221l92 142h27l94 -142v505h36v-559zM141 334q0 14 -10 24t-24 10t-24 -10t-10 -24t10 -24t24 -10t24 10t10 24z" />
    <glyph glyph-name="uni0E1E" unicode="&#xe1e;" horiz-adv-x="447" 
d="M391 0h-44l-95 347l-95 -347h-44v275q-13 -7 -30 -7q-27 0 -46.5 19.5t-19.5 46.5t19.5 46.5t46.5 19.5t46.5 -19.5t19.5 -46.5v-209q0 -25 -5 -70q7 33 18 73l73 264h34l73 -264q11 -40 18 -73q-5 45 -5 70v267h36v-392zM117 334q0 14 -10 24t-24 10t-24 -10t-10 -24
t10 -24t24 -10t24 10t10 24z" />
    <glyph glyph-name="uni0E1F" unicode="&#xe1f;" horiz-adv-x="447" 
d="M391 0h-44l-95 347l-95 -347h-44v275q-13 -7 -30 -7q-27 0 -46.5 19.5t-19.5 46.5t19.5 46.5t46.5 19.5t46.5 -19.5t19.5 -46.5v-209q0 -25 -5 -70q7 33 18 73l73 264h34l73 -264q11 -40 18 -73q-5 45 -5 70v434h36v-559zM117 334q0 14 -10 24t-24 10t-24 -10t-10 -24
t10 -24t24 -10t24 10t10 24z" />
    <glyph glyph-name="uni0E20" unicode="&#xe20;" horiz-adv-x="425" 
d="M369 0h-36v260q0 49 -30.5 78.5t-78.5 29.5q-34 0 -65.5 -19.5t-43.5 -49.5q53 -5 81 -44q-54 -18 -54 -73q0 -39 9 -80q4 -18 4 -42q0 -29 -17.5 -48.5t-48.5 -19.5q-27 0 -46 19t-19 46t19 46.5t46 19.5q11 0 24 -5q-6 46 -6 70q0 46 40 72q-27 12 -53 12q-13 0 -19 -1
q5 56 48.5 92.5t101.5 36.5q64 0 104 -36.5t40 -99.5v-264zM123 57q0 14 -10 24t-24 10t-23.5 -10t-9.5 -24t9.5 -23.5t23.5 -9.5t24 9.5t10 23.5z" />
    <glyph glyph-name="uni0E21" unicode="&#xe21;" horiz-adv-x="400" 
d="M344 0h-39q-78 60 -146 79q3 -9 3 -18q0 -29 -20.5 -49t-49.5 -20t-49 20t-20 49t20 49.5t49 20.5q11 0 21 -3v147q-13 -7 -30 -7q-27 0 -46.5 19.5t-19.5 46.5t19.5 46.5t46.5 19.5t46.5 -19.5t19.5 -46.5v-216q99 -35 159 -81v355h36v-392zM129 62q0 15 -11 26t-26 11
t-26 -11t-11 -26t11 -26t26 -11t26 11t11 26zM117 334q0 14 -10 24t-24 10t-24 -10t-10 -24t10 -24t24 -10t24 10t10 24z" />
    <glyph glyph-name="uni0E22" unicode="&#xe22;" horiz-adv-x="375" 
d="M319 89q0 -97 -135 -97q-136 0 -136 97v51q0 23 13.5 44t33.5 29q-53 23 -53 99q0 39 22.5 63.5t62.5 24.5q25 0 41 -17t16 -40t-15 -39.5t-42 -16.5q-37 0 -52 33q-1 -3 -1 -16q0 -28 17.5 -51t45.5 -23h57v-34h-58q-22 0 -37 -16t-15 -42v-46q0 -67 100 -67q99 0 99 67
v300h36v-303zM158 343q0 14 -9 23t-23 9t-22.5 -9t-8.5 -23q0 -31 31 -31q14 0 23 8.5t9 22.5z" />
    <glyph glyph-name="uni0E23" unicode="&#xe23;" horiz-adv-x="322" 
d="M254 58q0 -27 -18 -46.5t-48 -19.5q-27 0 -46.5 19.5t-19.5 46.5t19.5 46.5t46.5 19.5q17 0 30 -7v105q0 41 -193 72q6 106 97 106q21 0 59.5 -10.5t55.5 -10.5q10 0 19 23l31 -8q-15 -48 -51 -48q-21 0 -60.5 11t-59.5 11q-18 0 -33.5 -15.5t-16.5 -31.5q64 -11 126 -33
t62 -63v-167zM222 58q0 14 -10 24t-24 10t-24 -10t-10 -24t10 -24t24 -10t24 10t10 24z" />
    <glyph glyph-name="uni0E24" unicode="&#xe24;" horiz-adv-x="378" 
d="M322 -200h-36v461q0 51 -30 79t-79 28q-34 0 -65 -19.5t-43 -49.5q61 -5 79 -43q-23 -5 -41 -26.5t-18 -46.5v-65q16 7 30 7q28 0 47.5 -19.5t19.5 -47.5t-19.5 -47t-47.5 -19t-47 19t-19 47v124q0 54 51 79q-27 11 -78 11q8 55 52 91.5t101 36.5q64 0 103.5 -36
t39.5 -99v-465zM154 57q0 14 -10 24t-24 10t-23.5 -10t-9.5 -24t9.5 -23.5t23.5 -9.5t24 9.5t10 23.5z" />
    <glyph glyph-name="uni0E25" unicode="&#xe25;" horiz-adv-x="381" 
d="M325 0h-36v171q0 35 -37 56q-31 17 -72 17q-40 0 -68 -21.5t-28 -55.5v-50q14 7 33 7q28 0 47 -19.5t19 -46.5t-19 -46.5t-47 -19.5q-31 0 -50 20t-19 47v108q0 50 40 82q37 30 89 30q70 0 112 -40v49q0 36 -38 60q-33 20 -73 20q-42 0 -76 -18q-37 -20 -46 -54h-35
q7 46 54 76q44 28 101 28q58 0 100 -27q49 -32 49 -87v-286zM150 57q0 14 -10 24t-24 10t-23.5 -10t-9.5 -24t9.5 -23.5t23.5 -9.5t24 9.5t10 23.5z" />
    <glyph glyph-name="uni0E26" unicode="&#xe26;" horiz-adv-x="425" 
d="M369 -200h-36v460q0 49 -30.5 78.5t-78.5 29.5q-34 0 -65.5 -19.5t-43.5 -49.5q53 -5 81 -44q-54 -18 -54 -73q0 -39 9 -80q4 -18 4 -42q0 -29 -19.5 -48.5t-46.5 -19.5t-46 19t-19 46t19 46.5t46 19.5q11 0 24 -5q-6 46 -6 70q0 46 40 72q-27 12 -53 12q-13 0 -19 -1
q5 56 48.5 92.5t101.5 36.5q64 0 104 -36.5t40 -99.5v-464zM123 57q0 14 -10 24t-24 10t-23.5 -10t-9.5 -24t9.5 -23.5t23.5 -9.5t24 9.5t10 23.5z" />
    <glyph glyph-name="uni0E27" unicode="&#xe27;" horiz-adv-x="335" 
d="M279 58q0 -27 -19.5 -46.5t-46.5 -19.5t-46.5 19.5t-19.5 46.5t19.5 46.5t46.5 19.5q17 0 30 -7v162q0 89 -99 89q-78 0 -97 -72h-37q22 104 136 104q57 0 95 -30t38 -85v-227zM247 58q0 14 -10 24t-24 10t-24 -10t-10 -24t10 -24t24 -10t24 10t10 24z" />
    <glyph glyph-name="uni0E28" unicode="&#xe28;" horiz-adv-x="393" 
d="M337 0h-36v269q0 44 -35 71q-7 -6 -51 -39q35 -14 35 -56q0 -24 -17 -41t-41 -17q-30 0 -47 23q-14 -21 -28 -60q-16 -48 -16 -85v-65h-36v92q0 29 -16 82t-16 81q0 65 44 105t110 40q42 0 79 -17q36 32 38 47h46q-4 -24 -54 -66q41 -33 41 -92v-272zM237 358
q-24 10 -52 10q-46 0 -80.5 -31.5t-34.5 -77.5q0 -22 8 -53q11 -44 12 -50q19 102 68 140zM222 245q0 13 -9 22t-22 9t-22 -9t-9 -22t9 -22t22 -9t22 9t9 22z" />
    <glyph glyph-name="uni0E29" unicode="&#xe29;" horiz-adv-x="438" 
d="M443 239q-14 -27 -61 -64v-90q0 -93 -134 -93q-135 0 -135 93v190q-13 -7 -30 -7q-27 0 -46.5 19.5t-19.5 46.5t19.5 46.5t46.5 19.5t46.5 -19.5t19.5 -46.5v-246q0 -63 98 -63q99 0 99 63v73q-30 -7 -49 -7q-46 0 -80 25t-34 61q0 23 16 38.5t38 15.5q23 0 39 -15.5
t16 -38.5q0 -35 -35 -51q12 -7 40 -7q27 0 49 10v200h36v-180q24 18 39 46zM265 240q0 11 -8.5 19.5t-19.5 8.5t-19 -8.5t-8 -19.5t8 -19t19 -8t19.5 8t8.5 19zM117 334q0 14 -10 24t-24 10t-24 -10t-10 -24t10 -24t24 -10t24 10t10 24z" />
    <glyph glyph-name="uni0E2A" unicode="&#xe2a;" horiz-adv-x="381" 
d="M325 0h-36v163q0 35 -37 56q-31 17 -72 17q-40 0 -68 -21.5t-28 -55.5v-42q14 7 33 7q28 0 47 -19.5t19 -46.5t-19 -46.5t-47 -19.5q-31 0 -50 20t-19 47v100q0 50 40 82q37 30 89 30h6q45 37 76 72q-37 25 -81 25q-42 0 -76 -18q-37 -20 -46 -54h-35q7 46 54 76
q44 28 101 28t103 -29q21 24 27 56h36q-7 -40 -38 -79q21 -27 21 -62v-286zM289 231v57q0 14 -9 32q-28 -30 -60 -54q42 -10 69 -35zM150 57q0 14 -10 24t-24 10t-23.5 -10t-9.5 -24t9.5 -23.5t23.5 -9.5t24 9.5t10 23.5z" />
    <glyph glyph-name="uni0E2B" unicode="&#xe2b;" horiz-adv-x="427" 
d="M371 0h-36v216q0 46 -24 46q-15 0 -36 -35l-129 -227h-33v275q-13 -7 -30 -7q-27 0 -46.5 19.5t-19.5 46.5t19.5 46.5t46.5 19.5t46.5 -19.5t19.5 -46.5v-217q0 -9 -5 -62q12 25 22 44l81 149q14 25 33 35q-24 19 -24 51q0 27 19.5 46.5t46.5 19.5t46.5 -19.5t19.5 -46.5
q0 -38 -33 -57q16 -17 16 -61v-216zM117 334q0 14 -10 24t-24 10t-24 -10t-10 -24t10 -24t24 -10t24 10t10 24zM356 334q0 14 -10 24t-24 10t-24 -10t-10 -24t10 -24t24 -10t24 10t10 24z" />
    <glyph glyph-name="uni0E2C" unicode="&#xe2c;" horiz-adv-x="454" 
d="M398 0h-44l-100 195l-100 -195h-41v275q-13 -7 -30 -7q-27 0 -46.5 19.5t-19.5 46.5t19.5 46.5t46.5 19.5t46.5 -19.5t19.5 -46.5v-236q0 -16 -3 -49q6 17 17 43l74 140h34l74 -140l19 -43q-2 32 -2 49v177q-13 -7 -30 -7q-27 0 -46.5 19.5t-19.5 46.5t19.5 46.5
t46.5 19.5q16 0 30 -8q20 9 25 39h46q-9 -37 -44 -64q9 -18 9 -33v-334zM117 334q0 14 -10 24t-24 10t-24 -10t-10 -24t10 -24t24 -10t24 10t10 24zM366 334q0 14 -10 24t-24 10t-24 -10t-10 -24t10 -24t24 -10t24 10t10 24z" />
    <glyph glyph-name="uni0E2D" unicode="&#xe2d;" horiz-adv-x="387" 
d="M165 208q0 14 -10 24t-24 10t-24 -10t-10 -24t10 -24t24 -10t24 10t10 24zM331 85q-2 -93 -134 -93t-132 93v123q0 27 19.5 46.5t46.5 19.5t46.5 -19.5t19.5 -46.5t-18 -46.5t-48 -19.5q-17 0 -30 7v-56q0 -68 98 -68q96 0 96 68v186q0 42 -35 67q-32 22 -79 22
q-41 0 -75 -19q-37 -21 -44 -53h-36q10 47 52.5 75.5t104.5 28.5q59 0 100 -28q48 -32 48 -87v-200z" />
    <glyph glyph-name="uni0E2E" unicode="&#xe2e;" horiz-adv-x="372" 
d="M316 89q0 -97 -133 -97q-135 0 -135 97v93q0 27 19.5 46.5t46.5 19.5t46.5 -19.5t19.5 -46.5t-17 -46.5t-49 -19.5q-17 0 -30 7v-30q0 -68 99 -68q97 0 97 69v203q-43 -29 -132 -29q-111 0 -111 60q0 38 50 58q38 15 86 15q76 0 121 -49q16 27 17 49h38q-7 -41 -40 -78
q7 -14 7 -40v-194zM273 324q-11 19 -40.5 32.5t-60.5 13.5q-35 0 -64 -10q-35 -12 -35 -32q0 -28 77 -28q75 0 123 24zM148 182q0 14 -10 24t-24 10t-24 -10t-10 -24t10 -24t24 -10t24 10t10 24z" />
    <glyph glyph-name="uni0E2F" unicode="&#xe2f;" horiz-adv-x="391" 
d="M333 0h-36v327q0 31 -31 33q-35 -98 -116 -98q-47 0 -71.5 20.5t-24.5 53.5q0 26 19 45t45 19t45 -19t19 -45q0 -22 -14 -39q55 19 69 95h36q60 0 60 -62v-330zM147 337q0 13 -8.5 21.5t-21.5 8.5t-21 -8.5t-8 -21.5t8 -21t21 -8t21.5 8t8.5 21z" />
    <glyph glyph-name="uni0E30" unicode="&#xe30;" horiz-adv-x="357" 
d="M303 382q-2 -68 -41 -111.5t-101 -43.5q-51 0 -86 19q-44 23 -44 69q0 26 19 45t45 19t45 -19t19 -45q0 -34 -29 -53q16 -4 25 -4q54 2 82 35.5t30 88.5h36zM125 315q0 14 -9 23t-23 9t-22.5 -9t-8.5 -23t8.5 -22.5t22.5 -8.5t23 8.5t9 22.5zM303 170q-2 -68 -41 -111.5
t-101 -43.5q-51 0 -86 19q-44 23 -44 69q0 26 19 45t45 19t45 -19t19 -45q0 -34 -29 -53q16 -4 25 -4q54 2 82 35.5t30 88.5h36zM125 103q0 14 -9 23t-23 9t-22.5 -9t-8.5 -23t8.5 -22.5t22.5 -8.5t23 8.5t9 22.5z" />
    <glyph glyph-name="uni0E31" unicode="&#xe31;" 
d="M49 619q-1 -68 -45 -111.5t-111 -43.5q-58 0 -93 24t-35 63q0 26 19 45t45 19t45 -18.5t19 -44.5q0 -34 -30 -54q14 -3 37 -3q49 1 81 39q28 35 30 85h38zM-139 553q0 14 -9.5 23.5t-22.5 9.5t-23 -9.5t-10 -23.5t10 -23t23 -9t22.5 9t9.5 23z" />
    <glyph glyph-name="uni0E32" unicode="&#xe32;" horiz-adv-x="316" 
d="M260 0h-36v299q0 30 -22.5 49.5t-61.5 19.5q-35 0 -56 -23.5t-23 -50.5h-37q1 42 33.5 74t83.5 32q58 0 88.5 -28t30.5 -74v-298z" />
    <glyph glyph-name="uni0E33" unicode="&#xe33;" horiz-adv-x="316" 
d="M260 0h-36v299q0 30 -22.5 49.5t-61.5 19.5q-35 0 -56 -23.5t-23 -50.5h-37q1 42 33.5 74t83.5 32q58 0 88.5 -28t30.5 -74v-298zM-9 538q0 -32 -22 -54t-54 -22t-54.5 22t-22.5 54t22.5 54.5t54.5 22.5t54 -22.5t22 -54.5zM-42 538q0 18 -13 31t-30 13q-18 0 -31 -13
t-13 -31t13 -30.5t31 -12.5q17 0 30 12.5t13 30.5z" />
    <glyph glyph-name="uni0E34" unicode="&#xe34;" 
d="M-50 455q-115 41 -216 41q-36 0 -79 -6q1 52 43 84q38 29 91 29q135 0 161 -148zM-89 493q-44 81 -121 81q-70 0 -94 -53q21 3 47 3q96 0 168 -31z" />
    <glyph glyph-name="uni0E35" unicode="&#xe35;" 
d="M-50 455q-115 41 -216 41q-36 0 -79 -6q1 52 43 84q38 29 91 29q80 0 122 -53v97h33v-165q4 -13 6 -27zM-89 493q-44 81 -121 81q-70 0 -94 -53q21 3 47 3q96 0 168 -31z" />
    <glyph glyph-name="uni0E36" unicode="&#xe36;" 
d="M-50 455q-115 41 -216 41q-36 0 -79 -6q1 52 43 84q38 29 91 29q54 0 93 -26q-3 8 -3 16q0 20 14.5 34.5t34.5 14.5t34.5 -14.5t14.5 -34.5t-14.5 -34.5t-34.5 -14.5q-5 0 -13 2q25 -35 35 -91zM-89 493q-44 81 -121 81q-70 0 -94 -53q21 3 47 3q96 0 168 -31zM-46 593
q0 11 -7.5 18.5t-18.5 7.5t-18.5 -7.5t-7.5 -18.5t7.5 -18.5t18.5 -7.5t18.5 7.5t7.5 18.5z" />
    <glyph glyph-name="uni0E37" unicode="&#xe37;" 
d="M-50 455q-115 41 -216 41q-36 0 -79 -6q1 52 43 84q38 29 91 29q23 0 42 -4v48h33v-60q28 -13 47 -37v97h33v-165q4 -13 6 -27zM-89 493q-44 81 -121 81q-70 0 -94 -53q21 3 47 3q96 0 168 -31z" />
    <glyph glyph-name="uni0E38" unicode="&#xe38;" 
d="M-56 -232h-35v81q-8 -3 -18 -3q-22 0 -37.5 15.5t-15.5 37.5t15.5 37.5t37.5 15.5t37.5 -15.5t15.5 -37.5v-131zM-83 -100q0 11 -7.5 18.5t-18.5 7.5t-18.5 -7.5t-7.5 -18.5t7.5 -18.5t18.5 -7.5t18.5 7.5t7.5 18.5z" />
    <glyph glyph-name="uni0E39" unicode="&#xe39;" 
d="M-56 -183q0 -62 -72 -62q-68 0 -68 60v34q-8 -3 -18 -3q-22 0 -37.5 15.5t-15.5 37.5t15.5 37.5t37.5 15.5t37.5 -15.5t15.5 -37.5v-90q0 -23 35 -23q34 0 34 23v139h36v-131zM-188 -100q0 11 -7.5 18.5t-18.5 7.5t-18.5 -7.5t-7.5 -18.5t7.5 -18.5t18.5 -7.5t18.5 7.5
t7.5 18.5z" />
    <glyph glyph-name="uni0E3A" unicode="&#xe3a;" 
d="M-48 -69q0 -11 -7.5 -19t-18.5 -8t-19 8t-8 19t8 18.5t19 7.5t18.5 -7.5t7.5 -18.5z" />
    <glyph glyph-name="uni0E3F" unicode="&#xe3f;" horiz-adv-x="411" 
d="M335 146q0 -105 -129 -121v-84h-33v81h-16q-37 0 -82 9v410q56 13 91 13h7v69h33v-71q112 -15 112 -106q0 -67 -64 -95q31 -11 54 -36q27 -30 27 -69zM299 145q0 45 -38 69q-34 20 -89 20h-59v-175q19 -5 52 -5q54 0 90 20q44 24 44 71zM281 345q0 41 -38 61
q-31 16 -77 16q-20 0 -53 -7v-148h70q46 0 72 22.5t26 55.5z" />
    <glyph glyph-name="uni0E40" unicode="&#xe40;" horiz-adv-x="203" 
d="M188 62q0 -28 -19.5 -48t-47.5 -20q-31 0 -51 22q-17 19 -17 46v338h36v-279q14 8 32 8q28 0 47.5 -19.5t19.5 -47.5zM155 62q0 14 -10 24t-24 10t-24 -10t-10 -24t10 -24t24 -10t24 10t10 24z" />
    <glyph glyph-name="uni0E41" unicode="&#xe41;" horiz-adv-x="377" 
d="M188 62q0 -28 -19.5 -48t-47.5 -20q-31 0 -51 22q-17 19 -17 46v338h36v-279q14 8 32 8q28 0 47.5 -19.5t19.5 -47.5zM155 62q0 14 -10 24t-24 10t-24 -10t-10 -24t10 -24t24 -10t24 10t10 24zM361 62q0 -28 -19.5 -48t-47.5 -20q-31 0 -51 22q-17 19 -17 46v338h36v-279
q14 8 32 8q28 0 47.5 -19.5t19.5 -47.5zM328 62q0 14 -10 24t-24 10t-24 -10t-10 -24t10 -24t24 -10t24 10t10 24z" />
    <glyph glyph-name="uni0E42" unicode="&#xe42;" horiz-adv-x="237" 
d="M189 60q0 14 -10.5 24t-24.5 10q-13 0 -23 -10t-10 -24t9.5 -24t23.5 -10t24.5 10t10.5 24zM222 60q0 -28 -20 -48t-48 -20q-32 0 -51 22q-17 19 -17 46v416q0 28 -43 54t-82 27q5 94 92 94q16 0 52 -15.5t48 -15.5q18 0 22 25l30 -8q-14 -50 -47 -50q-16 0 -53.5 16.5
t-54.5 16.5q-44 0 -47 -37q119 -35 119 -111v-353q14 8 32 8q28 0 48 -19.5t20 -47.5z" />
    <glyph glyph-name="uni0E43" unicode="&#xe43;" horiz-adv-x="242" 
d="M227 60q0 -28 -20 -48t-47 -20q-32 0 -52 22q-17 19 -17 46v409q0 17 9 39q21 51 21 63q0 25 -17 41t-42 16q-37 0 -57 -23q27 4 45 -12t18 -42q0 -23 -16 -39t-38 -16t-39 16t-17 48q0 41 29 69t78 28q36 0 64.5 -22.5t28.5 -57.5q0 -21 -15.5 -58t-15.5 -57v-343
q14 8 33 8q27 0 47 -19.5t20 -47.5zM194 60q0 14 -10.5 24t-24.5 10q-13 0 -23 -10t-10 -24t9.5 -24t23.5 -10t24.5 10t10.5 24zM41 551q0 11 -7.5 19.5t-20.5 8.5t-20.5 -8.5t-7.5 -19.5t7.5 -19.5t20.5 -8.5t20.5 8.5t7.5 19.5z" />
    <glyph glyph-name="uni0E44" unicode="&#xe44;" horiz-adv-x="244" 
d="M229 60q0 -28 -20 -48t-47 -20q-32 0 -52 22q-17 19 -17 46v541l-72 -104l-33 12q-5 67 -23 156h31q16 -87 19 -131l82 121q13 -1 22.5 -12t9.5 -23v-501q14 8 33 8q27 0 47 -19.5t20 -47.5zM195 60q0 14 -10 24t-24 10t-24 -10t-10 -24t10 -24t24 -10t24 10t10 24z" />
    <glyph glyph-name="uni0E45" unicode="&#xe45;" horiz-adv-x="205" 
d="M149 -200h-36v499q0 30 -22.5 49.5t-61.5 19.5q-35 0 -56 -23.5t-23 -50.5h-37q1 42 33.5 74t83.5 32q58 0 88.5 -28t30.5 -74v-498z" />
    <glyph glyph-name="uni0E46" unicode="&#xe46;" horiz-adv-x="399" 
d="M334 -170h-37v470q0 51 -46 79l-47 -36l-55 37q-42 -18 -48 -74q15 10 31 10q26 0 44 -18t18 -44t-18 -43.5t-44 -17.5q-31 0 -50.5 23t-20.5 69q-3 99 92 128l49 -33l46 33q86 -33 86 -113v-470zM162 254q0 13 -8.5 21.5t-21.5 8.5t-21 -8.5t-8 -21.5t8 -21t21 -8
t21.5 8t8.5 21z" />
    <glyph glyph-name="uni0E47" unicode="&#xe47;" 
d="M-54 511q0 -22 -15.5 -36t-35.5 -14q-42 0 -96 43q-27 -9 -51 -44q-40 25 -40 78q0 78 85 78h66q49 0 52 72h34q0 -43 -22 -72t-65 -29h-69q-48 0 -48 -46q0 -22 11 -39q25 28 51 32q17 -15 49 -36q-1 8 -1 13q0 20 13.5 33.5t33.5 13.5t34 -14t14 -33zM-80 511
q0 9 -6.5 15.5t-15.5 6.5t-15.5 -6.5t-6.5 -15.5t6.5 -15.5t15.5 -6.5t15.5 6.5t6.5 15.5z" />
    <glyph glyph-name="uni0E48" unicode="&#xe48;" 
d="M-56 680h-33v111h33v-111z" />
    <glyph glyph-name="uni0E49" unicode="&#xe49;" 
d="M42 826q-14 -86 -74 -121q-48 -28 -133 -28h-18v19q33 14 47 39q-20 0 -35 14.5t-15 35.5t15 36t36 15q20 0 34 -14t16 -37q0 -50 -45 -82q119 10 135 123h37zM-113 785q0 10 -6.5 17t-16.5 7t-17 -7t-7 -17t7 -16.5t17 -6.5t16.5 6.5t6.5 16.5z" />
    <glyph glyph-name="uni0E4A" unicode="&#xe4a;" 
d="M-147 725q0 10 -6.5 17t-16.5 7t-17 -7t-7 -17t7 -16.5t17 -6.5t16.5 6.5t6.5 16.5zM43 824q-3 -149 -144 -149v22q40 20 40 64q0 34 -33 44l-28 -31l-28 31q-10 -1 -24 -11q-11 -8 -15 -21q5 2 9.5 3t9.5 1q21 0 35.5 -15t14.5 -36t-14.5 -35.5t-35.5 -14.5
q-26 0 -40 17t-14 46q0 37 23.5 65.5t55.5 28.5l24 -30l22 30q30 -1 47.5 -20.5t17.5 -49.5q0 -36 -22 -59q23 2 42 29q25 34 25 91h32z" />
    <glyph glyph-name="uni0E4B" unicode="&#xe4b;" 
d="M-4 719h-53v-39h-31v39h-53v28h53v43h31v-43h53v-28z" />
    <glyph glyph-name="uni0E4C" unicode="&#xe4c;" 
d="M-11 807q-3 -32 -32 -46q-16 -9 -45 -15q-28 -5 -35 -13q21 -2 35 -16.5t14 -35.5q0 -22 -15 -36.5t-36 -14.5q-22 0 -37.5 14.5t-15.5 36.5q0 66 68 85l44 13q24 8 24 28h31zM-99 680q0 10 -7.5 18t-17.5 8q-11 0 -18.5 -8t-7.5 -18t7.5 -18t18.5 -8q10 0 17.5 8t7.5 18
z" />
    <glyph glyph-name="uni0E4D" unicode="&#xe4d;" 
d="M-9 538q0 -32 -22 -54t-54 -22t-54.5 22t-22.5 54t22.5 54.5t54.5 22.5t54 -22.5t22 -54.5zM-42 538q0 18 -13 31t-30 13q-18 0 -31 -13t-13 -31t13 -30.5t31 -12.5q17 0 30 12.5t13 30.5z" />
    <glyph glyph-name="uni0E4E" unicode="&#xe4e;" 
d="M-31 664l-9 -25q-17 5 -37 5q-46 0 -46 -31q0 -33 50 -39l-9 -23q-12 4 -24 4q-28 0 -45.5 -12.5t-17.5 -27.5q0 -27 45 -27q13 0 32 8l1 -25q-19 -8 -46 -8q-25 0 -43 14.5t-18 38.5q0 25 20 42t45 17q-20 13 -20 38q0 58 77 58q27 0 45 -7z" />
    <glyph glyph-name="uni0E4F" unicode="&#xe4f;" horiz-adv-x="450" 
d="M289 163q0 26 -18.5 45t-45.5 19t-45.5 -19t-18.5 -45q0 -27 18.5 -45.5t45.5 -18.5t45.5 18.5t18.5 45.5zM324 163q0 -41 -29 -70.5t-70 -29.5t-70 29.5t-29 70.5t29 70t70 29t70 -29t29 -70zM359 163q0 56 -39 95t-95 39t-95 -39t-39 -95q0 -57 38.5 -96t95.5 -39
q56 0 95 39.5t39 95.5zM394 163q0 -71 -49.5 -120t-119.5 -49q-71 0 -120 49t-49 120q0 70 49 119.5t120 49.5q69 0 119 -50t50 -119z" />
    <glyph glyph-name="uni0E50" unicode="&#xe50;" horiz-adv-x="449" 
d="M411 144q0 -64 -51 -107.5t-136 -43.5t-135.5 43.5t-50.5 107.5t50.5 107.5t135.5 43.5t136 -43.5t51 -107.5zM371 144q0 51 -40.5 85.5t-107.5 34.5t-107.5 -34.5t-40.5 -85.5t40.5 -85t107.5 -34t107.5 34t40.5 85z" />
    <glyph glyph-name="uni0E51" unicode="&#xe51;" horiz-adv-x="449" 
d="M413 124q0 -91 -49 -143h-44q57 47 57 136q0 64 -42 105t-120 41q-59 0 -101 -36t-42 -94q0 -48 28 -78.5t72 -30.5q57 0 81 52q-18 -8 -34 -8q-29 0 -48 18.5t-19 46.5q0 29 21 48t48 19q34 0 53 -23t19 -56q0 -49 -29 -86q-34 -43 -101 -43q-58 0 -94 44q-33 40 -33 98
q0 75 52.5 117.5t125.5 42.5q96 0 147.5 -48.5t51.5 -121.5zM259 133q0 17 -11 28t-28 11t-27.5 -11t-10.5 -28t10.5 -27.5t27.5 -10.5t28 10.5t11 27.5z" />
    <glyph glyph-name="uni0E52" unicode="&#xe52;" horiz-adv-x="449" 
d="M415 146q0 -158 -179 -158q-194 0 -194 151v256q0 29 -26 30v35q61 -5 61 -65v-261q0 -113 160 -113q143 0 143 120q0 61 -14 94q-12 27 -29 27q-21 0 -34.5 -17t-15.5 -41h-23q-8 59 -50 59q-48 0 -55 -48q7 4 25 4q25 0 43.5 -18.5t18.5 -43.5t-19 -43.5t-43 -18.5
q-29 0 -48 23t-19 63q0 48 24.5 80.5t70.5 32.5q45 0 64 -48q16 48 58 48q35 0 57 -35q24 -39 24 -113zM217 157q0 14 -9.5 23.5t-23.5 9.5q-13 0 -23 -9.5t-10 -23.5q0 -13 10 -23t23 -10q14 0 23.5 10t9.5 23z" />
    <glyph glyph-name="uni0E53" unicode="&#xe53;" horiz-adv-x="449" 
d="M415 0h-35v188q0 34 -15.5 55t-41.5 21q-23 0 -41 -25t-18 -55v-184h-37v185q0 30 -25 54.5t-54 24.5q-37 0 -59 -36q-19 -32 -19 -85q0 -17 3 -34q15 21 47 21q27 0 46 -20t19 -47t-19 -46t-51 -19q-38 0 -59.5 37.5t-21.5 98.5q0 160 117 160q68 0 94 -63q23 63 78 63
q42 0 67 -27.5t25 -75.5v-191zM154 64q0 16 -11 27t-27 11t-27 -11t-11 -27t11 -27t27 -11t27 11t11 27z" />
    <glyph glyph-name="uni0E54" unicode="&#xe54;" horiz-adv-x="449" 
d="M261 146q0 16 -10.5 27t-26.5 11t-26.5 -11.5t-10.5 -26.5q0 -16 11 -27t26 -11t26 11.5t11 26.5zM415 -11q-54 24 -89 24q-23 0 -71 -10q-51 -10 -89 -11q-63 -2 -100 37.5t-37 107.5q0 76 51.5 117.5t137.5 41.5q96 0 129 15q64 30 77 103h34q-23 -105 -101 -136
q-38 -15 -140 -15q-148 0 -148 -129q0 -52 26 -82t71 -30q58 0 110 15q-121 32 -119 112q1 28 20.5 45.5t46.5 17.5q29 0 47.5 -18.5t18.5 -47.5q0 -21 -14 -40t-35 -23q26 -18 76 -29q26 -6 60.5 -15.5t55.5 -20.5z" />
    <glyph glyph-name="uni0E55" unicode="&#xe55;" horiz-adv-x="449" 
d="M280 355q0 14 -10.5 24.5t-24.5 10.5t-24 -10.5t-10 -24.5q0 -13 10.5 -23.5t23.5 -10.5q14 0 24.5 10t10.5 24zM261 146q0 16 -10.5 27t-26.5 11t-26.5 -11.5t-10.5 -26.5q0 -16 11 -27t26 -11t26 11.5t11 26.5zM415 -11q-54 24 -89 24q-23 0 -71 -10q-51 -10 -89 -11
q-63 -2 -100 37.5t-37 107.5q0 76 51.5 117.5t139.5 41.5q-39 17 -39 59q0 27 19 46t45 19q27 0 46 -19t19 -46q0 -41 -38 -58q53 4 75 14q64 30 77 103h34q-23 -105 -101 -136q-38 -15 -140 -15q-148 0 -148 -129q0 -52 26 -82t71 -30q58 0 110 15q-121 32 -119 112
q1 28 20.5 45.5t46.5 17.5q29 0 47.5 -18.5t18.5 -47.5q0 -21 -14 -40t-35 -23q26 -18 76 -29q26 -6 60.5 -15.5t55.5 -20.5z" />
    <glyph glyph-name="uni0E56" unicode="&#xe56;" horiz-adv-x="449" 
d="M421 154q1 -162 -199 -162q-73 0 -112 25.5t-39 67.5q0 29 19.5 48t47.5 19q29 0 48 -19t19 -48q0 -38 -31 -57q30 -4 57 -4q76 1 114.5 31t38.5 97q0 50 -40 80.5t-107 30.5q-107 0 -161 -75q-6 152 -58 226h43q38 -70 39 -162q53 42 129 42q91 0 140 -35
q52 -38 52 -105zM177 85q0 17 -11 28t-28 11t-27.5 -11t-10.5 -28t10.5 -27.5t27.5 -10.5t28 10.5t11 27.5z" />
    <glyph glyph-name="uni0E57" unicode="&#xe57;" horiz-adv-x="449" 
d="M147 62q0 18 -12 28.5t-27 10.5t-26 -11.5t-11 -27.5q0 -14 11.5 -25.5t25.5 -11.5q16 0 27.5 11t11.5 26zM436 414q-18 -44 -17 -161v-35q0 -142 -40.5 -181t-95.5 -39h-5q38 101 38 172q0 94 -52 94q-20 0 -34.5 -25t-14.5 -55v-47h-38v48q0 29 -18 54t-39 25
q-27 0 -44 -33t-17 -86q0 -22 3 -37q15 22 46 22q28 0 47.5 -20t19.5 -48q0 -27 -20 -46t-47 -19q-40 0 -62 35.5t-22 98.5q0 75 26.5 119t69.5 44q55 0 76 -63q15 63 70 63q85 0 85 -124q0 -67 -25 -130q60 14 60 163q0 173 13 211h37z" />
    <glyph glyph-name="uni0E58" unicode="&#xe58;" horiz-adv-x="449" 
d="M417 119q0 -124 -99 -124q-73 0 -140 86q-13 -6 -42.5 -40t-33.5 -50q-70 35 -70 151q0 152 181 152q15 0 39 -2t36 -2q43 0 63 19q26 25 26 88v17h35v-20q0 -139 -119 -139q-18 0 -45.5 2t-42.5 2q-67 0 -101 -31t-34 -82q0 -72 24 -96q41 56 93 75q14 -27 51 -58
q45 -39 77 -39q38 0 57 27q-18 -3 -22 -3q-28 0 -47.5 19.5t-19.5 47.5t19.5 47.5t47.5 19.5t47.5 -19.5t19.5 -47.5zM387 119q0 15 -11 26t-26 11t-26 -11t-11 -26t11 -26t26 -11t26 11t11 26z" />
    <glyph glyph-name="uni0E59" unicode="&#xe59;" horiz-adv-x="449" 
d="M417 16l-19 -27q-45 35 -98 112q-42 60 -61 109q-7 18 -30 35.5t-51 18.5q-35 0 -65.5 -36t-30.5 -89q7 -74 51 -102q-4 11 -4 25q0 27 19 46.5t46 19.5t46.5 -19.5t19.5 -46.5t-19.5 -46t-46.5 -19q-72 -1 -110 39.5t-38 107.5q0 66 38 108.5t93 42.5q57 0 93 -50
q4 49 39 49q9 0 34.5 -15.5t36.5 -15.5q32 0 32 57q0 54 -8 94h30q8 -51 8 -91q0 -92 -54 -92q-11 0 -41.5 16t-33.5 16q-15 0 -20 -37q7 -40 42 -96q46 -68 102 -114zM211 62q0 15 -11 26t-26 11t-26 -11t-11 -26t11 -26t26 -11t26 11t11 26z" />
    <glyph glyph-name="uni0E5A" unicode="&#xe5a;" horiz-adv-x="522" 
d="M466 0h-36v327q0 31 -31 33q-22 -66 -66 -88v-272h-36v327q0 31 -31 33q-35 -98 -116 -98q-47 0 -71.5 20.5t-24.5 53.5q0 26 19 45t45 19t45 -19t19 -45q0 -22 -14 -39q55 19 69 95h36q60 0 60 -62v-15q27 26 37 77h36q60 0 60 -62v-330zM147 337q0 13 -8.5 21.5
t-21.5 8.5t-21 -8.5t-8 -21.5t8 -21t21 -8t21.5 8t8.5 21z" />
    <glyph glyph-name="uni0E5B" unicode="&#xe5b;" horiz-adv-x="697" 
d="M194 323q0 -3 -3 -3h-3v6h3q3 0 3 -3zM196 323q0 4 -5 4h-5v-14h2v6h3q5 0 5 4zM223 323q0 -3 -3 -3h-3v6h3q3 0 3 -3zM184 313v2h-7v12h-2v-14h9zM159 318h-2q0 -4 -4 -4t-4 6t4 6q3 0 4 -4h2q-2 5 -6 5q-6 0 -6 -7t6 -7t6 5zM213 317q-3 3 -8 6q0 3 3 3q2 -2 2 -3h2
q0 4 -4 4q-5 0 -5 -4q3 -3 8 -6q0 -3 -3 -3t-3 4h-2q0 -5 5 -5t5 4zM172 313v14h-2v-6h-7v6h-2v-14h2v7h7v-7h2zM238 313l-5 8l5 6h-3l-5 -7v7h-2v-14h2v5l2 2l3 -7h3zM225 323q0 4 -5 4h-5v-14h2v6h3q5 0 5 4zM664 179h5q-20 -11 -41 -11q-33 0 -58 25q-6 -48 -28 -55
q-9 0 -20 33q-14 42 -21 49q0 -92 -27 -92q-6 0 -17 36q-12 40 -21 51q-6 -98 -38 -98q-6 0 -17 39q-14 50 -21 59q0 -191 -149 -191q-62 0 -98 43t-36 116q0 75 31 116t87 41q45 0 71 -27.5t26 -75.5q0 -43 -17 -72q-21 -36 -61 -36q-22 0 -38 16.5t-16 38.5q0 23 15.5 39
t38.5 16q26 0 43 -20v2q2 10 2 24q0 64 -61 64q-41 0 -63 -35t-22 -96q0 -55 27.5 -88t70.5 -33q59 0 90.5 43t31.5 122q0 31 -3 47q56 -11 75 -106q9 29 9 56q0 19 -8 48q42 -12 73 -87q5 25 5 37q0 9 -5 37q43 -12 64 -84q10 13 10 35q0 12 -3 27q5 -1 43 -28
q34 -25 71 -25zM242 184q0 11 -8.5 19.5t-19.5 8.5t-19.5 -8.5t-8.5 -19.5t8.5 -19.5t19.5 -8.5t19.5 8.5t8.5 19.5z" />
    <glyph glyph-name="zerowidthnonjoiner" unicode="&#x200c;" 
d="M15 -154h-29v537h29v-537z" />
    <glyph glyph-name="zerowidthjoiner" unicode="&#x200d;" 
d="M15 -154h-29v448l-20 -20l-17 17l37 37l-37 39l18 16l33 -37l34 37l18 -16l-37 -39l37 -37l-18 -17l-19 20v-448z" />
    <glyph glyph-name="lefttorightmark" unicode="&#x200e;" 
d="M15 -154h-29v502h126l-17 18l16 16l52 -52l-52 -52l-16 17l17 18h-97v-467z" />
    <glyph glyph-name="righttoleftmark" unicode="&#x200f;" 
d="M15 -154h-29v467h-97l17 -18l-16 -17l-52 52l52 52q2 -3 7 -8t9 -8l-17 -18h126v-502z" />
    <glyph glyph-name="endash" unicode="&#x2013;" horiz-adv-x="360" 
d="M338 165h-317v33h317v-33z" />
    <glyph glyph-name="emdash" unicode="&#x2014;" horiz-adv-x="720" 
d="M695 165h-673v33h673v-33z" />
    <glyph glyph-name="quoteleft" unicode="&#x2018;" horiz-adv-x="247" 
d="M149 373q0 -16 -11 -27.5t-26 -11.5q-16 0 -27.5 11.5t-11.5 27.5q0 60 39 106q22 26 41 36l15 -17q-56 -36 -60 -90q6 1 5 1q14 0 25 -11t11 -25z" />
    <glyph glyph-name="quoteright" unicode="&#x2019;" horiz-adv-x="247" 
d="M168 464q0 -60 -38 -106q-23 -26 -42 -36l-15 17q56 36 60 90q-6 -1 -5 -1q-14 0 -25 11t-11 25q0 16 11 27.5t26 11.5q17 0 28 -11t11 -28z" />
    <glyph glyph-name="quotesinglbase" unicode="&#x201a;" horiz-adv-x="247" 
d="M168 31q0 -60 -38 -106q-23 -26 -42 -36l-15 17q56 36 60 90q-4 -1 -7 -1q-17 0 -25.5 11t-8.5 25q0 16 11 27.5t26 11.5q17 0 28 -11t11 -28z" />
    <glyph glyph-name="quotedblleft" unicode="&#x201c;" horiz-adv-x="370" 
d="M270 373q0 -16 -11 -27.5t-26 -11.5q-16 0 -27.5 11.5t-11.5 27.5q0 60 39 106q22 26 41 36l15 -17q-56 -36 -60 -90q6 1 5 1q14 0 25 -11t11 -25zM154 373q0 -16 -11 -27.5t-26 -11.5q-16 0 -27.5 11.5t-11.5 27.5q0 60 39 106q22 26 41 36l15 -17q-56 -36 -60 -90
q6 1 5 1q14 0 25 -11t11 -25z" />
    <glyph glyph-name="quotedblright" unicode="&#x201d;" horiz-adv-x="370" 
d="M173 464q0 -60 -38 -106q-23 -26 -42 -36l-15 17q56 36 60 90q-6 -1 -5 -1q-14 0 -25 11t-11 25q0 16 11 27.5t26 11.5q17 0 28 -11t11 -28zM289 464q0 -60 -38 -106q-23 -26 -42 -36l-15 17q56 36 60 90q-6 -1 -5 -1q-14 0 -25 11t-11 25q0 16 11 27.5t26 11.5
q17 0 28 -11t11 -28z" />
    <glyph glyph-name="quotedblbase" unicode="&#x201e;" horiz-adv-x="370" 
d="M173 31q0 -60 -38 -106q-23 -26 -42 -36l-15 17q56 36 60 90q-4 -1 -7 -1q-17 0 -25.5 11t-8.5 25q0 16 11 27.5t26 11.5q17 0 28 -11t11 -28zM289 31q0 -60 -38 -106q-23 -26 -42 -36l-15 17q56 36 60 90q-4 -1 -7 -1q-17 0 -25.5 11t-8.5 25q0 16 11 27.5t26 11.5
q17 0 28 -11t11 -28z" />
    <glyph glyph-name="dagger" unicode="&#x2020;" horiz-adv-x="374" 
d="M335 322v-33l-130 4v-327h-36v327l-130 -4v33l130 -4v156h36v-156z" />
    <glyph glyph-name="daggerdbl" unicode="&#x2021;" horiz-adv-x="374" 
d="M335 322v-33l-130 4v-152l130 4v-33l-130 4v-150h-36v150l-130 -4v33l130 -4v152l-130 -4v33l130 -4v156h36v-156z" />
    <glyph glyph-name="bullet" unicode="&#x2022;" horiz-adv-x="216" 
d="M192 200q0 -35 -24.5 -59.5t-59.5 -24.5t-59.5 24.5t-24.5 59.5t24 59.5t60 24.5q35 0 59.5 -25t24.5 -59z" />
    <glyph glyph-name="ellipsis" unicode="&#x2026;" horiz-adv-x="479" 
d="M115 28q0 -14 -10.5 -24t-24.5 -10t-24 10t-10 24t10 24.5t24 10.5t24.5 -10.5t10.5 -24.5zM275 28q0 -14 -10.5 -24t-24.5 -10t-24 10t-10 24t10 24.5t24 10.5t24.5 -10.5t10.5 -24.5zM434 28q0 -14 -10.5 -24t-24.5 -10t-24 10t-10 24t10 24.5t24 10.5t24.5 -10.5
t10.5 -24.5z" />
    <glyph glyph-name="perthousand" unicode="&#x2030;" horiz-adv-x="829" 
d="M414 476h34l-290 -485h-34zM794 139q0 -142 -107 -142t-107 142t107 142t107 -142zM248 334q0 -142 -107 -142t-107 142t107 142t107 -142zM212 334q0 110 -71 110t-71 -110t71 -110t71 110zM758 139q0 110 -71 110t-71 -110t71 -110t71 110zM546 139q0 -142 -107 -142
t-107 142t107 142t107 -142zM510 139q0 110 -71 110t-71 -110t71 -110t71 110z" />
    <glyph glyph-name="minute" unicode="&#x2032;" horiz-adv-x="125" 
d="M42 371h-27l38 105h55z" />
    <glyph glyph-name="second" unicode="&#x2033;" horiz-adv-x="214" 
d="M42 371h-27l38 105h55zM131 371h-27l38 105h55z" />
    <glyph glyph-name="guilsinglleft" unicode="&#x2039;" horiz-adv-x="183" 
d="M122 48l-111 129l110 132h42l-110 -132l111 -129h-42z" />
    <glyph glyph-name="guilsinglright" unicode="&#x203a;" horiz-adv-x="183" 
d="M61 48h-42l111 129l-110 132h42l110 -132z" />
    <glyph glyph-name="fraction" unicode="&#x2044;" horiz-adv-x="162" 
d="M0 0h-36l198 476h36z" />
    <glyph glyph-name="Euro" unicode="&#x20ac;" horiz-adv-x="406" 
d="M367 50l12 -32q-53 -25 -130 -25q-75 0 -132 42.5t-80 114.5h-37v32h28q-5 30 -5 57q0 23 3 44h-26v32h33q21 76 79.5 122t136.5 46q77 0 130 -25l-12 -32q-54 23 -116 23q-60 0 -108.5 -36t-68.5 -98h251v-32h-259q-3 -21 -3 -45q0 -30 6 -56h256v-32h-247
q22 -57 69.5 -90t103.5 -33q62 0 116 23z" />
    <glyph glyph-name="uni2113" unicode="&#x2113;" horiz-adv-x="209" 
d="M179 22q-20 -11 -37.5 -18t-27.5 -7q-43 0 -43 70v130l-31 -21l-18 28l49 34v126q0 84 52 84q28 0 42.5 -20.5t14.5 -55.5q0 -55 -19.5 -93.5t-55.5 -61.5v-151q0 -32 20 -32q18 0 54 25v-37zM148 365q0 22 -4.5 37t-18.5 15q-20 0 -20 -53v-106q23 21 33 47.5t10 59.5z
" />
    <glyph glyph-name="trademark" unicode="&#x2122;" horiz-adv-x="505" 
d="M218 464h-87v-222h-30v222h-87v28h204v-28zM488 242h-31l-12 198l-78 -198h-22l-78 198l-12 -198h-31l17 250h33l82 -211l82 211h33z" />
    <glyph glyph-name="Ohm" unicode="&#x2126;" horiz-adv-x="453" 
d="M417 0h-152v115q101 48 101 151q0 65 -39.5 106t-100.5 41t-100.5 -41t-39.5 -106q0 -103 101 -151v-115h-152v33h116v59q-40 16 -72 63.5t-32 107.5q0 88 49 136t130 48t130 -48t49 -136q0 -60 -32 -107.5t-72 -63.5v-59h116v-33z" />
    <glyph glyph-name="estimated" unicode="&#x212e;" horiz-adv-x="313" 
d="M246 223q-5 63 -27 95.5t-60 32.5q-40 0 -61 -32.5t-26 -95.5h174zM276 103q-24 -110 -117 -110q-63 0 -95.5 51.5t-32.5 155.5q0 91 37 137.5t91 46.5q60 0 90.5 -49.5t32.5 -140.5h-211q2 -88 24 -128t64 -40q30 0 51.5 20t28.5 57h37z" />
    <glyph glyph-name="partialdiff" unicode="&#x2202;" horiz-adv-x="317" 
d="M288 282q0 -105 -33 -182q-46 -105 -142 -105q-36 0 -59 26q-26 29 -26 80q0 87 64 138q55 44 135 44q13 0 20 -1q-2 133 -55 133q-44 0 -67 -69l-33 19q36 88 99 88q97 0 97 -171zM246 247q-7 1 -19 1q-74 0 -117 -47q-39 -42 -39 -100q0 -65 53 -65q55 0 91 83
q28 64 31 128z" />
    <glyph glyph-name="Delta" unicode="&#x2206;" horiz-adv-x="474" 
d="M410 35l-173 347l-173 -347h346zM474 0h-474l237 472z" />
    <glyph glyph-name="product" unicode="&#x220f;" horiz-adv-x="446" 
d="M392 -55h-39v498h-260v-498h-39v531h338v-531z" />
    <glyph glyph-name="summation" unicode="&#x2211;" horiz-adv-x="411" 
d="M397 -55h-372v45l199 228l-199 215v43h357v-33h-316l196 -213v-26l-196 -226h331v-33z" />
    <glyph glyph-name="minus" unicode="&#x2212;" horiz-adv-x="411" 
d="M356 165h-301v33h301v-33z" />
    <glyph glyph-name="radical" unicode="&#x221a;" horiz-adv-x="350" 
d="M181 -10h-31l-76 240h-51v28h78l66 -219l148 433h35z" />
    <glyph glyph-name="infinity" unicode="&#x221e;" horiz-adv-x="618" 
d="M287 221q-69 76 -119 76q-42 0 -63 -23t-21 -54q0 -37 22 -60.5t63 -23.5q34 0 67 26.5t51 58.5zM565 210q0 -43 -28.5 -73t-85.5 -30q-71 0 -146 91q-60 -91 -137 -91q-52 0 -83.5 31t-31.5 84q0 43 28.5 73t85.5 30q65 0 145 -90q62 90 138 90q52 0 83.5 -31t31.5 -84z
M534 212q0 37 -22 60.5t-63 23.5q-34 0 -67 -26.5t-51 -58.5q69 -76 119 -76q42 0 63 23t21 54z" />
    <glyph glyph-name="integral" unicode="&#x222b;" horiz-adv-x="242" 
d="M88 -11q-15 -92 -86 -92q-24 0 -41 5l5 32q12 -5 35 -4q42 3 52 54l64 409q13 89 93 89q21 0 35 -3l-7 -31q-5 1 -16 1q-30 0 -47.5 -12.5t-22.5 -45.5z" />
    <glyph glyph-name="approxequal" unicode="&#x2248;" horiz-adv-x="411" 
d="M366 306v-6q0 -46 -25 -71q-21 -21 -53 -21q-39 0 -83.5 32.5t-79.5 32.5q-47 0 -49 -65h-31v8q0 42 23.5 66t56.5 24q38 0 83.5 -31.5t81.5 -31.5q43 0 45 63h31zM366 173v-6q0 -46 -25 -71q-21 -21 -53 -21q-39 0 -83.5 32.5t-79.5 32.5q-47 0 -49 -65h-31v8
q0 42 23.5 66t56.5 24q38 0 83.5 -31.5t81.5 -31.5q43 0 45 63h31z" />
    <glyph glyph-name="notequal" unicode="&#x2260;" horiz-adv-x="411" 
d="M356 135v-33h-175l-54 -111h-38l54 111h-88v33h104l47 97h-151v33h167l43 89h41l-44 -89h94v-33h-110l-48 -97h158z" />
    <glyph glyph-name="lessequal" unicode="&#x2264;" horiz-adv-x="411" 
d="M353 16h-296v30h296v-30zM329 56l-251 119v47l251 119v-38l-216 -105l216 -105v-37z" />
    <glyph glyph-name="greaterequal" unicode="&#x2265;" horiz-adv-x="411" 
d="M353 16h-296v30h296v-30zM329 175l-251 -119v37l216 105l-216 105v38l251 -119v-47z" />
    <glyph glyph-name="lozenge" unicode="&#x25ca;" horiz-adv-x="386" 
d="M353 198l-139 -198h-42l-139 198l139 200h42zM320 198l-127 182l-127 -182l127 -182z" />
    <glyph glyph-name="dottedcircle" unicode="&#x25cc;" horiz-adv-x="400" 
d="M218 368q0 -8 -5.5 -13.5t-13.5 -5.5t-13.5 5.5t-5.5 13.5t5.5 13.5t13.5 5.5t13.5 -5.5t5.5 -13.5zM218 41q0 -8 -5.5 -13.5t-13.5 -5.5t-13.5 5.5t-5.5 13.5t5.5 13.5t13.5 5.5t13.5 -5.5t5.5 -13.5zM54 205q0 -8 -5.5 -13t-13.5 -5t-13 5t-5 13t5 13.5t13 5.5
t13.5 -5.5t5.5 -13.5zM382 205q0 -8 -5.5 -13t-13.5 -5t-13 5t-5 13t5 13.5t13 5.5t13.5 -5.5t5.5 -13.5zM67 266q0 -8 -5.5 -13t-13.5 -5t-13 5t-5 13t5 13.5t13 5.5t13.5 -5.5t5.5 -13.5zM102 321q0 -8 -5.5 -13t-13.5 -5t-13 5t-5 13t5 13.5t13 5.5t13.5 -5.5t5.5 -13.5z
M155 356q0 -8 -5.5 -13t-13.5 -5t-13 5t-5 13t5 13.5t13 5.5t13.5 -5.5t5.5 -13.5zM368 266q0 -8 -5 -13t-13 -5t-13.5 5t-5.5 13t5.5 13.5t13.5 5.5t13 -5.5t5 -13.5zM333 321q0 -8 -5 -13t-13 -5t-13.5 5t-5.5 13t5.5 13.5t13.5 5.5t13 -5.5t5 -13.5zM280 356q0 -8 -5 -13
t-13 -5t-13.5 5t-5.5 13t5.5 13.5t13.5 5.5t13 -5.5t5 -13.5zM67 143q0 -8 -5.5 -13.5t-13.5 -5.5t-13 5.5t-5 13.5t5 13t13 5t13.5 -5t5.5 -13zM102 88q0 -8 -5.5 -13.5t-13.5 -5.5t-13 5.5t-5 13.5t5 13t13 5t13.5 -5t5.5 -13zM155 53q0 -8 -5.5 -13.5t-13.5 -5.5t-13 5.5
t-5 13.5t5 13t13 5t13.5 -5t5.5 -13zM369 143q0 -8 -5 -13.5t-13 -5.5t-13.5 5.5t-5.5 13.5t5.5 13t13.5 5t13 -5t5 -13zM334 88q0 -8 -5 -13.5t-13 -5.5t-13.5 5.5t-5.5 13.5t5.5 13t13.5 5t13 -5t5 -13zM281 53q0 -8 -5 -13.5t-13 -5.5t-13.5 5.5t-5.5 13.5t5.5 13t13.5 5
t13 -5t5 -13z" />
    <glyph glyph-name="uni0E10.alt1" unicode="&#xf700;" horiz-adv-x="336" 
d="M283 79q0 -88 -80 -88q-79 0 -79 88v51q-11 -4 -25 -4q-25 0 -42 16.5t-17 41.5q0 26 17 43.5t42 17.5q26 0 43.5 -15.5t17.5 -43.5v-110q0 -52 43 -52q44 0 44 52v145q0 24 -97 48q-58 15 -124 24q3 46 35 76.5t85 30.5q21 0 56.5 -11t54.5 -11q24 0 29 22l31 -7
q-16 -52 -58 -52q-22 0 -60.5 12t-58.5 12q-23 0 -44.5 -13.5t-23.5 -31.5q100 -20 142 -36q69 -25 69 -60v-145zM126 185q0 11 -8 19t-19 8t-18.5 -8t-7.5 -19t7.5 -18.5t18.5 -7.5t19 7.5t8 18.5z" />
    <glyph glyph-name="uni0E34.alt1" unicode="&#xf701;" 
d="M-132 455q-115 41 -216 41q-36 0 -79 -6q1 52 43 84q38 29 91 29q135 0 161 -148zM-171 493q-44 81 -121 81q-70 0 -94 -53q21 3 47 3q96 0 168 -31z" />
    <glyph glyph-name="uni0E35.alt1" unicode="&#xf702;" 
d="M-132 455q-115 41 -216 41q-36 0 -79 -6q1 52 43 84q38 29 91 29q80 0 122 -53v97h33v-165q4 -13 6 -27zM-171 493q-44 81 -121 81q-70 0 -94 -53q21 3 47 3q96 0 168 -31z" />
    <glyph glyph-name="uni0E36.alt1" unicode="&#xf703;" 
d="M-132 455q-115 41 -216 41q-36 0 -79 -6q1 52 43 84q38 29 91 29q54 0 93 -26q-3 8 -3 16q0 20 14.5 34.5t34.5 14.5t34.5 -14.5t14.5 -34.5t-14.5 -34.5t-34.5 -14.5q-5 0 -13 2q25 -35 35 -91zM-171 493q-44 81 -121 81q-70 0 -94 -53q21 3 47 3q96 0 168 -31z
M-128 593q0 11 -7.5 18.5t-18.5 7.5t-18.5 -7.5t-7.5 -18.5t7.5 -18.5t18.5 -7.5t18.5 7.5t7.5 18.5z" />
    <glyph glyph-name="uni0E37.alt1" unicode="&#xf704;" 
d="M-171 493q-44 81 -121 81q-70 0 -94 -53q21 3 47 3q96 0 168 -31zM-132 455q-115 41 -216 41q-36 0 -79 -6q1 52 43 84q38 29 91 29q23 0 42 -4v48h33v-60q28 -13 47 -37v97h33v-165q4 -13 6 -27z" />
    <glyph glyph-name="uni0E48.alt1" unicode="&#xf705;" 
d="M-162 470h-37v144h37v-144z" />
    <glyph glyph-name="uni0E49.alt1" unicode="&#xf706;" 
d="M-44 631q-15 -95 -82 -134q-55 -32 -148 -32h-20v21q39 16 54 46q-57 7 -57 57q0 22 16 36.5t38 14.5q25 0 39.5 -16t14.5 -40q0 -56 -46 -90q134 10 150 137h41zM-216 586q0 11 -7.5 18.5t-18.5 7.5t-18.5 -7.5t-7.5 -18.5t7.5 -18.5t18.5 -7.5t18.5 7.5t7.5 18.5z" />
    <glyph glyph-name="uni0E4A.alt1" unicode="&#xf707;" 
d="M-58 631q-5 -156 -150 -156v23q41 20 41 67q0 36 -34 45l-30 -32l-29 33q-9 -1 -23 -11.5t-17 -20.5q14 2 18 2q54 -3 54 -54q-5 -51 -53 -51q-27 0 -41.5 19t-14.5 47q0 37 25 67.5t58 30.5l24 -32l24 32q31 -1 49 -21.5t18 -51.5q0 -37 -22 -62q23 2 43 30q26 37 26 96
h34zM-256 527q0 11 -7 18t-17 7t-17.5 -7t-7.5 -18t7.5 -17.5t17.5 -6.5t17 6.5t7 17.5z" />
    <glyph glyph-name="uni0E4B.alt1" unicode="&#xf708;" 
d="M-135 526h-57v-56h-34v56h-57v27h57v53h34v-53h57v-27z" />
    <glyph glyph-name="uni0E4C.alt1" unicode="&#xf709;" 
d="M-81 658q-3 -34 -33 -49q-17 -9 -48 -16q-29 -5 -36 -13q22 -2 36.5 -17.5t14.5 -37.5q0 -23 -15.5 -38.5t-38.5 -15.5t-39 15.5t-16 38.5q0 70 71 89l47 14q25 9 25 30h32zM-173 524q0 11 -8 19t-19 8t-19 -8t-8 -19t8 -19t19 -8t19 8t8 19z" />
    <glyph glyph-name="uni0E48.alt2" unicode="&#xf70a;" 
d="M-56 480h-37v144h37v-144z" />
    <glyph glyph-name="uni0E49.alt2" unicode="&#xf70b;" 
d="M19 643q-15 -95 -82 -134q-55 -32 -148 -32h-20v21q39 16 54 46q-57 7 -57 57q0 22 16 36.5t38 14.5q25 0 39.5 -16t14.5 -40q0 -56 -46 -90q134 10 150 137h41zM-153 598q0 11 -7.5 18.5t-18.5 7.5t-18.5 -7.5t-7.5 -18.5t7.5 -18.5t18.5 -7.5t18.5 7.5t7.5 18.5z" />
    <glyph glyph-name="uni0E4A.alt2" unicode="&#xf70c;" 
d="M-8 622q-5 -156 -150 -156v23q41 20 41 67q0 36 -34 45l-30 -32l-29 33q-9 -1 -23 -11.5t-17 -20.5q14 2 18 2q54 -3 54 -54t-53 -51q-27 0 -41.5 19t-14.5 47q0 37 25 67.5t58 30.5l24 -32l24 32q31 -1 49 -21.5t18 -51.5q0 -37 -22 -62q23 2 43 30q26 37 26 96h34z
M-206 518q0 11 -7 18t-17 7t-17.5 -7t-7.5 -18t7.5 -17.5t17.5 -6.5t17 6.5t7 17.5z" />
    <glyph glyph-name="uni0E4B.alt2" unicode="&#xf70d;" 
d="M1 532h-57v-56h-36v56h-57v30h57v53h36v-53h57v-30z" />
    <glyph glyph-name="uni0E4C.alt2" unicode="&#xf70e;" 
d="M-12 658q-3 -34 -33 -49q-17 -9 -48 -16q-29 -5 -36 -13q22 -2 36.5 -17.5t14.5 -37.5q0 -23 -15.5 -38.5t-38.5 -15.5t-39 15.5t-16 38.5q0 70 71 89l47 14q25 9 25 30h32zM-104 524q0 11 -8 19t-19 8t-19 -8t-8 -19t8 -19t19 -8t19 8t8 19z" />
    <glyph glyph-name="uni0E0D.alt1" unicode="&#xf70f;" horiz-adv-x="512" 
d="M157 57q0 14 -10 24t-24 10t-23.5 -10t-9.5 -24t9.5 -23.5t23.5 -9.5t24 9.5t10 23.5zM463 82q0 -90 -98 -90q-97 0 -97 91v182q0 103 -97 103q-32 0 -59.5 -19t-38.5 -50q56 -4 80 -44q-24 -5 -42 -26t-18 -47v-65q13 6 30 6q28 0 47 -19t19 -46t-15.5 -47t-50.5 -20
q-29 0 -47.5 18.5t-18.5 49.5v122q0 54 52 79q-38 15 -79 11q9 56 48.5 92.5t94.5 36.5q62 0 96.5 -34t34.5 -97v-189q0 -56 62 -56q61 0 61 56v312h36v-310z" />
    <glyph glyph-name="uni0E31.alt1" unicode="&#xf710;" 
d="M-58 618q-1 -68 -45 -111.5t-111 -43.5q-58 0 -93 24t-35 63q0 26 19 45t45 19t45 -18.5t19 -44.5q0 -34 -30 -54q14 -3 37 -3q49 1 81 39q28 35 30 85h38zM-246 552q0 14 -9.5 23.5t-22.5 9.5t-23 -9.5t-10 -23.5t10 -23t23 -9t22.5 9t9.5 23z" />
    <glyph glyph-name="uni0E4D.alt1" unicode="&#xf711;" 
d="M-150 538q0 -32 -22 -54t-54 -22t-54.5 22t-22.5 54t22.5 54.5t54.5 22.5t54 -22.5t22 -54.5zM-183 538q0 18 -13 31t-30 13q-18 0 -31 -13t-13 -31t13 -30.5t31 -12.5q17 0 30 12.5t13 30.5z" />
    <glyph glyph-name="uni0E47.alt1" unicode="&#xf712;" 
d="M-133 511q0 -22 -15.5 -36t-35.5 -14q-42 0 -96 43q-27 -9 -51 -44q-40 25 -40 78q0 78 85 78h66q49 0 52 72h34q0 -43 -22 -72t-65 -29h-69q-48 0 -48 -46q0 -22 11 -39q25 28 51 32q17 -15 49 -36q-1 8 -1 13q0 20 13.5 33.5t33.5 13.5t34 -14t14 -33zM-159 511
q0 9 -6.5 15.5t-15.5 6.5t-15.5 -6.5t-6.5 -15.5t6.5 -15.5t15.5 -6.5t15.5 6.5t6.5 15.5z" />
    <glyph glyph-name="uni0E48.alt3" unicode="&#xf713;" 
d="M-138 680h-33v111h33v-111z" />
    <glyph glyph-name="uni0E49.alt3" unicode="&#xf714;" 
d="M-63 826q-14 -86 -74 -121q-48 -28 -133 -28h-18v19q33 14 47 39q-20 0 -35 14.5t-15 35.5t15 36t36 15q20 0 34 -14t16 -37q0 -50 -45 -82q119 10 135 123h37zM-218 785q0 10 -6.5 17t-16.5 7t-17 -7t-7 -17t7 -16.5t17 -6.5t16.5 6.5t6.5 16.5z" />
    <glyph glyph-name="uni0E4A.alt3" unicode="&#xf715;" 
d="M-273 725q0 10 -6.5 17t-16.5 7t-17 -7t-7 -17t7 -16.5t17 -6.5t16.5 6.5t6.5 16.5zM-83 824q-3 -149 -144 -149v22q40 20 40 64q0 34 -33 44l-28 -31l-28 31q-10 -1 -24 -11q-11 -8 -15 -21q5 2 9.5 3t9.5 1q21 0 35.5 -15t14.5 -36t-14.5 -35.5t-35.5 -14.5
q-26 0 -40 17t-14 46q0 37 23.5 65.5t55.5 28.5l24 -30l22 30q30 -1 47.5 -20.5t17.5 -49.5q0 -36 -22 -59q23 2 42 29q25 34 25 91h32z" />
    <glyph glyph-name="uni0E4B.alt3" unicode="&#xf716;" 
d="M-86 719h-53v-39h-31v39h-53v28h53v43h31v-43h53v-28z" />
    <glyph glyph-name="uni0E4C.alt3" unicode="&#xf717;" 
d="M-58 821q-3 -34 -33 -49q-17 -9 -48 -16q-29 -5 -36 -13q22 -2 36.5 -17.5t14.5 -37.5q0 -23 -15.5 -38.5t-38.5 -15.5t-39 15.5t-16 38.5q0 70 71 89l47 14q25 9 25 30h32zM-150 687q0 11 -8 19t-19 8t-19 -8t-8 -19t8 -19t19 -8t19 8t8 19z" />
    <glyph glyph-name="uni0E38.alt1" unicode="&#xf718;" 
d="M-56 -421h-35v73q-8 -3 -18 -3q-22 0 -37.5 15.5t-15.5 37.5t15.5 37.5t37.5 15.5t37.5 -15.5t15.5 -37.5v-123zM-83 -297q0 11 -7.5 18.5t-18.5 7.5t-18.5 -7.5t-7.5 -18.5t7.5 -18.5t18.5 -7.5t18.5 7.5t7.5 18.5z" />
    <glyph glyph-name="uni0E39.alt1" unicode="&#xf719;" 
d="M-56 -359q0 -62 -72 -62q-68 0 -68 60v12q-8 -3 -18 -3q-22 0 -37.5 15.5t-15.5 37.5t15.5 37.5t37.5 15.5t37.5 -15.5t15.5 -37.5v-68q0 -23 35 -23q34 0 34 23v117h36v-109zM-188 -298q0 11 -7.5 18.5t-18.5 7.5t-18.5 -7.5t-7.5 -18.5t7.5 -18.5t18.5 -7.5t18.5 7.5
t7.5 18.5z" />
    <glyph glyph-name="uni0E3A.alt1" unicode="&#xf71a;" 
d="M-48 -272q0 -11 -7.5 -19t-18.5 -8t-19 8t-8 19t8 18.5t19 7.5t18.5 -7.5t7.5 -18.5z" />
    <glyph glyph-name="uni0E0F.alt1" unicode="&#xf71c;" horiz-adv-x="425" 
d="M147 -134q-9 9 -30 9q-39 0 -39 -34q0 -30 32 -30q37 0 37 55zM369 -215h-40l-54 61l-44 -60l-55 60q-1 -31 -20 -48.5t-44 -17.5q-31 0 -47.5 18t-16.5 44q0 29 19 46.5t47 17.5q19 0 33 -7q2 35 41 58l27 -16q-34 -21 -36 -56l49 -52l47 63l58 -65v429q0 49 -30.5 78.5
t-78.5 29.5q-34 0 -65.5 -19.5t-43.5 -49.5q53 -5 81 -44q-54 -18 -54 -73q0 -39 9 -80q4 -18 4 -42q0 -29 -19.5 -48.5t-46.5 -19.5t-46 19t-19 46t19 46.5t46 19.5q11 0 24 -5q-6 46 -6 70q0 46 40 72q-27 12 -53 12q-13 0 -19 -1q5 56 48.5 92.5t101.5 36.5
q64 0 104 -36.5t40 -99.5v-479zM123 57q0 14 -10 24t-24 10t-23.5 -10t-9.5 -24t9.5 -23.5t23.5 -9.5t24 9.5t10 23.5z" />
    <glyph glyph-name="uni0E2C.alt1" unicode="&#xf71d;" horiz-adv-x="454" 
d="M398 0h-44l-100 195l-100 -195h-41v275q-13 -7 -30 -7q-27 0 -46.5 19.5t-19.5 46.5t19.5 46.5t46.5 19.5t46.5 -19.5t19.5 -46.5v-236q0 -16 -3 -49q6 17 17 43l74 140h34l74 -140l19 -43q-2 32 -2 49v177q-13 -7 -30 -7q-27 0 -46.5 19.5t-19.5 46.5t19.5 46.5
t46.5 19.5q16 0 30 -8q20 9 25 39h46q-9 -37 -44 -64q9 -18 9 -33v-334zM117 334q0 14 -10 24t-24 10t-24 -10t-10 -24t10 -24t24 -10t24 10t10 24zM366 334q0 14 -10 24t-24 10t-24 -10t-10 -24t10 -24t24 -10t24 10t10 24z" />
    <glyph glyph-name="franc" unicode="&#x20a3;" horiz-adv-x="360" 
d="M233 94h-134v-94h-39v94h-73v31h73v351h269v-33h-230v-181h215v-33h-215v-104h134v-31z" />
    <glyph glyph-name="dong" unicode="&#x20ab;" horiz-adv-x="401" 
d="M397 426h-48v-343q0 -57 3 -83h-36q-2 26 -2 60q-46 -69 -127 -69q-73 0 -116 50.5t-43 132.5q0 75 41 124t112 49q86 0 129 -72v151h-130v33h130v46h39v-46h48v-33zM310 136v57q0 55 -37 89t-85 34q-58 0 -90 -40t-32 -103q0 -149 126 -149q50 0 84 32t34 80zM375 -108
h-352v31h352v-31z" />
    <glyph glyph-name="Abreve" unicode="&#x102;" horiz-adv-x="400" 
d="M400 0h-43l-55 153h-205l-54 -153h-43l180 483h40zM290 186l-90 254l-91 -254h181zM289 589q-5 -27 -24 -44q-26 -24 -65 -24t-66 24q-18 17 -24 44h35q4 -11 11 -19q16 -18 44 -18t43 18q8 8 12 19h34z" />
    <glyph glyph-name="abreve" unicode="&#x103;" horiz-adv-x="344" 
d="M304 0l-35 -7l-14 55q-46 -57 -121 -57q-44 0 -76 25t-32 69q0 127 221 127h6v6q0 33 -15 58q-23 40 -78 40q-35 0 -108 -23l-5 36q56 18 116 18q129 0 129 -142v-122q0 -42 12 -83zM253 110v68q-186 0 -186 -86q0 -33 20 -50.5t50 -17.5q79 0 111 67q5 11 5 19zM261 453
q-5 -27 -24 -44q-26 -24 -65 -24t-66 24q-18 17 -24 44h35q4 -11 11 -19q16 -18 44 -18t43 18q8 8 12 19h34z" />
    <glyph glyph-name="Cacute" unicode="&#x106;" horiz-adv-x="406" 
d="M367 50l12 -32q-53 -25 -130 -25q-97 0 -161.5 69.5t-64.5 176.5t64.5 175.5t161.5 68.5q77 0 130 -25l-12 -32q-54 23 -116 23q-77 0 -131 -57q-57 -60 -57 -154t57 -154q54 -57 131 -57q62 0 116 23zM189 526h-31l50 91l39 -10z" />
    <glyph glyph-name="cacute" unicode="&#x107;" horiz-adv-x="331" 
d="M298 47l14 -32q-43 -24 -105 -24q-84 0 -132 48.5t-48 129.5t48 129.5t132 48.5q62 0 105 -24l-14 -32q-37 24 -93 24q-61 0 -100.5 -39t-39.5 -107t39.5 -107t100.5 -39q56 0 93 24zM152 390h-31l50 91l39 -10z" />
    <glyph glyph-name="Ccaron" unicode="&#x10c;" horiz-adv-x="406" 
d="M367 50l12 -32q-53 -25 -130 -25q-97 0 -161.5 69.5t-64.5 176.5t64.5 175.5t161.5 68.5q77 0 130 -25l-12 -32q-54 23 -116 23q-77 0 -131 -57q-57 -60 -57 -154t57 -154q54 -57 131 -57q62 0 116 23zM249 520h-28l-69 78h37l46 -52l46 52h37z" />
    <glyph glyph-name="ccaron" unicode="&#x10d;" horiz-adv-x="331" 
d="M298 47l14 -32q-43 -24 -105 -24q-84 0 -132 48.5t-48 129.5t48 129.5t132 48.5q62 0 105 -24l-14 -32q-37 24 -93 24q-61 0 -100.5 -39t-39.5 -107t39.5 -107t100.5 -39q56 0 93 24zM213 384h-28l-69 78h37l46 -52l46 52h37z" />
    <glyph glyph-name="Dcroat" unicode="&#x110;" horiz-adv-x="431" 
d="M402 248q0 -120 -42 -180q-50 -72 -169 -72q-45 0 -137 9v220h-48v33h48v211q92 12 157 12q90 0 140.5 -61.5t50.5 -171.5zM363 248q0 96 -42 149q-41 50 -113 50q-46 0 -115 -8v-181h151v-33h-151v-189q50 -6 110 -6q160 0 160 218z" />
    <glyph glyph-name="dcroat" unicode="&#x111;" horiz-adv-x="401" 
d="M397 426h-48v-343q0 -57 3 -83h-36q-2 26 -2 60q-46 -69 -127 -69q-73 0 -116 50.5t-43 132.5q0 75 41 124t112 49q86 0 129 -72v151h-130v33h130v46h39v-46h48v-33zM310 136v57q0 55 -37 89t-85 34q-58 0 -90 -40t-32 -103q0 -149 126 -149q50 0 84 32t34 80z" />
    <glyph glyph-name="Gbreve" unicode="&#x11e;" horiz-adv-x="425" 
d="M383 238v-228q-8 6 -21 6l-59 -10.5t-79 -10.5q-91 0 -146 66.5t-55 177.5q0 106 57 172q59 70 161 70q73 0 128 -24l-12 -32q-60 23 -118 23q-75 0 -125.5 -59t-50.5 -151q0 -98 43.5 -154.5t123.5 -56.5q63 0 115 25v154h-121v32h159zM301 589q-5 -27 -24 -44
q-26 -24 -65 -24t-66 24q-18 17 -24 44h35q4 -11 11 -19q16 -18 44 -18t43 18q8 8 12 19h34z" />
    <glyph glyph-name="gbreve" unicode="&#x11f;" horiz-adv-x="311" 
d="M275 228q0 -56 -34.5 -89t-85.5 -33q-31 0 -53 11q-6 -15 -6 -29q0 -26 81 -49q96 -27 96 -98q0 -43 -31 -70.5t-91 -27.5q-53 0 -97 27l14 32q43 -25 86 -25q37 0 61 17t24 44q0 48 -79 74q-48 15 -66 27q-31 19 -31 49q0 18 10 48q-37 40 -37 85q0 54 34 87t80 33h133
v-32l-49 5q41 -40 41 -86zM241 223q0 33 -21 58q-24 30 -65 30q-40 0 -62 -26.5t-22 -62.5q0 -40 27 -64q25 -22 57 -22q36 0 61 23t25 64zM244 453q-5 -27 -24 -44q-26 -24 -65 -24t-66 24q-18 17 -24 44h35q4 -11 11 -19q16 -18 44 -18t43 18q8 8 12 19h34z" />
    <glyph glyph-name="Idotaccent" unicode="&#x130;" horiz-adv-x="147" 
d="M93 0h-39v476h39v-476zM121 540q0 -14 -10 -23.5t-25 -9.5q-14 0 -23.5 9.5t-9.5 23.5t9.5 24.5t23.5 10.5q15 0 25 -10.5t10 -24.5z" />
    <glyph glyph-name="Scedilla" unicode="&#x15e;" horiz-adv-x="357" 
d="M322 124q0 -54 -39 -90q-44 -43 -123 -43q-78 0 -131 36l16 34q49 -37 119 -37q56 0 88 26.5t32 70.5q0 40 -24.5 64.5t-81.5 42.5q-133 43 -133 134q0 53 41 88t107 35q67 0 109 -25l-17 -31q-43 23 -93 23q-56 0 -86 -29q-24 -24 -24 -56q0 -66 106 -102q69 -24 99 -52
q35 -33 35 -89zM238 -81q0 -58 -70 -58q-24 0 -48 13l10 22q21 -10 39 -10q38 0 38 28q0 25 -63 30l39 60h32l-27 -38q50 -12 50 -47z" />
    <glyph glyph-name="scedilla" unicode="&#x15f;" horiz-adv-x="288" 
d="M251 90q0 -43 -32.5 -71t-90.5 -28q-50 0 -96 27l15 32q48 -26 84 -26q84 0 84 63q0 49 -79 73q-91 28 -91 92q0 39 29.5 67t82.5 28t84 -23l-16 -32q-30 24 -75 24q-32 0 -50 -17t-18 -42q0 -40 78 -67q91 -31 91 -100zM197.704 -72.9023q0 -52.2012 -63.002 -52.2012
q-21.6006 0 -43.2012 11.7002l9 19.8008q18.9004 -9 35.1006 -9q34.2012 0 34.2012 25.2002q0 22.501 -56.7012 27.001l35.1006 54.001h28.8008l-24.3008 -34.2002q45.002 -10.8008 45.002 -42.3018z" />
    <glyph glyph-name="Ohorn" unicode="&#x1a0;" horiz-adv-x="486" 
d="M464 237q0 -107 -61.5 -177t-159.5 -70t-159.5 70t-61.5 177t61.5 177t159.5 70q87 0 147 -57q42 45 42 94h32q0 -22 -14 -52q-17 -35 -44 -59q58 -69 58 -173zM425 237q0 88 -51 150.5t-131 62.5t-131 -62.5t-51 -150.5t51 -150.5t131 -62.5t131 62.5t51 150.5z" />
    <glyph glyph-name="ohorn" unicode="&#x1a1;" horiz-adv-x="398" 
d="M370 169q0 -75 -47 -127t-124 -52t-124 52t-47 127t47 126.5t124 51.5q67 0 115 -43q36 34 39 94h33q-2 -61 -56 -111q40 -50 40 -118zM332 169q0 62 -37.5 103.5t-95.5 41.5t-95.5 -41.5t-37.5 -103.5t37.5 -104t95.5 -42t95.5 42t37.5 104z" />
    <glyph glyph-name="Uhorn" unicode="&#x1af;" horiz-adv-x="466" 
d="M412 201q0 -210 -179 -210t-179 210v275h39v-274q0 -94 38.5 -136t101.5 -42q64 0 102.5 42t37.5 136v274h39v-44q45 39 48 89h32q-9 -71 -80 -119v-201z" />
    <glyph glyph-name="uhorn" unicode="&#x1b0;" horiz-adv-x="373" 
d="M355 1l-37 -8q-12 34 -16 66q-44 -68 -128 -68q-122 0 -122 158v191h39v-184q0 -131 92 -131q43 0 78 28q38 32 38 81v206h39v-41q40 38 44 99h32q-7 -82 -76 -127v-188q0 -37 17 -82z" />
    <glyph glyph-name="hookabovecomb" unicode="&#x309;" 
d="M-99 471q0 -31 -28 -53t-28 -34h-31q1 26 28.5 46t27.5 41q0 14 -9.5 21.5t-25.5 7.5q-26 0 -45 -28l-19 15q22 40 69 40q27 0 44 -14.5t17 -41.5z" />
    <glyph glyph-name="tildecomb" unicode="&#x303;" 
d="M-18 452q-2 -60 -50 -60q-10 0 -21 5t-21.5 11.5t-20 11.5t-16.5 5q-8 0 -15 -9t-8 -26h-25q1 30 14.5 45t34.5 15q11 0 21.5 -5t21 -11.5t20.5 -11.5t20 -5q17 0 20 35h25z" />
    <glyph glyph-name="acutecomb" unicode="&#x301;" 
d="M-124 390h-31l50 91l39 -10z" />
    <glyph glyph-name="dotbelowcomb" unicode="&#x323;" 
d="M-49 -77q0 -12 -8 -20.5t-21 -8.5q-12 0 -20.5 8.5t-8.5 20.5q0 10 8.5 19t20.5 9q13 0 21 -9t8 -19z" />
    <glyph glyph-name="gravecomb" unicode="&#x300;" 
d="M-56 390h-31l-58 81l39 10z" />
    <glyph glyph-name="oneeighth" unicode="&#x215b;" horiz-adv-x="536" 
d="M135 -9h-33l284 476h33zM165 186h-122v24h44v201l-38 -33l-19 24l71 63q21 -2 21 -28v-227h43v-24zM475 75q0 21 -14 38.5t-42 19.5q-28 -2 -42 -19t-14 -39t15.5 -35.5t40.5 -13.5q24 0 40 13.5t16 35.5zM466 209q0 15 -12.5 27.5t-34.5 12.5t-34.5 -12.5t-12.5 -27.5
q0 -14 12.5 -25.5t34.5 -17.5q22 5 34.5 17.5t12.5 25.5zM508 77q0 -39 -23.5 -61t-65.5 -22q-41 0 -65 22t-24 61q0 24 12 43t30 31q-18 10 -25.5 24.5t-7.5 31.5q0 33 22 53.5t58 20.5t58 -20.5t22 -53.5q0 -17 -7.5 -31.5t-24.5 -24.5q41 -23 41 -74z" />
    <glyph glyph-name="threeeighths" unicode="&#x215c;" horiz-adv-x="536" 
d="M135 -9h-33l284 476h33zM215 286q0 -46 -30 -73.5t-79 -28.5q-44 -1 -71 20l15 32q23 -19 53 -19q37 0 58 19t21 49q0 44 -42 44q-28 0 -44 -14l-14 25q50 35 56 40q23 19 23 37q0 20 -33 20q-45 0 -58 -44l-29 15q27 62 90 62t63 -52q0 -18 -14 -37t-31 -26
q66 -10 66 -69zM475 75q0 21 -14 38.5t-42 19.5q-28 -2 -42 -19t-14 -39t15.5 -35.5t40.5 -13.5q24 0 40 13.5t16 35.5zM466 209q0 15 -12.5 27.5t-34.5 12.5t-34.5 -12.5t-12.5 -27.5q0 -14 12.5 -25.5t34.5 -17.5q22 5 34.5 17.5t12.5 25.5zM508 77q0 -39 -23.5 -61
t-65.5 -22q-41 0 -65 22t-24 61q0 24 12 43t30 31q-18 10 -25.5 24.5t-7.5 31.5q0 33 22 53.5t58 20.5t58 -20.5t22 -53.5q0 -17 -7.5 -31.5t-24.5 -24.5q41 -23 41 -74z" />
    <glyph glyph-name="fiveeighths" unicode="&#x215d;" horiz-adv-x="536" 
d="M135 -9h-33l284 476h33zM212 286q0 -47 -31 -76t-82 -29q-45 0 -72 28l14 25q16 -10 30.5 -15t31.5 -5q29 0 52 19t23 52q0 25 -19 39t-43 14q-22 0 -37 -20l-21 -1l9 149h137l-4 -31h-100l-5 -65q7 2 13.5 2h14.5q40 0 64.5 -25.5t24.5 -60.5zM475 75q0 21 -14 38.5
t-42 19.5q-28 -2 -42 -19t-14 -39t15.5 -35.5t40.5 -13.5q24 0 40 13.5t16 35.5zM466 209q0 15 -12.5 27.5t-34.5 12.5t-34.5 -12.5t-12.5 -27.5q0 -14 12.5 -25.5t34.5 -17.5q22 5 34.5 17.5t12.5 25.5zM508 77q0 -39 -23.5 -61t-65.5 -22q-41 0 -65 22t-24 61q0 24 12 43
t30 31q-18 10 -25.5 24.5t-7.5 31.5q0 33 22 53.5t58 20.5t58 -20.5t22 -53.5q0 -17 -7.5 -31.5t-24.5 -24.5q41 -23 41 -74z" />
    <glyph glyph-name="seveneighths" unicode="&#x215e;" horiz-adv-x="536" 
d="M135 -9h-33l284 476h33zM229 435q-38 -52 -62.5 -108.5t-24.5 -141.5h-37q1 72 22 131t60 118h-143l15 33h175zM475 75q0 21 -14 38.5t-42 19.5q-28 -2 -42 -19t-14 -39t15.5 -35.5t40.5 -13.5q24 0 40 13.5t16 35.5zM466 209q0 15 -12.5 27.5t-34.5 12.5t-34.5 -12.5
t-12.5 -27.5q0 -14 12.5 -25.5t34.5 -17.5q22 5 34.5 17.5t12.5 25.5zM508 77q0 -39 -23.5 -61t-65.5 -22q-41 0 -65 22t-24 61q0 24 12 43t30 31q-18 10 -25.5 24.5t-7.5 31.5q0 33 22 53.5t58 20.5t58 -20.5t22 -53.5q0 -17 -7.5 -31.5t-24.5 -24.5q41 -23 41 -74z" />
    <glyph glyph-name="space" unicode=" " horiz-adv-x="216" 
 />
    <glyph glyph-name="uni0E0E.alt1" unicode="&#xf71b;" horiz-adv-x="425" 
d="M369 -215h-40q-8 24 -45.5 48t-67.5 32v-7q0 -32 -19 -54.5t-51 -22.5q-30 0 -47 17.5t-17 43.5q0 31 22 49t53 18q5 0 26 -3q4 37 37 56l27 -16q-30 -19 -31 -48q80 -28 117 -67v429q0 49 -30.5 78.5t-78.5 29.5q-34 0 -65.5 -19.5t-43.5 -49.5q53 -5 81 -44
q-54 -18 -54 -73q0 -39 9 -80q4 -18 4 -42q0 -29 -19.5 -48.5t-46.5 -19.5t-46 19t-19 46t19 46.5t46 19.5q11 0 24 -5q-6 46 -6 70q0 46 40 72q-27 12 -53 12q-13 0 -19 -1q5 56 48.5 92.5t101.5 36.5q64 0 104 -36.5t40 -99.5v-479zM180 -127q-9 3 -21 3q-45 0 -45 -32
q0 -31 33 -31q35 0 35 45q0 7 -2 15zM123 57q0 14 -10 24t-24 10t-23.5 -10t-9.5 -24t9.5 -23.5t23.5 -9.5t24 9.5t10 23.5z" />
    <glyph glyph-name="onethird" unicode="&#x2153;" horiz-adv-x="536" 
d="M146 -9h-33l284 476h33zM165 186h-122v24h44v201l-38 -33l-19 24l71 63q21 -2 21 -28v-227h43v-24zM513 101q0 -46 -30 -73.5t-79 -28.5q-44 -1 -71 20l15 32q23 -19 53 -19q37 0 58 19t21 49q0 44 -42 44q-28 0 -44 -14l-14 25q50 35 56 40q23 19 23 37q0 20 -33 20
q-45 0 -58 -44l-29 15q27 62 90 62t63 -52q0 -18 -14 -37t-31 -26q66 -10 66 -69z" />
    <glyph glyph-name="twothirds" unicode="&#x2154;" horiz-adv-x="536" 
d="M146 -9h-33l284 476h33zM513 101q0 -46 -30 -73.5t-79 -28.5q-44 -1 -71 20l15 32q23 -19 53 -19q37 0 58 19t21 49q0 44 -42 44q-28 0 -44 -14l-14 25q50 35 56 40q23 19 23 37q0 20 -33 20q-45 0 -58 -44l-29 15q27 62 90 62t63 -52q0 -18 -14 -37t-31 -26
q66 -10 66 -69zM197 186h-181q2 41 69 105q27 25 52.5 52t25.5 54q0 43 -43 43q-48 0 -53 -55l-34 6q4 38 27 59t57 21q36 0 58.5 -19.5t22.5 -54.5q0 -41 -54 -97l-78 -83h135z" />
    <glyph glyph-name="uni2155" unicode="&#x2155;" horiz-adv-x="536" 
d="M146 -9h-33l284 476h33zM165 186h-122v24h44v201l-38 -33l-19 24l71 63q21 -2 21 -28v-227h43v-24zM513 98q0 -47 -31 -76t-82 -29q-45 0 -72 28l14 25q16 -10 30.5 -15t31.5 -5q29 0 52 19t23 52q0 25 -19 39t-43 14q-22 0 -37 -20l-21 -1l9 149h137l-4 -31h-100l-5 -65
q7 2 13.5 2h14.5q40 0 64.5 -25.5t24.5 -60.5z" />
    <glyph glyph-name="uni2156" unicode="&#x2156;" horiz-adv-x="536" 
d="M146 -9h-33l284 476h33zM513 98q0 -47 -31 -76t-82 -29q-45 0 -72 28l14 25q16 -10 30.5 -15t31.5 -5q29 0 52 19t23 52q0 25 -19 39t-43 14q-22 0 -37 -20l-21 -1l9 149h137l-4 -31h-100l-5 -65q7 2 13.5 2h14.5q40 0 64.5 -25.5t24.5 -60.5zM197 186h-181q2 41 69 105
q27 25 52.5 52t25.5 54q0 43 -43 43q-48 0 -53 -55l-34 6q4 38 27 59t57 21q36 0 58.5 -19.5t22.5 -54.5q0 -41 -54 -97l-78 -83h135z" />
    <glyph glyph-name="uni2157" unicode="&#x2157;" horiz-adv-x="536" 
d="M146 -9h-33l284 476h33zM513 98q0 -47 -31 -76t-82 -29q-45 0 -72 28l14 25q16 -10 30.5 -15t31.5 -5q29 0 52 19t23 52q0 25 -19 39t-43 14q-22 0 -37 -20l-21 -1l9 149h137l-4 -31h-100l-5 -65q7 2 13.5 2h14.5q40 0 64.5 -25.5t24.5 -60.5zM215 286q0 -46 -30 -73.5
t-79 -28.5q-44 -1 -71 20l15 32q23 -19 53 -19q37 0 58 19t21 49q0 44 -42 44q-28 0 -44 -14l-14 25q50 35 56 40q23 19 23 37q0 20 -33 20q-45 0 -58 -44l-29 15q27 62 90 62t63 -52q0 -18 -14 -37t-31 -26q66 -10 66 -69z" />
    <glyph glyph-name="uni2158" unicode="&#x2158;" horiz-adv-x="536" 
d="M146 -9h-33l284 476h33zM513 98q0 -47 -31 -76t-82 -29q-45 0 -72 28l14 25q16 -10 30.5 -15t31.5 -5q29 0 52 19t23 52q0 25 -19 39t-43 14q-22 0 -37 -20l-21 -1l9 149h137l-4 -31h-100l-5 -65q7 2 13.5 2h14.5q40 0 64.5 -25.5t24.5 -60.5zM144 291v148
q-28 -24 -51 -72q-22 -44 -24 -76h75zM221 258h-42v-62h-35v62h-112q1 67 38 137q44 85 109 87v-191h44z" />
    <glyph glyph-name="uni2159" unicode="&#x2159;" horiz-adv-x="536" 
d="M135 -9h-33l284 476h33zM165 186h-122v24h44v201l-38 -33l-19 24l71 63q21 -2 21 -28v-227h43v-24zM504 86q0 -39 -22.5 -65t-60.5 -26q-48 0 -73 32q-23 29 -23 72q0 69 45 123.5t114 65.5l1 -27q-42 -12 -76 -43q-29 -26 -42 -58q21 18 57 18q32 0 56 -23.5t24 -68.5z
M470 86q0 27 -14.5 45t-39.5 18t-40.5 -18t-15.5 -45q0 -26 15.5 -43t40.5 -17q26 0 40 17t14 43z" />
    <glyph glyph-name="uni215A" unicode="&#x215a;" horiz-adv-x="536" 
d="M135 -9h-33l284 476h33zM504 86q0 -39 -22.5 -65t-60.5 -26q-48 0 -73 32q-23 29 -23 72q0 69 45 123.5t114 65.5l1 -27q-42 -12 -76 -43q-29 -26 -42 -58q21 18 57 18q32 0 56 -23.5t24 -68.5zM470 86q0 27 -14.5 45t-39.5 18t-40.5 -18t-15.5 -45q0 -26 15.5 -43
t40.5 -17q26 0 40 17t14 43zM212 286q0 -47 -31 -76t-82 -29q-45 0 -72 28l14 25q16 -10 30.5 -15t31.5 -5q29 0 52 19t23 52q0 25 -19 39t-43 14q-22 0 -37 -20l-21 -1l9 149h137l-4 -31h-100l-5 -65q7 2 13.5 2h14.5q40 0 64.5 -25.5t24.5 -60.5z" />
    <glyph glyph-name="uni00AD" unicode="&#xad;" horiz-adv-x="216" 
d="M195 165h-175v33h175v-33z" />
    <glyph glyph-name="nonmarkingreturn" 
 />
    </font>
</defs>
</svg>
