<?xml version="1.0" standalone="no"?>
<!DOCTYPE svg PUBLIC "-//W3C//DTD SVG 1.1//EN" "http://www.w3.org/Graphics/SVG/1.1/DTD/svg11.dtd" >
<svg>
<metadata>
Created by FontForge 20090622 at Mon Dec  7 09:08:21 2015
 By deploy user
Copyright (c) 2010-2011 by Software Industry Promotion Agency (Public Organization) (SIPA). All rights reserved.
Created by : Suppakit CHALERMLARP.
</metadata>
<defs>
<font id="THSarabunNew-Bold" horiz-adv-x="0" >
  <font-face 
    font-family="TH Sarabun New"
    font-weight="700"
    font-stretch="normal"
    units-per-em="1000"
    panose-1="2 11 5 0 4 2 0 2 0 3"
    ascent="800"
    descent="-200"
    x-height="340"
    cap-height="476"
    bbox="-466 -457 947 844"
    underline-thickness="30"
    underline-position="-20"
    unicode-range="U+0020-U+FB02"
  />
<missing-glyph horiz-adv-x="698" 
d="M645 0h-592v809h592v-809zM609 31v747h-520v-747h520z" />
    <glyph glyph-name="Agrave" unicode="A&#x300;" horiz-adv-x="451" 
d="M452 0h-69l-63 159h-191l-62 -159h-68l200 483h54zM296 213l-70 198l-74 -198h144zM291 521h-48l-84 97l57 18z" />
    <glyph glyph-name="Aacute" unicode="A&#x301;" horiz-adv-x="451" 
d="M452 0h-69l-63 159h-191l-62 -159h-68l200 483h54zM296 213l-70 198l-74 -198h144zM234 636l57 -18l-84 -97h-48z" />
    <glyph glyph-name="Atilde" unicode="A&#x303;" horiz-adv-x="451" 
d="M452 0h-69l-63 159h-191l-62 -159h-68l200 483h54zM296 213l-70 198l-74 -198h144zM325 592q-1 -35 -15.5 -55.5t-43.5 -20.5q-8 0 -19.5 4.5t-24 10l-23.5 10t-18 4.5q-8 0 -10 -7.5t-2 -16.5h-44q0 30 14.5 50.5t41.5 20.5q9 0 20.5 -4t22.5 -9.5t21.5 -9.5t17.5 -4
q19 0 19 27h43z" />
    <glyph glyph-name="Egrave" unicode="E&#x300;" horiz-adv-x="358" 
d="M333 0h-283v476h283v-54h-220v-144h196v-54h-196v-170h220v-54zM245 521h-48l-84 97l57 18z" />
    <glyph glyph-name="Eacute" unicode="E&#x301;" horiz-adv-x="358" 
d="M333 0h-283v476h283v-54h-220v-144h196v-54h-196v-170h220v-54zM188 636l57 -18l-84 -97h-48z" />
    <glyph glyph-name="Igrave" unicode="I&#x300;" horiz-adv-x="163" 
d="M113 0h-63v476h63v-476zM147 521h-48l-84 97l57 18z" />
    <glyph glyph-name="Iacute" unicode="I&#x301;" horiz-adv-x="163" 
d="M113 0h-63v476h63v-476zM90 636l57 -18l-84 -97h-48z" />
    <glyph glyph-name="Ograve" unicode="O&#x300;" horiz-adv-x="518" 
d="M430 238q0 82 -47 137.5t-124 55.5t-124 -55.5t-47 -137.5t47 -137.5t124 -55.5t124 55.5t47 137.5zM492 237q0 -105 -65 -176t-168 -71t-168 71t-65 176t65 176.5t168 71.5t168 -71.5t65 -176.5zM325 521h-48l-84 97l57 18z" />
    <glyph glyph-name="Oacute" unicode="O&#x301;" horiz-adv-x="518" 
d="M430 238q0 82 -47 137.5t-124 55.5t-124 -55.5t-47 -137.5t47 -137.5t124 -55.5t124 55.5t47 137.5zM492 237q0 -105 -65 -176t-168 -71t-168 71t-65 176t65 176.5t168 71.5t168 -71.5t65 -176.5zM268 636l57 -18l-84 -97h-48z" />
    <glyph glyph-name="Otilde" unicode="O&#x303;" horiz-adv-x="518" 
d="M430 238q0 82 -47 137.5t-124 55.5t-124 -55.5t-47 -137.5t47 -137.5t124 -55.5t124 55.5t47 137.5zM492 237q0 -105 -65 -176t-168 -71t-168 71t-65 176t65 176.5t168 71.5t168 -71.5t65 -176.5zM359 592q-1 -35 -15.5 -55.5t-43.5 -20.5q-8 0 -19.5 4.5t-24 10
l-23.5 10t-18 4.5q-8 0 -10 -7.5t-2 -16.5h-44q0 30 14.5 50.5t41.5 20.5q9 0 20.5 -4t22.5 -9.5t21.5 -9.5t17.5 -4q19 0 19 27h43z" />
    <glyph glyph-name="Ugrave" unicode="U&#x300;" horiz-adv-x="482" 
d="M432 203q0 -212 -191 -212t-191 212v273h64v-273q0 -158 127 -158t127 158v273h64v-273zM307 521h-48l-84 97l57 18z" />
    <glyph glyph-name="Uacute" unicode="U&#x301;" horiz-adv-x="482" 
d="M432 203q0 -212 -191 -212t-191 212v273h64v-273q0 -158 127 -158t127 158v273h64v-273zM250 636l57 -18l-84 -97h-48z" />
    <glyph glyph-name="Yacute" unicode="Y&#x301;" horiz-adv-x="396" 
d="M230 0h-62v208l-174 268h73l132 -214l131 214h72l-172 -267v-209zM207 636l57 -18l-84 -97h-48z" />
    <glyph glyph-name="agrave" unicode="a&#x300;" horiz-adv-x="367" 
d="M330 3l-59 -12l-10 44q-51 -44 -115 -44q-51 0 -85 27.5t-35 74.5q0 127 227 130q-10 75 -82 75q-54 0 -119 -25l-7 57q68 20 129 20q142 0 142 -146v-113q0 -38 14 -88zM253 108v60q-163 -3 -163 -69q0 -53 59 -53q33 0 66 16q38 19 38 46zM249 385h-48l-84 97l57 18z
" />
    <glyph glyph-name="aacute" unicode="a&#x301;" horiz-adv-x="367" 
d="M330 3l-59 -12l-10 44q-51 -44 -115 -44q-51 0 -85 27.5t-35 74.5q0 127 227 130q-10 75 -82 75q-54 0 -119 -25l-7 57q68 20 129 20q142 0 142 -146v-113q0 -38 14 -88zM253 108v60q-163 -3 -163 -69q0 -53 59 -53q33 0 66 16q38 19 38 46zM192 500l57 -18l-84 -97h-48z
" />
    <glyph glyph-name="atilde" unicode="a&#x303;" horiz-adv-x="367" 
d="M330 3l-59 -12l-10 44q-51 -44 -115 -44q-51 0 -85 27.5t-35 74.5q0 127 227 130q-10 75 -82 75q-54 0 -119 -25l-7 57q68 20 129 20q142 0 142 -146v-113q0 -38 14 -88zM253 108v60q-163 -3 -163 -69q0 -53 59 -53q33 0 66 16q38 19 38 46zM283 456q-1 -35 -15.5 -55.5
t-43.5 -20.5q-8 0 -19.5 4.5t-24 10l-23.5 10t-18 4.5q-8 0 -10 -7.5t-2 -16.5h-44q0 30 14.5 50.5t41.5 20.5q9 0 20.5 -4t22.5 -9.5t21.5 -9.5t17.5 -4q19 0 19 27h43z" />
    <glyph glyph-name="egrave" unicode="e&#x300;" horiz-adv-x="391" 
d="M351 18q-73 -27 -139 -27q-81 0 -133.5 48.5t-52.5 125.5q0 85 52 138q51 50 130 50q154 0 157 -193h-277q4 -54 38.5 -83.5t89.5 -29.5q56 0 128 26zM303 213q-5 39 -32 63.5t-69 24.5q-40 0 -71.5 -24.5t-38.5 -63.5h211zM261 385h-48l-84 97l57 18z" />
    <glyph glyph-name="eacute" unicode="e&#x301;" horiz-adv-x="391" 
d="M351 18q-73 -27 -139 -27q-81 0 -133.5 48.5t-52.5 125.5q0 85 52 138q51 50 130 50q154 0 157 -193h-277q4 -54 38.5 -83.5t89.5 -29.5q56 0 128 26zM303 213q-5 39 -32 63.5t-69 24.5q-40 0 -71.5 -24.5t-38.5 -63.5h211zM204 500l57 -18l-84 -97h-48z" />
    <glyph glyph-name="igrave" unicode="i&#x300;" horiz-adv-x="163" 
d="M113 0h-63v340h63v-340zM147 385h-48l-84 97l57 18z" />
    <glyph glyph-name="iacute" unicode="i&#x301;" horiz-adv-x="163" 
d="M113 0h-63v340h63v-340zM90 500l57 -18l-84 -97h-48z" />
    <glyph glyph-name="ograve" unicode="o&#x300;" horiz-adv-x="412" 
d="M386 172q0 -76 -51 -128t-129 -52t-129 52t-51 128t51 128.5t129 52.5t129 -52.5t51 -128.5zM324 172q0 54 -33 90.5t-85 36.5t-85 -36.5t-33 -90.5t33 -90.5t85 -36.5t85 36.5t33 90.5zM272 385h-48l-84 97l57 18z" />
    <glyph glyph-name="oacute" unicode="o&#x301;" horiz-adv-x="412" 
d="M386 172q0 -76 -51 -128t-129 -52t-129 52t-51 128t51 128.5t129 52.5t129 -52.5t51 -128.5zM324 172q0 54 -33 90.5t-85 36.5t-85 -36.5t-33 -90.5t33 -90.5t85 -36.5t85 36.5t33 90.5zM215 500l57 -18l-84 -97h-48z" />
    <glyph glyph-name="otilde" unicode="o&#x303;" horiz-adv-x="412" 
d="M386 172q0 -76 -51 -128t-129 -52t-129 52t-51 128t51 128.5t129 52.5t129 -52.5t51 -128.5zM324 172q0 54 -33 90.5t-85 36.5t-85 -36.5t-33 -90.5t33 -90.5t85 -36.5t85 36.5t33 90.5zM306 456q-1 -35 -15.5 -55.5t-43.5 -20.5q-8 0 -19.5 4.5t-24 10l-23.5 10t-18 4.5
q-8 0 -10 -7.5t-2 -16.5h-44q0 30 14.5 50.5t41.5 20.5q9 0 20.5 -4t22.5 -9.5t21.5 -9.5t17.5 -4q19 0 19 27h43z" />
    <glyph glyph-name="ugrave" unicode="u&#x300;" horiz-adv-x="418" 
d="M389 4l-61 -12q-10 24 -18 58q-60 -59 -119 -59q-141 0 -141 163v186h63v-180q0 -113 86 -113q36 0 71 27.5t35 64.5v201h63v-249q0 -34 21 -87zM275 385h-48l-84 97l57 18z" />
    <glyph glyph-name="uacute" unicode="u&#x301;" horiz-adv-x="418" 
d="M389 4l-61 -12q-10 24 -18 58q-60 -59 -119 -59q-141 0 -141 163v186h63v-180q0 -113 86 -113q36 0 71 27.5t35 64.5v201h63v-249q0 -34 21 -87zM218 500l57 -18l-84 -97h-48z" />
    <glyph glyph-name="yacute" unicode="y&#x301;" horiz-adv-x="361" 
d="M32 -151l-16 52q89 20 131 124l-151 315h69l118 -252l112 252h69l-156 -333q-63 -133 -176 -158zM189 500l57 -18l-84 -97h-48z" />
    <glyph glyph-name="fi" unicode="fi" horiz-adv-x="405" 
d="M358 340v-340h-63v288h-158v-288h-63v288h-57v52h58q0 81 43 126t112 45q72 0 118 -54l-33 -45q-39 45 -87 45q-36 0 -62 -30q-29 -33 -29 -87h221z" />
    <glyph glyph-name="fl" unicode="fl" horiz-adv-x="455" 
d="M451 49l-7 -57q-149 7 -149 183v257q-30 25 -67 25q-36 0 -62 -30q-29 -33 -29 -87h118v-52h-118v-288h-63v288h-57v52h58q0 81 43 126t112 45q80 0 128 -64v-258q0 -77 24 -109q21 -27 69 -31z" />
    <glyph glyph-name="PSK" unicode="PSK&#x2e;Design&#x28;c&#x29;" horiz-adv-x="954" 
d="M212 520q0 28 -44 28h-38v-57h38q44 0 44 29zM271 519q0 -73 -100 -73h-41v-80h-58v225h110q89 0 89 -72zM779 366l-82 114v-114h-60v225h60v-96l82 96h70l-89 -100l96 -125h-77zM916 666q-5 -26 -30 -26q-31 0 -31 36t31 36q27 0 29 -24h-16q-3 10 -13 10q-13 0 -13 -21
q0 -24 14 -24q11 0 12 13h17zM237 120q0 26 -25 26q-27 0 -27 -25t27 -25q25 0 25 24zM261 121q0 -42 -51 -42q-48 0 -48 42q0 41 50 41q49 0 49 -41zM325 135q0 10 -17 10h-15v-21h15q17 0 17 11zM348 135q0 -27 -38 -27h-17v-25h-21v79h41q35 0 35 -27zM404 83h-23v28
l-36 51h26l24 -34q3 4 22 34h23l-36 -52v-27zM196 17l-7 17l-8 -17h15zM215 0h-13l-4 9h-20l-4 -9h-12l20 43h15zM689 0h-34v43h34v-9h-23v-8h21v-8h-21v-9h23v-9zM774 43l-17 -43h-12l-18 43h12l12 -32l12 32h11zM847 21q0 13 -13 13h-8v-24h8q13 0 13 11zM858 21
q0 -21 -24 -21h-20v43h20q24 0 24 -22zM249 0h-32v43h10v-34h22v-9zM332 30q0 5 -8 5h-6v-9h6q8 0 8 4zM345 32q0 -8 -8 -11q6 -2 10 -21h-13q0 4 -1 8q-3 9 -9 9h-6v-17h-11v43h21q17 0 17 -11zM361 43v-43h-9v43h9zM412 3q-9 -4 -19 -4q-26 0 -26 22q0 23 25 23
q19 0 20 -16h-11q-1 7 -9 7q-13 0 -13 -13q0 -14 14 -14q5 0 8 1v7h-9v8h20v-21zM462 0h-11v18h-22v-18h-11v43h11v-17h22v17h11v-43zM506 34h-14v-34h-12v34h-15v9h41v-9zM565 83h-25v79h25v-79zM668 86q-18 -5 -41 -5q-51 0 -51 41t49 41q40 0 43 -27h-26q-2 11 -18 11
q-24 0 -24 -24q0 -26 27 -26l16 2v14h-19v13h44v-40zM768 83h-23v32h-40v-32h-24v79h24v-31h40v31h23v-79zM864 144h-33v-61h-23v61h-31v18h87v-18zM506 137q0 8 -18 8h-15v-19h15q18 0 18 11zM531 83h-22l-5 20q-1 10 -17 10h-14v-30h-23v79h45q34 0 34 -21q0 -13 -17 -19
q15 -3 15 -19zM650 13q0 -14 -20 -14q-18 0 -18 16h11q0 -7 8 -7q7 0 7 4q0 1 -12.5 5.5t-12.5 12.5q0 14 18 14t18 -14h-11q0 6 -7 6t-7 -5q0 -4 13 -7t13 -11zM809 0h-33v43h33v-9h-21v-8h20v-8h-20v-9h21v-9zM608 9v-9h-34v43h33v-9h-22v-8h21v-8h-21v-9h23zM156 109
q-3 -30 -43 -30q-47 0 -47 43q0 42 49 42q37 0 41 -30h-26q-1 13 -17 13q-23 0 -23 -25t22 -25q17 0 18 12h26zM867 199h-809v25h809v-25zM562 406q0 -79 -58 -116q-46 -30 -118 -30q-61 0 -95.5 26t-34.5 73q0 16 4 31h38q-1 -7 -1 -17q0 -79 99 -79q44 0 79 21
q45 27 45 77q0 38 -52 58l-95 32q-52 22 -52 64q0 68 52 104q46 31 119 31q50 0 79.5 -21t29.5 -59q0 -15 -5 -33h-36q2 14 2 19q0 60 -66 60q-60 0 -95.5 -23t-35.5 -62q0 -26 18 -39t75.5 -29.5t80.5 -36t23 -51.5zM947 675q0 -26 -17 -42t-43 -16q-25 0 -41.5 16
t-16.5 42t16.5 42.5t41.5 16.5q26 0 43 -16.5t17 -42.5zM938 674q0 21 -15 35.5t-36 14.5q-20 0 -34 -14.5t-14 -35.5t14 -35t34 -14q21 0 36 14t15 35zM557 30q0 5 -7 5h-7v-9h7q7 0 7 4zM569 32q0 -8 -8 -11q6 -2 10 -21h-12q0 4 -1 8q-3 9 -8 9h-7v-17h-12v43h22
q16 0 16 -11zM702 26h7q7 0 7 4q0 5 -7 5h-7v-9zM730 0h-12q0 4 -1 8q-3 9 -8 9h-7v-17h-10v43h21q15 0 15 -11q0 -8 -8 -11q6 -2 10 -21zM284 0h-32v43h10v-34h22v-9z" />
    <glyph glyph-name="uni1EA0" unicode="A&#x323;" horiz-adv-x="451" 
d="M452 0h-69l-63 159h-191l-62 -159h-68l200 483h54zM296 213l-70 198l-74 -198h144zM272 -96q0 -20 -14 -34t-33 -14t-33 14t-14 34t14 34t33 14t33 -14t14 -34z" />
    <glyph glyph-name="uni1EA1" unicode="a&#x323;" horiz-adv-x="367" 
d="M330 3l-59 -12l-10 44q-51 -44 -115 -44q-51 0 -85 27.5t-35 74.5q0 127 227 130q-10 75 -82 75q-54 0 -119 -25l-7 57q68 20 129 20q142 0 142 -146v-113q0 -38 14 -88zM253 108v60q-163 -3 -163 -69q0 -53 59 -53q33 0 66 16q38 19 38 46zM230 -96q0 -20 -14 -34
t-33 -14t-33 14t-14 34t14 34t33 14t33 -14t14 -34z" />
    <glyph glyph-name="uni1EA2" unicode="A&#x309;" horiz-adv-x="451" 
d="M452 0h-69l-63 159h-191l-62 -159h-68l200 483h54zM296 213l-70 198l-74 -198h144zM304 613q0 -17 -9 -30.5t-19.5 -25.5t-19 -23.5t-8.5 -24.5h-45q0 16 9 29t20 24.5t20 22.5t9 23q0 17 -7.5 22.5t-20.5 5.5q-17 0 -30 -11t-17 -17l-26 22q8 16 27 30.5t51 14.5
q29 0 47.5 -15t18.5 -47z" />
    <glyph glyph-name="uni1EA3" unicode="a&#x309;" horiz-adv-x="367" 
d="M330 3l-59 -12l-10 44q-51 -44 -115 -44q-51 0 -85 27.5t-35 74.5q0 127 227 130q-10 75 -82 75q-54 0 -119 -25l-7 57q68 20 129 20q142 0 142 -146v-113q0 -38 14 -88zM253 108v60q-163 -3 -163 -69q0 -53 59 -53q33 0 66 16q38 19 38 46zM255 477q0 -17 -9 -30.5
t-19.5 -25.5t-19 -23.5t-8.5 -24.5h-45q0 16 9 29t20 24.5t20 22.5t9 23q0 17 -7.5 22.5t-20.5 5.5q-17 0 -30 -11t-17 -17l-26 22q8 16 27 30.5t51 14.5q29 0 47.5 -15t18.5 -47z" />
    <glyph glyph-name="uni1EA4" unicode="&#xc2;&#x301;" horiz-adv-x="451" 
d="M452 0h-69l-63 159h-191l-62 -159h-68l200 483h54zM296 213l-70 198l-74 -198h144zM320 521h-54l-41 71l-40 -71h-55l78 115h35zM369 720l57 -18l-84 -97h-48z" />
    <glyph glyph-name="uni1EA5" unicode="&#xe2;&#x301;" horiz-adv-x="367" 
d="M330 3l-59 -12l-10 44q-51 -44 -115 -44q-51 0 -85 27.5t-35 74.5q0 127 227 130q-10 75 -82 75q-54 0 -119 -25l-7 57q68 20 129 20q142 0 142 -146v-113q0 -38 14 -88zM253 108v60q-163 -3 -163 -69q0 -53 59 -53q33 0 66 16q38 19 38 46zM278 385h-54l-41 71l-40 -71
h-55l78 115h35zM330 592l57 -18l-84 -97h-48z" />
    <glyph glyph-name="uni1EA6" unicode="&#xc2;&#x300;" horiz-adv-x="451" 
d="M452 0h-69l-63 159h-191l-62 -159h-68l200 483h54zM296 213l-70 198l-74 -198h144zM320 521h-54l-41 71l-40 -71h-55l78 115h35zM401 605h-48l-84 97l57 18z" />
    <glyph glyph-name="uni1EA7" unicode="&#xe2;&#x300;" horiz-adv-x="367" 
d="M330 3l-59 -12l-10 44q-51 -44 -115 -44q-51 0 -85 27.5t-35 74.5q0 127 227 130q-10 75 -82 75q-54 0 -119 -25l-7 57q68 20 129 20q142 0 142 -146v-113q0 -38 14 -88zM253 108v60q-163 -3 -163 -69q0 -53 59 -53q33 0 66 16q38 19 38 46zM278 385h-54l-41 71l-40 -71
h-55l78 115h35zM341 477h-48l-84 97l57 18z" />
    <glyph glyph-name="uni1EA8" unicode="&#xc2;&#x309;" horiz-adv-x="451" 
d="M452 0h-69l-63 159h-191l-62 -159h-68l200 483h54zM296 213l-70 198l-74 -198h144zM320 521h-54l-41 71l-40 -71h-55l78 115h35zM423 701q0 -17 -9 -30.5t-19.5 -25.5t-19 -23.5t-8.5 -24.5h-45q0 16 9 29t20 24.5t20 22.5t9 23q0 17 -7.5 22.5t-20.5 5.5q-17 0 -30 -11
t-17 -17l-26 22q8 16 27 30.5t51 14.5q29 0 47.5 -15t18.5 -47z" />
    <glyph glyph-name="uni1EA9" unicode="&#xe2;&#x309;" horiz-adv-x="367" 
d="M330 3l-59 -12l-10 44q-51 -44 -115 -44q-51 0 -85 27.5t-35 74.5q0 127 227 130q-10 75 -82 75q-54 0 -119 -25l-7 57q68 20 129 20q142 0 142 -146v-113q0 -38 14 -88zM253 108v60q-163 -3 -163 -69q0 -53 59 -53q33 0 66 16q38 19 38 46zM278 385h-54l-41 71l-40 -71
h-55l78 115h35zM371 571q0 -17 -9 -30.5t-19.5 -25.5t-19 -23.5t-8.5 -24.5h-45q0 16 9 29t20 24.5t20 22.5t9 23q0 17 -7.5 22.5t-20.5 5.5q-17 0 -30 -11t-17 -17l-26 22q8 16 27 30.5t51 14.5q29 0 47.5 -15t18.5 -47z" />
    <glyph glyph-name="uni1EAA" unicode="&#xc2;&#x303;" horiz-adv-x="451" 
d="M452 0h-69l-63 159h-191l-62 -159h-68l200 483h54zM296 213l-70 198l-74 -198h144zM320 521h-54l-41 71l-40 -71h-55l78 115h35zM325 748q-1 -35 -15.5 -55.5t-43.5 -20.5q-8 0 -19.5 4.5t-24 10l-23.5 10t-18 4.5q-8 0 -10 -7.5t-2 -16.5h-44q0 30 14.5 50.5t41.5 20.5
q9 0 20.5 -4t22.5 -9.5t21.5 -9.5t17.5 -4q19 0 19 27h43z" />
    <glyph glyph-name="uni1EAB" unicode="&#xe2;&#x303;" horiz-adv-x="367" 
d="M330 3l-59 -12l-10 44q-51 -44 -115 -44q-51 0 -85 27.5t-35 74.5q0 127 227 130q-10 75 -82 75q-54 0 -119 -25l-7 57q68 20 129 20q142 0 142 -146v-113q0 -38 14 -88zM253 108v60q-163 -3 -163 -69q0 -53 59 -53q33 0 66 16q38 19 38 46zM278 385h-54l-41 71l-40 -71
h-55l78 115h35zM283 600q-1 -35 -15.5 -55.5t-43.5 -20.5q-8 0 -19.5 4.5t-24 10l-23.5 10t-18 4.5q-8 0 -10 -7.5t-2 -16.5h-44q0 30 14.5 50.5t41.5 20.5q9 0 20.5 -4t22.5 -9.5t21.5 -9.5t17.5 -4q19 0 19 27h43z" />
    <glyph glyph-name="uni1EAC" unicode="&#xc2;&#x323;" horiz-adv-x="451" 
d="M452 0h-69l-63 159h-191l-62 -159h-68l200 483h54zM296 213l-70 198l-74 -198h144zM272 -96q0 -20 -14 -34t-33 -14t-33 14t-14 34t14 34t33 14t33 -14t14 -34zM320 521h-54l-41 71l-40 -71h-55l78 115h35z" />
    <glyph glyph-name="uni1EAD" unicode="&#xe2;&#x323;" horiz-adv-x="367" 
d="M330 3l-59 -12l-10 44q-51 -44 -115 -44q-51 0 -85 27.5t-35 74.5q0 127 227 130q-10 75 -82 75q-54 0 -119 -25l-7 57q68 20 129 20q142 0 142 -146v-113q0 -38 14 -88zM253 108v60q-163 -3 -163 -69q0 -53 59 -53q33 0 66 16q38 19 38 46zM230 -96q0 -20 -14 -34
t-33 -14t-33 14t-14 34t14 34t33 14t33 -14t14 -34zM278 385h-54l-41 71l-40 -71h-55l78 115h35z" />
    <glyph glyph-name="uni1EAE" unicode="&#x102;&#x301;" horiz-adv-x="451" 
d="M452 0h-69l-63 159h-191l-62 -159h-68l200 483h54zM296 213l-70 198l-74 -198h144zM343 627q-10 -57 -40 -84.5t-78 -27.5t-78 27.5t-40 84.5h54q5 -25 20.5 -44.5t43.5 -19.5t44 19.5t21 44.5h53zM273 762l57 -18l-84 -97h-48z" />
    <glyph glyph-name="uni1EAF" unicode="&#x103;&#x301;" horiz-adv-x="367" 
d="M330 3l-59 -12l-10 44q-51 -44 -115 -44q-51 0 -85 27.5t-35 74.5q0 127 227 130q-10 75 -82 75q-54 0 -119 -25l-7 57q68 20 129 20q142 0 142 -146v-113q0 -38 14 -88zM253 108v60q-163 -3 -163 -69q0 -53 59 -53q33 0 66 16q38 19 38 46zM301 491q-10 -57 -40 -84.5
t-78 -27.5t-78 27.5t-40 84.5h54q5 -25 20.5 -44.5t43.5 -19.5t44 19.5t21 44.5h53zM230 626l57 -18l-84 -97h-48z" />
    <glyph glyph-name="uni1EB0" unicode="&#x102;&#x300;" horiz-adv-x="451" 
d="M452 0h-69l-63 159h-191l-62 -159h-68l200 483h54zM296 213l-70 198l-74 -198h144zM343 627q-10 -57 -40 -84.5t-78 -27.5t-78 27.5t-40 84.5h54q5 -25 20.5 -44.5t43.5 -19.5t44 19.5t21 44.5h53zM253 636h-48l-84 97l57 18z" />
    <glyph glyph-name="uni1EB1" unicode="&#x103;&#x300;" horiz-adv-x="367" 
d="M330 3l-59 -12l-10 44q-51 -44 -115 -44q-51 0 -85 27.5t-35 74.5q0 127 227 130q-10 75 -82 75q-54 0 -119 -25l-7 57q68 20 129 20q142 0 142 -146v-113q0 -38 14 -88zM253 108v60q-163 -3 -163 -69q0 -53 59 -53q33 0 66 16q38 19 38 46zM301 491q-10 -57 -40 -84.5
t-78 -27.5t-78 27.5t-40 84.5h54q5 -25 20.5 -44.5t43.5 -19.5t44 19.5t21 44.5h53zM212 502h-48l-84 97l57 18z" />
    <glyph glyph-name="uni1EB2" unicode="&#x102;&#x309;" horiz-adv-x="451" 
d="M452 0h-69l-63 159h-191l-62 -159h-68l200 483h54zM296 213l-70 198l-74 -198h144zM343 627q-10 -57 -40 -84.5t-78 -27.5t-78 27.5t-40 84.5h54q5 -25 20.5 -44.5t43.5 -19.5t44 19.5t21 44.5h53zM301 735q0 -17 -9 -30.5t-19.5 -25.5t-19 -23.5t-8.5 -24.5h-45
q0 16 9 29t20 24.5t20 22.5t9 23q0 17 -7.5 22.5t-20.5 5.5q-17 0 -30 -11t-17 -17l-26 22q8 16 27 30.5t51 14.5q29 0 47.5 -15t18.5 -47z" />
    <glyph glyph-name="uni1EB3" unicode="&#x103;&#x309;" horiz-adv-x="367" 
d="M330 3l-59 -12l-10 44q-51 -44 -115 -44q-51 0 -85 27.5t-35 74.5q0 127 227 130q-10 75 -82 75q-54 0 -119 -25l-7 57q68 20 129 20q142 0 142 -146v-113q0 -38 14 -88zM253 108v60q-163 -3 -163 -69q0 -53 59 -53q33 0 66 16q38 19 38 46zM301 491q-10 -57 -40 -84.5
t-78 -27.5t-78 27.5t-40 84.5h54q5 -25 20.5 -44.5t43.5 -19.5t44 19.5t21 44.5h53zM262 593q0 -17 -9 -30.5t-19.5 -25.5t-19 -23.5t-8.5 -24.5h-45q0 16 9 29t20 24.5t20 22.5t9 23q0 17 -7.5 22.5t-20.5 5.5q-17 0 -30 -11t-17 -17l-26 22q8 16 27 30.5t51 14.5
q29 0 47.5 -15t18.5 -47z" />
    <glyph glyph-name="uni1EB4" unicode="&#x102;&#x303;" horiz-adv-x="451" 
d="M452 0h-69l-63 159h-191l-62 -159h-68l200 483h54zM296 213l-70 198l-74 -198h144zM343 627q-10 -57 -40 -84.5t-78 -27.5t-78 27.5t-40 84.5h54q5 -25 20.5 -44.5t43.5 -19.5t44 19.5t21 44.5h53zM325 748q-1 -35 -15.5 -55.5t-43.5 -20.5q-8 0 -19.5 4.5t-24 10
l-23.5 10t-18 4.5q-8 0 -10 -7.5t-2 -16.5h-44q0 30 14.5 50.5t41.5 20.5q9 0 20.5 -4t22.5 -9.5t21.5 -9.5t17.5 -4q19 0 19 27h43z" />
    <glyph glyph-name="uni1EB5" unicode="&#x103;&#x303;" horiz-adv-x="367" 
d="M330 3l-59 -12l-10 44q-51 -44 -115 -44q-51 0 -85 27.5t-35 74.5q0 127 227 130q-10 75 -82 75q-54 0 -119 -25l-7 57q68 20 129 20q142 0 142 -146v-113q0 -38 14 -88zM253 108v60q-163 -3 -163 -69q0 -53 59 -53q33 0 66 16q38 19 38 46zM301 491q-10 -57 -40 -84.5
t-78 -27.5t-78 27.5t-40 84.5h54q5 -25 20.5 -44.5t43.5 -19.5t44 19.5t21 44.5h53zM283 596q-1 -35 -15.5 -55.5t-43.5 -20.5q-8 0 -19.5 4.5t-24 10l-23.5 10t-18 4.5q-8 0 -10 -7.5t-2 -16.5h-44q0 30 14.5 50.5t41.5 20.5q9 0 20.5 -4t22.5 -9.5t21.5 -9.5t17.5 -4
q19 0 19 27h43z" />
    <glyph glyph-name="uni1EB6" unicode="&#x102;&#x323;" horiz-adv-x="451" 
d="M452 0h-69l-63 159h-191l-62 -159h-68l200 483h54zM296 213l-70 198l-74 -198h144zM272 -96q0 -20 -14 -34t-33 -14t-33 14t-14 34t14 34t33 14t33 -14t14 -34zM343 627q-10 -57 -40 -84.5t-78 -27.5t-78 27.5t-40 84.5h54q5 -25 20.5 -44.5t43.5 -19.5t44 19.5t21 44.5
h53z" />
    <glyph glyph-name="uni1EB7" unicode="&#x103;&#x323;" horiz-adv-x="367" 
d="M330 3l-59 -12l-10 44q-51 -44 -115 -44q-51 0 -85 27.5t-35 74.5q0 127 227 130q-10 75 -82 75q-54 0 -119 -25l-7 57q68 20 129 20q142 0 142 -146v-113q0 -38 14 -88zM253 108v60q-163 -3 -163 -69q0 -53 59 -53q33 0 66 16q38 19 38 46zM230 -96q0 -20 -14 -34
t-33 -14t-33 14t-14 34t14 34t33 14t33 -14t14 -34zM301 491q-10 -57 -40 -84.5t-78 -27.5t-78 27.5t-40 84.5h54q5 -25 20.5 -44.5t43.5 -19.5t44 19.5t21 44.5h53z" />
    <glyph glyph-name="uni1EB8" unicode="E&#x323;" horiz-adv-x="358" 
d="M333 0h-283v476h283v-54h-220v-144h196v-54h-196v-170h220v-54zM226 -96q0 -20 -14 -34t-33 -14t-33 14t-14 34t14 34t33 14t33 -14t14 -34z" />
    <glyph glyph-name="uni1EB9" unicode="e&#x323;" horiz-adv-x="391" 
d="M351 18q-73 -27 -139 -27q-81 0 -133.5 48.5t-52.5 125.5q0 85 52 138q51 50 130 50q154 0 157 -193h-277q4 -54 38.5 -83.5t89.5 -29.5q56 0 128 26zM303 213q-5 39 -32 63.5t-69 24.5q-40 0 -71.5 -24.5t-38.5 -63.5h211zM242 -96q0 -20 -14 -34t-33 -14t-33 14t-14 34
t14 34t33 14t33 -14t14 -34z" />
    <glyph glyph-name="uni1EBA" unicode="E&#x309;" horiz-adv-x="358" 
d="M333 0h-283v476h283v-54h-220v-144h196v-54h-196v-170h220v-54zM260 613q0 -17 -9 -30.5t-19.5 -25.5t-19 -23.5t-8.5 -24.5h-45q0 16 9 29t20 24.5t20 22.5t9 23q0 17 -7.5 22.5t-20.5 5.5q-17 0 -30 -11t-17 -17l-26 22q8 16 27 30.5t51 14.5q29 0 47.5 -15t18.5 -47z
" />
    <glyph glyph-name="uni1EBB" unicode="e&#x309;" horiz-adv-x="391" 
d="M351 18q-73 -27 -139 -27q-81 0 -133.5 48.5t-52.5 125.5q0 85 52 138q51 50 130 50q154 0 157 -193h-277q4 -54 38.5 -83.5t89.5 -29.5q56 0 128 26zM303 213q-5 39 -32 63.5t-69 24.5q-40 0 -71.5 -24.5t-38.5 -63.5h211zM277 477q0 -17 -9 -30.5t-19.5 -25.5
t-19 -23.5t-8.5 -24.5h-45q0 16 9 29t20 24.5t20 22.5t9 23q0 17 -7.5 22.5t-20.5 5.5q-17 0 -30 -11t-17 -17l-26 22q8 16 27 30.5t51 14.5q29 0 47.5 -15t18.5 -47z" />
    <glyph glyph-name="uni1EBC" unicode="E&#x303;" horiz-adv-x="358" 
d="M333 0h-283v476h283v-54h-220v-144h196v-54h-196v-170h220v-54zM279 592q-1 -35 -15.5 -55.5t-43.5 -20.5q-8 0 -19.5 4.5t-24 10l-23.5 10t-18 4.5q-8 0 -10 -7.5t-2 -16.5h-44q0 30 14.5 50.5t41.5 20.5q9 0 20.5 -4t22.5 -9.5t21.5 -9.5t17.5 -4q19 0 19 27h43z" />
    <glyph glyph-name="uni1EBD" unicode="e&#x303;" horiz-adv-x="391" 
d="M351 18q-73 -27 -139 -27q-81 0 -133.5 48.5t-52.5 125.5q0 85 52 138q51 50 130 50q154 0 157 -193h-277q4 -54 38.5 -83.5t89.5 -29.5q56 0 128 26zM303 213q-5 39 -32 63.5t-69 24.5q-40 0 -71.5 -24.5t-38.5 -63.5h211zM295 456q-1 -35 -15.5 -55.5t-43.5 -20.5
q-8 0 -19.5 4.5t-24 10l-23.5 10t-18 4.5q-8 0 -10 -7.5t-2 -16.5h-44q0 30 14.5 50.5t41.5 20.5q9 0 20.5 -4t22.5 -9.5t21.5 -9.5t17.5 -4q19 0 19 27h43z" />
    <glyph glyph-name="uni1EBE" unicode="&#xca;&#x301;" horiz-adv-x="358" 
d="M333 0h-283v476h283v-54h-220v-144h196v-54h-196v-170h220v-54zM274 521h-54l-41 71l-40 -71h-55l78 115h35zM322 735l57 -18l-84 -97h-48z" />
    <glyph glyph-name="uni1EBF" unicode="&#xea;&#x301;" horiz-adv-x="391" 
d="M351 18q-73 -27 -139 -27q-81 0 -133.5 48.5t-52.5 125.5q0 85 52 138q51 50 130 50q154 0 157 -193h-277q4 -54 38.5 -83.5t89.5 -29.5q56 0 128 26zM303 213q-5 39 -32 63.5t-69 24.5q-40 0 -71.5 -24.5t-38.5 -63.5h211zM290 385h-54l-41 71l-40 -71h-55l78 115h35z
M338 602l57 -18l-84 -97h-48z" />
    <glyph glyph-name="uni1EC0" unicode="&#xca;&#x300;" horiz-adv-x="358" 
d="M333 0h-283v476h283v-54h-220v-144h196v-54h-196v-170h220v-54zM274 521h-54l-41 71l-40 -71h-55l78 115h35zM333 636h-48l-84 97l57 18z" />
    <glyph glyph-name="uni1EC1" unicode="&#xea;&#x300;" horiz-adv-x="391" 
d="M351 18q-73 -27 -139 -27q-81 0 -133.5 48.5t-52.5 125.5q0 85 52 138q51 50 130 50q154 0 157 -193h-277q4 -54 38.5 -83.5t89.5 -29.5q56 0 128 26zM303 213q-5 39 -32 63.5t-69 24.5q-40 0 -71.5 -24.5t-38.5 -63.5h211zM290 385h-54l-41 71l-40 -71h-55l78 115h35z
M365 476h-48l-84 97l57 18z" />
    <glyph glyph-name="uni1EC2" unicode="&#xca;&#x309;" horiz-adv-x="358" 
d="M333 0h-283v476h283v-54h-220v-144h196v-54h-196v-170h220v-54zM274 521h-54l-41 71l-40 -71h-55l78 115h35zM366 700q0 -17 -9 -30.5t-19.5 -25.5t-19 -23.5t-8.5 -24.5h-45q0 16 9 29t20 24.5t20 22.5t9 23q0 17 -7.5 22.5t-20.5 5.5q-17 0 -30 -11t-17 -17l-26 22
q8 16 27 30.5t51 14.5q29 0 47.5 -15t18.5 -47z" />
    <glyph glyph-name="uni1EC3" unicode="&#xea;&#x309;" horiz-adv-x="391" 
d="M351 18q-73 -27 -139 -27q-81 0 -133.5 48.5t-52.5 125.5q0 85 52 138q51 50 130 50q154 0 157 -193h-277q4 -54 38.5 -83.5t89.5 -29.5q56 0 128 26zM303 213q-5 39 -32 63.5t-69 24.5q-40 0 -71.5 -24.5t-38.5 -63.5h211zM290 385h-54l-41 71l-40 -71h-55l78 115h35z
M398 559q0 -17 -9 -30.5t-19.5 -25.5t-19 -23.5t-8.5 -24.5h-45q0 16 9 29t20 24.5t20 22.5t9 23q0 17 -7.5 22.5t-20.5 5.5q-17 0 -30 -11t-17 -17l-26 22q8 16 27 30.5t51 14.5q29 0 47.5 -15t18.5 -47z" />
    <glyph glyph-name="uni1EC4" unicode="&#xca;&#x303;" horiz-adv-x="358" 
d="M333 0h-283v476h283v-54h-220v-144h196v-54h-196v-170h220v-54zM274 521h-54l-41 71l-40 -71h-55l78 115h35zM279 747q-1 -35 -15.5 -55.5t-43.5 -20.5q-8 0 -19.5 4.5t-24 10l-23.5 10t-18 4.5q-8 0 -10 -7.5t-2 -16.5h-44q0 30 14.5 50.5t41.5 20.5q9 0 20.5 -4
t22.5 -9.5t21.5 -9.5t17.5 -4q19 0 19 27h43z" />
    <glyph glyph-name="uni1EC5" unicode="&#xea;&#x303;" horiz-adv-x="391" 
d="M351 18q-73 -27 -139 -27q-81 0 -133.5 48.5t-52.5 125.5q0 85 52 138q51 50 130 50q154 0 157 -193h-277q4 -54 38.5 -83.5t89.5 -29.5q56 0 128 26zM303 213q-5 39 -32 63.5t-69 24.5q-40 0 -71.5 -24.5t-38.5 -63.5h211zM290 385h-54l-41 71l-40 -71h-55l78 115h35z
M295 593q-1 -35 -15.5 -55.5t-43.5 -20.5q-8 0 -19.5 4.5t-24 10l-23.5 10t-18 4.5q-8 0 -10 -7.5t-2 -16.5h-44q0 30 14.5 50.5t41.5 20.5q9 0 20.5 -4t22.5 -9.5t21.5 -9.5t17.5 -4q19 0 19 27h43z" />
    <glyph glyph-name="uni1EC6" unicode="&#xca;&#x323;" horiz-adv-x="358" 
d="M333 0h-283v476h283v-54h-220v-144h196v-54h-196v-170h220v-54zM226 -96q0 -20 -14 -34t-33 -14t-33 14t-14 34t14 34t33 14t33 -14t14 -34zM274 521h-54l-41 71l-40 -71h-55l78 115h35z" />
    <glyph glyph-name="uni1EC7" unicode="&#xea;&#x323;" horiz-adv-x="391" 
d="M351 18q-73 -27 -139 -27q-81 0 -133.5 48.5t-52.5 125.5q0 85 52 138q51 50 130 50q154 0 157 -193h-277q4 -54 38.5 -83.5t89.5 -29.5q56 0 128 26zM303 213q-5 39 -32 63.5t-69 24.5q-40 0 -71.5 -24.5t-38.5 -63.5h211zM242 -96q0 -20 -14 -34t-33 -14t-33 14t-14 34
t14 34t33 14t33 -14t14 -34zM290 385h-54l-41 71l-40 -71h-55l78 115h35z" />
    <glyph glyph-name="uni1EC8" unicode="I&#x309;" horiz-adv-x="163" 
d="M113 0h-63v476h63v-476zM158 613q0 -17 -9 -30.5t-19.5 -25.5t-19 -23.5t-8.5 -24.5h-45q0 16 9 29t20 24.5t20 22.5t9 23q0 17 -7.5 22.5t-20.5 5.5q-17 0 -30 -11t-17 -17l-26 22q8 16 27 30.5t51 14.5q29 0 47.5 -15t18.5 -47z" />
    <glyph glyph-name="uni1EC9" unicode="i&#x309;" horiz-adv-x="163" 
d="M159 477q0 -17 -9 -30.5t-19.5 -25.5t-19 -23.5t-8.5 -24.5h-45q0 16 9 29t20 24.5t20 22.5t9 23q0 17 -7.5 22.5t-20.5 5.5q-17 0 -30 -11t-17 -17l-26 22q8 16 27 30.5t51 14.5q29 0 47.5 -15t18.5 -47zM113 0h-63v340h63v-340z" />
    <glyph glyph-name="uni1ECA" unicode="I&#x323;" horiz-adv-x="163" 
d="M113 0h-63v476h63v-476zM135 -96q0 -20 -14 -34t-33 -14t-33 14t-14 34t14 34t33 14t33 -14t14 -34z" />
    <glyph glyph-name="uni1ECB" unicode="i&#x323;" horiz-adv-x="163" 
d="M113 0h-63v340h63v-340zM128 440q0 -20 -14 -34t-34 -14t-34 14t-14 34t14 34t34 14t34 -14t14 -34zM135 -96q0 -20 -14 -34t-33 -14t-33 14t-14 34t14 34t33 14t33 -14t14 -34z" />
    <glyph glyph-name="uni1ECC" unicode="O&#x323;" horiz-adv-x="518" 
d="M430 238q0 82 -47 137.5t-124 55.5t-124 -55.5t-47 -137.5t47 -137.5t124 -55.5t124 55.5t47 137.5zM492 237q0 -105 -65 -176t-168 -71t-168 71t-65 176t65 176.5t168 71.5t168 -71.5t65 -176.5zM306 -96q0 -20 -14 -34t-33 -14t-33 14t-14 34t14 34t33 14t33 -14
t14 -34z" />
    <glyph glyph-name="uni1ECD" unicode="o&#x323;" horiz-adv-x="412" 
d="M386 172q0 -76 -51 -128t-129 -52t-129 52t-51 128t51 128.5t129 52.5t129 -52.5t51 -128.5zM324 172q0 54 -33 90.5t-85 36.5t-85 -36.5t-33 -90.5t33 -90.5t85 -36.5t85 36.5t33 90.5zM253 -96q0 -20 -14 -34t-33 -14t-33 14t-14 34t14 34t33 14t33 -14t14 -34z" />
    <glyph glyph-name="uni1ECE" unicode="O&#x309;" horiz-adv-x="518" 
d="M430 238q0 82 -47 137.5t-124 55.5t-124 -55.5t-47 -137.5t47 -137.5t124 -55.5t124 55.5t47 137.5zM492 237q0 -105 -65 -176t-168 -71t-168 71t-65 176t65 176.5t168 71.5t168 -71.5t65 -176.5zM331 613q0 -17 -9 -30.5t-19.5 -25.5t-19 -23.5t-8.5 -24.5h-45
q0 16 9 29t20 24.5t20 22.5t9 23q0 17 -7.5 22.5t-20.5 5.5q-17 0 -30 -11t-17 -17l-26 22q8 16 27 30.5t51 14.5q29 0 47.5 -15t18.5 -47z" />
    <glyph glyph-name="uni1ECF" unicode="o&#x309;" horiz-adv-x="412" 
d="M386 172q0 -76 -51 -128t-129 -52t-129 52t-51 128t51 128.5t129 52.5t129 -52.5t51 -128.5zM324 172q0 54 -33 90.5t-85 36.5t-85 -36.5t-33 -90.5t33 -90.5t85 -36.5t85 36.5t33 90.5zM278 477q0 -17 -9 -30.5t-19.5 -25.5t-19 -23.5t-8.5 -24.5h-45q0 16 9 29t20 24.5
t20 22.5t9 23q0 17 -7.5 22.5t-20.5 5.5q-17 0 -30 -11t-17 -17l-26 22q8 16 27 30.5t51 14.5q29 0 47.5 -15t18.5 -47z" />
    <glyph glyph-name="uni1ED0" unicode="&#xd4;&#x301;" horiz-adv-x="518" 
d="M430 238q0 82 -47 137.5t-124 55.5t-124 -55.5t-47 -137.5t47 -137.5t124 -55.5t124 55.5t47 137.5zM492 237q0 -105 -65 -176t-168 -71t-168 71t-65 176t65 176.5t168 71.5t168 -71.5t65 -176.5zM354 521h-54l-41 71l-40 -71h-55l78 115h35zM435 706l57 -18l-84 -97h-48
z" />
    <glyph glyph-name="uni1ED1" unicode="&#xf4;&#x301;" horiz-adv-x="432" 
d="M396 172q0 -76 -51 -128t-129 -52t-129 52t-51 128t51 128.5t129 52.5t129 -52.5t51 -128.5zM334 172q0 54 -33 90.5t-85 36.5t-85 -36.5t-33 -90.5t33 -90.5t85 -36.5t85 36.5t33 90.5zM311 385h-54l-41 71l-40 -71h-55l78 115h35zM372 586l57 -18l-84 -97h-48z" />
    <glyph glyph-name="uni1ED2" unicode="&#xd4;&#x300;" horiz-adv-x="518" 
d="M430 238q0 82 -47 137.5t-124 55.5t-124 -55.5t-47 -137.5t47 -137.5t124 -55.5t124 55.5t47 137.5zM492 237q0 -105 -65 -176t-168 -71t-168 71t-65 176t65 176.5t168 71.5t168 -71.5t65 -176.5zM354 521h-54l-41 71l-40 -71h-55l78 115h35zM450 591h-48l-84 97l57 18z
" />
    <glyph glyph-name="uni1ED3" unicode="&#xf4;&#x300;" horiz-adv-x="432" 
d="M396 172q0 -76 -51 -128t-129 -52t-129 52t-51 128t51 128.5t129 52.5t129 -52.5t51 -128.5zM334 172q0 54 -33 90.5t-85 36.5t-85 -36.5t-33 -90.5t33 -90.5t85 -36.5t85 36.5t33 90.5zM311 385h-54l-41 71l-40 -71h-55l78 115h35zM396 471h-48l-84 97l57 18z" />
    <glyph glyph-name="uni1ED4" unicode="&#xd4;&#x309;" horiz-adv-x="518" 
d="M430 238q0 82 -47 137.5t-124 55.5t-124 -55.5t-47 -137.5t47 -137.5t124 -55.5t124 55.5t47 137.5zM492 237q0 -105 -65 -176t-168 -71t-168 71t-65 176t65 176.5t168 71.5t168 -71.5t65 -176.5zM354 521h-54l-41 71l-40 -71h-55l78 115h35zM458 701q0 -17 -9 -30.5
t-19.5 -25.5t-19 -23.5t-8.5 -24.5h-45q0 16 9 29t20 24.5t20 22.5t9 23q0 17 -7.5 22.5t-20.5 5.5q-17 0 -30 -11t-17 -17l-26 22q8 16 27 30.5t51 14.5q29 0 47.5 -15t18.5 -47z" />
    <glyph glyph-name="uni1ED5" unicode="&#xf4;&#x309;" horiz-adv-x="432" 
d="M396 172q0 -76 -51 -128t-129 -52t-129 52t-51 128t51 128.5t129 52.5t129 -52.5t51 -128.5zM334 172q0 54 -33 90.5t-85 36.5t-85 -36.5t-33 -90.5t33 -90.5t85 -36.5t85 36.5t33 90.5zM311 385h-54l-41 71l-40 -71h-55l78 115h35zM412 571q0 -17 -9 -30.5t-19.5 -25.5
t-19 -23.5t-8.5 -24.5h-45q0 16 9 29t20 24.5t20 22.5t9 23q0 17 -7.5 22.5t-20.5 5.5q-17 0 -30 -11t-17 -17l-26 22q8 16 27 30.5t51 14.5q29 0 47.5 -15t18.5 -47z" />
    <glyph glyph-name="uni1ED6" unicode="&#xd4;&#x303;" horiz-adv-x="518" 
d="M430 238q0 82 -47 137.5t-124 55.5t-124 -55.5t-47 -137.5t47 -137.5t124 -55.5t124 55.5t47 137.5zM492 237q0 -105 -65 -176t-168 -71t-168 71t-65 176t65 176.5t168 71.5t168 -71.5t65 -176.5zM354 521h-54l-41 71l-40 -71h-55l78 115h35zM359 748q-1 -35 -15.5 -55.5
t-43.5 -20.5q-8 0 -19.5 4.5t-24 10l-23.5 10t-18 4.5q-8 0 -10 -7.5t-2 -16.5h-44q0 30 14.5 50.5t41.5 20.5q9 0 20.5 -4t22.5 -9.5t21.5 -9.5t17.5 -4q19 0 19 27h43z" />
    <glyph glyph-name="uni1ED7" unicode="&#xf4;&#x303;" horiz-adv-x="432" 
d="M396 172q0 -76 -51 -128t-129 -52t-129 52t-51 128t51 128.5t129 52.5t129 -52.5t51 -128.5zM334 172q0 54 -33 90.5t-85 36.5t-85 -36.5t-33 -90.5t33 -90.5t85 -36.5t85 36.5t33 90.5zM311 385h-54l-41 71l-40 -71h-55l78 115h35zM316 600q-1 -35 -15.5 -55.5
t-43.5 -20.5q-8 0 -19.5 4.5t-24 10l-23.5 10t-18 4.5q-8 0 -10 -7.5t-2 -16.5h-44q0 30 14.5 50.5t41.5 20.5q9 0 20.5 -4t22.5 -9.5t21.5 -9.5t17.5 -4q19 0 19 27h43z" />
    <glyph glyph-name="uni1ED8" unicode="&#xd4;&#x323;" horiz-adv-x="518" 
d="M430 238q0 82 -47 137.5t-124 55.5t-124 -55.5t-47 -137.5t47 -137.5t124 -55.5t124 55.5t47 137.5zM492 237q0 -105 -65 -176t-168 -71t-168 71t-65 176t65 176.5t168 71.5t168 -71.5t65 -176.5zM306 -96q0 -20 -14 -34t-33 -14t-33 14t-14 34t14 34t33 14t33 -14
t14 -34zM354 521h-54l-41 71l-40 -71h-55l78 115h35z" />
    <glyph glyph-name="uni1ED9" unicode="&#xf4;&#x323;" horiz-adv-x="412" 
d="M386 172q0 -76 -51 -128t-129 -52t-129 52t-51 128t51 128.5t129 52.5t129 -52.5t51 -128.5zM324 172q0 54 -33 90.5t-85 36.5t-85 -36.5t-33 -90.5t33 -90.5t85 -36.5t85 36.5t33 90.5zM253 -96q0 -20 -14 -34t-33 -14t-33 14t-14 34t14 34t33 14t33 -14t14 -34z
M301 385h-54l-41 71l-40 -71h-55l78 115h35z" />
    <glyph glyph-name="uni1EDA" unicode="&#x1a0;&#x301;" horiz-adv-x="518" 
d="M492 237q0 -105 -65 -176t-168 -71t-168 71t-65 176t65 176.5t168 71.5q72 0 128 -37q26 33 26 79h54q0 -58 -43 -111q68 -71 68 -179zM430 238q0 82 -47 137.5t-124 55.5t-124 -55.5t-47 -137.5t47 -137.5t124 -55.5t124 55.5t47 137.5zM268 636l57 -18l-84 -97h-48z
" />
    <glyph glyph-name="uni1EDB" unicode="&#x1a1;&#x301;" horiz-adv-x="432" 
d="M386 172q0 -76 -51 -128t-129 -52t-129 52t-51 128t51 128.5t129 52.5q70 0 120 -45q20 33 20 71h54q0 -55 -42 -109q28 -44 28 -98zM324 172q0 54 -33 90.5t-85 36.5t-85 -36.5t-33 -90.5t33 -90.5t85 -36.5t85 36.5t33 90.5zM225 500l57 -18l-84 -97h-48z" />
    <glyph glyph-name="uni1EDC" unicode="&#x1a0;&#x300;" horiz-adv-x="518" 
d="M492 237q0 -105 -65 -176t-168 -71t-168 71t-65 176t65 176.5t168 71.5q72 0 128 -37q26 33 26 79h54q0 -58 -43 -111q68 -71 68 -179zM430 238q0 82 -47 137.5t-124 55.5t-124 -55.5t-47 -137.5t47 -137.5t124 -55.5t124 55.5t47 137.5zM325 521h-48l-84 97l57 18z" />
    <glyph glyph-name="uni1EDD" unicode="&#x1a1;&#x300;" horiz-adv-x="432" 
d="M386 172q0 -76 -51 -128t-129 -52t-129 52t-51 128t51 128.5t129 52.5q70 0 120 -45q20 33 20 71h54q0 -55 -42 -109q28 -44 28 -98zM324 172q0 54 -33 90.5t-85 36.5t-85 -36.5t-33 -90.5t33 -90.5t85 -36.5t85 36.5t33 90.5zM282 385h-48l-84 97l57 18z" />
    <glyph glyph-name="uni1EDE" unicode="&#x1a0;&#x309;" horiz-adv-x="518" 
d="M492 237q0 -105 -65 -176t-168 -71t-168 71t-65 176t65 176.5t168 71.5q72 0 128 -37q26 33 26 79h54q0 -58 -43 -111q68 -71 68 -179zM430 238q0 82 -47 137.5t-124 55.5t-124 -55.5t-47 -137.5t47 -137.5t124 -55.5t124 55.5t47 137.5zM331 617q0 -17 -9 -30.5
t-19.5 -25.5t-19 -23.5t-8.5 -24.5h-45q0 16 9 29t20 24.5t20 22.5t9 23q0 17 -7.5 22.5t-20.5 5.5q-17 0 -30 -11t-17 -17l-26 22q8 16 27 30.5t51 14.5q29 0 47.5 -15t18.5 -47z" />
    <glyph glyph-name="uni1EDF" unicode="&#x1a1;&#x309;" horiz-adv-x="432" 
d="M386 172q0 -76 -51 -128t-129 -52t-129 52t-51 128t51 128.5t129 52.5q70 0 120 -45q20 33 20 71h54q0 -55 -42 -109q28 -44 28 -98zM324 172q0 54 -33 90.5t-85 36.5t-85 -36.5t-33 -90.5t33 -90.5t85 -36.5t85 36.5t33 90.5zM288 481q0 -17 -9 -30.5t-19.5 -25.5
t-19 -23.5t-8.5 -24.5h-45q0 16 9 29t20 24.5t20 22.5t9 23q0 17 -7.5 22.5t-20.5 5.5q-17 0 -30 -11t-17 -17l-26 22q8 16 27 30.5t51 14.5q29 0 47.5 -15t18.5 -47z" />
    <glyph glyph-name="uni1EE0" unicode="&#x1a0;&#x303;" horiz-adv-x="518" 
d="M492 237q0 -105 -65 -176t-168 -71t-168 71t-65 176t65 176.5t168 71.5q72 0 128 -37q26 33 26 79h54q0 -58 -43 -111q68 -71 68 -179zM430 238q0 82 -47 137.5t-124 55.5t-124 -55.5t-47 -137.5t47 -137.5t124 -55.5t124 55.5t47 137.5zM359 592q-1 -35 -15.5 -55.5
t-43.5 -20.5q-8 0 -19.5 4.5t-24 10l-23.5 10t-18 4.5q-8 0 -10 -7.5t-2 -16.5h-44q0 30 14.5 50.5t41.5 20.5q9 0 20.5 -4t22.5 -9.5t21.5 -9.5t17.5 -4q19 0 19 27h43z" />
    <glyph glyph-name="uni1EE1" unicode="&#x1a1;&#x303;" horiz-adv-x="432" 
d="M386 172q0 -76 -51 -128t-129 -52t-129 52t-51 128t51 128.5t129 52.5q70 0 120 -45q20 33 20 71h54q0 -55 -42 -109q28 -44 28 -98zM324 172q0 54 -33 90.5t-85 36.5t-85 -36.5t-33 -90.5t33 -90.5t85 -36.5t85 36.5t33 90.5zM316 456q-1 -35 -15.5 -55.5t-43.5 -20.5
q-8 0 -19.5 4.5t-24 10l-23.5 10t-18 4.5q-8 0 -10 -7.5t-2 -16.5h-44q0 30 14.5 50.5t41.5 20.5q9 0 20.5 -4t22.5 -9.5t21.5 -9.5t17.5 -4q19 0 19 27h43z" />
    <glyph glyph-name="uni1EE2" unicode="&#x1a0;&#x323;" horiz-adv-x="518" 
d="M492 237q0 -105 -65 -176t-168 -71t-168 71t-65 176t65 176.5t168 71.5q72 0 128 -37q26 33 26 79h54q0 -58 -43 -111q68 -71 68 -179zM430 238q0 82 -47 137.5t-124 55.5t-124 -55.5t-47 -137.5t47 -137.5t124 -55.5t124 55.5t47 137.5zM306 -96q0 -20 -14 -34t-33 -14
t-33 14t-14 34t14 34t33 14t33 -14t14 -34z" />
    <glyph glyph-name="uni1EE3" unicode="&#x1a1;&#x323;" horiz-adv-x="432" 
d="M386 172q0 -76 -51 -128t-129 -52t-129 52t-51 128t51 128.5t129 52.5q70 0 120 -45q20 33 20 71h54q0 -55 -42 -109q28 -44 28 -98zM324 172q0 54 -33 90.5t-85 36.5t-85 -36.5t-33 -90.5t33 -90.5t85 -36.5t85 36.5t33 90.5zM263 -96q0 -20 -14 -34t-33 -14t-33 14
t-14 34t14 34t33 14t33 -14t14 -34z" />
    <glyph glyph-name="uni1EE4" unicode="U&#x323;" horiz-adv-x="482" 
d="M432 203q0 -212 -191 -212t-191 212v273h64v-273q0 -158 127 -158t127 158v273h64v-273zM288 -96q0 -20 -14 -34t-33 -14t-33 14t-14 34t14 34t33 14t33 -14t14 -34z" />
    <glyph glyph-name="uni1EE5" unicode="u&#x323;" horiz-adv-x="418" 
d="M389 4l-61 -12q-10 24 -18 58q-60 -59 -119 -59q-141 0 -141 163v186h63v-180q0 -113 86 -113q36 0 71 27.5t35 64.5v201h63v-249q0 -34 21 -87zM256 -96q0 -20 -14 -34t-33 -14t-33 14t-14 34t14 34t33 14t33 -14t14 -34z" />
    <glyph glyph-name="uni1EE6" unicode="U&#x309;" horiz-adv-x="482" 
d="M432 203q0 -212 -191 -212t-191 212v273h64v-273q0 -158 127 -158t127 158v273h64v-273zM313 613q0 -17 -9 -30.5t-19.5 -25.5t-19 -23.5t-8.5 -24.5h-45q0 16 9 29t20 24.5t20 22.5t9 23q0 17 -7.5 22.5t-20.5 5.5q-17 0 -30 -11t-17 -17l-26 22q8 16 27 30.5t51 14.5
q29 0 47.5 -15t18.5 -47z" />
    <glyph glyph-name="uni1EE7" unicode="u&#x309;" horiz-adv-x="418" 
d="M389 4l-61 -12q-10 24 -18 58q-60 -59 -119 -59q-141 0 -141 163v186h63v-180q0 -113 86 -113q36 0 71 27.5t35 64.5v201h63v-249q0 -34 21 -87zM281 477q0 -17 -9 -30.5t-19.5 -25.5t-19 -23.5t-8.5 -24.5h-45q0 16 9 29t20 24.5t20 22.5t9 23q0 17 -7.5 22.5t-20.5 5.5
q-17 0 -30 -11t-17 -17l-26 22q8 16 27 30.5t51 14.5q29 0 47.5 -15t18.5 -47z" />
    <glyph glyph-name="uni1EE8" unicode="&#x1af;&#x301;" horiz-adv-x="482" 
d="M432 203q0 -212 -191 -212t-191 212v273h64v-273q0 -158 127 -158t127 158v273h64v-40q22 12 35.5 38.5t13.5 52.5h54q-3 -47 -32.5 -90.5t-70.5 -58.5v-175zM250 636l57 -18l-84 -97h-48z" />
    <glyph glyph-name="uni1EE9" unicode="&#x1b0;&#x301;" horiz-adv-x="414" 
d="M386 4l-61 -12q-9 19 -15 48q-63 -49 -122 -49q-141 0 -141 163v186h63v-180q0 -113 86 -113q36 0 71 27.5t35 64.5v201h63v-61q20 11 35.5 38.5t15.5 53.5h54q0 -39 -29 -84q-32 -49 -76 -65v-131q0 -34 21 -87zM216 500l57 -18l-84 -97h-48z" />
    <glyph glyph-name="uni1EEA" unicode="&#x1af;&#x300;" horiz-adv-x="482" 
d="M432 203q0 -212 -191 -212t-191 212v273h64v-273q0 -158 127 -158t127 158v273h64v-40q22 12 35.5 38.5t13.5 52.5h54q-3 -47 -32.5 -90.5t-70.5 -58.5v-175zM307 521h-48l-84 97l57 18z" />
    <glyph glyph-name="uni1EEB" unicode="&#x1b0;&#x300;" horiz-adv-x="414" 
d="M386 4l-61 -12q-9 19 -15 48q-63 -49 -122 -49q-141 0 -141 163v186h63v-180q0 -113 86 -113q36 0 71 27.5t35 64.5v201h63v-61q20 11 35.5 38.5t15.5 53.5h54q0 -39 -29 -84q-32 -49 -76 -65v-131q0 -34 21 -87zM273 385h-48l-84 97l57 18z" />
    <glyph glyph-name="uni1EEC" unicode="&#x1af;&#x309;" horiz-adv-x="482" 
d="M432 203q0 -212 -191 -212t-191 212v273h64v-273q0 -158 127 -158t127 158v273h64v-40q22 12 35.5 38.5t13.5 52.5h54q-3 -47 -32.5 -90.5t-70.5 -58.5v-175zM313 613q0 -17 -9 -30.5t-19.5 -25.5t-19 -23.5t-8.5 -24.5h-45q0 16 9 29t20 24.5t20 22.5t9 23
q0 17 -7.5 22.5t-20.5 5.5q-17 0 -30 -11t-17 -17l-26 22q8 16 27 30.5t51 14.5q29 0 47.5 -15t18.5 -47z" />
    <glyph glyph-name="uni1EED" unicode="&#x1b0;&#x309;" horiz-adv-x="414" 
d="M386 4l-61 -12q-9 19 -15 48q-63 -49 -122 -49q-141 0 -141 163v186h63v-180q0 -113 86 -113q36 0 71 27.5t35 64.5v201h63v-61q20 11 35.5 38.5t15.5 53.5h54q0 -39 -29 -84q-32 -49 -76 -65v-131q0 -34 21 -87zM279 477q0 -17 -9 -30.5t-19.5 -25.5t-19 -23.5
t-8.5 -24.5h-45q0 16 9 29t20 24.5t20 22.5t9 23q0 17 -7.5 22.5t-20.5 5.5q-17 0 -30 -11t-17 -17l-26 22q8 16 27 30.5t51 14.5q29 0 47.5 -15t18.5 -47z" />
    <glyph glyph-name="uni1EEE" unicode="&#x1af;&#x303;" horiz-adv-x="482" 
d="M432 203q0 -212 -191 -212t-191 212v273h64v-273q0 -158 127 -158t127 158v273h64v-40q22 12 35.5 38.5t13.5 52.5h54q-3 -47 -32.5 -90.5t-70.5 -58.5v-175zM341 592q-1 -35 -15.5 -55.5t-43.5 -20.5q-8 0 -19.5 4.5t-24 10l-23.5 10t-18 4.5q-8 0 -10 -7.5t-2 -16.5
h-44q0 30 14.5 50.5t41.5 20.5q9 0 20.5 -4t22.5 -9.5t21.5 -9.5t17.5 -4q19 0 19 27h43z" />
    <glyph glyph-name="uni1EEF" unicode="&#x1b0;&#x303;" horiz-adv-x="414" 
d="M386 4l-61 -12q-9 19 -15 48q-63 -49 -122 -49q-141 0 -141 163v186h63v-180q0 -113 86 -113q36 0 71 27.5t35 64.5v201h63v-61q20 11 35.5 38.5t15.5 53.5h54q0 -39 -29 -84q-32 -49 -76 -65v-131q0 -34 21 -87zM307 456q-1 -35 -15.5 -55.5t-43.5 -20.5q-8 0 -19.5 4.5
t-24 10l-23.5 10t-18 4.5q-8 0 -10 -7.5t-2 -16.5h-44q0 30 14.5 50.5t41.5 20.5q9 0 20.5 -4t22.5 -9.5t21.5 -9.5t17.5 -4q19 0 19 27h43z" />
    <glyph glyph-name="uni1EF0" unicode="&#x1af;&#x323;" horiz-adv-x="482" 
d="M432 203q0 -212 -191 -212t-191 212v273h64v-273q0 -158 127 -158t127 158v273h64v-40q22 12 35.5 38.5t13.5 52.5h54q-3 -47 -32.5 -90.5t-70.5 -58.5v-175zM288 -96q0 -20 -14 -34t-33 -14t-33 14t-14 34t14 34t33 14t33 -14t14 -34z" />
    <glyph glyph-name="uni1EF1" unicode="&#x1b0;&#x323;" horiz-adv-x="414" 
d="M386 4l-61 -12q-9 19 -15 48q-63 -49 -122 -49q-141 0 -141 163v186h63v-180q0 -113 86 -113q36 0 71 27.5t35 64.5v201h63v-61q20 11 35.5 38.5t15.5 53.5h54q0 -39 -29 -84q-32 -49 -76 -65v-131q0 -34 21 -87zM254 -96q0 -20 -14 -34t-33 -14t-33 14t-14 34t14 34
t33 14t33 -14t14 -34z" />
    <glyph glyph-name="Ygrave" unicode="Y&#x300;" horiz-adv-x="396" 
d="M230 0h-62v208l-174 268h73l132 -214l131 214h72l-172 -267v-209zM264 521h-48l-84 97l57 18z" />
    <glyph glyph-name="ygrave" unicode="y&#x300;" horiz-adv-x="361" 
d="M32 -151l-16 52q89 20 131 124l-151 315h69l118 -252l112 252h69l-156 -333q-63 -133 -176 -158zM246 385h-48l-84 97l57 18z" />
    <glyph glyph-name="uni1EF4" unicode="Y&#x323;" horiz-adv-x="396" 
d="M230 0h-62v208l-174 268h73l132 -214l131 214h72l-172 -267v-209zM245 -96q0 -20 -14 -34t-33 -14t-33 14t-14 34t14 34t33 14t33 -14t14 -34z" />
    <glyph glyph-name="uni1EF5" unicode="y&#x323;" horiz-adv-x="361" 
d="M32 -151l-16 52q89 20 131 124l-151 315h69l118 -252l112 252h69l-156 -333q-63 -133 -176 -158zM336 -96q0 -20 -14 -34t-33 -14t-33 14t-14 34t14 34t33 14t33 -14t14 -34z" />
    <glyph glyph-name="uni1EF6" unicode="Y&#x309;" horiz-adv-x="396" 
d="M230 0h-62v208l-174 268h73l132 -214l131 214h72l-172 -267v-209zM270 613q0 -17 -9 -30.5t-19.5 -25.5t-19 -23.5t-8.5 -24.5h-45q0 16 9 29t20 24.5t20 22.5t9 23q0 17 -7.5 22.5t-20.5 5.5q-17 0 -30 -11t-17 -17l-26 22q8 16 27 30.5t51 14.5q29 0 47.5 -15t18.5 -47
z" />
    <glyph glyph-name="uni1EF7" unicode="y&#x309;" horiz-adv-x="361" 
d="M32 -151l-16 52q89 20 131 124l-151 315h69l118 -252l112 252h69l-156 -333q-63 -133 -176 -158zM252 477q0 -17 -9 -30.5t-19.5 -25.5t-19 -23.5t-8.5 -24.5h-45q0 16 9 29t20 24.5t20 22.5t9 23q0 17 -7.5 22.5t-20.5 5.5q-17 0 -30 -11t-17 -17l-26 22q8 16 27 30.5
t51 14.5q29 0 47.5 -15t18.5 -47z" />
    <glyph glyph-name="uni1EF8" unicode="Y&#x303;" horiz-adv-x="396" 
d="M230 0h-62v208l-174 268h73l132 -214l131 214h72l-172 -267v-209zM298 592q-1 -35 -15.5 -55.5t-43.5 -20.5q-8 0 -19.5 4.5t-24 10l-23.5 10t-18 4.5q-8 0 -10 -7.5t-2 -16.5h-44q0 30 14.5 50.5t41.5 20.5q9 0 20.5 -4t22.5 -9.5t21.5 -9.5t17.5 -4q19 0 19 27h43z" />
    <glyph glyph-name="uni1EF9" unicode="y&#x303;" horiz-adv-x="361" 
d="M32 -151l-16 52q89 20 131 124l-151 315h69l118 -252l112 252h69l-156 -333q-63 -133 -176 -158zM280 456q-1 -35 -15.5 -55.5t-43.5 -20.5q-8 0 -19.5 4.5t-24 10l-23.5 10t-18 4.5q-8 0 -10 -7.5t-2 -16.5h-44q0 30 14.5 50.5t41.5 20.5q9 0 20.5 -4t22.5 -9.5
t21.5 -9.5t17.5 -4q19 0 19 27h43z" />
    <glyph glyph-name="Itilde" unicode="I&#x303;" horiz-adv-x="163" 
d="M113 0h-63v476h63v-476zM182 592q-1 -35 -15.5 -55.5t-43.5 -20.5q-8 0 -19.5 4.5t-24 10l-23.5 10t-18 4.5q-8 0 -10 -7.5t-2 -16.5h-44q0 30 14.5 50.5t41.5 20.5q9 0 20.5 -4t22.5 -9.5t21.5 -9.5t17.5 -4q19 0 19 27h43z" />
    <glyph glyph-name="itilde" unicode="i&#x303;" horiz-adv-x="163" 
d="M113 0h-63v340h63v-340zM181 456q-1 -35 -15.5 -55.5t-43.5 -20.5q-8 0 -19.5 4.5t-24 10l-23.5 10t-18 4.5q-8 0 -10 -7.5t-2 -16.5h-44q0 30 14.5 50.5t41.5 20.5q9 0 20.5 -4t22.5 -9.5t21.5 -9.5t17.5 -4q19 0 19 27h43z" />
    <glyph glyph-name="Utilde" unicode="U&#x303;" horiz-adv-x="482" 
d="M432 203q0 -212 -191 -212t-191 212v273h64v-273q0 -158 127 -158t127 158v273h64v-273zM341 592q-1 -35 -15.5 -55.5t-43.5 -20.5q-8 0 -19.5 4.5t-24 10l-23.5 10t-18 4.5q-8 0 -10 -7.5t-2 -16.5h-44q0 30 14.5 50.5t41.5 20.5q9 0 20.5 -4t22.5 -9.5t21.5 -9.5
t17.5 -4q19 0 19 27h43z" />
    <glyph glyph-name="utilde" unicode="u&#x303;" horiz-adv-x="418" 
d="M389 4l-61 -12q-10 24 -18 58q-60 -59 -119 -59q-141 0 -141 163v186h63v-180q0 -113 86 -113q36 0 71 27.5t35 64.5v201h63v-249q0 -34 21 -87zM309 456q-1 -35 -15.5 -55.5t-43.5 -20.5q-8 0 -19.5 4.5t-24 10l-23.5 10t-18 4.5q-8 0 -10 -7.5t-2 -16.5h-44
q0 30 14.5 50.5t41.5 20.5q9 0 20.5 -4t22.5 -9.5t21.5 -9.5t17.5 -4q19 0 19 27h43z" />
    <glyph glyph-name="uni0E4F.liga" unicode="&#xe4f;&#x22;" horiz-adv-x="449" 
d="M289 163q0 26 -18.5 45t-45.5 19t-45.5 -19t-18.5 -45q0 -27 18.5 -45.5t45.5 -18.5t45.5 18.5t18.5 45.5zM324 163q0 -41 -29 -70.5t-70 -29.5t-70 29.5t-29 70.5t29 70t70 29t70 -29t29 -70zM359 163q0 56 -39 95t-95 39q-55 0 -94.5 -39t-39.5 -95t39.5 -95.5
t94.5 -39.5t94.5 40t39.5 95zM394 163q0 -70 -49.5 -119.5t-119.5 -49.5t-119.5 49.5t-49.5 119.5t49.5 119.5t119.5 49.5q68 0 118.5 -50.5t50.5 -118.5zM291.197 366.396h-36.7998l-10.3994 154.398h56.7988zM193.599 366.396h-35.999l-10.4004 154.398h56.7988z" />
    <glyph glyph-name="uni0E24.liga" unicode="&#xe24;&#xe32;" horiz-adv-x="598" 
d="M340 -140h-62v405q0 41 -25 65t-66 24q-60 0 -91 -51q47 -9 67 -45q-51 -30 -51 -72v-47q7 4 19 4q31 0 52.5 -21.5t21.5 -53.5t-22 -54t-54 -22q-33 0 -56 23t-23 58v117q0 42 41 66q-25 17 -61 12q2 62 48 102q42 37 107 37q72 0 113.5 -38.5t41.5 -104.5v-404zM165 67
q0 14 -10 24t-24 10t-24 -10t-10 -24t10 -24t24 -10t24 10t10 24zM547 -140h-62v431q0 28 -19 45.5t-52 17.5t-54 -22t-22 -56h-60q3 60 39.5 95.5t96.5 35.5q56 0 94.5 -28.5t38.5 -86.5v-432z" />
    <glyph glyph-name="uni0E26.liga" unicode="&#xe26;&#xe32;" horiz-adv-x="629" 
d="M118 68q0 14 -10 24t-24 10t-24 -10t-10 -24t10 -24t24 -10t24 10t10 24zM374 -140h-62v405q0 40 -26.5 64.5t-66.5 24.5q-61 0 -89 -51q49 -10 67 -45q-27 -15 -36 -25q-13 -16 -13 -43q0 -22 5 -63.5t5 -58.5q0 -32 -21.5 -54t-52.5 -22q-32 0 -54 22t-22 54
q0 31 22 53t52 22q12 0 15 -3l-6 62q0 35 34 54q-27 17 -61 12q1 62 46 102q43 37 108 37q70 0 113 -39t43 -104v-404zM578 -140h-62v431q0 28 -19 45.5t-52 17.5t-54 -22t-22 -56h-60q3 60 39.5 95.5t96.5 35.5q56 0 94.5 -28.5t38.5 -86.5v-432z" />
    <glyph glyph-name=".notdef" horiz-adv-x="698" 
d="M645 0h-592v809h592v-809zM609 31v747h-520v-747h520z" />
    <glyph glyph-name="nonbreakingspace" unicode="&#xa0;" horiz-adv-x="226" 
 />
    <glyph glyph-name="exclam" unicode="!" horiz-adv-x="168" 
d="M111 139h-56l-7 337h72zM132 39q0 -20 -14 -34t-34 -14t-34 14t-14 34t14 34t34 14t34 -14t14 -34z" />
    <glyph glyph-name="quotedbl" unicode="&#x22;" horiz-adv-x="291" 
d="M229 333h-46l-13 193h71zM107 333h-45l-13 193h71z" />
    <glyph glyph-name="numbersign" unicode="#" horiz-adv-x="462" 
d="M322 0h-59l20 142h-129l-17 -142h-59l17 142h-62v53h69l12 89h-68v54h74l19 137h57l-17 -137h127l17 137h59l-17 -137h63v-54h-71l-11 -89h67v-53h-72zM288 195l12 89h-128l-11 -89h127z" />
    <glyph glyph-name="dollar" unicode="$" horiz-adv-x="367" 
d="M324 138q0 -42 -30 -76t-81 -45v-72h-59v70q-66 6 -111 41l27 48q44 -35 105 -35q40 0 64 18.5t24 48.5q0 47 -81 81q-127 54 -127 127q0 43 28.5 74t78.5 41v74h58v-73q47 -6 96 -33l-30 -49q-34 29 -93 29q-33 0 -55 -15.5t-22 -42.5q0 -38 88 -77q66 -29 93 -59
t27 -75z" />
    <glyph glyph-name="percent" unicode="%" horiz-adv-x="688" 
d="M217 -9h-61l305 485h61zM276 338q0 -146 -119 -146q-118 0 -118 146q0 147 118 147q119 0 119 -147zM217 338q0 94 -60 94q-58 0 -58 -94q0 -92 58 -92q60 0 60 92zM649 139q0 -147 -120 -147q-119 0 -119 147q0 146 119 146q120 0 120 -146zM589 139q0 94 -60 94
q-59 0 -59 -94q0 -93 59 -93q60 0 60 93z" />
    <glyph glyph-name="ampersand" unicode="&#x26;" horiz-adv-x="486" 
d="M420 -14l-68 62q-79 -57 -160 -57q-68 0 -112.5 42t-44.5 101q0 89 95 141q-37 48 -37 93q0 52 36.5 88t93.5 36q49 0 80.5 -29.5t31.5 -75.5q0 -79 -114 -132q45 -50 127 -129q49 64 56 140h53q-14 -108 -67 -177l84 -75zM277 384q0 57 -57 57q-30 0 -48 -20t-18 -49
t37 -74q86 43 86 86zM312 85l-145 148q-69 -39 -69 -95q0 -41 29 -67t73 -26q66 0 112 40z" />
    <glyph glyph-name="quotesingle" unicode="'" horiz-adv-x="169" 
d="M107 333h-45l-13 193h71z" />
    <glyph glyph-name="parenleft" unicode="(" horiz-adv-x="244" 
d="M162 -55q-118 122 -118 290q0 157 115 295h74q-127 -139 -127 -295q0 -148 126 -290h-70z" />
    <glyph glyph-name="parenright" unicode=")" horiz-adv-x="244" 
d="M199 238q0 -164 -118 -293h-69q125 149 125 293q0 145 -126 292h69q119 -127 119 -292z" />
    <glyph glyph-name="asterisk" unicode="*" horiz-adv-x="343" 
d="M266 277l-51 -30l-44 86l-44 -86l-51 30l62 77l-99 -9v52l99 -8l-62 77l51 30l44 -86l44 86l51 -30l-62 -77l99 8v-51l-99 8z" />
    <glyph glyph-name="plus" unicode="+" horiz-adv-x="417" 
d="M240 0h-63v157h-148v55h148v151h63v-151h148v-55h-148v-157z" />
    <glyph glyph-name="comma" unicode="," horiz-adv-x="172" 
d="M137 37q0 -99 -91 -144l-21 29q53 32 61 70q-48 3 -48 50q0 21 14.5 35.5t34.5 14.5q21 0 35.5 -15.5t14.5 -39.5z" />
    <glyph glyph-name="hyphen" unicode="-" horiz-adv-x="226" 
d="M213 157h-200v54h200v-54z" />
    <glyph glyph-name="hyphen" unicode="&#xad;" horiz-adv-x="226" 
d="M213 157h-200v54h200v-54z" />
    <glyph glyph-name="period" unicode="." horiz-adv-x="172" 
d="M134 39q0 -20 -14 -34t-34 -14t-34 14t-14 34t14 34t34 14t34 -14t14 -34z" />
    <glyph glyph-name="slash" unicode="/" horiz-adv-x="276" 
d="M34 -28h-64l267 520h64z" />
    <glyph glyph-name="zero" unicode="0" horiz-adv-x="378" 
d="M349 235q0 -101 -42 -172.5t-120 -71.5q-75 0 -117 71.5t-42 172.5t42 172.5t117 71.5q78 0 120 -71.5t42 -172.5zM285 235q0 84 -24 136.5t-72 52.5q-49 0 -73 -52.5t-24 -136.5t24 -136.5t72 -52.5q49 0 73 52.5t24 136.5z" />
    <glyph glyph-name="one" unicode="1" horiz-adv-x="378" 
d="M307 0h-211v51h74v332l-63 -53l-37 41l127 107q37 0 37 -48v-379h73v-51z" />
    <glyph glyph-name="two" unicode="2" horiz-adv-x="378" 
d="M348 0h-324q8 44 17 72q26 32 159 156q82 77 82 126q0 66 -78 66q-77 0 -92 -89l-59 15q7 64 50 99q40 33 102 33q61 0 101 -36t40 -91q0 -49 -52 -111q-32 -37 -107 -103q-67 -59 -82 -81h255z" />
    <glyph glyph-name="three" unicode="3" horiz-adv-x="378" 
d="M345 165q0 -78 -55.5 -125.5t-145.5 -47.5q-68 0 -118 42l28 51q45 -32 100 -32q52 0 90 33t38 77q0 32 -20.5 54t-51.5 22q-37 0 -71 -29l-27 44q49 28 87 63q45 42 45 68q0 39 -55 39q-36 0 -66.5 -23t-43.5 -54l-45 23q19 50 61.5 79t96.5 29q48 0 80 -25t32 -67
q0 -41 -62 -94q47 -9 75 -43t28 -84z" />
    <glyph glyph-name="four" unicode="4" horiz-adv-x="378" 
d="M229 160v244q-48 -31 -86.5 -101t-51.5 -143h138zM293 0h-64v106h-201q0 125 79 249.5t186 133.5v-329h64l-7 -54h-57v-106z" />
    <glyph glyph-name="five" unicode="5" horiz-adv-x="378" 
d="M346 168q0 -78 -55 -127t-142 -49q-74 0 -123 43l27 46q56 -35 103 -35q52 0 89 34.5t37 86.5q0 43 -28 66.5t-75 23.5t-61 -33l-40 -2l17 254h238l-11 -54h-166l-7 -116q18 8 43 8q66 0 110 -41t44 -105z" />
    <glyph glyph-name="six" unicode="6" horiz-adv-x="378" 
d="M341 150q0 -67 -40.5 -112.5t-103.5 -45.5q-70 0 -115.5 49t-45.5 130q0 115 76 203t198 112l6 -50q-63 -17 -120 -61.5t-82 -99.5q31 31 85 31q60 0 101 -45t41 -111zM283 150q0 40 -26 71t-62 31q-38 0 -64.5 -29.5t-26.5 -72.5q0 -42 26.5 -72t64.5 -30q36 0 62 31
t26 71z" />
    <glyph glyph-name="seven" unicode="7" horiz-adv-x="378" 
d="M197 0h-65q8 279 141 422h-245l15 54h311l-9 -54q-77 -96 -110 -184q-38 -101 -38 -238z" />
    <glyph glyph-name="eight" unicode="8" horiz-adv-x="378" 
d="M286 131q0 37 -25 67t-72 33q-47 -3 -72 -33t-25 -67q0 -39 27 -62t70 -23t70 23t27 62zM272 355q0 30 -23 50t-60 20t-60 -20t-23 -50q0 -49 82 -72q84 23 84 72zM347 134q0 -66 -43 -104t-116 -38q-72 0 -114.5 38t-42.5 104q0 40 22.5 74t57.5 50q-65 35 -65 94
q0 55 40.5 91t102.5 36t102.5 -36t40.5 -91q0 -59 -65 -94q35 -16 57.5 -50t22.5 -74z" />
    <glyph glyph-name="nine" unicode="9" horiz-adv-x="378" 
d="M341 299q0 -115 -76 -203t-198 -112l-6 50q61 16 121.5 64t84.5 98q-29 -32 -89 -32t-101 45t-41 111q0 67 40.5 112.5t103.5 45.5q70 0 115.5 -49t45.5 -130zM273 320q0 42 -26.5 72t-64.5 30q-36 0 -62 -31t-26 -71t26 -71t62 -31q38 0 64.5 29.5t26.5 72.5z" />
    <glyph glyph-name="colon" unicode=":" horiz-adv-x="172" 
d="M134 39q0 -20 -14 -34t-34 -14t-34 14t-14 34t14 34t34 14t34 -14t14 -34zM134 285q0 -20 -14 -34t-34 -14t-34 14t-14 34t14 34t34 14t34 -14t14 -34z" />
    <glyph glyph-name="semicolon" unicode=";" horiz-adv-x="172" 
d="M134 285q0 -20 -14 -34t-34 -14t-34 14t-14 34t14 34t34 14t34 -14t14 -34zM137 37q0 -99 -91 -144l-21 29q53 32 61 70q-48 3 -48 50q0 21 14.5 35.5t34.5 14.5q21 0 35.5 -15.5t14.5 -39.5z" />
    <glyph glyph-name="less" unicode="&#x3c;" horiz-adv-x="417" 
d="M381 -10l-345 180v41l345 179v-63l-265 -137l265 -137v-63z" />
    <glyph glyph-name="equal" unicode="=" horiz-adv-x="417" 
d="M371 223h-325v52h325v-52zM371 97h-325v53h325v-53z" />
    <glyph glyph-name="greater" unicode="&#x3e;" horiz-adv-x="417" 
d="M381 170l-345 -180v63l266 138l-266 136v63l345 -179v-41z" />
    <glyph glyph-name="question" unicode="?" horiz-adv-x="289" 
d="M265 371q0 -54 -66 -121q-45 -45 -46 -91q0 -15 7 -42h-57q-10 30 -10 45q0 49 54.5 112t54.5 95q0 57 -70 57q-43 0 -83 -29l-25 49q59 37 115 37q57 0 91.5 -30.5t34.5 -81.5zM183 39q0 -20 -14 -34t-34 -14t-34 14t-14 34t14 34t34 14t34 -14t14 -34z" />
    <glyph glyph-name="at" unicode="@" horiz-adv-x="572" 
d="M540 177q0 -80 -58 -128q-51 -42 -121 -42l-6 36q-47 -42 -107 -42q-43 0 -73.5 24.5t-30.5 61.5q0 109 199 114q0 76 -72 76q-39 0 -72 -21l-17 35q48 28 105 28q53 0 81.5 -35t28.5 -95v-104q0 -23 1 -32h12q35 10 59 45.5t24 76.5q0 77 -52 128.5t-139 51.5
q-98 0 -159.5 -62.5t-61.5 -156.5q0 -82 54.5 -136t134.5 -54q61 0 122 32l19 -40q-70 -33 -144 -33q-98 0 -166 64q-71 65 -71 164q0 113 79 188t198 75q102 0 167.5 -61.5t65.5 -157.5zM346 107v56q-152 -6 -152 -71q0 -47 55 -47q37 0 65 16q32 18 32 46z" />
    <glyph glyph-name="A" unicode="A" horiz-adv-x="451" 
d="M452 0h-69l-63 159h-191l-62 -159h-68l200 483h54zM296 213l-70 198l-74 -198h144z" />
    <glyph glyph-name="B" unicode="B" horiz-adv-x="396" 
d="M366 138q0 -144 -212 -144q-45 0 -104 13v460q62 15 114 15q183 0 183 -126q0 -64 -60 -101q79 -37 79 -117zM284 355q0 72 -120 72q-21 0 -51 -3v-146h71q44 0 72 20.5t28 56.5zM304 137q0 48 -46 71q-35 17 -87 17h-58v-174q17 -3 50 -3q65 0 103 23t38 66z" />
    <glyph glyph-name="C" unicode="C" horiz-adv-x="432" 
d="M410 25q-73 -32 -174 -32q-95 0 -152.5 67.5t-57.5 176.5q0 108 56 174q62 72 173 72q85 0 155 -29l-20 -50q-60 25 -133 25q-92 0 -135 -68q-32 -50 -32 -126q0 -70 35 -122q44 -66 124 -66q83 0 144 30z" />
    <glyph glyph-name="D" unicode="D" horiz-adv-x="459" 
d="M433 248q0 -108 -52 -173q-64 -79 -197 -79q-41 0 -134 10v462q114 13 154 13q122 0 181 -73q48 -59 48 -160zM369 248q0 179 -168 179q-28 0 -88 -6v-368q33 -3 83 -3q97 0 141 69q32 51 32 129z" />
    <glyph glyph-name="E" unicode="E" horiz-adv-x="358" 
d="M333 0h-283v476h283v-54h-220v-144h196v-54h-196v-170h220v-54z" />
    <glyph glyph-name="F" unicode="F" horiz-adv-x="358" 
d="M113 0h-63v476h293v-54h-230v-150h216v-53h-216v-219z" />
    <glyph glyph-name="G" unicode="G" horiz-adv-x="454" 
d="M414 11l-32 8q-58 -26 -146 -26q-95 0 -152.5 67.5t-57.5 176.5q0 108 56 174q62 72 173 72q85 0 155 -29l-20 -50q-60 25 -133 25q-92 0 -135 -68q-32 -50 -32 -126q0 -70 35 -122q44 -66 124 -66q59 0 102 16v135h-120v53h183v-240z" />
    <glyph glyph-name="H" unicode="H" horiz-adv-x="472" 
d="M422 0h-63v226h-246v-226h-63v476h63v-196h246v196h63v-476z" />
    <glyph glyph-name="I" unicode="I" horiz-adv-x="163" 
d="M113 0h-63v476h63v-476z" />
    <glyph glyph-name="J" unicode="J" horiz-adv-x="282" 
d="M232 160q0 -169 -153 -169q-39 0 -85 19l17 52q29 -17 68 -17q47 0 68.5 28t21.5 97v306h63v-316z" />
    <glyph glyph-name="K" unicode="K" horiz-adv-x="411" 
d="M418 15l-60 -22l-206 236l-39 -38v-191h-63v476h63v-210l227 218l61 -16l-206 -197z" />
    <glyph glyph-name="L" unicode="L" horiz-adv-x="359" 
d="M346 0h-296v476h63v-422h233v-54z" />
    <glyph glyph-name="M" unicode="M" horiz-adv-x="574" 
d="M545 0h-61l-26 369l-150 -369h-42l-150 369l-26 -369h-61l34 476h66l158 -396l158 396h66z" />
    <glyph glyph-name="N" unicode="N" horiz-adv-x="472" 
d="M422 0h-60l-249 386v-386h-63v476h63l246 -376v376h63v-476z" />
    <glyph glyph-name="O" unicode="O" horiz-adv-x="518" 
d="M430 238q0 82 -47 137.5t-124 55.5t-124 -55.5t-47 -137.5t47 -137.5t124 -55.5t124 55.5t47 137.5zM492 237q0 -105 -65 -176t-168 -71t-168 71t-65 176t65 176.5t168 71.5t168 -71.5t65 -176.5z" />
    <glyph glyph-name="P" unicode="P" horiz-adv-x="390" 
d="M365 339q0 -69 -55.5 -111.5t-146.5 -42.5q-23 0 -50 3v-188h-63v469q72 12 127 12q88 0 138 -39.5t50 -102.5zM302 336q0 91 -126 91q-34 0 -63 -3v-179q34 -6 57 -6q132 0 132 97z" />
    <glyph glyph-name="Q" unicode="Q" horiz-adv-x="518" 
d="M430 238q0 82 -47 137.5t-124 55.5t-124 -55.5t-47 -137.5t47 -137.5t124 -55.5t124 55.5t47 137.5zM492 237q0 -80 -37.5 -138.5t-103.5 -81.5v-4q80 -20 145 -30l-20 -54q-76 20 -191 57q-5 2 -26 4q-103 0 -168 71t-65 176t65 176.5t168 71.5t168 -71.5t65 -176.5z
" />
    <glyph glyph-name="R" unicode="R" horiz-adv-x="395" 
d="M380 0h-63q-27 207 -124 207h-80v-207h-63v468q72 13 129 13q85 0 135 -36t50 -98q0 -82 -78 -118q37 -25 57.5 -73t36.5 -156zM303 343q0 83 -124 83q-40 0 -66 -3v-164h77q113 0 113 84z" />
    <glyph glyph-name="S" unicode="S" horiz-adv-x="365" 
d="M339 130q0 -62 -49.5 -100.5t-123.5 -38.5q-79 0 -147 43l27 57q57 -43 124 -43q49 0 77 21.5t28 57.5q0 60 -96 91q-141 45 -141 138q0 56 44.5 92.5t115.5 36.5t123 -32l-27 -50q-50 25 -97 25q-43 0 -69.5 -19.5t-26.5 -47.5q0 -55 96 -86q78 -25 110 -58t32 -87z" />
    <glyph glyph-name="T" unicode="T" horiz-adv-x="421" 
d="M243 0h-63v422h-176v54h413v-54h-174v-422z" />
    <glyph glyph-name="U" unicode="U" horiz-adv-x="482" 
d="M432 203q0 -212 -191 -212t-191 212v273h64v-273q0 -158 127 -158t127 158v273h64v-273z" />
    <glyph glyph-name="V" unicode="V" horiz-adv-x="422" 
d="M240 0h-58l-183 476h68l144 -390l144 390h68z" />
    <glyph glyph-name="W" unicode="W" horiz-adv-x="612" 
d="M484 0h-58l-120 389l-120 -389h-58l-132 476h69l93 -380l118 380h60l118 -380l93 380h69z" />
    <glyph glyph-name="X" unicode="X" horiz-adv-x="426" 
d="M428 0h-75l-138 193l-140 -193h-76l177 244l-170 232h77l132 -186l129 186h78l-170 -232z" />
    <glyph glyph-name="Y" unicode="Y" horiz-adv-x="396" 
d="M230 0h-62v208l-174 268h73l132 -214l131 214h72l-172 -267v-209z" />
    <glyph glyph-name="Z" unicode="Z" horiz-adv-x="451" 
d="M426 0h-399v40l309 382h-293l11 54h369v-41l-309 -381h324z" />
    <glyph glyph-name="bracketleft" unicode="[" horiz-adv-x="234" 
d="M204 -77h-158v605h158v-52h-99v-502h99v-51z" />
    <glyph glyph-name="backslash" unicode="\" horiz-adv-x="268" 
d="M302 -27h-64l-260 510h65z" />
    <glyph glyph-name="bracketright" unicode="]" horiz-adv-x="234" 
d="M188 -77h-158v51h99v502h-99v52h158v-605z" />
    <glyph glyph-name="asciicircum" unicode="^" horiz-adv-x="418" 
d="M394 152h-65l-116 253l-116 -253h-65l156 328h51z" />
    <glyph glyph-name="underscore" unicode="_" horiz-adv-x="376" 
d="M376 -175h-376v53h376v-53z" />
    <glyph glyph-name="grave" unicode="`" horiz-adv-x="210" 
d="M166 375h-48l-84 97l57 18z" />
    <glyph glyph-name="a" unicode="a" horiz-adv-x="367" 
d="M330 3l-59 -12l-10 44q-51 -44 -115 -44q-51 0 -85 27.5t-35 74.5q0 127 227 130q-10 75 -82 75q-54 0 -119 -25l-7 57q68 20 129 20q142 0 142 -146v-113q0 -38 14 -88zM253 108v60q-163 -3 -163 -69q0 -53 59 -53q33 0 66 16q38 19 38 46z" />
    <glyph glyph-name="b" unicode="b" horiz-adv-x="435" 
d="M409 177q0 -81 -50.5 -133.5t-124.5 -52.5t-121 46q0 -26 -3 -37h-60q4 49 4 91v413h63v-198q47 47 122 47q73 0 121.5 -50.5t48.5 -125.5zM347 177q0 54 -31 89t-83 35q-42 0 -79 -28t-37 -66v-78q0 -38 31 -60.5t81 -22.5q56 0 87 35t31 96z" />
    <glyph glyph-name="c" unicode="c" horiz-adv-x="347" 
d="M322 21q-48 -30 -117 -30q-81 0 -130 50.5t-49 130.5q0 81 49 131t130 50q68 0 117 -30l-22 -52q-47 29 -97 29q-51 0 -82 -35.5t-31 -92.5q0 -58 31 -93t82 -35q50 0 97 29z" />
    <glyph glyph-name="d" unicode="d" horiz-adv-x="435" 
d="M385 0h-60q-3 11 -3 37q-47 -46 -121 -46t-124.5 52.5t-50.5 133.5q0 75 48.5 125.5t121.5 50.5q75 0 122 -47v198h63v-413q0 -42 4 -91zM318 129v78q0 38 -37 66t-79 28q-52 0 -83 -35t-31 -89q0 -61 31 -96t87 -35q50 0 81 22.5t31 60.5z" />
    <glyph glyph-name="e" unicode="e" horiz-adv-x="391" 
d="M351 18q-73 -27 -139 -27q-81 0 -133.5 48.5t-52.5 125.5q0 85 52 138q51 50 130 50q154 0 157 -193h-277q4 -54 38.5 -83.5t89.5 -29.5q56 0 128 26zM303 213q-5 39 -32 63.5t-69 24.5q-40 0 -71.5 -24.5t-38.5 -63.5h211z" />
    <glyph glyph-name="f" unicode="f" horiz-adv-x="254" 
d="M137 0h-63v288h-57v52h58q0 171 133 171q42 0 71 -22l-18 -47q-35 15 -55 15q-69 0 -69 -117h97v-52h-97v-288z" />
    <glyph glyph-name="g" unicode="g" horiz-adv-x="332" 
d="M292 -45q0 -47 -34 -76t-99 -29q-54 0 -111 34l22 50q53 -31 93 -31q31 0 51.5 14.5t20.5 34.5q0 30 -56 53q-42 17 -81 38t-39 55q0 16 9 41q-36 39 -36 83q0 55 37 90t89 35h144v-43h-50q18 -7 29 -33q9 -21 9 -42q0 -59 -32.5 -93.5t-93.5 -34.5q-22 0 -43 7
q-5 -5 -5 -13q0 -15 72 -35q104 -29 104 -105zM237 224q0 30 -21.5 51t-51.5 21t-51.5 -21t-21.5 -51t21.5 -50.5t51.5 -20.5q36 0 54.5 20.5t18.5 50.5z" />
    <glyph glyph-name="h" unicode="h" horiz-adv-x="423" 
d="M373 0h-63v191q0 45 -24.5 74.5t-66.5 29.5t-74 -30t-32 -66v-199h-63v504h63v-201q46 46 115 46q68 0 106.5 -42.5t38.5 -114.5v-192z" />
    <glyph glyph-name="i" unicode="i" horiz-adv-x="163" 
d="M113 0h-63v340h63v-340zM128 440q0 -20 -14 -34t-34 -14t-34 14t-14 34t14 34t34 14t34 -14t14 -34z" />
    <glyph glyph-name="j" unicode="j" horiz-adv-x="171" 
d="M121 18q0 -155 -162 -159l-7 51q68 5 87 30t19 104v296h63v-322zM137 440q0 -20 -14 -34t-34 -14t-34 14t-14 34t14 34t34 14t34 -14t14 -34z" />
    <glyph glyph-name="k" unicode="k" horiz-adv-x="340" 
d="M358 6l-65 -16l-156 174l-24 -20v-144h-63v504h63v-287l152 130l69 -12l-153 -135z" />
    <glyph glyph-name="l" unicode="l" horiz-adv-x="213" 
d="M199 -8q-149 8 -149 183v329h63v-315q0 -77 24 -109q21 -27 69 -31z" />
    <glyph glyph-name="m" unicode="m" horiz-adv-x="636" 
d="M586 0h-63v188q0 46 -21 76q-24 33 -63 33q-33 0 -61.5 -26t-28.5 -56v-215h-63v205q0 92 -77 92q-34 0 -65 -30.5t-31 -63.5v-203h-63v250q0 62 -8 91h59q7 -17 7 -39q14 20 46 34t63 14q66 0 106 -56q53 56 128 56q59 0 97 -44.5t38 -116.5v-189z" />
    <glyph glyph-name="n" unicode="n" horiz-adv-x="423" 
d="M373 0h-63v193q0 104 -95 104q-35 0 -68.5 -31.5t-33.5 -62.5v-203h-63v250q0 62 -8 91h59q7 -17 7 -41q48 50 116 50t108.5 -42t40.5 -115v-193z" />
    <glyph glyph-name="o" unicode="o" horiz-adv-x="412" 
d="M386 172q0 -76 -51 -128t-129 -52t-129 52t-51 128t51 128.5t129 52.5t129 -52.5t51 -128.5zM324 172q0 54 -33 90.5t-85 36.5t-85 -36.5t-33 -90.5t33 -90.5t85 -36.5t85 36.5t33 90.5z" />
    <glyph glyph-name="p" unicode="p" horiz-adv-x="431" 
d="M405 179q0 -83 -51 -135.5t-127 -52.5q-70 0 -114 41v-175h-63v373q0 83 -4 116h62l7 -37q53 44 120 44q74 0 122 -50t48 -124zM344 178q0 52 -32.5 87.5t-82.5 35.5q-40 0 -78 -32t-38 -71v-56q0 -39 32.5 -67.5t79.5 -28.5q56 0 87.5 35.5t31.5 96.5z" />
    <glyph glyph-name="q" unicode="q" horiz-adv-x="431" 
d="M381 -143h-63v175q-44 -41 -114 -41q-76 0 -127 52.5t-51 135.5q0 74 48 124t122 50q67 0 120 -44l7 37h62q-4 -33 -4 -116v-373zM318 142v56q0 39 -38 71t-78 32q-50 0 -82.5 -35.5t-32.5 -87.5q0 -61 31.5 -96.5t87.5 -35.5q47 0 79.5 28.5t32.5 67.5z" />
    <glyph glyph-name="r" unicode="r" horiz-adv-x="246" 
d="M113 0h-63v225q0 80 -12 120h56q11 -18 11 -48q9 19 37.5 36t56.5 17q20 0 32 -3v-54q-8 2 -23 2q-95 0 -95 -114v-181z" />
    <glyph glyph-name="s" unicode="s" horiz-adv-x="296" 
d="M271 97q0 -47 -36.5 -76.5t-98.5 -29.5q-51 0 -110 33l25 50q41 -28 88 -28q70 0 70 48q0 37 -68 58q-100 31 -100 95q0 43 33.5 72.5t90.5 29.5q58 0 98 -29l-23 -46q-35 26 -79 26q-26 0 -43.5 -13.5t-17.5 -34.5q0 -26 73 -51q98 -34 98 -104z" />
    <glyph glyph-name="t" unicode="t" horiz-adv-x="258" 
d="M242 5q-33 -14 -66 -14q-46 0 -72.5 31t-26.5 85v181h-68v52h68v93l63 27v-120h109v-52h-109v-180q0 -61 39 -61q25 0 56 11z" />
    <glyph glyph-name="u" unicode="u" horiz-adv-x="418" 
d="M389 4l-61 -12q-10 24 -18 58q-60 -59 -119 -59q-141 0 -141 163v186h63v-180q0 -113 86 -113q36 0 71 27.5t35 64.5v201h63v-249q0 -34 21 -87z" />
    <glyph glyph-name="v" unicode="v" horiz-adv-x="358" 
d="M204 0h-50l-158 340h66l117 -262l117 262h66z" />
    <glyph glyph-name="w" unicode="w" horiz-adv-x="480" 
d="M399 0h-53l-106 273l-106 -273h-53l-85 340h65l51 -257l102 257h52l102 -257l51 257h65z" />
    <glyph glyph-name="x" unicode="x" horiz-adv-x="349" 
d="M360 0h-77l-109 131l-108 -131h-77l148 174l-139 166h76l101 -120l100 120h76l-139 -166z" />
    <glyph glyph-name="y" unicode="y" horiz-adv-x="361" 
d="M32 -151l-16 52q89 20 131 124l-151 315h69l118 -252l112 252h69l-156 -333q-63 -133 -176 -158z" />
    <glyph glyph-name="z" unicode="z" horiz-adv-x="358" 
d="M330 0h-310v38l226 249h-216l12 53h290v-41l-225 -246h232z" />
    <glyph glyph-name="braceleft" unicode="{" horiz-adv-x="255" 
d="M221 -88h-23q-120 0 -120 102q0 20 7 64.5t7 62.5q0 36 -62 38v52q62 2 62 37q0 21 -7 65.5t-7 62.5q0 102 120 102h23v-52h-26q-55 0 -58 -52q14 -85 14 -123q0 -22 -12.5 -41.5t-29.5 -24.5q42 -17 42 -67q0 -37 -14 -122q2 -53 58 -53h26v-51z" />
    <glyph glyph-name="bar" unicode="|" horiz-adv-x="177" 
d="M117 -166h-57v692h57v-692z" />
    <glyph glyph-name="braceright" unicode="}" horiz-adv-x="255" 
d="M228 179q-62 -2 -62 -38q0 -18 7 -62.5t7 -64.5q0 -102 -120 -102h-23v51h26q58 0 58 49q0 23 -7 64.5t-7 61.5q0 50 42 67q-17 5 -29.5 24.5t-12.5 41.5t7 64t7 63q0 48 -58 48h-26v52h23q120 0 120 -102q0 -18 -7 -62.5t-7 -65.5q0 -35 62 -37v-52z" />
    <glyph glyph-name="asciitilde" unicode="~" horiz-adv-x="422" 
d="M408 243q0 -46 -25 -72.5t-65 -26.5q-24 0 -105.5 31t-98.5 31q-35 0 -37 -62h-55v19q0 44 26.5 70t65.5 26q27 0 107 -29.5t99 -29.5q31 0 34 59h54v-16z" />
    <glyph glyph-name="uni0E33.alt1" horiz-adv-x="336" 
d="M-157 549q0 -35 -24.5 -59.5t-59.5 -24.5q-36 0 -60.5 24.5t-24.5 59.5t25 60t60 25t59.5 -24.5t24.5 -60.5zM-201 549q0 17 -11.5 29t-28.5 12t-29 -12t-12 -29t12 -28.5t29 -11.5t28.5 11.5t11.5 28.5zM285 0h-62v291q0 28 -19 45.5t-52 17.5t-54 -22t-22 -56h-60
q3 60 39.5 95.5t96.5 35.5q56 0 94.5 -28.5t38.5 -86.5v-292z" />
    <glyph glyph-name=".null" 
 />
    <glyph glyph-name="nonmarkingreturn" horiz-adv-x="216" 
 />
    <glyph glyph-name="uni0E4E.alt1" 
d="M-122 664l-9 -25q-17 5 -37 5q-46 0 -46 -31q0 -33 50 -39l-9 -23q-12 4 -24 4q-28 0 -45.5 -12.5t-17.5 -27.5q0 -27 45 -27q13 0 32 8l1 -25q-19 -8 -46 -8q-25 0 -43 14.5t-18 38.5q0 25 20 42t45 17q-20 13 -20 38q0 58 77 58q27 0 45 -7z" />
    <glyph glyph-name="exclamdown" unicode="&#xa1;" horiz-adv-x="168" 
d="M120 -141h-72l7 337h56zM132 296q0 -20 -14 -34t-34 -14t-34 14t-14 34t14 34t34 14t34 -14t14 -34z" />
    <glyph glyph-name="cent" unicode="&#xa2;" horiz-adv-x="480" 
d="M418 52q-53 -29 -133 -31v-77h-55v80q-78 14 -123.5 68.5t-45.5 136.5t45.5 136.5t123.5 68.5v80h55v-77q80 -2 133 -31l-21 -48q-25 11 -52 17t-56 6q-79 0 -123.5 -40t-44.5 -112t44.5 -112t123.5 -40q29 0 56 6t52 17z" />
    <glyph glyph-name="sterling" unicode="&#xa3;" horiz-adv-x="480" 
d="M391 0h-302v37q82 51 82 124q0 8 -1 21t-3 27h-77v46h71q-2 21 -3.5 38.5t-1.5 34.5q0 140 131 140q40 0 91 -23l-18 -42q-44 18 -75 18q-80 0 -80 -93q0 -38 7 -73h111v-46h-103q1 -8 1.5 -19.5t0.5 -21.5q0 -73 -42 -121h211v-47z" />
    <glyph glyph-name="currency" unicode="&#xa4;" horiz-adv-x="480" 
d="M427 226q0 -59 -34 -106l37 -39l-43 -46l-39 41q-44 -35 -109 -35q-63 0 -107 35l-39 -41l-43 46l37 39q-34 47 -34 106t34 106l-37 39l43 46l39 -41q44 35 107 35q65 0 109 -35l39 41l43 -46l-37 -39q34 -47 34 -106zM365 226q0 51 -37 88t-88 37q-53 0 -89 -37t-36 -88
q0 -53 36 -89t89 -36q51 0 88 36t37 89z" />
    <glyph glyph-name="yen" unicode="&#xa5;" horiz-adv-x="480" 
d="M384 91h-115v-73h-58v73h-115v50h115v32h-115v50h105l-145 238h70l113 -190l114 190h71l-146 -237h106v-51h-115v-32h115v-50z" />
    <glyph glyph-name="brokenbar" unicode="&#xa6;" horiz-adv-x="161" 
d="M104 220h-48v256h48v-256zM104 -119h-48v257h48v-257z" />
    <glyph glyph-name="section" unicode="&#xa7;" horiz-adv-x="380" 
d="M307 71q0 -51 -36.5 -80t-92.5 -29q-63 0 -110 38l23 42q20 -19 42 -27t47 -8q36 0 57.5 16.5t21.5 42.5q0 35 -48 59l-52 20.5t-52 21.5q-53 26 -53 82q0 43 39 78q-18 23 -18 52q0 45 34 73t90 28q26 0 52.5 -8t52.5 -22l-25 -43q-40 29 -85 29q-29 0 -49 -14.5
t-20 -36.5q0 -11 6.5 -20t17.5 -17q8 -5 26 -12.5t42 -15.5q51 -18 79.5 -45.5t28.5 -62.5q0 -23 -10 -43.5t-27 -39.5q19 -23 19 -58zM274 207q0 17 -19.5 34.5t-49.5 28.5q-26 9 -45.5 17t-32.5 14q-25 -22 -25 -50q0 -12 8 -21.5t22 -19.5q10 -5 26.5 -12.5t42.5 -16.5
q19 -7 32 -12.5t22 -11.5q11 13 15 25t4 25z" />
    <glyph glyph-name="dieresis" unicode="&#xa8;" horiz-adv-x="341" 
d="M140 425q0 -19 -13 -31.5t-30 -12.5q-18 0 -31 12.5t-13 31.5q0 18 13 31t31 13q17 0 30 -13t13 -31zM288 425q0 -19 -13 -31.5t-30 -12.5t-30.5 12.5t-13.5 31.5q0 18 13.5 31t30.5 13t30 -13t13 -31z" />
    <glyph glyph-name="copyright" unicode="&#xa9;" horiz-adv-x="540" 
d="M371 117q-38 -29 -103 -29q-67 0 -106 42t-39 103q0 70 41 110.5t109 40.5q61 0 93 -24l-12 -36q-38 22 -81 22q-104 0 -104 -108q0 -109 105 -109q49 0 84 25zM513 240q0 -100 -71.5 -171.5t-171.5 -71.5t-171.5 71.5t-71.5 171.5t71.5 171.5t171.5 71.5t171.5 -71.5
t71.5 -171.5zM471 240q0 83 -59 142t-142 59t-142 -59t-59 -142t59 -142t142 -59t142 59t59 142z" />
    <glyph glyph-name="ordfeminine" unicode="&#xaa;" horiz-adv-x="252" 
d="M225 248h-43q-2 5 -3 11.5t-3 14.5q-28 -29 -70 -29q-80 0 -80 72q0 80 147 83q-2 25 -17.5 35.5t-35.5 10.5q-17 0 -34.5 -4t-34.5 -16l-14 34q21 14 44 20t46 6q90 0 90 -110v-84q0 -5 1.5 -16.5t6.5 -27.5zM173 324v39q-54 0 -78.5 -11.5t-24.5 -34.5q0 -35 42 -35
q9 0 19.5 3t20 8.5t15.5 13t6 17.5z" />
    <glyph glyph-name="guillemotleft" unicode="&#xab;" horiz-adv-x="356" 
d="M326 47h-60l-114 132l114 135h59l-113 -134zM204 47h-61l-113 132l111 136h62l-114 -136z" />
    <glyph glyph-name="logicalnot" unicode="&#xac;" horiz-adv-x="448" 
d="M403 88h-48v146h-321v45h369v-191z" />
    <glyph glyph-name="registered" unicode="&#xae;" horiz-adv-x="540" 
d="M379 89h-39q-18 131 -78 131h-50v-131h-41v295q46 8 82 8q53 0 84.5 -22.5t31.5 -61.5q0 -52 -49 -74q24 -17 36.5 -47t22.5 -98zM332 305q0 52 -79 52q-25 0 -41 -2v-102h47q73 0 73 52zM513 240q0 -100 -71.5 -171.5t-171.5 -71.5t-171.5 71.5t-71.5 171.5t71.5 171.5
t171.5 71.5t171.5 -71.5t71.5 -171.5zM471 240q0 83 -59 142t-142 59t-142 -59t-59 -142t59 -142t142 -59t142 59t59 142z" />
    <glyph glyph-name="macron" unicode="&#xaf;" horiz-adv-x="376" 
d="M376 528h-376v53h376v-53z" />
    <glyph glyph-name="degree" unicode="&#xb0;" horiz-adv-x="277" 
d="M227 397q0 -37 -26 -63t-63 -26t-63 26t-26 63t26 63t63 26t63 -26t26 -63zM195 397q0 23 -17 40t-40 17t-40 -17t-17 -40t17 -40t40 -17t40 17t17 40z" />
    <glyph glyph-name="plusminus" unicode="&#xb1;" horiz-adv-x="440" 
d="M405 0h-369v55h369v-55zM400 217h-148v-139h-63v139h-148v55h148v151h63v-151h148v-55z" />
    <glyph glyph-name="twosuperior" unicode="&#xb2;" horiz-adv-x="260" 
d="M217 190h-190q0 31 22.5 59.5t49 54.5t49 50.5t22.5 47.5q0 17 -9.5 26t-24.5 9q-19 0 -34 -14t-17 -41l-42 8q5 45 29 68.5t61 23.5q38 0 61.5 -21.5t23.5 -58.5q0 -21 -13 -46t-41 -54l-65 -67h124z" />
    <glyph glyph-name="threesuperior" unicode="&#xb3;" horiz-adv-x="260" 
d="M228 294q0 -48 -31.5 -77t-85.5 -30q-41 0 -75 25l20 42q14 -12 28 -16t28 -4q32 0 50.5 16.5t18.5 42.5q0 17 -10.5 26t-24.5 9q-12 0 -24 -4.5t-20 -10.5l-16 30q39 18 58.5 37.5t19.5 35.5q0 22 -28 22q-17 0 -33 -11.5t-24 -34.5l-37 19q31 72 97 72q69 0 69 -59
q0 -34 -32 -62q52 -15 52 -68z" />
    <glyph glyph-name="acute" unicode="&#xb4;" horiz-adv-x="259" 
d="M100 366h-47l75 115h78z" />
    <glyph glyph-name="mu" unicode="&#xb5;" horiz-adv-x="414" 
d="M386 4l-61 -12q-5 11 -8.5 22.5t-6.5 25.5q-28 -22 -57.5 -35.5t-64.5 -13.5q-23 0 -43.5 8t-34.5 25v-165h-63v483h63v-182q0 -113 86 -113q37 0 71.5 25.5t34.5 66.5v203h63v-251q0 -18 5.5 -40t15.5 -47z" />
    <glyph glyph-name="paragraph" unicode="&#xb6;" horiz-adv-x="380" 
d="M324 -63h-34v506h-48v-506h-35v243h-4q-60 0 -107.5 37.5t-47.5 103.5q0 154 198 154q53 0 78 -5v-533z" />
    <glyph glyph-name="periodcentered" unicode="&#xb7;" horiz-adv-x="172" 
d="M134 182q0 -20 -14 -34t-34 -14t-34 14t-14 34t14 34t34 14t34 -14t14 -34z" />
    <glyph glyph-name="cedilla" unicode="&#xb8;" horiz-adv-x="249" 
d="M196 -90q0 -32 -21 -50.5t-59 -18.5q-14 0 -31 4.5t-32 13.5l14 32q14 -7 28.5 -11t22.5 -4q32 0 32 30q0 28 -64 39l43 66h43l-28 -39q27 -8 39.5 -23.5t12.5 -38.5z" />
    <glyph glyph-name="onesuperior" unicode="&#xb9;" horiz-adv-x="260" 
d="M210 195h-134v39h43v180l-40 -38l-25 34l83 74q15 0 23 -9.5t8 -24.5v-216h42v-39z" />
    <glyph glyph-name="ordmasculine" unicode="&#xba;" horiz-adv-x="294" 
d="M274 359q0 -54 -37.5 -90.5t-90.5 -36.5q-54 0 -90.5 36.5t-36.5 90.5q0 53 36.5 90.5t90.5 37.5q53 0 90.5 -37.5t37.5 -90.5zM230 359q0 34 -25 59t-59 25t-58.5 -25t-24.5 -59t24.5 -58.5t58.5 -24.5t59 24.5t25 58.5z" />
    <glyph glyph-name="guillemotright" unicode="&#xbb;" horiz-adv-x="356" 
d="M90 47h-60l114 133l-113 134h59l114 -135zM213 47h-61l115 132l-114 136h62l111 -136z" />
    <glyph glyph-name="onequarter" unicode="&#xbc;" horiz-adv-x="542" 
d="M180 176h-134v39h43v174l-38 -33l-28 36l84 74q31 -2 31 -35v-216h42v-39zM158 -9h-50l287 483h50zM415 108v118q-23 -20 -39.5 -53.5t-20.5 -64.5h60zM464 0h-49v60h-112q0 32 10 72t30 75.5t51.5 60t69.5 25.5v-185h42l-2 -48h-40v-60z" />
    <glyph glyph-name="onehalf" unicode="&#xbd;" horiz-adv-x="542" 
d="M520 0h-190q3 38 25.5 67t47.5 52l24.5 23.5t22.5 23.5t16.5 23.5t6.5 22.5q0 14 -8.5 24t-25.5 10q-41 0 -48 -54l-45 8q4 45 28.5 68.5t61.5 23.5q38 0 62 -21t24 -59q0 -25 -14.5 -47t-34 -42.5t-39.5 -39.5t-32 -37h124zM158 -9h-50l287 483h50zM180 176h-134v39h43
v174l-38 -33l-28 36l84 74q31 -2 31 -35v-216h42v-39z" />
    <glyph glyph-name="threequarters" unicode="&#xbe;" horiz-adv-x="542" 
d="M158 -9h-50l287 483h50zM223 285q0 -26 -10 -46t-26 -33.5t-37.5 -20.5t-43.5 -7q-41 0 -75 25l20 43q14 -11 28 -16.5t28 -5.5q32 0 50.5 17t18.5 43q0 35 -33 35q-25 0 -46 -18l-16 30q44 23 59.5 41t15.5 38q0 8 -6 13.5t-19 5.5q-40 0 -57 -49l-37 19q30 72 97 72
q35 0 51.5 -16t16.5 -38q0 -34 -31 -62q27 -4 39.5 -23t12.5 -47zM415 108v118q-23 -20 -39.5 -53.5t-20.5 -64.5h60zM464 0h-49v60h-112q0 32 10 72t30 75.5t51.5 60t69.5 25.5v-185h42l-2 -48h-40v-60z" />
    <glyph glyph-name="questiondown" unicode="&#xbf;" horiz-adv-x="289" 
d="M265 -114q-59 -37 -115 -37q-57 0 -91.5 30.5t-34.5 81.5q0 53 66 121q23 23 34 46.5t12 44.5q0 17 -7 42h57q5 -14 7.5 -25.5t2.5 -19.5q0 -55 -58 -116q-51 -54 -51 -91q0 -57 70 -57q43 0 83 29zM201 293q0 -20 -14 -34t-33 -14t-33 14t-14 34t14 34t33 14t33 -14
t14 -34z" />
    <glyph glyph-name="Acircumflex" unicode="&#xc2;" horiz-adv-x="451" 
d="M452 0h-69l-63 159h-191l-62 -159h-68l200 483h54zM296 213l-70 198l-74 -198h144zM320 521h-54l-41 71l-40 -71h-55l78 115h35z" />
    <glyph glyph-name="Adieresis" unicode="&#xc4;" horiz-adv-x="451" 
d="M452 0h-69l-63 159h-191l-62 -159h-68l200 483h54zM296 213l-70 198l-74 -198h144zM195 561q0 -19 -13 -31.5t-30 -12.5q-18 0 -31 12.5t-13 31.5q0 18 13 31t31 13q17 0 30 -13t13 -31zM343 561q0 -19 -13 -31.5t-30 -12.5t-30.5 12.5t-13.5 31.5q0 18 13.5 31t30.5 13
t30 -13t13 -31z" />
    <glyph glyph-name="Aring" unicode="&#xc5;" horiz-adv-x="451" 
d="M452 0h-69l-63 159h-191l-62 -159h-68l200 483h54zM296 213l-70 198l-74 -198h144zM305 600q0 -33 -23.5 -56.5t-56.5 -23.5t-56.5 23.5t-23.5 56.5t23.5 56.5t56.5 23.5t56.5 -23.5t23.5 -56.5zM263 600q0 16 -11 27t-27 11t-27.5 -11t-11.5 -27t11.5 -27.5t27.5 -11.5
t27 11.5t11 27.5z" />
    <glyph glyph-name="AE" unicode="&#xc6;" horiz-adv-x="583" 
d="M555 0h-229l-27 190h-140l-101 -190h-68l259 483h294v-55h-218l19 -147h189v-55h-180l26 -171h176v-55zM291 244l-19 161l-86 -161h105z" />
    <glyph glyph-name="Ccedilla" unicode="&#xc7;" horiz-adv-x="432" 
d="M410 25q-73 -32 -174 -32q-95 0 -152.5 67.5t-57.5 176.5q0 108 56 174q62 72 173 72q85 0 155 -29l-20 -50q-60 25 -133 25q-92 0 -135 -68q-32 -50 -32 -126q0 -70 35 -122q44 -66 124 -66q83 0 144 30zM287 -90q0 -32 -21 -50.5t-59 -18.5q-14 0 -31 4.5t-32 13.5
l14 32q14 -7 28.5 -11t22.5 -4q32 0 32 30q0 28 -64 39l43 66h43l-28 -39q27 -8 39.5 -23.5t12.5 -38.5z" />
    <glyph glyph-name="Ecircumflex" unicode="&#xca;" horiz-adv-x="358" 
d="M333 0h-283v476h283v-54h-220v-144h196v-54h-196v-170h220v-54zM274 521h-54l-41 71l-40 -71h-55l78 115h35z" />
    <glyph glyph-name="Edieresis" unicode="&#xcb;" horiz-adv-x="358" 
d="M333 0h-283v476h283v-54h-220v-144h196v-54h-196v-170h220v-54zM148 561q0 -19 -13 -31.5t-30 -12.5q-18 0 -31 12.5t-13 31.5q0 18 13 31t31 13q17 0 30 -13t13 -31zM296 561q0 -19 -13 -31.5t-30 -12.5t-30.5 12.5t-13.5 31.5q0 18 13.5 31t30.5 13t30 -13t13 -31z" />
    <glyph glyph-name="Icircumflex" unicode="&#xce;" horiz-adv-x="163" 
d="M113 0h-63v476h63v-476zM183 521h-54l-41 71l-40 -71h-55l78 115h35z" />
    <glyph glyph-name="Idieresis" unicode="&#xcf;" horiz-adv-x="163" 
d="M113 0h-63v476h63v-476zM57 561q0 -19 -13 -31.5t-30 -12.5q-18 0 -31 12.5t-13 31.5q0 18 13 31t31 13q17 0 30 -13t13 -31zM205 561q0 -19 -13 -31.5t-30 -12.5t-30.5 12.5t-13.5 31.5q0 18 13.5 31t30.5 13t30 -13t13 -31z" />
    <glyph glyph-name="Eth" unicode="&#xd0;" horiz-adv-x="459" 
d="M433 248q0 -108 -52 -173q-64 -79 -197 -79q-41 0 -134 10v200h-41v54h41v208q114 13 154 13q122 0 181 -73q48 -59 48 -160zM369 248q0 179 -168 179q-28 0 -88 -6v-161h160v-54h-160v-153q33 -3 83 -3q97 0 141 69q32 51 32 129z" />
    <glyph glyph-name="Ntilde" unicode="&#xd1;" horiz-adv-x="472" 
d="M422 0h-60l-249 386v-386h-63v476h63l246 -376v376h63v-476zM336 592q-1 -35 -15.5 -55.5t-43.5 -20.5q-8 0 -19.5 4.5t-24 10l-23.5 10t-18 4.5q-8 0 -10 -7.5t-2 -16.5h-44q0 30 14.5 50.5t41.5 20.5q9 0 20.5 -4t22.5 -9.5t21.5 -9.5t17.5 -4q19 0 19 27h43z" />
    <glyph glyph-name="Ocircumflex" unicode="&#xd4;" horiz-adv-x="518" 
d="M430 238q0 82 -47 137.5t-124 55.5t-124 -55.5t-47 -137.5t47 -137.5t124 -55.5t124 55.5t47 137.5zM492 237q0 -105 -65 -176t-168 -71t-168 71t-65 176t65 176.5t168 71.5t168 -71.5t65 -176.5zM354 521h-54l-41 71l-40 -71h-55l78 115h35z" />
    <glyph glyph-name="Odieresis" unicode="&#xd6;" horiz-adv-x="518" 
d="M430 238q0 82 -47 137.5t-124 55.5t-124 -55.5t-47 -137.5t47 -137.5t124 -55.5t124 55.5t47 137.5zM492 237q0 -105 -65 -176t-168 -71t-168 71t-65 176t65 176.5t168 71.5t168 -71.5t65 -176.5zM228 561q0 -19 -13 -31.5t-30 -12.5q-18 0 -31 12.5t-13 31.5q0 18 13 31
t31 13q17 0 30 -13t13 -31zM376 561q0 -19 -13 -31.5t-30 -12.5t-30.5 12.5t-13.5 31.5q0 18 13.5 31t30.5 13t30 -13t13 -31z" />
    <glyph glyph-name="multiply" unicode="&#xd7;" horiz-adv-x="417" 
d="M390 34l-40 -39l-142 148l-71 -74l-70 -74l-40 39l142 148l-71 75.5l-71 75.5l40 39l142 -148l71 74.5l70 73.5l40 -39l-143 -150z" />
    <glyph glyph-name="Oslash" unicode="&#xd8;" horiz-adv-x="518" 
d="M492 237q0 -105 -65 -176t-168 -71q-47 0 -86 14l-16 -32h-64l30 59q-17 13 -32 30q-65 71 -65 176t65 176.5t168 71.5q49 0 89 -16l12 23h64l-27 -52q16 -12 30 -27q65 -71 65 -176zM323 419q-29 12 -64 12q-77 0 -124 -55.5t-47 -137.5t47 -138q7 -9 15 -16zM430 238
q0 82 -47 137q-6 7 -12 13l-172 -333q27 -10 60 -10q77 0 124 55.5t47 137.5z" />
    <glyph glyph-name="Ucircumflex" unicode="&#xdb;" horiz-adv-x="482" 
d="M432 203q0 -212 -191 -212t-191 212v273h64v-273q0 -158 127 -158t127 158v273h64v-273zM336 521h-54l-41 71l-40 -71h-55l78 115h35z" />
    <glyph glyph-name="Udieresis" unicode="&#xdc;" horiz-adv-x="482" 
d="M432 203q0 -212 -191 -212t-191 212v273h64v-273q0 -158 127 -158t127 158v273h64v-273zM210 561q0 -19 -13 -31.5t-30 -12.5q-18 0 -31 12.5t-13 31.5q0 18 13 31t31 13q17 0 30 -13t13 -31zM358 561q0 -19 -13 -31.5t-30 -12.5t-30.5 12.5t-13.5 31.5q0 18 13.5 31
t30.5 13t30 -13t13 -31z" />
    <glyph glyph-name="Thorn" unicode="&#xde;" horiz-adv-x="394" 
d="M357 249q0 -77 -51 -117.5t-142 -40.5q-32 0 -52 4v-95h-59v476h59v-73q20 4 52 4q91 0 142 -40.5t51 -117.5zM299 249q0 106 -133 106q-31 0 -54 -8v-196q23 -8 54 -8q133 0 133 106z" />
    <glyph glyph-name="germandbls" unicode="&#xdf;" horiz-adv-x="425" 
d="M376 109q0 -55 -34.5 -86.5t-92.5 -31.5q-26 0 -49.5 6.5t-46.5 18.5l20 54q45 -24 77 -24t50 16.5t18 40.5q0 22 -15 39t-33.5 33.5t-33.5 34.5t-15 42q0 13 10 28.5t22.5 31t22.5 30t10 26.5q0 67 -72 67q-84 0 -84 -154v-321q0 -26 -6.5 -52t-20.5 -51l-57 15
q13 25 18.5 46.5t5.5 41.5v337q0 195 151 195q54 0 88.5 -32.5t34.5 -89.5q0 -23 -10 -41.5t-21.5 -33.5t-21.5 -26t-10 -20q0 -10 15 -23.5t32.5 -31.5t32.5 -39t15 -46z" />
    <glyph glyph-name="acircumflex" unicode="&#xe2;" horiz-adv-x="367" 
d="M330 3l-59 -12l-10 44q-51 -44 -115 -44q-51 0 -85 27.5t-35 74.5q0 127 227 130q-10 75 -82 75q-54 0 -119 -25l-7 57q68 20 129 20q142 0 142 -146v-113q0 -38 14 -88zM253 108v60q-163 -3 -163 -69q0 -53 59 -53q33 0 66 16q38 19 38 46zM266 385h-54l-41 71l-40 -71
h-55l78 115h35z" />
    <glyph glyph-name="adieresis" unicode="&#xe4;" horiz-adv-x="367" 
d="M330 3l-59 -12l-10 44q-51 -44 -115 -44q-51 0 -85 27.5t-35 74.5q0 127 227 130q-10 75 -82 75q-54 0 -119 -25l-7 57q68 20 129 20q142 0 142 -146v-113q0 -38 14 -88zM253 108v60q-163 -3 -163 -69q0 -53 59 -53q33 0 66 16q38 19 38 46zM153 425q0 -19 -13 -31.5
t-30 -12.5q-18 0 -31 12.5t-13 31.5q0 18 13 31t31 13q17 0 30 -13t13 -31zM301 425q0 -19 -13 -31.5t-30 -12.5t-30.5 12.5t-13.5 31.5q0 18 13.5 31t30.5 13t30 -13t13 -31z" />
    <glyph glyph-name="aring" unicode="&#xe5;" horiz-adv-x="367" 
d="M330 3l-59 -12l-10 44q-51 -44 -115 -44q-51 0 -85 27.5t-35 74.5q0 127 227 130q-10 75 -82 75q-54 0 -119 -25l-7 57q68 20 129 20q142 0 142 -146v-113q0 -38 14 -88zM253 108v60q-163 -3 -163 -69q0 -53 59 -53q33 0 66 16q38 19 38 46zM263 464q0 -33 -23.5 -56.5
t-56.5 -23.5t-56.5 23.5t-23.5 56.5t23.5 56.5t56.5 23.5t56.5 -23.5t23.5 -56.5zM221 464q0 16 -11 27t-27 11t-27.5 -11t-11.5 -27t11.5 -27.5t27.5 -11.5t27 11.5t11 27.5z" />
    <glyph glyph-name="ae" unicode="&#xe6;" horiz-adv-x="621" 
d="M580 18q-68 -27 -140 -27q-98 0 -150 70q-37 -70 -143 -70q-25 0 -47 7t-38.5 20t-26 32t-9.5 43q0 130 228 132q-2 34 -23 55.5t-59 21.5q-32 0 -118 -26l-8 57q70 21 130 21q45 0 74.5 -13.5t46.5 -47.5q48 61 139 61q154 0 159 -194h-279q5 -55 39.5 -84t88.5 -29
q58 0 131 26zM254 170q-85 -1 -123.5 -18.5t-38.5 -52.5q0 -26 16.5 -39.5t40.5 -13.5q48 0 76.5 27t28.5 75v22zM533 213q-7 37 -33 63t-68 26q-44 0 -72.5 -23.5t-37.5 -65.5h211z" />
    <glyph glyph-name="ccedilla" unicode="&#xe7;" horiz-adv-x="347" 
d="M322 21q-48 -30 -117 -30q-81 0 -130 50.5t-49 130.5q0 81 49 131t130 50q68 0 117 -30l-22 -52q-47 29 -97 29q-51 0 -82 -35.5t-31 -92.5q0 -58 31 -93t82 -35q50 0 97 29zM245 -90q0 -32 -21 -50.5t-59 -18.5q-14 0 -31 4.5t-32 13.5l14 32q14 -7 28.5 -11t22.5 -4
q32 0 32 30q0 28 -64 39l43 66h43l-28 -39q27 -8 39.5 -23.5t12.5 -38.5z" />
    <glyph glyph-name="ecircumflex" unicode="&#xea;" horiz-adv-x="391" 
d="M351 18q-73 -27 -139 -27q-81 0 -133.5 48.5t-52.5 125.5q0 85 52 138q51 50 130 50q154 0 157 -193h-277q4 -54 38.5 -83.5t89.5 -29.5q56 0 128 26zM303 213q-5 39 -32 63.5t-69 24.5q-40 0 -71.5 -24.5t-38.5 -63.5h211zM290 385h-54l-41 71l-40 -71h-55l78 115h35z
" />
    <glyph glyph-name="edieresis" unicode="&#xeb;" horiz-adv-x="391" 
d="M351 18q-73 -27 -139 -27q-81 0 -133.5 48.5t-52.5 125.5q0 85 52 138q51 50 130 50q154 0 157 -193h-277q4 -54 38.5 -83.5t89.5 -29.5q56 0 128 26zM303 213q-5 39 -32 63.5t-69 24.5q-40 0 -71.5 -24.5t-38.5 -63.5h211zM165 425q0 -19 -13 -31.5t-30 -12.5
q-18 0 -31 12.5t-13 31.5q0 18 13 31t31 13q17 0 30 -13t13 -31zM313 425q0 -19 -13 -31.5t-30 -12.5t-30.5 12.5t-13.5 31.5q0 18 13.5 31t30.5 13t30 -13t13 -31z" />
    <glyph glyph-name="icircumflex" unicode="&#xee;" horiz-adv-x="163" 
d="M113 0h-63v340h63v-340zM183 385h-54l-41 71l-40 -71h-55l78 115h35z" />
    <glyph glyph-name="idieresis" unicode="&#xef;" horiz-adv-x="163" 
d="M113 0h-63v340h63v-340zM57 425q0 -19 -13 -31.5t-30 -12.5q-18 0 -31 12.5t-13 31.5q0 18 13 31t31 13q17 0 30 -13t13 -31zM205 425q0 -19 -13 -31.5t-30 -12.5t-30.5 12.5t-13.5 31.5q0 18 13.5 31t30.5 13t30 -13t13 -31z" />
    <glyph glyph-name="eth" unicode="&#xf0;" horiz-adv-x="378" 
d="M341 163q0 -81 -45.5 -130t-115.5 -49q-63 0 -103.5 45.5t-40.5 112.5q0 66 41 111t101 45t89 -32q-24 50 -85 98q-1 1 -2 1l-101 -52l-27 44l80 41q-36 20 -71 30l6 50q70 -14 125 -49l91 47l22 -46l-68 -35q104 -100 104 -232zM273 142q0 43 -26.5 72.5t-64.5 29.5
q-36 0 -62 -31t-26 -71t26 -71t62 -31q38 0 64.5 30t26.5 72z" />
    <glyph glyph-name="ntilde" unicode="&#xf1;" horiz-adv-x="423" 
d="M373 0h-63v193q0 104 -95 104q-35 0 -68.5 -31.5t-33.5 -62.5v-203h-63v250q0 62 -8 91h59q7 -17 7 -41q48 50 116 50t108.5 -42t40.5 -115v-193zM311 456q-1 -35 -15.5 -55.5t-43.5 -20.5q-8 0 -19.5 4.5t-24 10l-23.5 10t-18 4.5q-8 0 -10 -7.5t-2 -16.5h-44
q0 30 14.5 50.5t41.5 20.5q9 0 20.5 -4t22.5 -9.5t21.5 -9.5t17.5 -4q19 0 19 27h43z" />
    <glyph glyph-name="ocircumflex" unicode="&#xf4;" horiz-adv-x="412" 
d="M386 172q0 -76 -51 -128t-129 -52t-129 52t-51 128t51 128.5t129 52.5t129 -52.5t51 -128.5zM324 172q0 54 -33 90.5t-85 36.5t-85 -36.5t-33 -90.5t33 -90.5t85 -36.5t85 36.5t33 90.5zM301 385h-54l-41 71l-40 -71h-55l78 115h35z" />
    <glyph glyph-name="odieresis" unicode="&#xf6;" horiz-adv-x="412" 
d="M386 172q0 -76 -51 -128t-129 -52t-129 52t-51 128t51 128.5t129 52.5t129 -52.5t51 -128.5zM324 172q0 54 -33 90.5t-85 36.5t-85 -36.5t-33 -90.5t33 -90.5t85 -36.5t85 36.5t33 90.5zM175 425q0 -19 -13 -31.5t-30 -12.5q-18 0 -31 12.5t-13 31.5q0 18 13 31t31 13
q17 0 30 -13t13 -31zM323 425q0 -19 -13 -31.5t-30 -12.5t-30.5 12.5t-13.5 31.5q0 18 13.5 31t30.5 13t30 -13t13 -31z" />
    <glyph glyph-name="divide" unicode="&#xf7;" horiz-adv-x="417" 
d="M391 157h-365v54h365v-54zM257 56q0 -20 -14 -34t-33 -14t-33 14t-14 34t14 34t33 14t33 -14t14 -34zM257 313q0 -20 -14 -34t-33 -14t-33 14t-14 34t14 34t33 14t33 -14t14 -34z" />
    <glyph glyph-name="oslash" unicode="&#xf8;" horiz-adv-x="412" 
d="M386 172q0 -76 -51 -128t-129 -52q-33 0 -61 9l-15 -29h-64l29 56q-10 7 -18 16q-51 52 -51 128t51 128.5t129 52.5q28 0 53 -7l17 32h64l-29 -57q12 -9 24 -21q51 -52 51 -128zM324 172q0 54 -33 90l-7 7l-114 -219q17 -5 36 -5q52 0 85 36.5t33 90.5zM233 296
q-13 3 -27 3q-52 0 -85 -36.5t-33 -90.5t33 -91l1 -1z" />
    <glyph glyph-name="ucircumflex" unicode="&#xfb;" horiz-adv-x="418" 
d="M389 4l-61 -12q-10 24 -18 58q-60 -59 -119 -59q-141 0 -141 163v186h63v-180q0 -113 86 -113q36 0 71 27.5t35 64.5v201h63v-249q0 -34 21 -87zM304 385h-54l-41 71l-40 -71h-55l78 115h35z" />
    <glyph glyph-name="udieresis" unicode="&#xfc;" horiz-adv-x="418" 
d="M389 4l-61 -12q-10 24 -18 58q-60 -59 -119 -59q-141 0 -141 163v186h63v-180q0 -113 86 -113q36 0 71 27.5t35 64.5v201h63v-249q0 -34 21 -87zM178 425q0 -19 -13 -31.5t-30 -12.5q-18 0 -31 12.5t-13 31.5q0 18 13 31t31 13q17 0 30 -13t13 -31zM326 425
q0 -19 -13 -31.5t-30 -12.5t-30.5 12.5t-13.5 31.5q0 18 13.5 31t30.5 13t30 -13t13 -31z" />
    <glyph glyph-name="thorn" unicode="&#xfe;" horiz-adv-x="438" 
d="M402 179q0 -84 -49.5 -136t-127.5 -52q-67 0 -111 41v-166h-59v610h59v-169q50 47 121 47q73 0 120 -49.5t47 -125.5zM344 178q0 54 -32 89t-83 35q-47 0 -81 -29.5t-34 -76.5v-57q0 -38 34.5 -65.5t79.5 -27.5q52 0 84 35t32 97z" />
    <glyph glyph-name="ydieresis" unicode="&#xff;" horiz-adv-x="361" 
d="M32 -151l-16 52q89 20 131 124l-151 315h69l118 -252l112 252h69l-156 -333q-63 -133 -176 -158zM150 425q0 -19 -13 -31.5t-30 -12.5q-18 0 -31 12.5t-13 31.5q0 18 13 31t31 13q17 0 30 -13t13 -31zM298 425q0 -19 -13 -31.5t-30 -12.5t-30.5 12.5t-13.5 31.5
q0 18 13.5 31t30.5 13t30 -13t13 -31z" />
    <glyph glyph-name="dotlessi" unicode="&#x131;" horiz-adv-x="163" 
d="M113 0h-63v340h63v-340z" />
    <glyph glyph-name="Lslash" unicode="&#x141;" horiz-adv-x="359" 
d="M346 0h-296v149l-29 -7v62l29 7v265h63v-250l225 53v-62l-225 -53v-110h233v-54z" />
    <glyph glyph-name="lslash" unicode="&#x142;" horiz-adv-x="217" 
d="M207 49l-7 -57q-149 8 -149 183v61l-43 -12v54l43 12v214h63v-195l93 28v-54l-93 -28v-66q0 -77 24 -109q21 -27 69 -31z" />
    <glyph glyph-name="OE" unicode="&#x152;" horiz-adv-x="723" 
d="M698 0h-283v27q-60 -37 -136 -37q-111 0 -182 71t-71 177q0 105 71 176.5t182 71.5q76 0 136 -38v28h283v-54h-220v-144h196v-54h-196v-170h220v-54zM415 104v265q-51 62 -136 62q-76 0 -133 -58.5t-57 -134.5q0 -78 56.5 -136t133.5 -58q85 0 136 60z" />
    <glyph glyph-name="oe" unicode="&#x153;" horiz-adv-x="689" 
d="M642 73l7 -55q-73 -27 -139 -27q-101 0 -157 74q-53 -73 -147 -73q-78 0 -129 52t-51 128t51 128.5t129 52.5q97 0 148 -77q60 77 152 77q154 0 157 -193h-277q4 -53 38.5 -83t89.5 -30t128 26zM324 172q0 54 -33 90.5t-85 36.5t-85 -36.5t-33 -90.5t33 -90.5t85 -36.5
t85 36.5t33 90.5zM390 213h211q-5 40 -32.5 64t-68.5 24q-40 0 -71.5 -24.5t-38.5 -63.5z" />
    <glyph glyph-name="Scaron" unicode="&#x160;" horiz-adv-x="365" 
d="M339 130q0 -62 -49.5 -100.5t-123.5 -38.5q-79 0 -147 43l27 57q57 -43 124 -43q49 0 77 21.5t28 57.5q0 60 -96 91q-141 45 -141 138q0 56 44.5 92.5t115.5 36.5t123 -32l-27 -50q-50 25 -97 25q-43 0 -69.5 -19.5t-26.5 -47.5q0 -55 96 -86q78 -25 110 -58t32 -87z
M199 521h-35l-77 115h54l41 -71l40 71h55z" />
    <glyph glyph-name="scaron" unicode="&#x161;" horiz-adv-x="296" 
d="M271 97q0 -47 -36.5 -76.5t-98.5 -29.5q-51 0 -110 33l25 50q41 -28 88 -28q70 0 70 48q0 37 -68 58q-100 31 -100 95q0 43 33.5 72.5t90.5 29.5q58 0 98 -29l-23 -46q-35 26 -79 26q-26 0 -43.5 -13.5t-17.5 -34.5q0 -26 73 -51q98 -34 98 -104zM171 385h-35l-77 115h54
l41 -71l40 71h55z" />
    <glyph glyph-name="Ydieresis" unicode="&#x178;" horiz-adv-x="396" 
d="M230 0h-62v208l-174 268h73l132 -214l131 214h72l-172 -267v-209zM167 561q0 -19 -13 -31.5t-30 -12.5q-18 0 -31 12.5t-13 31.5q0 18 13 31t31 13q17 0 30 -13t13 -31zM315 561q0 -19 -13 -31.5t-30 -12.5t-30.5 12.5t-13.5 31.5q0 18 13.5 31t30.5 13t30 -13t13 -31z
" />
    <glyph glyph-name="Zcaron" unicode="&#x17d;" horiz-adv-x="451" 
d="M426 0h-399v40l309 382h-293l11 54h369v-41l-309 -381h324zM242 521h-35l-77 115h54l41 -71l40 71h55z" />
    <glyph glyph-name="zcaron" unicode="&#x17e;" horiz-adv-x="358" 
d="M330 0h-310v38l226 249h-216l12 53h290v-41l-225 -246h232zM196 385h-35l-77 115h54l41 -71l40 71h55z" />
    <glyph glyph-name="florin" unicode="&#x192;" horiz-adv-x="404" 
d="M327 254h-94l-35 -161q-35 -162 -160 -162q-39 0 -65 25l26 44q24 -14 49 -14q65 0 90 112l34 156h-54l10 52h56l3 16q20 78 60 120t100 42q39 0 65 -25l-26 -44q-24 14 -49 14q-66 0 -90 -112l-3 -11h93z" />
    <glyph glyph-name="circumflex" unicode="&#x2c6;" horiz-adv-x="218" 
d="M204 385h-54l-41 71l-40 -71h-55l78 115h35z" />
    <glyph glyph-name="caron" unicode="&#x2c7;" horiz-adv-x="308" 
d="M171 385h-35l-77 115h54l41 -71l40 71h55z" />
    <glyph glyph-name="breve" unicode="&#x2d8;" horiz-adv-x="342" 
d="M289 491q-10 -57 -40 -84.5t-78 -27.5t-78 27.5t-40 84.5h54q5 -25 20.5 -44.5t43.5 -19.5t44 19.5t21 44.5h53z" />
    <glyph glyph-name="dotaccent" unicode="&#x2d9;" horiz-adv-x="193" 
d="M140 545q0 -19 -13 -31.5t-30 -12.5t-30.5 12.5t-13.5 31.5q0 18 13.5 31t30.5 13t30 -13t13 -31z" />
    <glyph glyph-name="ring" unicode="&#x2da;" horiz-adv-x="266" 
d="M213 464q0 -33 -23.5 -56.5t-56.5 -23.5t-56.5 23.5t-23.5 56.5t23.5 56.5t56.5 23.5t56.5 -23.5t23.5 -56.5zM171 464q0 16 -11 27t-27 11t-27.5 -11t-11.5 -27t11.5 -27.5t27.5 -11.5t27 11.5t11 27.5z" />
    <glyph glyph-name="ogonek" unicode="&#x2db;" horiz-adv-x="255" 
d="M202 -136q-41 -17 -73 -17q-39 0 -57.5 23t-18.5 54q0 19 5.5 43t13.5 52h59q-21 -53 -21 -81q0 -32 28 -35q11 0 28.5 5.5t35.5 13.5v-58z" />
    <glyph glyph-name="tilde" unicode="&#x2dc;" horiz-adv-x="259" 
d="M228 443q-1 -35 -15.5 -55.5t-43.5 -20.5q-8 0 -19.5 4.5t-24 10l-23.5 10t-18 4.5q-8 0 -10 -7.5t-2 -16.5h-44q0 30 14.5 50.5t41.5 20.5q9 0 20.5 -4t22.5 -9.5t21.5 -9.5t17.5 -4q19 0 19 27h43z" />
    <glyph glyph-name="hungarumlaut" unicode="&#x2dd;" horiz-adv-x="359" 
d="M221 320h-42l63 171h64zM95 320h-42l63 171h63z" />
    <glyph glyph-name="uni0E00" unicode="&#xe00;" 
 />
    <glyph glyph-name="uni0E01" unicode="&#xe01;" horiz-adv-x="391" 
d="M340 0h-62v265q0 41 -25 65t-66 24q-60 0 -91 -51q47 -9 67 -45q-51 -30 -51 -72v-186h-62v190q0 42 41 66q-25 17 -61 12q2 62 48 102q42 37 107 37q72 0 113.5 -38.5t41.5 -104.5v-264z" />
    <glyph glyph-name="uni0E02" unicode="&#xe02;" horiz-adv-x="415" 
d="M364 94q0 -49 -30.5 -75.5t-80.5 -26.5t-80.5 26.5t-30.5 75.5v65q0 29 26.5 77.5t26.5 76.5q0 23 -16 38t-37 15q-32 0 -43 -13q30 -1 48.5 -19t18.5 -46q0 -30 -21 -50.5t-50 -20.5q-34 0 -54.5 24.5t-20.5 59.5q0 46 36.5 76t84.5 30q50 0 81.5 -24t31.5 -70
q0 -30 -25 -84t-25 -76v-73q0 -17 15.5 -26t33.5 -9q19 0 34 9.5t15 25.5v319h62v-305zM126 286q0 13 -9 22t-22 9t-22 -9t-9 -22t9 -22t22 -9t22 9t9 22z" />
    <glyph glyph-name="uni0E03" unicode="&#xe03;" horiz-adv-x="431" 
d="M380 94q0 -49 -30.5 -75.5t-80.5 -26.5t-80.5 26.5t-30.5 75.5v45q0 32 33.5 84.5t33.5 82.5q-5 38 -32 53l-37 -38l-44 40q-10 -6 -21.5 -21.5t-12.5 -27.5q15 3 21 3q30 0 51 -21t21 -51t-20.5 -51t-51.5 -21q-35 0 -57 29t-22 63q0 53 28.5 96.5t73.5 47.5l33 -34
l31 35q90 -20 90 -106q0 -31 -28 -79t-28 -76v-67q0 -17 15.5 -26t33.5 -9q19 0 34 9.5t15 25.5v319h62v-305zM130 243q0 13 -9 22t-22 9t-22 -9t-9 -22t9 -22t22 -9t22 9t9 22z" />
    <glyph glyph-name="uni0E04" unicode="&#xe04;" horiz-adv-x="403" 
d="M352 0h-62v273q0 36 -31 60q-29 21 -67 21q-45 0 -72 -30.5t-27 -70.5q0 -11 4.5 -36.5t4.5 -44.5v-28q0 1 3.5 21.5t4.5 31.5q10 42 31 70q26 36 60 36q27 0 47 -19t20 -46q0 -26 -20 -45.5t-47 -19.5q-25 0 -45 18q-30 -91 -30 -191h-62v64q0 47 -16.5 102.5
t-16.5 87.5q0 69 50 112q47 41 116 41q63 0 106 -33q49 -38 49 -103v-271zM231 238q0 13 -9 22t-22 9t-21.5 -9t-8.5 -22t8.5 -21.5t21.5 -8.5t22 8.5t9 21.5z" />
    <glyph glyph-name="uni0E05" unicode="&#xe05;" horiz-adv-x="403" 
d="M352 0h-62v273q0 61 -27 80l-62 -39l-69 39q-39 -27 -39 -91q0 -19 5.5 -53.5t6.5 -67.5v-9q0 2 2.5 15.5t4.5 28.5q7 42 27 70q25 36 62 36q27 0 46.5 -19t19.5 -46t-19.5 -46t-46.5 -19q-25 0 -45 17q-30 -89 -30 -169h-62v64q0 49 -16.5 107.5t-16.5 87.5
q0 53 26.5 93.5t76.5 57.5l67 -39l71 39q80 -33 80 -121v-289zM231 216q0 13 -9 22t-22 9t-21.5 -9t-8.5 -22t8.5 -21.5t21.5 -8.5t22 8.5t9 21.5z" />
    <glyph glyph-name="uni0E06" unicode="&#xe06;" horiz-adv-x="453" 
d="M402 0h-57q-59 61 -110 78v-10q0 -32 -24 -54t-57 -22t-56.5 23.5t-23.5 57.5q0 33 23.5 56.5t56.5 23.5q7 0 12 -1q0 28 31 76q29 45 29 75q0 39 -32 57l-35 -38l-43 39q-11 -5 -22 -21t-13 -29q8 3 21 3q30 0 51.5 -21t21.5 -50q0 -30 -21.5 -51t-51.5 -21
q-35 0 -56.5 26t-21.5 69q0 52 29 95.5t71 45.5l33 -34l32 35q90 -22 90 -100q0 -35 -28 -84.5t-28 -76.5v-15q59 -21 117 -66v333h62v-399zM187 72q0 14 -9.5 23.5t-23.5 9.5q-13 0 -23 -9.5t-10 -23.5q0 -13 10 -23t23 -10q14 0 23.5 10t9.5 23zM134 243q0 13 -9 22t-22 9
t-22 -9t-9 -22t9 -22t22 -9t22 9t9 22z" />
    <glyph glyph-name="uni0E07" unicode="&#xe07;" horiz-adv-x="318" 
d="M267 0h-61l-187 211l37 43l149 -168v172q-3 -1 -19 -1q-31 0 -52.5 20.5t-21.5 52.5t22 54.5t52 22.5q35 0 58 -22.5t23 -58.5v-326zM220 332q0 14 -10 24t-24 10t-24 -10t-10 -24t10 -24t24 -10t24 10t10 24z" />
    <glyph glyph-name="uni0E08" unicode="&#xe08;" horiz-adv-x="390" 
d="M339 70q0 -37 -24 -57.5t-62 -20.5q-73 0 -85 65l-15 79q-11 -4 -25 -4q-29 0 -50 21t-21 50t21 50t50 21q26 0 46 -16.5t25 -41.5l28 -153q3 -18 25 -18q25 0 25 20v225q0 33 -31 50q-26 14 -64 14q-86 0 -103 -49h-60q13 101 158 102q67 0 110 -25q52 -32 52 -96v-216z
M159 203q0 13 -9 22t-22 9t-22 -9t-9 -22t9 -22t22 -9t22 9t9 22z" />
    <glyph glyph-name="uni0E09" unicode="&#xe09;" horiz-adv-x="405" 
d="M371 68q0 -32 -22 -54t-54 -22q-29 0 -51 19.5t-24 48.5q-35 -13 -70 -60h-57v78q0 28 10 38q-10 0 -14 1q-55 12 -55 67q0 29 20.5 49t49.5 20t49 -20t20 -49q0 -14 -9 -37.5t-9 -38.5v-42q16 16 60 40.5t62 43.5q15 20 15 47v92q0 33 -32 51q-27 14 -66 14
q-42 0 -71 -16q-35 -19 -38 -56h-60q15 125 168 125q66 0 109 -26q52 -32 52 -96v-95q0 -38 -22 -56q39 -22 39 -66zM133 184q0 13 -8.5 21.5t-21.5 8.5t-21.5 -8.5t-8.5 -21.5t8.5 -21.5t21.5 -8.5t21.5 8.5t8.5 21.5zM327 67q0 13 -9 22t-22 9t-22 -9t-9 -22t9 -22t22 -9
t22 9t9 22z" />
    <glyph glyph-name="uni0E0A" unicode="&#xe0a;" horiz-adv-x="415" 
d="M364 94q0 -49 -30.5 -75.5t-80.5 -26.5t-80.5 26.5t-30.5 75.5v65q0 29 26.5 77.5t26.5 76.5q0 23 -16 38t-37 15q-32 0 -43 -13q30 -1 48.5 -19t18.5 -46q0 -30 -21 -50.5t-50 -20.5q-34 0 -54.5 24.5t-20.5 59.5q0 46 36.5 76t84.5 30q50 0 81.5 -24t31.5 -70
q0 -30 -25 -84t-25 -76v-73q0 -17 15.5 -26t33.5 -9q19 0 34 9.5t15 25.5v165q0 37 -29 46q4 18 1 35q51 19 51 96h62q-7 -77 -53 -113q30 -24 30 -63v-152zM126 286q0 13 -9 22t-22 9t-22 -9t-9 -22t9 -22t22 -9t22 9t9 22z" />
    <glyph glyph-name="uni0E0B" unicode="&#xe0b;" horiz-adv-x="431" 
d="M380 94q0 -49 -30.5 -75.5t-80.5 -26.5t-80.5 26.5t-30.5 75.5v45q0 32 33.5 84.5t33.5 82.5q-5 38 -32 53l-37 -38l-44 40q-10 -6 -21.5 -21.5t-12.5 -27.5q15 3 21 3q30 0 51 -21t21 -51t-20.5 -51t-51.5 -21q-35 0 -57 29t-22 63q0 53 28.5 96.5t73.5 47.5l33 -34
l31 35q90 -20 90 -106q0 -31 -28 -79t-28 -76v-67q0 -17 15.5 -26t33.5 -9q19 0 34 9.5t15 25.5v165q0 37 -29 46q4 18 1 35q51 19 51 96h62q-7 -77 -53 -113q30 -24 30 -63v-152zM130 243q0 13 -9 22t-22 9t-22 -9t-9 -22t9 -22t22 -9t22 9t9 22z" />
    <glyph glyph-name="uni0E0C" unicode="&#xe0c;" horiz-adv-x="565" 
d="M514 0h-55q-23 49 -82 78q2 -14 2 -17q0 -32 -22.5 -50.5t-51.5 -18.5q-31 0 -53.5 22t-22.5 54q0 46 40 69v128q0 39 -24.5 63.5t-60.5 24.5q-61 0 -87 -50q46 -9 66 -45q-51 -28 -51 -72v-43q32 0 54 -22t22 -54q0 -31 -22 -53t-54 -22q-31 0 -53 22t-22 53q0 26 13 43
v80q0 42 41 66q-25 17 -61 12q2 62 46 102q41 37 105 37q67 0 108.5 -38t41.5 -105v-122q79 -25 121 -70v327h62v-399zM145 67q0 14 -10 24t-24 10t-24 -10t-10 -24t10 -24t24 -10t24 10t10 24zM339 67q0 14 -10 24t-24 10t-24 -10t-10 -24t10 -24t24 -10t24 10t10 24z" />
    <glyph glyph-name="uni0E0D" unicode="&#xe0d;" horiz-adv-x="565" 
d="M520 -40q0 -74 -33 -118q-37 -49 -113 -49q-49 0 -84 25q-40 29 -40 76q0 30 20.5 50.5t50.5 20.5q29 0 48.5 -21t19.5 -51q0 -39 -31 -50q14 -2 19 -2q84 0 89 119h54zM514 94q0 -50 -39 -78q-34 -24 -85 -24q-52 0 -84 24q-37 27 -37 78v171q0 39 -24.5 63.5
t-60.5 24.5q-61 0 -87 -50q43 -8 66 -45q-51 -28 -51 -72v-47q7 4 19 4q31 0 52.5 -21.5t21.5 -53.5t-22 -54t-54 -22q-33 0 -56 23t-23 58v117q0 42 41 66q-25 17 -61 12q2 62 46 102q41 37 105 37q67 0 108.5 -38t41.5 -105v-179q0 -21 18 -30.5t42 -9.5q23 0 42 9.5
t19 30.5v314h62v-305zM352 -105q0 13 -9 22t-23 9t-22.5 -9t-8.5 -22t8.5 -22.5t22.5 -9.5t23 9.5t9 22.5zM165 67q0 14 -10 24t-24 10t-24 -10t-10 -24t10 -24t24 -10t24 10t10 24z" />
    <glyph glyph-name="uni0E0E" unicode="&#xe0e;" horiz-adv-x="425" 
d="M374 -230h-63q-13 53 -92 84q-7 -88 -78 -88q-33 0 -56.5 21t-23.5 53q0 71 94 71q14 0 23 -1q5 19 11 28q10 16 31 29l41 -22q-31 -17 -37 -45q57 -20 88 -50v415q0 40 -26.5 64.5t-66.5 24.5q-61 0 -89 -51q49 -10 67 -45q-27 -15 -36 -25q-13 -16 -13 -43
q0 -22 5 -63.5t5 -58.5q0 -32 -21.5 -54t-52.5 -22q-32 0 -54 22t-22 54q0 31 22 53t52 22q12 0 15 -3l-6 62q0 35 34 54q-27 17 -61 12q1 62 46 102q43 37 108 37q70 0 113 -39t43 -104v-494zM173 -135q-9 3 -24 3q-41 0 -42 -24q-1 -32 32 -32q19 2 27 15t7 38zM118 68
q0 14 -10 24t-24 10t-24 -10t-10 -24t10 -24t24 -10t24 10t10 24z" />
    <glyph glyph-name="uni0E0F" unicode="&#xe0f;" horiz-adv-x="425" 
d="M126 -137q-10 5 -28 5q-32 0 -32 -27q0 -25 26 -25q34 0 34 47zM118 68q0 14 -10 24t-24 10t-24 -10t-10 -24t10 -24t24 -10t24 10t10 24zM374 -231h-56l-52 68l-49 -68l-46 63q-4 -28 -26 -47.5t-48 -19.5q-33 0 -55 21.5t-22 53.5q0 74 85 74q19 0 27 -3q12 37 52 58
l35 -42q-37 -10 -41 -41l39 -48l48 61l47 -54v420q0 40 -26.5 64.5t-66.5 24.5q-61 0 -89 -51q49 -10 67 -45q-27 -15 -36 -25q-13 -16 -13 -43q0 -22 5 -63.5t5 -58.5q0 -32 -21.5 -54t-52.5 -22q-32 0 -54 22t-22 54q0 31 22 53t52 22q12 0 15 -3l-6 62q0 35 34 54
q-27 17 -61 12q1 62 46 102q43 37 108 37q70 0 113 -39t43 -104v-495z" />
    <glyph glyph-name="uni0E10" unicode="&#xe10;" horiz-adv-x="372" 
d="M86 -137q-13 5 -23 5q-38 0 -38 -26q0 -25 26 -25q35 0 35 46zM314 -163q0 -67 -67 -67h-82l-44 60q-2 -24 -21 -41t-43 -17q-33 0 -52 20t-19 51t21 50.5t56 19.5q20 0 28 -5q3 33 36 51l31 -18q-30 -14 -30 -56l49 -66h52q32 0 32 17v13h-12q-27 0 -45.5 16.5
t-18.5 40.5q0 23 18.5 40t45.5 17q26 0 45.5 -17t19.5 -40v-69zM314 83q0 -91 -95 -91q-92 0 -92 86v33q-8 -2 -14 -2q-29 0 -48 19.5t-19 47.5q0 29 21.5 48t48.5 19q30 0 51.5 -18.5t21.5 -47.5v-97q0 -36 31 -36q32 0 32 36v144q0 21 -94 42q-81 17 -124 17q6 64 47 97
q34 27 84 27q19 0 56.5 -10t58.5 -10q15 0 19 24l51 -13q-18 -69 -73 -69q-19 0 -55.5 12.5t-56.5 12.5q-15 0 -34.5 -8t-25.5 -19q115 -19 170 -44q39 -18 39 -53v-147zM142 176q0 12 -8.5 20.5t-20.5 8.5t-20.5 -8.5t-8.5 -20.5t8.5 -20.5t20.5 -8.5t20.5 8.5t8.5 20.5z
M270 -94q0 9 -6.5 15t-16.5 6t-16 -6t-6 -15t6 -15.5t16 -6.5t16.5 6.5t6.5 15.5z" />
    <glyph glyph-name="uni0E11" unicode="&#xe11;" horiz-adv-x="492" 
d="M441 0h-62v321q0 27 -16 27q-14 0 -19 -14l-117 -334h-70v107q0 40 26.5 105.5t26.5 100.5q0 34 -20 47l-37 -39l-42 40q-10 -5 -21.5 -21t-13.5 -28q7 3 22 3q30 0 51 -21.5t21 -50.5q0 -30 -21 -51t-51 -21q-33 0 -55.5 28t-22.5 68q0 52 28 94t72 46l33 -34l32 35
q74 -16 74 -96q0 -32 -22.5 -92.5t-22.5 -99.5q-8 -48 -8 -57l99 284q21 60 66 60q70 0 70 -84v-323zM130 243q0 13 -9 22t-22 9t-22 -9t-9 -22t9 -22t22 -9t22 9t9 22z" />
    <glyph glyph-name="uni0E12" unicode="&#xe12;" horiz-adv-x="551" 
d="M500 0h-58q-25 43 -63 65q0 -31 -20.5 -52t-55.5 -21q-32 0 -53 22.5t-21 55.5q0 23 15.5 43t37.5 26v123q0 68 -30 91l-61 -44l-56 44q-43 -22 -43 -98q0 -15 14.5 -65.5t14.5 -75.5q0 -15 -5 -28q22 50 66 77q-27 2 -42.5 21t-15.5 43q0 27 19 45.5t46 18.5
q26 0 45.5 -19t19.5 -45q0 -49 -59.5 -115.5t-59.5 -111.5h-65q1 28 1 64q0 58 -12 88q-28 70 -28 102q0 56 27.5 98t79.5 56l53 -45l49 45q104 -15 104 -144v-133q20 -6 51.5 -24t42.5 -31v323h62v-399zM220 227q0 13 -9 22t-22 9t-22 -9t-9 -22t9 -22t22 -9t22 9t9 22z
M335 67q0 14 -9 23t-23 9t-22.5 -9t-8.5 -23t8.5 -22.5t22.5 -8.5t23 8.5t9 22.5z" />
    <glyph glyph-name="uni0E13" unicode="&#xe13;" horiz-adv-x="576" 
d="M543 68q0 -31 -20 -53.5t-53 -22.5q-29 0 -51 18.5t-27 46.5q-27 -18 -60 -57h-63v265q0 39 -24.5 63.5t-60.5 24.5q-61 0 -87 -50q39 -3 66 -45q-51 -28 -51 -72v-47q7 4 19 4q31 0 52.5 -21.5t21.5 -53.5t-22 -54t-54 -22q-33 0 -56 23t-23 58v117q0 42 41 66
q-25 17 -61 12q2 62 46 102q41 37 105 37q67 0 108.5 -37.5t41.5 -104.5v-202q15 18 54 49q54 42 64 51q14 18 14 47v189h62v-210q0 -39 -21 -55q39 -22 39 -66zM502 69q0 14 -10 24t-24 10t-24 -10t-10 -24t10 -24t24 -10t24 10t10 24zM165 67q0 14 -10 24t-24 10t-24 -10
t-10 -24t10 -24t24 -10t24 10t10 24z" />
    <glyph glyph-name="uni0E14" unicode="&#xe14;" horiz-adv-x="405" 
d="M354 0h-62v268q0 38 -28.5 62t-67.5 24q-42 0 -73 -28.5t-31 -68.5q0 -25 16.5 -71t16.5 -69q0 -7 -2 -19q29 47 65 79q-28 2 -44 22q-15 17 -15 42q0 26 19.5 45.5t46.5 19.5t46 -19.5t19 -45.5q0 -45 -44 -100q-61 -75 -69 -90q-15 -26 -15 -51h-63q1 37 1 68
q0 54 -12 83l-18 53.5t-9 48.5q0 68 47.5 111t115.5 43q69 0 113 -36q47 -39 47 -107v-264zM225 241q0 13 -8.5 21.5t-21.5 8.5t-21.5 -8.5t-8.5 -21.5t8.5 -21.5t21.5 -8.5t21.5 8.5t8.5 21.5z" />
    <glyph glyph-name="uni0E15" unicode="&#xe15;" horiz-adv-x="405" 
d="M354 0h-62v262q0 64 -35 92l-62 -45l-61 45q-42 -21 -42 -95q0 -24 14.5 -71t14.5 -70q0 -16 -6 -33q6 14 29 39t44 38q-27 2 -42.5 21t-15.5 42q0 27 18.5 46t45.5 19t46 -19t19 -46q0 -43 -45 -91q-60 -64 -70 -83q-15 -29 -15 -51h-63q2 38 2 77q0 40 -12 74
q-25 72 -25 108q0 55 27.5 95t78.5 54l57 -43l53 43q107 -16 107 -144v-264zM224 226q0 13 -8.5 21.5t-21.5 8.5t-21.5 -8.5t-8.5 -21.5t8.5 -21.5t21.5 -8.5t21.5 8.5t8.5 21.5z" />
    <glyph glyph-name="uni0E16" unicode="&#xe16;" horiz-adv-x="391" 
d="M340 0h-62v265q0 41 -25 65t-66 24q-60 0 -91 -51q47 -9 67 -45q-51 -30 -51 -72v-47q7 4 19 4q31 0 52.5 -21.5t21.5 -53.5t-22 -54t-54 -22q-33 0 -56 23t-23 58v117q0 42 41 66q-25 17 -61 12q2 62 48 102q42 37 107 37q72 0 113.5 -38.5t41.5 -104.5v-264zM165 67
q0 14 -10 24t-24 10t-24 -10t-10 -24t10 -24t24 -10t24 10t10 24z" />
    <glyph glyph-name="uni0E17" unicode="&#xe17;" horiz-adv-x="438" 
d="M387 0h-62v323q0 31 -15 31q-13 0 -18 -15l-119 -339h-70v257q-10 -2 -17 -2q-32 0 -54 22.5t-22 54.5q0 31 22 53t54 22q34 0 56.5 -23t22.5 -58v-149q0 -34 -12 -106q11 44 28 98l56 178q19 61 75 60q75 -1 75 -85v-322zM120 331q0 14 -10 24t-24 10t-24 -10t-10 -24
t10 -24t24 -10t24 10t10 24z" />
    <glyph glyph-name="uni0E18" unicode="&#xe18;" horiz-adv-x="358" 
d="M300 85q0 -93 -125 -93q-124 0 -124 93v131h62v-135q0 -36 63 -36q62 0 62 36v132q0 23 -78 40.5t-135 28.5q6 64 31 93q29 32 91 32q22 0 62 -9.5t56 -9.5q17 0 19 22l49 -13q-11 -33 -26 -47.5t-46 -14.5q-18 0 -55 10t-57 10q-54 0 -58 -33q98 -21 153.5 -40t55.5 -65
v-132z" />
    <glyph glyph-name="uni0E19" unicode="&#xe19;" horiz-adv-x="433" 
d="M382 189q0 -40 -21 -55q39 -22 39 -67q0 -32 -22 -53.5t-53 -21.5q-29 0 -50 18.5t-25 46.5q-32 -16 -46 -24q-24 -15 -38 -33h-63v257q-10 -2 -17 -2q-32 0 -54 22.5t-22 54.5q0 31 22 53t54 22q34 0 56.5 -23t22.5 -58v-254q16 12 72 35q50 21 69 42q14 15 14 48v202
h62v-210zM120 331q0 14 -10 24t-24 10t-24 -10t-10 -24t10 -24t24 -10t24 10t10 24zM358 67q0 14 -10 24t-24 10t-24 -10t-10 -24t10 -24t24 -10t24 10t10 24z" />
    <glyph glyph-name="uni0E1A" unicode="&#xe1a;" horiz-adv-x="445" 
d="M394 90q0 -98 -145 -98q-146 0 -146 98v167q-10 -2 -17 -2q-32 0 -54 22.5t-22 54.5q0 31 22 53t54 22q34 0 56.5 -23t22.5 -58v-237q0 -20 27 -32t57 -12q29 0 56 12t27 32v310h62v-309zM120 331q0 14 -10 24t-24 10t-24 -10t-10 -24t10 -24t24 -10t24 10t10 24z" />
    <glyph glyph-name="uni0E1B" unicode="&#xe1b;" horiz-adv-x="445" 
d="M394 90q0 -98 -145 -98q-146 0 -146 98v167q-10 -2 -17 -2q-32 0 -54 22.5t-22 54.5q0 31 22 53t54 22q34 0 56.5 -23t22.5 -58v-237q0 -20 27 -32t57 -12q29 0 56 12t27 32v470h62v-469zM120 331q0 14 -10 24t-24 10t-24 -10t-10 -24t10 -24t24 -10t24 10t10 24z" />
    <glyph glyph-name="uni0E1C" unicode="&#xe1c;" horiz-adv-x="414" 
d="M363 0h-62l-100 160l-100 -160h-61v326q0 35 23.5 58t56.5 23q32 0 54 -22.5t22 -53.5q0 -32 -22 -54t-54 -22q-14 0 -18 1v-171l79 123h40l80 -124v315h62v-399zM154 331q0 14 -10 24t-24 10t-24 -10t-10 -24t10 -24t24 -10t24 10t10 24z" />
    <glyph glyph-name="uni0E1D" unicode="&#xe1d;" horiz-adv-x="414" 
d="M363 0h-62l-100 160l-100 -160h-61v326q0 35 23.5 58t56.5 23q32 0 54 -22.5t22 -53.5q0 -32 -22 -54t-54 -22q-14 0 -18 1v-171l79 123h40l80 -124v475h62v-559zM154 331q0 14 -10 24t-24 10t-24 -10t-10 -24t10 -24t24 -10t24 10t10 24z" />
    <glyph glyph-name="uni0E1E" unicode="&#xe1e;" horiz-adv-x="482" 
d="M431 0h-70l-94 310l-97 -310h-67v257q-10 -2 -17 -2q-32 0 -54 22.5t-22 54.5q0 31 22 53t54 22q34 0 56.5 -23t22.5 -58v-149q0 -26 -12 -106q22 91 25 98l70 213h38l70 -213q2 -6 25 -98q-12 80 -12 106v222h62v-399zM120 331q0 14 -10 24t-24 10t-24 -10t-10 -24
t10 -24t24 -10t24 10t10 24z" />
    <glyph glyph-name="uni0E1F" unicode="&#xe1f;" horiz-adv-x="482" 
d="M431 0h-70l-94 310l-97 -310h-67v257q-10 -2 -17 -2q-32 0 -54 22.5t-22 54.5q0 31 22 53t54 22q34 0 56.5 -23t22.5 -58v-149q0 -26 -12 -106q22 91 25 98l70 213h38l70 -213q2 -6 25 -98q-12 80 -12 106v382h62v-559zM120 331q0 14 -10 24t-24 10t-24 -10t-10 -24
t10 -24t24 -10t24 10t10 24z" />
    <glyph glyph-name="uni0E20" unicode="&#xe20;" horiz-adv-x="425" 
d="M118 68q0 14 -10 24t-24 10t-24 -10t-10 -24t10 -24t24 -10t24 10t10 24zM374 0h-62v265q0 40 -26.5 64.5t-66.5 24.5q-61 0 -89 -51q49 -10 67 -45q-27 -15 -36 -25q-13 -16 -13 -43q0 -22 5 -63.5t5 -58.5q0 -32 -21.5 -54t-52.5 -22q-32 0 -54 22t-22 54q0 31 22 53
t52 22q12 0 15 -3l-6 62q0 35 34 54q-27 17 -61 12q1 62 46 102q43 37 108 37q70 0 113 -39t43 -104v-264z" />
    <glyph glyph-name="uni0E21" unicode="&#xe21;" horiz-adv-x="417" 
d="M366 0h-62q-58 52 -117 73v-5q0 -32 -24.5 -54t-55.5 -22q-33 0 -57 24t-24 57t24 56.5t57 23.5h7v104q-10 -2 -17 -2q-32 0 -54 22.5t-22 54.5q0 31 22 53t54 22q34 0 56.5 -23t22.5 -58v-190q79 -27 128 -71v334h62v-399zM131 331q0 14 -10 24t-24 10t-24 -10t-10 -24
t10 -24t24 -10t24 10t10 24zM141 73q0 14 -10 24t-24 10t-24 -10t-10 -24t10 -24t24 -10t24 10t10 24z" />
    <glyph glyph-name="uni0E22" unicode="&#xe22;" horiz-adv-x="386" 
d="M335 101q0 -109 -148 -109q-147 0 -147 109v46q0 48 41 68q-46 31 -46 91q0 44 24.5 72.5t67.5 28.5q30 0 51 -18.5t21 -48.5q0 -27 -19 -47t-50 -20q-16 0 -28 5q8 -38 36 -38h71v-49h-71q-16 0 -26 -14t-10 -32v-46q0 -54 85 -54q86 0 86 54v300h62v-298zM162 339
q0 14 -9 23t-23 9t-23 -9t-9 -23t9 -23t23 -9t23 9t9 23z" />
    <glyph glyph-name="uni0E23" unicode="&#xe23;" horiz-adv-x="329" 
d="M271 67q0 -32 -22.5 -53.5t-54.5 -21.5t-54.5 22t-22.5 54t22.5 54t54.5 22q12 0 15 -1v86q0 16 -66.5 31.5t-120.5 24.5q2 55 29 88.5t78 33.5q21 0 57.5 -9.5t52.5 -9.5q17 0 19 22l49 -13q-18 -61 -66 -61q-18 0 -51.5 9t-50.5 9q-44 0 -50 -34q77 -16 129.5 -34
t52.5 -62v-157zM228 68q0 14 -10 24t-24 10t-24 -10t-10 -24t10 -24t24 -10t24 10t10 24z" />
    <glyph glyph-name="uni0E24" unicode="&#xe24;" horiz-adv-x="391" 
d="M340 -140h-62v405q0 41 -25 65t-66 24q-60 0 -91 -51q47 -9 67 -45q-51 -30 -51 -72v-47q7 4 19 4q31 0 52.5 -21.5t21.5 -53.5t-22 -54t-54 -22q-33 0 -56 23t-23 58v117q0 42 41 66q-25 17 -61 12q2 62 48 102q42 37 107 37q72 0 113.5 -38.5t41.5 -104.5v-404zM165 67
q0 14 -10 24t-24 10t-24 -10t-10 -24t10 -24t24 -10t24 10t10 24z" />
    <glyph glyph-name="uni0E25" unicode="&#xe25;" horiz-adv-x="399" 
d="M348 0h-62v173q0 30 -34 46q-26 12 -58 12q-31 0 -53 -15q-27 -18 -27 -48v-25q8 2 18 2q32 0 55 -22.5t23 -53.5q0 -32 -24 -54t-55 -22q-33 0 -56 21.5t-23 54.5v92q0 59 44 92q39 29 97 29q62 0 93 -34v45q0 31 -36 48q-28 13 -63 13q-39 0 -67 -18q-31 -20 -37 -54
h-60q6 61 53 94q44 31 113 31q62 0 107 -29q52 -33 52 -92v-286zM166 69q0 14 -10 24t-24 10t-24 -10t-10 -24t10 -24t24 -10t24 10t10 24z" />
    <glyph glyph-name="uni0E26" unicode="&#xe26;" horiz-adv-x="425" 
d="M118 68q0 14 -10 24t-24 10t-24 -10t-10 -24t10 -24t24 -10t24 10t10 24zM374 -140h-62v405q0 40 -26.5 64.5t-66.5 24.5q-61 0 -89 -51q49 -10 67 -45q-27 -15 -36 -25q-13 -16 -13 -43q0 -22 5 -63.5t5 -58.5q0 -32 -21.5 -54t-52.5 -22q-32 0 -54 22t-22 54
q0 31 22 53t52 22q12 0 15 -3l-6 62q0 35 34 54q-27 17 -61 12q1 62 46 102q43 37 108 37q70 0 113 -39t43 -104v-404z" />
    <glyph glyph-name="uni0E27" unicode="&#xe27;" horiz-adv-x="379" 
d="M328 73q0 -35 -23 -57.5t-57 -22.5q-32 0 -54 22t-22 53q0 32 22 54t54 22q11 0 18 -1v147q0 64 -92 64q-38 0 -64.5 -23.5t-26.5 -62.5h-60q3 66 43.5 102.5t107.5 36.5q66 0 106 -26q48 -31 48 -95v-213zM282 69q0 14 -10 24t-24 10t-24 -10t-10 -24t10 -24t24 -10
t24 10t10 24z" />
    <glyph glyph-name="uni0E28" unicode="&#xe28;" horiz-adv-x="403" 
d="M352 0h-62v273q0 36 -31 60q-29 21 -67 21q-45 0 -72 -30.5t-27 -70.5q0 -11 4.5 -36.5t4.5 -44.5v-26q0 4 2.5 20t5.5 31q10 42 30 71q27 35 61 35q27 0 47 -19t20 -46q0 -26 -20 -45.5t-47 -19.5q-25 0 -45 18q-30 -91 -30 -191h-62v64q0 47 -16.5 102.5t-16.5 87.5
q0 69 50 112q47 41 116 41q39 0 76 -16q23 17 23 48h70q-12 -55 -46 -81q32 -37 32 -87v-271zM231 238q0 13 -9 22t-22 9t-21.5 -9t-8.5 -22t8.5 -21.5t21.5 -8.5t22 8.5t9 21.5z" />
    <glyph glyph-name="uni0E29" unicode="&#xe29;" horiz-adv-x="461" 
d="M468 237q-19 -32 -58 -58v-89q0 -98 -153 -98q-154 0 -154 98v167q-10 -2 -17 -2q-32 0 -54 22.5t-22 54.5q0 31 22 53t54 22q34 0 56.5 -23t22.5 -58v-233q0 -20 23.5 -34t67.5 -14q45 0 68.5 14t23.5 34v60q-23 -5 -42 -5q-122 0 -122 83q0 28 18.5 47.5t49.5 19.5
q29 0 47 -18.5t18 -44.5q0 -32 -21 -47q27 2 52 10v201h62v-166q16 15 25 37zM120 331q0 14 -10 24t-24 10t-24 -10t-10 -24t10 -24t24 -10t24 10t10 24zM280 234q0 13 -8.5 22t-21.5 9t-21.5 -9t-8.5 -22t8.5 -22t21.5 -9t21.5 9t8.5 22z" />
    <glyph glyph-name="uni0E2A" unicode="&#xe2a;" horiz-adv-x="399" 
d="M348 0h-62v173q0 30 -34 46q-26 12 -58 12q-31 0 -53 -15q-27 -18 -27 -48v-25q14 2 18 2q32 0 55 -22.5t23 -53.5q0 -32 -24 -54t-55 -22q-33 0 -56 21.5t-23 54.5v92q0 59 44 92q39 29 97 29q62 0 93 -34v45q0 31 -36 48q-28 13 -63 13q-39 0 -67 -18q-31 -20 -37 -54
h-60q6 61 53 94q44 31 113 31q45 0 81 -16q21 19 21 48h70q-12 -51 -43 -79q30 -32 30 -74v-286zM166 69q0 14 -10 24t-24 10t-24 -10t-10 -24t10 -24t24 -10t24 10t10 24z" />
    <glyph glyph-name="uni0E2B" unicode="&#xe2b;" horiz-adv-x="438" 
d="M387 0h-62v222q0 27 -11 27q-8 0 -23 -25l-130 -224h-58v257q-10 -2 -17 -2q-32 0 -54 22.5t-22 54.5q0 31 22 53t54 22q34 0 56.5 -23t22.5 -58v-149q0 -26 -12 -106q10 43 30 79l55 95q18 30 32 34q-20 25 -20 52q0 32 22 54t54 22t54 -22t22 -54q0 -33 -28 -58
q13 -25 13 -54v-219zM120 331q0 14 -10 24t-24 10t-24 -10t-10 -24t10 -24t24 -10t24 10t10 24zM360 331q0 14 -10 24t-24 10t-24 -10t-10 -24t10 -24t24 -10t24 10t10 24z" />
    <glyph glyph-name="uni0E2C" unicode="&#xe2c;" horiz-adv-x="468" 
d="M417 0h-63l-94 178l-93 -178h-64v257q-10 -2 -17 -2q-32 0 -54 22.5t-22 54.5q0 31 22 53t54 22q34 0 56.5 -23t22.5 -58v-160q0 -31 -12 -98q9 24 22 48l63 105h44l63 -105q13 -24 22 -48q-12 67 -12 98v91q-10 -2 -17 -2q-32 0 -54 22.5t-22 54.5q0 31 22 53t54 22
q23 0 40 -11q19 16 24 43h54q-7 -51 -47 -77q8 -16 8 -36v-326zM372 331q0 14 -10 24t-24 10t-24 -10t-10 -24t10 -24t24 -10t24 10t10 24zM120 331q0 14 -10 24t-24 10t-24 -10t-10 -24t10 -24t24 -10t24 10t10 24z" />
    <glyph glyph-name="uni0E2D" unicode="&#xe2d;" horiz-adv-x="394" 
d="M343 90q0 -52 -47 -77q-38 -21 -98 -21t-97 21q-45 25 -45 77v101q0 36 20 60.5t57 24.5q32 0 54 -21.5t22 -53.5q0 -31 -22 -53t-54 -22q-9 0 -15 2v-31q0 -52 81 -52q82 0 82 53v192q0 33 -31 50q-26 14 -64 14q-95 0 -103 -49h-60q13 101 158 102q67 0 110 -25
q52 -32 52 -96v-196zM167 201q0 14 -10 24t-24 10t-24 -10t-10 -24t10 -24t24 -10t24 10t10 24z" />
    <glyph glyph-name="uni0E2E" unicode="&#xe2e;" horiz-adv-x="385" 
d="M259 336q-30 27 -88 27q-80 0 -80 -25q0 -16 74 -16q60 0 94 14zM334 90q0 -52 -47 -77q-38 -21 -98 -21t-97 21q-45 25 -45 77v82q0 36 20 60.5t57 24.5q32 0 54 -21.5t22 -53.5q0 -31 -22 -53t-54 -22q-9 0 -15 2v-12q0 -52 81 -52q82 0 82 53v198q-46 -15 -112 -15
q-127 0 -127 53q0 74 147 74q72 0 118 -39q8 15 13 39h60q-12 -60 -41 -91q4 -13 4 -34v-193zM158 182q0 14 -10 24t-24 10t-24 -10t-10 -24t10 -24t24 -10t24 10t10 24z" />
    <glyph glyph-name="uni0E2F" unicode="&#xe2f;" horiz-adv-x="380" 
d="M328 0h-62v315q0 36 -11 38q-4 -47 -45.5 -75.5t-90.5 -28.5q-39 0 -65 20q-30 22 -30 61q0 32 22 54.5t54 22.5t54.5 -22.5t22.5 -54.5q0 -5 -2 -15q33 25 40 84h45q68 0 68 -72v-327zM134 330q0 14 -10 24t-24 10t-24 -10t-10 -24t10 -24t24 -10t24 10t10 24z" />
    <glyph glyph-name="uni0E30" unicode="&#xe30;" horiz-adv-x="340" 
d="M302 397q-5 -159 -149 -159q-60 0 -92 24.5t-32 62.5q0 29 20 49t49 20q31 0 50.5 -20.5t19.5 -48.5q0 -27 -15 -40q93 4 93 112h56zM128 325q0 13 -9 22t-22 9t-21.5 -9t-8.5 -22t8.5 -21.5t21.5 -8.5t22 8.5t9 21.5zM302 170q-5 -159 -149 -159q-60 0 -92 24.5
t-32 62.5q0 29 20 49t49 20q31 0 50.5 -20.5t19.5 -48.5q0 -27 -15 -40q93 4 93 112h56zM128 98q0 13 -9 22t-22 9t-21.5 -9t-8.5 -22t8.5 -21.5t21.5 -8.5t22 8.5t9 21.5z" />
    <glyph glyph-name="uni0E31" unicode="&#xe31;" 
d="M50 643q-26 -166 -180 -166q-60 0 -92 24.5t-32 62.5q0 29 20 49t49 20q31 0 50.5 -20.5t19.5 -48.5q0 -27 -15 -40q104 4 121 119h59zM-155 564q0 13 -9 22t-22 9t-21.5 -9t-8.5 -22t8.5 -21.5t21.5 -8.5t22 8.5t9 21.5z" />
    <glyph glyph-name="uni0E32" unicode="&#xe32;" horiz-adv-x="336" 
d="M285 0h-62v291q0 28 -19 45.5t-52 17.5t-54 -22t-22 -56h-60q3 60 39.5 95.5t96.5 35.5q56 0 94.5 -28.5t38.5 -86.5v-292z" />
    <glyph glyph-name="uni0E33" unicode="&#xe33;" horiz-adv-x="336" 
d="M-11 549q0 -35 -24.5 -59.5t-59.5 -24.5q-36 0 -60.5 24.5t-24.5 59.5t25 60t60 25t59.5 -24.5t24.5 -60.5zM-55 549q0 17 -11.5 29t-28.5 12t-29 -12t-12 -29t12 -28.5t29 -11.5t28.5 11.5t11.5 28.5zM285 0h-62v291q0 28 -19 45.5t-52 17.5t-54 -22t-22 -56h-60
q3 60 39.5 95.5t96.5 35.5q56 0 94.5 -28.5t38.5 -86.5v-292z" />
    <glyph glyph-name="uni0E34" unicode="&#xe34;" 
d="M-49 450q-124 40 -227 40q-47 0 -95 -6q12 134 146 134q77 0 122 -46.5t54 -121.5zM-113 509q-6 25 -36 47t-68 22q-36 0 -62 -14.5t-33 -38.5q17 4 53 4q74 0 146 -20z" />
    <glyph glyph-name="uni0E35" unicode="&#xe35;" 
d="M-49 450q-124 40 -227 40q-47 0 -95 -6q12 134 146 134q71 0 114 -39v69h60v-184zM-113 509q-6 25 -36 47t-68 22q-36 0 -62 -14.5t-33 -38.5q17 4 53 4q74 0 146 -20z" />
    <glyph glyph-name="uni0E36" unicode="&#xe36;" 
d="M-113 509q-6 25 -36 47t-68 22q-36 0 -62 -14.5t-33 -38.5q17 4 53 4q74 0 146 -20zM-69 598q0 12 -8.5 20.5t-19.5 8.5t-20 -8.5t-9 -20.5t9 -20t20 -8t19.5 8t8.5 20zM-38 598q0 -20 -11.5 -36t-29.5 -21q24 -39 30 -91q-124 40 -227 40q-47 0 -95 -6q12 134 146 134
q39 0 70 -12q3 22 19 37t39 15q25 0 42 -17.5t17 -42.5z" />
    <glyph glyph-name="uni0E37" unicode="&#xe37;" 
d="M-49 450q-124 40 -227 40q-47 0 -95 -6q12 134 146 134q15 0 28 -2v32h45v-42q22 -9 41 -27v69h60v-184zM-113 509q-6 25 -36 47t-68 22q-36 0 -62 -14.5t-33 -38.5q17 4 53 4q74 0 146 -20z" />
    <glyph glyph-name="uni0E38" unicode="&#xe38;" 
d="M-51 -235h-60v76h-4q-25 0 -42.5 17.5t-17.5 41.5q0 25 17.5 43t43.5 18q25 0 44 -16t19 -44v-136zM-86 -97q0 11 -8 19t-19 8t-19.5 -8t-8.5 -19t8.5 -19.5t19.5 -8.5t19 8.5t8 19.5z" />
    <glyph glyph-name="uni0E39" unicode="&#xe39;" 
d="M-51 -182q0 -33 -28 -50q-24 -15 -63 -15q-34 0 -59 14q-28 16 -28 44v30h-6q-25 0 -42.5 17.5t-17.5 41.5q0 25 17.5 43t43.5 18q25 0 44 -16t19 -44v-90q0 -15 30 -15q32 0 32 15v141h58v-134zM-206 -97q0 11 -8 19t-19 8t-19.5 -8t-8.5 -19t8.5 -19.5t19.5 -8.5
t19 8.5t8 19.5z" />
    <glyph glyph-name="uni0E3A" unicode="&#xe3a;" 
d="M-37 -76q0 -14 -10.5 -24.5t-24.5 -10.5t-24.5 10.5t-10.5 24.5t10.5 24.5t24.5 10.5t24.5 -10.5t10.5 -24.5z" />
    <glyph glyph-name="uni0E3F" unicode="&#xe3f;" horiz-adv-x="389" 
d="M335 151q0 -107 -123 -126v-81h-55v77q-35 0 -93 10v411q58 13 93 14v66h55v-69q107 -17 107 -111q0 -55 -47 -90q63 -37 63 -101zM278 150q0 73 -110 73h-45v-146q17 -3 38 -3q47 0 79 17q38 20 38 59zM260 341q0 62 -98 62q-6 0 -39 -5v-120h55q38 0 60 18t22 45z" />
    <glyph glyph-name="uni0E40" unicode="&#xe40;" horiz-adv-x="208" 
d="M204 68q0 -32 -22.5 -54t-53.5 -22q-34 0 -57 23t-23 58v326h62v-257q5 2 18 2q31 0 53.5 -22t22.5 -54zM162 68q0 14 -10 24t-24 10t-24 -10t-10 -24t10 -24t24 -10t24 10t10 24z" />
    <glyph glyph-name="uni0E41" unicode="&#xe41;" horiz-adv-x="395" 
d="M204 68q0 -32 -22.5 -54t-53.5 -22q-34 0 -57 23t-23 58v326h62v-257q5 2 18 2q31 0 53.5 -22t22.5 -54zM391 68q0 -32 -22.5 -54t-53.5 -22q-34 0 -57 23t-23 58v326h62v-257q5 2 18 2q31 0 53.5 -22t22.5 -54zM162 68q0 14 -10 24t-24 10t-24 -10t-10 -24t10 -24
t24 -10t24 10t10 24zM349 68q0 14 -10 24t-24 10t-24 -10t-10 -24t10 -24t24 -10t24 10t10 24z" />
    <glyph glyph-name="uni0E42" unicode="&#xe42;" horiz-adv-x="252" 
d="M248 68q0 -32 -22.5 -54t-53.5 -22q-34 0 -57 23t-23 58v397q-5 34 -50 55q-37 17 -75 17q5 114 102 114q26 0 58.5 -16.5t45.5 -16.5q11 0 22 30l46 -12q-19 -68 -60 -68q-19 0 -54 16.5t-58 16.5q-35 0 -46 -25q131 -34 131 -116v-323q5 2 18 2q31 0 53.5 -22t22.5 -54
zM206 68q0 14 -10 24t-24 10t-24 -10t-10 -24t10 -24t24 -10t24 10t10 24z" />
    <glyph glyph-name="uni0E43" unicode="&#xe43;" horiz-adv-x="269" 
d="M265 68q0 -32 -22.5 -54t-53.5 -22q-34 0 -57 23t-23 58v377q0 23 17.5 60.5t17.5 56.5q0 22 -15.5 35t-37.5 13q-34 0 -50 -12q25 0 42 -19q14 -17 14 -40q0 -27 -19 -46.5t-47 -19.5q-29 0 -47 21t-18 49q0 54 36 84q33 27 87 27q44 0 77 -23q37 -26 37 -67
q0 -23 -16 -64.5t-16 -62.5v-300q5 2 18 2q31 0 53.5 -22t22.5 -54zM223 68q0 14 -10 24t-24 10t-24 -10t-10 -24t10 -24t24 -10t24 10t10 24zM62 543q0 13 -9 22t-22 9t-22 -9t-9 -22t9 -22t22 -9t22 9t9 22z" />
    <glyph glyph-name="uni0E44" unicode="&#xe44;" horiz-adv-x="252" 
d="M248 68q0 -32 -22.5 -54t-53.5 -22q-34 0 -57 23t-23 58v494l-60 -88l-40 12q-4 94 -28 175h54q12 -79 13 -119l71 111q20 -3 36 -19t16 -38v-459q5 2 18 2q31 0 53.5 -22t22.5 -54zM206 68q0 14 -10 24t-24 10t-24 -10t-10 -24t10 -24t24 -10t24 10t10 24z" />
    <glyph glyph-name="uni0E45" unicode="&#xe45;" horiz-adv-x="209" 
d="M158 -140h-62v431q0 28 -19 45.5t-52 17.5t-54 -22t-22 -56h-60q3 60 39.5 95.5t96.5 35.5q56 0 94.5 -28.5t38.5 -86.5v-432z" />
    <glyph glyph-name="uni0E46" unicode="&#xe46;" horiz-adv-x="437" 
d="M381 -140h-62v429q0 41 -39 66l-46 -36l-59 37q-17 -11 -24 -31h7q32 0 54.5 -22.5t22.5 -54.5t-22.5 -54.5t-54.5 -22.5q-40 0 -63 31t-23 72q0 50 31.5 88.5t80.5 50.5l48 -38l43 38q48 -12 77 -44.5t29 -78.5v-430zM193 248q0 15 -11 26t-26 11t-26 -11t-11 -26
t11 -26t26 -11t26 11t11 26z" />
    <glyph glyph-name="uni0E47" unicode="&#xe47;" 
d="M-63 521q0 -21 -15 -36.5t-37 -15.5q-49 0 -112 42q-13 -4 -28.5 -19.5t-17.5 -27.5q-53 35 -53 85q0 39 31 61q27 20 70 20h68q49 0 49 44v23h48v-22q0 -41 -27 -63t-69 -22h-73q-16 0 -29 -10.5t-13 -27.5q0 -16 6 -26q15 23 45 25q23 -15 55 -26q0 20 15.5 34t34.5 14
q22 0 37 -15.5t15 -36.5zM-93 521q0 9 -6.5 15.5t-15.5 6.5t-15.5 -6.5t-6.5 -15.5t6.5 -15.5t15.5 -6.5t15.5 6.5t6.5 15.5z" />
    <glyph glyph-name="uni0E48" unicode="&#xe48;" 
d="M-51 677h-60v114h60v-114z" />
    <glyph glyph-name="uni0E49" unicode="&#xe49;" 
d="M22 835q-18 -95 -66.5 -131.5t-141.5 -36.5h-28v33q40 3 49 29q-51 13 -51 59q0 24 17 40t41 16q27 0 42.5 -16.5t15.5 -42.5q0 -39 -44 -83q49 10 80 46.5t34 86.5h52zM-133 786q0 11 -7.5 18.5t-18.5 7.5t-18.5 -7.5t-7.5 -18.5t7.5 -18.5t18.5 -7.5t18.5 7.5t7.5 18.5
z" />
    <glyph glyph-name="uni0E4A" unicode="&#xe4a;" 
d="M36 829q-4 -157 -152 -157v29q39 19 39 60q0 29 -29 37l-31 -32l-32 34q-17 -4 -30 -22q24 0 40.5 -16t16.5 -40q0 -22 -16 -38t-39 -16q-24 0 -40 15.5t-16 42.5q0 18 6 36t17.5 34t29 26.5t41.5 13.5l23 -26l23 26q31 -1 51.5 -21t20.5 -51q0 -28 -12 -50q47 29 47 115
h42zM-173 722q0 11 -7 18.5t-18 7.5t-18.5 -7.5t-7.5 -18.5t7.5 -18t18.5 -7t18 7t7 18z" />
    <glyph glyph-name="uni0E4B" unicode="&#xe4b;" 
d="M-1 721h-52v-44h-55v44h-48v41h48v42h55v-42h52v-41z" />
    <glyph glyph-name="uni0E4C" unicode="&#xe4c;" 
d="M-10 835q-3 -37 -25 -56q-17 -16 -57 -27q33 -16 33 -53q0 -25 -17.5 -42.5t-42.5 -17.5t-42.5 18t-17.5 43q0 63 68 85q31 10 40 16q20 12 20 34h41zM-93 699q0 11 -7 18.5t-18 7.5t-18.5 -7.5t-7.5 -18.5t7.5 -18t18.5 -7t18 7t7 18z" />
    <glyph glyph-name="uni0E4D" unicode="&#xe4d;" 
d="M-11 549q0 -35 -24.5 -59.5t-59.5 -24.5q-36 0 -60.5 24.5t-24.5 59.5t25 60t60 25t59.5 -24.5t24.5 -60.5zM-55 549q0 17 -11.5 29t-28.5 12t-29 -12t-12 -29t12 -28.5t29 -11.5t28.5 11.5t11.5 28.5z" />
    <glyph glyph-name="uni0E4E" unicode="&#xe4e;" 
d="M-102 464q-20 -9 -50 -9q-27 0 -47 16.5t-20 42.5q0 24 15.5 41.5t38.5 21.5q-10 15 -10 31q0 33 26 50q23 14 56 14q28 0 54 -10l-15 -37q-20 7 -40 7q-37 0 -37 -24q0 -27 52 -32l-16 -38q-19 7 -32 7q-50 0 -50 -32q0 -20 38 -20q15 0 37 9v-38z" />
    <glyph glyph-name="uni0E4F" unicode="&#xe4f;" horiz-adv-x="450" 
d="M289 163q0 26 -18.5 45t-45.5 19t-45.5 -19t-18.5 -45q0 -27 18.5 -45.5t45.5 -18.5t45.5 18.5t18.5 45.5zM324 163q0 -41 -29 -70.5t-70 -29.5t-70 29.5t-29 70.5t29 70t70 29t70 -29t29 -70zM359 163q0 56 -39 95t-95 39q-55 0 -94.5 -39t-39.5 -95t39.5 -95.5
t94.5 -39.5t94.5 40t39.5 95zM394 163q0 -70 -49.5 -119.5t-119.5 -49.5t-119.5 49.5t-49.5 119.5t49.5 119.5t119.5 49.5q68 0 118.5 -50.5t50.5 -118.5z" />
    <glyph glyph-name="uni0E50" unicode="&#xe50;" horiz-adv-x="456" 
d="M338 146q0 46 -32.5 73t-77.5 27t-77.5 -27t-32.5 -73t32.5 -73t77.5 -27t77.5 27t32.5 73zM404 146q0 -69 -57 -114q-52 -41 -119 -41q-68 0 -120 41q-57 45 -57 114t57 114q52 41 120 41q67 0 119 -41q57 -45 57 -114z" />
    <glyph glyph-name="uni0E51" unicode="&#xe51;" horiz-adv-x="456" 
d="M408 119q0 -80 -53 -139h-74q68 65 68 139q0 57 -33.5 91.5t-90.5 34.5q-49 0 -83.5 -30.5t-34.5 -75.5q0 -40 22 -67.5t59 -27.5q15 0 30 5q-35 0 -56 24q-19 21 -19 49q0 31 23 52.5t53 21.5q37 0 59 -25t22 -62q0 -51 -34.5 -83.5t-87.5 -32.5q-58 0 -94.5 42.5
t-36.5 101.5q0 71 54 117t126 46q80 0 130.5 -53t50.5 -128zM254 122q0 14 -10 24t-24 10t-24 -10t-10 -24t10 -24t24 -10t24 10t10 24z" />
    <glyph glyph-name="uni0E52" unicode="&#xe52;" horiz-adv-x="456" 
d="M421 70q0 -70 -67 -70h-259q-56 0 -56 65v283q0 13 -10 17q-1 0 -18 2v51q44 0 64 -13q25 -16 25 -58v-263q0 -32 28 -32h206q26 0 26 24v135q0 36 -22 36q-32 0 -32 -58h-40q-11 60 -47 60q-15 0 -24.5 -13t-10.5 -29h8q29 0 48.5 -19.5t19.5 -47.5q0 -29 -19.5 -48.5
t-48.5 -19.5q-78 0 -78 90q0 59 25 97q28 43 80 43q49 0 64 -39q17 39 59 39q37 0 58 -27t21 -62v-143zM222 139q0 13 -8.5 21.5t-21.5 8.5t-21 -8.5t-8 -21.5t8 -21t21 -8t21.5 8t8.5 21z" />
    <glyph glyph-name="uni0E53" unicode="&#xe53;" horiz-adv-x="456" 
d="M416 0h-58v190q0 57 -40 57q-20 0 -34 -19t-14 -41v-187h-59v187q0 59 -64 59q-36 0 -53 -43q-12 -31 -12 -72q16 9 35 9q31 0 53 -20.5t22 -52.5q0 -30 -20 -50q-21 -23 -56 -24q-48 -1 -72 46q-18 37 -18 90q0 68 29 116q34 56 95 56q59 0 89 -45q28 46 81 45
q46 0 71 -31.5t25 -78.5v-191zM150 64q0 14 -9.5 23.5t-23.5 9.5t-23 -9.5t-9 -23.5t9 -23t23 -9t23.5 9t9.5 23z" />
    <glyph glyph-name="uni0E54" unicode="&#xe54;" horiz-adv-x="456" 
d="M402 -9q-56 27 -93 27q-25 0 -72 -12.5t-71 -12.5q-66 0 -107 43q-40 40 -40 102q0 165 214 165q85 0 121 13q59 21 72 102h57q-22 -109 -84 -145q-43 -25 -152 -25q-77 0 -111 -14q-55 -24 -55 -92q0 -39 26.5 -68.5t56.5 -29.5q6 0 76 11q-92 24 -92 96q0 33 22 54
t52 21q32 0 52 -22.5t20 -51.5q0 -35 -30 -59q16 -8 43 -13q28 -4 55.5 -10.5t68.5 -31.5zM250 153q0 13 -8.5 21.5t-21.5 8.5t-21.5 -8.5t-8.5 -21.5t8.5 -21.5t21.5 -8.5t21.5 8.5t8.5 21.5z" />
    <glyph glyph-name="uni0E55" unicode="&#xe55;" horiz-adv-x="456" 
d="M402 -9q-56 27 -93 27q-25 0 -72 -12.5t-71 -12.5q-66 0 -107 43q-40 40 -40 102q0 151 178 164q-19 19 -19 48t20 48.5t48 19.5q29 0 48.5 -19.5t19.5 -48.5q0 -26 -17 -46q33 3 57 12q59 22 72 102h57q-22 -109 -84 -145q-43 -25 -152 -25q-77 0 -111 -14
q-55 -24 -55 -92q0 -39 26.5 -68.5t56.5 -29.5q6 0 76 11q-92 24 -92 96q0 33 22 54t52 21q32 0 52 -22.5t20 -51.5q0 -35 -30 -59q16 -8 43 -13q32 -5 57.5 -11t66.5 -31zM250 153q0 13 -8.5 21.5t-21.5 8.5t-21.5 -8.5t-8.5 -21.5t8.5 -21.5t21.5 -8.5t21.5 8.5t8.5 21.5z
M276 349q0 13 -8.5 21.5t-21.5 8.5t-21.5 -8.5t-8.5 -21.5t8.5 -21.5t21.5 -8.5t21.5 8.5t8.5 21.5z" />
    <glyph glyph-name="uni0E56" unicode="&#xe56;" horiz-adv-x="456" 
d="M427 153q0 -80 -62 -124q-53 -38 -130 -38q-65 0 -99 14q-67 27 -67 85q0 33 20.5 55t53.5 22t55 -22t22 -53q0 -28 -13 -44q7 -1 23 -1q56 0 93 24q44 27 44 80q0 47 -38 72q-33 22 -81 22q-109 0 -155 -63h-21q-3 82 -11 123q-14 66 -50 113h68q36 -65 41 -144
q43 27 126 27q76 0 125 -35q56 -40 56 -113zM178 92q0 14 -9.5 23.5t-23.5 9.5t-23 -9.5t-9 -23.5t9 -23t23 -9t23.5 9t9.5 23z" />
    <glyph glyph-name="uni0E57" unicode="&#xe57;" horiz-adv-x="456" 
d="M437 231q0 -119 -36 -172q-43 -62 -147 -62q41 111 41 191q0 19 -7 37q-10 24 -26 24q-18 0 -29 -23q-8 -19 -8 -39v-40h-60v38q0 64 -45 64q-24 0 -37 -34q-10 -27 -10 -64v-11q18 8 32 8q31 0 54 -22.5t23 -55.5q0 -32 -22 -53t-55 -21q-49 0 -73 50q-18 38 -18 95
q0 61 21 104q28 56 83 56q54 0 76 -39q23 39 64 39q49 0 74 -39q21 -32 21 -83q0 -52 -15 -108q42 28 42 148q0 156 20 199h61q-25 -37 -24.5 -107t0.5 -80zM138 72q0 14 -10.5 24.5t-24.5 10.5t-24 -10.5t-10 -24.5t10 -24t24 -10t24.5 10t10.5 24z" />
    <glyph glyph-name="uni0E58" unicode="&#xe58;" horiz-adv-x="456" 
d="M426 78q0 -34 -25 -60t-60 -26q-72 0 -154 76q-22 -8 -47.5 -35.5t-29.5 -48.5q-87 59 -87 166q0 92 54 125q43 26 149 26q77 0 107 14q40 20 40 79v9h58q1 -8 1 -22q0 -88 -72 -116q-43 -17 -156 -17q-124 0 -124 -100q0 -60 28 -78q11 23 41 40.5t55 17.5
q23 -30 55 -44q1 33 26 56t56 23q36 0 60.5 -25t24.5 -60zM377 78q0 14 -10.5 25t-25.5 11t-25.5 -11t-10.5 -25q0 -15 10.5 -25.5t25.5 -10.5t25.5 10.5t10.5 25.5z" />
    <glyph glyph-name="uni0E59" unicode="&#xe59;" horiz-adv-x="456" 
d="M398 -10q-73 57 -137 184l-12 26.5t-18 22.5q-31 23 -67 23t-58.5 -31t-22.5 -67q0 -35 17 -64q15 53 70 53q29 0 50 -21t21 -51q0 -29 -21 -50.5t-50 -21.5q-64 0 -106 47q-40 44 -40 107q0 65 42.5 109.5t103.5 44.5q56 0 92 -33q11 32 42 32q14 0 37.5 -14.5
t37.5 -14.5q19 0 19 57q0 50 -12 87h49q11 -50 11 -97q0 -101 -58 -101q-13 0 -36.5 15t-32.5 15q-18 0 -18 -19q0 -35 53 -110t85 -90zM202 64q0 14 -9.5 23.5t-23.5 9.5t-23 -9.5t-9 -23.5t9 -23t23 -9t23.5 9t9.5 23z" />
    <glyph glyph-name="uni0E5A" unicode="&#xe5a;" horiz-adv-x="525" 
d="M479 0h-62v315q0 36 -11 38q-6 -66 -78 -93v-260h-62v315q0 36 -11 38q-4 -47 -45.5 -75.5t-90.5 -28.5q-39 0 -67 21t-28 60q0 32 22 54.5t54 22.5t54.5 -22.5t22.5 -54.5q0 -5 -2 -15q33 25 40 84h45q68 0 68 -72v-11q32 26 38 83h45q68 0 68 -72v-327zM134 330
q0 14 -10 24t-24 10t-24 -10t-10 -24t10 -24t24 -10t24 10t10 24z" />
    <glyph glyph-name="uni0E5B" unicode="&#xe5b;" horiz-adv-x="697" 
d="M188 320v6h3q3 0 3 -3t-3 -3h-3zM188 313v6h3q5 0 5 4t-5 4h-5v-14h2zM217 320v6h3q3 0 3 -3t-3 -3h-3zM184 313v2h-7v12h-2v-14h9zM157 318q0 -4 -4 -4t-4 6t4 6q3 0 4 -4h2q-2 5 -6 5q-6 0 -6 -7t6 -7t6 5h-2zM212 323q0 4 -4 4q-5 0 -5 -4q3 -3 8 -6q0 -3 -3 -3t-3 4
h-2q0 -5 5 -5t5 4q-3 3 -8 6q0 3 3 3q2 -2 2 -3h2zM172 313v14h-2v-6h-7v6h-2v-14h2v7h7v-7h2zM238 313l-5 8l5 6h-3l-5 -7v7h-2v-14h2v5l2 2l3 -7h3zM217 313v6h3q5 0 5 4t-5 4h-5v-14h2zM214 156q28 0 28 28t-28 28t-28 -28t28 -28zM669 179q-20 -11 -41 -11q-33 0 -58 25
q-6 -48 -28 -55q-9 0 -20 33q-14 42 -21 49q0 -92 -27 -92q-6 0 -17 36q-12 40 -21 51q-6 -98 -38 -98q-6 0 -17 39q-14 50 -21 59q0 -191 -149 -191q-62 0 -98 43t-36 116q0 75 31 116t87 41q45 0 71 -27.5t26 -75.5q0 -43 -17 -72q-21 -36 -61 -36q-22 0 -38 16.5
t-16 38.5q0 23 15.5 39t38.5 16q26 0 43 -20v2l2 24q5 64 -61 64q-41 0 -63 -35t-22 -96q0 -55 27.5 -88t70.5 -33q59 0 90.5 43t31.5 122q0 31 -3 47q56 -11 75 -106q9 29 9 56q0 19 -8 48q42 -12 73 -87q5 25 5 37q0 9 -5 37q43 -12 64 -84q10 13 10 35q0 12 -3 27
q5 -1 43 -28q34 -25 71 -25h5z" />
    <glyph glyph-name="zerowidthnonjoiner" unicode="&#x200c;" 
d="M18 -250h-35v537h35v-537z" />
    <glyph glyph-name="zerowidthjoiner" unicode="&#x200d;" 
d="M18 -250h-35v448l-20 -20l-17 17l37 37l-37 39l18 16l36 -37l37 37l18 -16l-37 -39l37 -37l-18 -17l-19 20v-448z" />
    <glyph glyph-name="lefttorightmark" unicode="&#x200e;" 
d="M18 -250h-35v502h132l-17 18l16 16l52 -52l-52 -52l-16 17l17 18h-97v-467z" />
    <glyph glyph-name="righttoleftmark" unicode="&#x200f;" 
d="M18 -250h-35v467h-97l17 -18l-16 -17l-52 52l52 52q2 -3 7 -8t9 -8l-17 -18h132v-502z" />
    <glyph glyph-name="endash" unicode="&#x2013;" horiz-adv-x="335" 
d="M326 157h-317v54h317v-54z" />
    <glyph glyph-name="emdash" unicode="&#x2014;" horiz-adv-x="693" 
d="M684 157h-675v54h675v-54z" />
    <glyph glyph-name="quoteleft" unicode="&#x2018;" horiz-adv-x="253" 
d="M164 373q0 -19 -13.5 -32t-32.5 -13t-32 13t-14 32q1 60 29.5 96.5t51.5 45.5l15 -17q-51 -33 -59 -80q2 0 4.5 0.5t4.5 0.5q19 0 32.5 -13.5t13.5 -32.5z" />
    <glyph glyph-name="quoteright" unicode="&#x2019;" horiz-adv-x="253" 
d="M181 456q-1 -60 -29.5 -96.5t-51.5 -45.5l-15 17q51 33 59 80q-2 0 -4.5 -0.5t-4.5 -0.5q-19 0 -32.5 13.5t-13.5 32.5t13.5 32t32.5 13t32 -13t14 -32z" />
    <glyph glyph-name="quotesinglbase" unicode="&#x201a;" horiz-adv-x="253" 
d="M181 42q-1 -60 -29.5 -96.5t-51.5 -45.5l-15 17q51 33 59 80q-2 0 -4.5 -0.5t-4.5 -0.5q-19 0 -32.5 13.5t-13.5 32.5t13.5 32t32.5 13t32 -13t14 -32z" />
    <glyph glyph-name="quotedblleft" unicode="&#x201c;" horiz-adv-x="384" 
d="M164 373q0 -19 -13.5 -32t-32.5 -13t-32 13t-14 32q1 60 29.5 96.5t51.5 45.5l15 -17q-51 -33 -59 -80q2 0 4.5 0.5t4.5 0.5q19 0 32.5 -13.5t13.5 -32.5zM295 373q0 -19 -13.5 -32t-32.5 -13t-32 13t-14 32q1 60 29.5 96.5t51.5 45.5l15 -17q-51 -33 -59 -80
q2 0 4.5 0.5t4.5 0.5q19 0 32.5 -13.5t13.5 -32.5z" />
    <glyph glyph-name="quotedblright" unicode="&#x201d;" horiz-adv-x="384" 
d="M181 456q-1 -60 -29.5 -96.5t-51.5 -45.5l-15 17q51 33 59 80q-2 0 -4.5 -0.5t-4.5 -0.5q-19 0 -32.5 13.5t-13.5 32.5t13.5 32t32.5 13t32 -13t14 -32zM312 456q-1 -60 -29.5 -96.5t-51.5 -45.5l-15 17q51 33 59 80q-2 0 -4.5 -0.5t-4.5 -0.5q-19 0 -32.5 13.5
t-13.5 32.5t13.5 32t32.5 13t32 -13t14 -32z" />
    <glyph glyph-name="quotedblbase" unicode="&#x201e;" horiz-adv-x="384" 
d="M181 42q-1 -60 -29.5 -96.5t-51.5 -45.5l-15 17q51 33 59 80q-2 0 -4.5 -0.5t-4.5 -0.5q-19 0 -32.5 13.5t-13.5 32.5t13.5 32t32.5 13t32 -13t14 -32zM312 42q-1 -60 -29.5 -96.5t-51.5 -45.5l-15 17q51 33 59 80q-2 0 -4.5 -0.5t-4.5 -0.5q-19 0 -32.5 13.5t-13.5 32.5
t13.5 32t32.5 13t32 -13t14 -32z" />
    <glyph glyph-name="dagger" unicode="&#x2020;" horiz-adv-x="380" 
d="M215 -33h-50v317l-126 -4v48l126 -4v151h50v-151l126 4v-48l-126 4v-317z" />
    <glyph glyph-name="daggerdbl" unicode="&#x2021;" horiz-adv-x="380" 
d="M215 -33h-50v145l-126 -3v47l126 -4v132l-126 -4v48l126 -4v151h50v-151l126 4v-48l-126 4v-132l126 4v-47l-126 3v-145z" />
    <glyph glyph-name="bullet" unicode="&#x2022;" horiz-adv-x="226" 
d="M197 200q0 -35 -24.5 -59.5t-59.5 -24.5t-59.5 24.5t-24.5 59.5t24 59.5t60 24.5q35 0 59.5 -25t24.5 -59z" />
    <glyph glyph-name="ellipsis" unicode="&#x2026;" horiz-adv-x="504" 
d="M134 39q0 -20 -14 -34t-34 -14t-34 14t-14 34t14 34t34 14t34 -14t14 -34zM300 39q0 -20 -14 -34t-34 -14t-34 14t-14 34t14 34t34 14t34 -14t14 -34zM466 39q0 -20 -14 -34t-34 -14t-34 14t-14 34t14 34t34 14t34 -14t14 -34z" />
    <glyph glyph-name="perthousand" unicode="&#x2030;" horiz-adv-x="972" 
d="M217 -9h-61l305 485h61zM276 338q0 -146 -119 -146q-118 0 -118 146q0 147 118 147q119 0 119 -147zM217 338q0 94 -60 94q-58 0 -58 -94q0 -92 58 -92q60 0 60 92zM649 139q0 -147 -120 -147q-119 0 -119 147q0 146 119 146q120 0 120 -146zM589 139q0 94 -60 94
q-59 0 -59 -94q0 -93 59 -93q60 0 60 93zM933 139q0 -147 -120 -147q-119 0 -119 147q0 146 119 146q120 0 120 -146zM873 139q0 94 -60 94q-59 0 -59 -94q0 -93 59 -93q60 0 60 93z" />
    <glyph glyph-name="minute" unicode="&#x2032;" horiz-adv-x="131" 
d="M45 371h-27l38 105h55z" />
    <glyph glyph-name="second" unicode="&#x2033;" horiz-adv-x="220" 
d="M45 371h-27l38 105h55zM134 371h-27l38 105h55z" />
    <glyph glyph-name="guilsinglleft" unicode="&#x2039;" horiz-adv-x="234" 
d="M204 47h-60l-114 132l112 136h61l-113 -136z" />
    <glyph glyph-name="guilsinglright" unicode="&#x203a;" horiz-adv-x="234" 
d="M90 47h-60l114 133l-113 135h60l113 -136z" />
    <glyph glyph-name="fraction" unicode="&#x2044;" horiz-adv-x="147" 
d="M6 0h-60l199 477h59z" />
    <glyph glyph-name="Euro" unicode="&#x20ac;" horiz-adv-x="518" 
d="M488 25q-34 -16 -77 -25t-85 -9q-36 0 -71 11t-66.5 31.5t-57 48.5t-41.5 61h-61v54h47q-3 37 0 73h-47v53h61q35 75 102 118t151 43q68 0 142 -30l-19 -56q-56 31 -121 31q-70 0 -118.5 -27.5t-72.5 -78.5h246v-53h-263q-4 -36 1 -73h262v-54h-244q25 -42 71.5 -69
t110.5 -27q33 0 64.5 6.5t61.5 20.5z" />
    <glyph glyph-name="uni2113" unicode="&#x2113;" horiz-adv-x="254" 
d="M213 44q-20 -23 -43.5 -36t-44.5 -13q-24 0 -40.5 19t-16.5 61v108l-34 -23l-24 40l58 36v123q0 46 23 68.5t54 22.5q32 0 54.5 -22.5t22.5 -61.5q0 -26 -9 -49t-23 -42t-31.5 -34t-33.5 -27v-135q0 -9 3 -20.5t17 -11.5q9 0 22 9t30 29zM166 360q0 16 -4.5 27t-18.5 11
q-12 0 -15 -9.5t-3 -29.5v-79q13 11 27 34.5t14 45.5z" />
    <glyph glyph-name="trademark" unicode="&#x2122;" horiz-adv-x="608" 
d="M166 180h-45v253h-100v42h245v-42h-100v-253zM582 180h-46l-12 211l-83 -211h-34l-80 211l-15 -211h-44l18 295h49l90 -232l90 232h48z" />
    <glyph glyph-name="Ohm" unicode="&#x2126;" horiz-adv-x="476" 
d="M445 0h-173v131q97 43 97 138q0 57 -37 94.5t-93 37.5t-93.5 -37.5t-37.5 -94.5q0 -95 97 -138v-131h-173v54h118v39q-41 20 -73 68.5t-32 104.5q0 91 53 140t141 49q87 0 140 -49.5t53 -139.5q0 -61 -31.5 -108t-73.5 -65v-39h118v-54z" />
    <glyph glyph-name="estimated" unicode="&#x212e;" horiz-adv-x="349" 
d="M248 236q-11 99 -74 99t-75 -99h149zM306 121q-29 -128 -132 -128q-136 0 -136 209q0 93 38 138.5t98 45.5q66 0 99.5 -52t35.5 -149h-212q4 -73 23 -106.5t54 -33.5q26 0 45 20.5t30 55.5h57z" />
    <glyph glyph-name="partialdiff" unicode="&#x2202;" horiz-adv-x="349" 
d="M315 281q0 -97 -42 -181q-52 -105 -141 -105q-40 0 -69 29.5t-29 83.5q0 88 68 140q60 45 143 45h9q-5 103 -43 103q-37 0 -61 -72l-55 30q46 101 115 101q105 0 105 -174zM252 237h-7q-67 0 -107 -42q-36 -36 -36 -87t41 -51q46 0 78 68q23 48 31 112z" />
    <glyph glyph-name="Delta" unicode="&#x2206;" horiz-adv-x="480" 
d="M393 47l-153 314l-153 -314h306zM477 0h-474l237 472z" />
    <glyph glyph-name="product" unicode="&#x220f;" horiz-adv-x="493" 
d="M439 -75h-63v497h-259v-497h-64v551h386v-551z" />
    <glyph glyph-name="summation" unicode="&#x2211;" horiz-adv-x="417" 
d="M406 -75h-381v59l185 229l-185 205v58h366v-54h-302l180 -188v-35l-180 -220h317v-54z" />
    <glyph glyph-name="minus" unicode="&#x2212;" horiz-adv-x="417" 
d="M353 157h-290v54h290v-54z" />
    <glyph glyph-name="radical" unicode="&#x221a;" horiz-adv-x="387" 
d="M197 -10h-47l-72 231h-54v48h98l55 -192l143 395h61z" />
    <glyph glyph-name="infinity" unicode="&#x221e;" horiz-adv-x="632" 
d="M279 220q-60 63 -105 63q-35 0 -53 -18.5t-18 -43.5q0 -68 72 -68q55 0 104 67zM585 212q0 -46 -31.5 -78t-95.5 -32q-71 0 -145 79q-60 -79 -139 -79q-57 0 -92 32.5t-35 88.5q0 46 31 78t95 32q67 0 145 -78q61 78 139 78q58 0 93 -32.5t35 -88.5zM529 214q0 68 -73 68
q-58 0 -103 -67q61 -63 104 -63q35 0 53.5 18.5t18.5 43.5z" />
    <glyph glyph-name="integral" unicode="&#x222b;" horiz-adv-x="248" 
d="M98 -1q-16 -97 -98 -97q-21 0 -55 7l11 53q16 -4 28 -4q48 0 56 46l67 383q16 97 101 96q24 0 49 -6l-10 -51q-18 5 -34 5q-42 0 -50 -48z" />
    <glyph glyph-name="approxequal" unicode="&#x2248;" horiz-adv-x="417" 
d="M377 263q0 -46 -25 -72.5t-65 -26.5q-24 0 -81.5 31t-74.5 31q-35 0 -37 -62h-55v19q0 44 26.5 70t65.5 26q27 0 83 -29.5t75 -29.5q31 0 34 59h54v-16zM376 112q0 -46 -25 -72.5t-65 -26.5q-24 0 -81.5 31t-74.5 31q-35 0 -37 -62h-55v19q0 44 26.5 70t65.5 26
q27 0 83 -29.5t75 -29.5q31 0 34 59h54v-16z" />
    <glyph glyph-name="notequal" unicode="&#x2260;" horiz-adv-x="417" 
d="M371 97h-180l-25 -48.5l-24 -48.5h-65l48 97h-80v53h106l19.5 35.5t19.5 37.5h-145v53h171l58 111h67l-57 -111h87v-53h-115q-9 -19 -18 -35.5l-20 -37.5h153v-53z" />
    <glyph glyph-name="lessequal" unicode="&#x2264;" horiz-adv-x="417" 
d="M385 15h-354v52h354v-52zM358 88l-311 124v60l311 124v-62l-242 -93l242 -92v-61z" />
    <glyph glyph-name="greaterequal" unicode="&#x2265;" horiz-adv-x="417" 
d="M385 15h-354v52h354v-52zM358 212l-311 -124v61l242 92l-242 93v62l311 -124v-60z" />
    <glyph glyph-name="lozenge" unicode="&#x25ca;" horiz-adv-x="405" 
d="M377 220l-147 -220h-55l-147 220l147 221h55zM317 220l-114 171l-115 -171l115 -171z" />
    <glyph glyph-name="dottedcircle" unicode="&#x25cc;" horiz-adv-x="406" 
d="M221 368q0 -8 -5.5 -13.5t-13.5 -5.5t-13.5 5.5t-5.5 13.5t5.5 13.5t13.5 5.5t13.5 -5.5t5.5 -13.5zM221 41q0 -8 -5.5 -13.5t-13.5 -5.5t-13.5 5.5t-5.5 13.5t5.5 13.5t13.5 5.5t13.5 -5.5t5.5 -13.5zM57 205q0 -8 -5.5 -13t-13.5 -5t-13 5t-5 13t5 13.5t13 5.5
t13.5 -5.5t5.5 -13.5zM385 205q0 -8 -5.5 -13t-13.5 -5t-13 5t-5 13t5 13.5t13 5.5t13.5 -5.5t5.5 -13.5zM70 266q0 -8 -5.5 -13t-13.5 -5t-13 5t-5 13t5 13.5t13 5.5t13.5 -5.5t5.5 -13.5zM105 321q0 -8 -5.5 -13t-13.5 -5t-13 5t-5 13t5 13.5t13 5.5t13.5 -5.5t5.5 -13.5z
M158 356q0 -8 -5.5 -13t-13.5 -5t-13 5t-5 13t5 13.5t13 5.5t13.5 -5.5t5.5 -13.5zM371 266q0 -8 -5 -13t-13 -5t-13.5 5t-5.5 13t5.5 13.5t13.5 5.5t13 -5.5t5 -13.5zM336 321q0 -8 -5 -13t-13 -5t-13.5 5t-5.5 13t5.5 13.5t13.5 5.5t13 -5.5t5 -13.5zM283 356q0 -8 -5 -13
t-13 -5t-13.5 5t-5.5 13t5.5 13.5t13.5 5.5t13 -5.5t5 -13.5zM70 143q0 -8 -5.5 -13.5t-13.5 -5.5t-13 5.5t-5 13.5t5 13t13 5t13.5 -5t5.5 -13zM105 88q0 -8 -5.5 -13.5t-13.5 -5.5t-13 5.5t-5 13.5t5 13t13 5t13.5 -5t5.5 -13zM158 53q0 -8 -5.5 -13.5t-13.5 -5.5t-13 5.5
t-5 13.5t5 13t13 5t13.5 -5t5.5 -13zM367 129q-5 -5 -13 -5t-13.5 5.5t-5.5 13.5t5.5 13t13.5 5t13 -5t5 -13t-5 -14zM332 74q-5 -5 -13 -5t-13.5 5.5t-5.5 13.5t5.5 13t13.5 5t13 -5t5 -13t-5 -14zM279 39q-5 -5 -13 -5t-13.5 5.5t-5.5 13.5t5.5 13t13.5 5t13 -5t5 -13
t-5 -14z" />
    <glyph glyph-name="uni0E10.alt1" unicode="&#xf700;" horiz-adv-x="372" 
d="M314 83q0 -91 -95 -91q-92 0 -92 86v33q-8 -2 -14 -2q-29 0 -48 19.5t-19 47.5q0 29 21.5 48t48.5 19q30 0 51.5 -18.5t21.5 -47.5v-97q0 -36 31 -36q32 0 32 36v144q0 21 -94 42q-81 17 -124 17q6 64 47 97q34 27 84 27q19 0 56.5 -10t58.5 -10q15 0 19 24l51 -13
q-18 -69 -73 -69q-19 0 -55.5 12.5t-56.5 12.5q-15 0 -34.5 -8t-25.5 -19q115 -19 170 -44q39 -18 39 -53v-147zM142 176q0 12 -8.5 20.5t-20.5 8.5t-20.5 -8.5t-8.5 -20.5t8.5 -20.5t20.5 -8.5t20.5 8.5t8.5 20.5z" />
    <glyph glyph-name="uni0E34.alt1" unicode="&#xf701;" 
d="M-144 450q-124 40 -227 40q-47 0 -95 -6q12 134 146 134q77 0 122 -46.5t54 -121.5zM-208 509q-6 25 -36 47t-68 22q-36 0 -62 -14.5t-33 -38.5q17 4 53 4q74 0 146 -20z" />
    <glyph glyph-name="uni0E35.alt1" unicode="&#xf702;" 
d="M-144 450q-124 40 -227 40q-47 0 -95 -6q12 134 146 134q71 0 114 -39v69h60v-184zM-208 509q-6 25 -36 47t-68 22q-36 0 -62 -14.5t-33 -38.5q17 4 53 4q74 0 146 -20z" />
    <glyph glyph-name="uni0E36.alt1" unicode="&#xf703;" 
d="M-208 509q-6 25 -36 47t-68 22q-36 0 -62 -14.5t-33 -38.5q17 4 53 4q74 0 146 -20zM-164 598q0 12 -8.5 20.5t-19.5 8.5t-20 -8.5t-9 -20.5t9 -20t20 -8t19.5 8t8.5 20zM-133 598q0 -20 -11.5 -36t-29.5 -21q24 -39 30 -91q-124 40 -227 40q-47 0 -95 -6q12 134 146 134
q39 0 70 -12q3 22 19 37t39 15q25 0 42 -17.5t17 -42.5z" />
    <glyph glyph-name="uni0E37.alt1" unicode="&#xf704;" 
d="M-144 450q-124 40 -227 40q-47 0 -95 -6q12 134 146 134q15 0 28 -2v32h45v-42q22 -9 41 -27v69h60v-184zM-208 509q-6 25 -36 47t-68 22q-36 0 -62 -14.5t-33 -38.5q17 4 53 4q74 0 146 -20z" />
    <glyph glyph-name="uni0E48.alt1" unicode="&#xf705;" 
d="M-171 464h-62v141h62v-141z" />
    <glyph glyph-name="uni0E49.alt1" unicode="&#xf706;" 
d="M-81 628q-4 -49 -21 -82.5t-45 -54.5t-66.5 -30.5t-84.5 -9.5h-30v38q20 1 32.5 13.5t15.5 24.5q-22 5 -36 22.5t-14 40.5q0 26 18 43t43 17q29 0 45.5 -18t16.5 -46q0 -25 -14 -51.5t-28 -41.5q48 10 77.5 47.5t31.5 87.5h59zM-245 588q0 11 -7 18t-18 7q-10 0 -17 -7
t-7 -18q0 -10 7 -17t17 -7q11 0 18 7t7 17z" />
    <glyph glyph-name="uni0E4A.alt1" unicode="&#xf707;" 
d="M-81 629q-5 -171 -165 -171v32q42 21 42 65q0 32 -31 40l-34 -34l-35 37q-8 -2 -17.5 -9.5t-14.5 -14.5q26 0 44 -17.5t18 -43.5q0 -25 -18 -42t-42 -17q-25 0 -43 16.5t-18 46.5q0 20 5 40t17 36.5t31.5 28.5t48.5 15l25 -29l25 29q35 -1 56.5 -23t21.5 -56
q0 -31 -13 -54q23 14 37 47t14 78h46zM-308 513q0 11 -8 19.5t-19 8.5t-19.5 -8.5t-8.5 -19.5t8.5 -19t19.5 -8t19 8t8 19z" />
    <glyph glyph-name="uni0E4B.alt1" unicode="&#xf708;" 
d="M-146 514h-57v-50h-56v50h-57v41h57v48h56v-48h57v-41z" />
    <glyph glyph-name="uni0E4C.alt1" unicode="&#xf709;" 
d="M-108 667q-4 -42 -27 -60.5t-62 -29.5q16 -8 25.5 -23.5t9.5 -34.5q0 -27 -19 -46t-46 -19t-46 19t-19 47q0 72 74 93q42 11 53.5 28t11.5 26h45zM-198 519q0 11 -8.5 19.5t-19.5 8.5t-19.5 -8.5t-8.5 -19.5t8.5 -19.5t19.5 -8.5t19.5 8.5t8.5 19.5z" />
    <glyph glyph-name="uni0E48.alt2" unicode="&#xf70a;" 
d="M-51 464h-62v141h62v-141z" />
    <glyph glyph-name="uni0E49.alt2" unicode="&#xf70b;" 
d="M10 637q-10 -53 -28 -89t-46 -57.5t-65.5 -30.5t-86.5 -9h-33v40q20 1 33.5 14t18.5 26q-25 4 -39.5 22t-14.5 44q0 27 19.5 45t45.5 18q30 0 47 -19t17 -48t-14 -56t-29 -42q50 9 81.5 48.5t33.5 93.5h60zM-161 595q0 11 -7.5 18.5t-18.5 7.5t-18 -7.5t-7 -18.5t7 -18.5
t18 -7.5t18.5 7.5t7.5 18.5z" />
    <glyph glyph-name="uni0E4A.alt2" unicode="&#xf70c;" 
d="M-21 629q-5 -171 -165 -171v32q42 21 42 65q0 32 -31 40l-34 -34l-35 37q-8 -2 -17.5 -9.5t-14.5 -14.5q26 0 44 -17.5t18 -43.5q0 -25 -18 -42t-42 -17q-25 0 -43 16.5t-18 46.5q0 20 5 40t17 36.5t31.5 28.5t48.5 15l25 -29l25 29q35 -1 56.5 -23t21.5 -56
q0 -31 -13 -54q23 14 37 47t14 78h46zM-248 513q0 11 -8 19.5t-19 8.5t-19.5 -8.5t-8.5 -19.5t8.5 -19t19.5 -8t19 8t8 19z" />
    <glyph glyph-name="uni0E4B.alt2" unicode="&#xf70d;" 
d="M3 514h-57v-50h-56v50h-57v41h57v48h56v-48h57v-41z" />
    <glyph glyph-name="uni0E4C.alt2" unicode="&#xf70e;" 
d="M-10 667q-4 -42 -27 -60.5t-62 -29.5q16 -8 25.5 -23.5t9.5 -34.5q0 -27 -19 -46t-46 -19t-46 19t-19 47q0 72 74 93q42 11 53.5 28t11.5 26h45zM-100 519q0 11 -8.5 19.5t-19.5 8.5t-19.5 -8.5t-8.5 -19.5t8.5 -19.5t19.5 -8.5t19.5 8.5t8.5 19.5z" />
    <glyph glyph-name="uni0E0D.alt1" unicode="&#xf70f;" horiz-adv-x="565" 
d="M164 69q0 14 -10 24t-24 10t-24 -10t-10 -24t10 -24t24 -10t24 10t10 24zM514 94q0 -50 -39 -78q-34 -24 -85 -24q-52 0 -84 24q-37 27 -37 78v171q0 39 -24.5 63.5t-60.5 24.5q-61 0 -87 -50q39 -3 66 -45q-51 -28 -51 -72v-43q8 1 17 1q32 0 54 -22t22 -54t-22 -54
t-54 -22q-33 0 -56 23t-23 58v117q0 42 41 66q-25 17 -61 8q2 66 46 106q41 37 105 37q67 0 108.5 -38t41.5 -105v-179q0 -21 18 -30.5t42 -9.5q23 0 42 9.5t19 30.5v314h62v-305z" />
    <glyph glyph-name="uni0E31.alt1" unicode="&#xf710;" 
d="M-54 643q-26 -166 -180 -166q-60 0 -92 24.5t-32 62.5q0 29 20 49t49 20q31 0 50.5 -20.5t19.5 -48.5q0 -27 -15 -40q104 4 121 119h59zM-259 564q0 13 -9 22t-22 9t-21.5 -9t-8.5 -22t8.5 -21.5t21.5 -8.5t22 8.5t9 21.5z" />
    <glyph glyph-name="uni0E4D.alt1" unicode="&#xf711;" 
d="M-157 549q0 -35 -24.5 -59.5t-59.5 -24.5q-36 0 -60.5 24.5t-24.5 59.5t25 60t60 25t59.5 -24.5t24.5 -60.5zM-201 549q0 17 -11.5 29t-28.5 12t-29 -12t-12 -29t12 -28.5t29 -11.5t28.5 11.5t11.5 28.5z" />
    <glyph glyph-name="uni0E47.alt1" unicode="&#xf712;" 
d="M-140 521q0 -21 -15 -36.5t-37 -15.5q-49 0 -112 42q-13 -4 -28.5 -19.5t-17.5 -27.5q-53 35 -53 85q0 39 31 61q27 20 70 20h68q49 0 49 44v23h48v-22q0 -41 -27 -63t-69 -22h-73q-16 0 -29 -10.5t-13 -27.5q0 -16 6 -26q15 23 45 25q23 -15 55 -26q0 20 15.5 34
t34.5 14q22 0 37 -15.5t15 -36.5zM-170 521q0 9 -6.5 15.5t-15.5 6.5t-15.5 -6.5t-6.5 -15.5t6.5 -15.5t15.5 -6.5t15.5 6.5t6.5 15.5z" />
    <glyph glyph-name="uni0E48.alt3" unicode="&#xf713;" 
d="M-146 677h-60v114h60v-114z" />
    <glyph glyph-name="uni0E49.alt3" unicode="&#xf714;" 
d="M-73 835q-18 -95 -66.5 -131.5t-141.5 -36.5h-28v33q40 3 49 29q-51 13 -51 59q0 24 17 40t41 16q27 0 42.5 -16.5t15.5 -42.5q0 -39 -44 -83q49 10 80 46.5t34 86.5h52zM-228 786q0 11 -7.5 18.5t-18.5 7.5t-18.5 -7.5t-7.5 -18.5t7.5 -18.5t18.5 -7.5t18.5 7.5
t7.5 18.5z" />
    <glyph glyph-name="uni0E4A.alt3" unicode="&#xf715;" 
d="M-66 829q-4 -157 -152 -157v29q39 19 39 60q0 29 -29 37l-31 -32l-32 34q-17 -4 -30 -22q24 0 40.5 -16t16.5 -40q0 -22 -16 -38t-39 -16q-24 0 -40 15.5t-16 42.5q0 18 6 36t17.5 34t29 26.5t41.5 13.5l23 -26l23 26q31 -1 51.5 -21t20.5 -51q0 -28 -12 -50
q47 29 47 115h42zM-275 722q0 11 -7 18.5t-18 7.5t-18.5 -7.5t-7.5 -18.5t7.5 -18t18.5 -7t18 7t7 18z" />
    <glyph glyph-name="uni0E4B.alt3" unicode="&#xf716;" 
d="M-96 721h-52v-44h-55v44h-48v41h48v42h55v-42h52v-41z" />
    <glyph glyph-name="uni0E4C.alt3" unicode="&#xf717;" 
d="M-105 835q-3 -37 -25 -56q-17 -16 -57 -27q33 -16 33 -53q0 -25 -17.5 -42.5t-42.5 -17.5t-42.5 18t-17.5 43q0 63 68 85q31 10 40 16q20 12 20 34h41zM-188 699q0 11 -7 18.5t-18 7.5t-18.5 -7.5t-7.5 -18.5t7.5 -18t18.5 -7t18 7t7 18z" />
    <glyph glyph-name="uni0E38.alt1" unicode="&#xf718;" 
d="M-86 -307q0 11 -8.5 19t-19.5 8t-19 -8t-8 -19t8 -19t19 -8t19.5 8t8.5 19zM-51 -445h-60v76h-4q-25 0 -42.5 17.5t-17.5 41.5q0 25 17.5 43t43.5 18q23 0 43 -15.5t20 -44.5v-136z" />
    <glyph glyph-name="uni0E39.alt1" unicode="&#xf719;" 
d="M-51 -392q0 -33 -28 -50q-24 -15 -63 -15q-34 0 -59 14q-28 16 -28 44v30h-6q-25 0 -42.5 17.5t-17.5 41.5q0 25 17.5 43t43.5 18q25 0 44 -16t19 -44v-90q0 -15 30 -15q32 0 32 15v141h58v-134zM-206 -307q0 11 -8 19t-19 8t-19.5 -8t-8.5 -19t8.5 -19.5t19.5 -8.5
t19 8.5t8 19.5z" />
    <glyph glyph-name="uni0E3A.alt1" unicode="&#xf71a;" 
d="M-45 -286q0 -14 -10.5 -24.5t-24.5 -10.5t-24.5 10.5t-10.5 24.5t10.5 24.5t24.5 10.5t24.5 -10.5t10.5 -24.5z" />
    <glyph glyph-name="uni0E0F.alt1" unicode="&#xf71c;" horiz-adv-x="425" 
d="M126 -137q-10 5 -28 5q-32 0 -32 -27q0 -25 26 -25q34 0 34 47zM118 68q0 14 -10 24t-24 10t-24 -10t-10 -24t10 -24t24 -10t24 10t10 24zM374 -231h-56l-52 68l-49 -68l-46 63q-4 -28 -26 -47.5t-48 -19.5q-33 0 -55 21.5t-22 53.5q0 74 85 74q19 0 27 -3q12 37 52 58
l35 -42q-37 -10 -41 -41l39 -48l48 61l47 -54v420q0 40 -26.5 64.5t-66.5 24.5q-61 0 -89 -51q49 -10 67 -45q-27 -15 -36 -25q-13 -16 -13 -43q0 -22 5 -63.5t5 -58.5q0 -32 -21.5 -54t-52.5 -22q-32 0 -54 22t-22 54q0 31 22 53t52 22q12 0 15 -3l-6 62q0 35 34 54
q-27 17 -61 12q1 62 46 102q43 37 108 37q70 0 113 -39t43 -104v-495z" />
    <glyph glyph-name="uni0E2C.alt1" unicode="&#xf71d;" horiz-adv-x="475" 
d="M417 0h-63l-94 178l-93 -178h-64v257q-10 -2 -17 -2q-32 0 -54 22.5t-22 54.5q0 31 22 53t54 22q34 0 56.5 -23t22.5 -58v-160q0 -31 -12 -98q9 24 22 48l63 105h44l63 -105q13 -24 22 -48q-12 67 -12 98v91q-10 -2 -17 -2q-32 0 -54 22.5t-22 54.5q0 31 22 53t54 22
q23 0 40 -11q19 16 24 43h54q-7 -51 -47 -77q8 -16 8 -36v-326zM372 331q0 14 -10 24t-24 10t-24 -10t-10 -24t10 -24t24 -10t24 10t10 24zM120 331q0 14 -10 24t-24 10t-24 -10t-10 -24t10 -24t24 -10t24 10t10 24z" />
    <glyph glyph-name="franc" unicode="&#x20a3;" horiz-adv-x="393" 
d="M264 90h-128v-90h-60v90h-70v52h70v335h279v-54h-219v-150h205v-54h-205v-77h128v-52z" />
    <glyph glyph-name="dong" unicode="&#x20ab;" horiz-adv-x="435" 
d="M385 0h-60q-3 11 -3 37q-47 -46 -121 -46t-124.5 52.5t-50.5 133.5q0 75 48.5 125.5t121.5 50.5q75 0 122 -47v104h-98v44h98v50h63v-50h58v-44h-58v-319q0 -42 4 -91zM318 129v78q0 38 -37 66t-79 28q-52 0 -83 -35t-31 -89q0 -61 31 -96t87 -35q50 0 81 22.5t31 60.5z
M415 -103h-381v58h381v-58z" />
    <glyph glyph-name="Abreve" unicode="&#x102;" horiz-adv-x="451" 
d="M452 0h-69l-63 159h-191l-62 -159h-68l200 483h54zM296 213l-70 198l-74 -198h144zM343 627q-10 -57 -40 -84.5t-78 -27.5t-78 27.5t-40 84.5h54q5 -25 20.5 -44.5t43.5 -19.5t44 19.5t21 44.5h53z" />
    <glyph glyph-name="abreve" unicode="&#x103;" horiz-adv-x="367" 
d="M330 3l-59 -12l-10 44q-51 -44 -115 -44q-51 0 -85 27.5t-35 74.5q0 127 227 130q-10 75 -82 75q-54 0 -119 -25l-7 57q68 20 129 20q142 0 142 -146v-113q0 -38 14 -88zM253 108v60q-163 -3 -163 -69q0 -53 59 -53q33 0 66 16q38 19 38 46zM301 491q-10 -57 -40 -84.5
t-78 -27.5t-78 27.5t-40 84.5h54q5 -25 20.5 -44.5t43.5 -19.5t44 19.5t21 44.5h53z" />
    <glyph glyph-name="Cacute" unicode="&#x106;" horiz-adv-x="432" 
d="M410 25q-73 -32 -174 -32q-95 0 -152.5 67.5t-57.5 176.5q0 108 56 174q62 72 173 72q85 0 155 -29l-20 -50q-60 25 -133 25q-92 0 -135 -68q-32 -50 -32 -126q0 -70 35 -122q44 -66 124 -66q83 0 144 30zM225 636l57 -18l-84 -97h-48z" />
    <glyph glyph-name="cacute" unicode="&#x107;" horiz-adv-x="347" 
d="M322 21q-48 -30 -117 -30q-81 0 -130 50.5t-49 130.5q0 81 49 131t130 50q68 0 117 -30l-22 -52q-47 29 -97 29q-51 0 -82 -35.5t-31 -92.5q0 -58 31 -93t82 -35q50 0 97 29zM182 500l57 -18l-84 -97h-48z" />
    <glyph glyph-name="Ccaron" unicode="&#x10c;" horiz-adv-x="432" 
d="M410 25q-73 -32 -174 -32q-95 0 -152.5 67.5t-57.5 176.5q0 108 56 174q62 72 173 72q85 0 155 -29l-20 -50q-60 25 -133 25q-92 0 -135 -68q-32 -50 -32 -126q0 -70 35 -122q44 -66 124 -66q83 0 144 30zM233 521h-35l-77 115h54l41 -71l40 71h55z" />
    <glyph glyph-name="ccaron" unicode="&#x10d;" horiz-adv-x="347" 
d="M322 21q-48 -30 -117 -30q-81 0 -130 50.5t-49 130.5q0 81 49 131t130 50q68 0 117 -30l-22 -52q-47 29 -97 29q-51 0 -82 -35.5t-31 -92.5q0 -58 31 -93t82 -35q50 0 97 29zM190 385h-35l-77 115h54l41 -71l40 71h55z" />
    <glyph glyph-name="Dcroat" unicode="&#x110;" horiz-adv-x="459" 
d="M433 248q0 -108 -52 -173q-64 -79 -197 -79q-41 0 -134 10v200h-41v54h41v208q114 13 154 13q122 0 181 -73q48 -59 48 -160zM369 248q0 179 -168 179q-28 0 -88 -6v-161h160v-54h-160v-153q33 -3 83 -3q97 0 141 69q32 51 32 129z" />
    <glyph glyph-name="dcroat" unicode="&#x111;" horiz-adv-x="435" 
d="M385 0h-60q-3 11 -3 37q-47 -46 -121 -46t-124.5 52.5t-50.5 133.5q0 75 48.5 125.5t121.5 50.5q75 0 122 -47v104h-98v44h98v50h63v-50h58v-44h-58v-319q0 -42 4 -91zM318 129v78q0 38 -37 66t-79 28q-52 0 -83 -35t-31 -89q0 -61 31 -96t87 -35q50 0 81 22.5t31 60.5z
" />
    <glyph glyph-name="Gbreve" unicode="&#x11e;" horiz-adv-x="454" 
d="M414 11l-32 8q-58 -26 -146 -26q-95 0 -152.5 67.5t-57.5 176.5q0 108 56 174q62 72 173 72q85 0 155 -29l-20 -50q-60 25 -133 25q-92 0 -135 -68q-32 -50 -32 -126q0 -70 35 -122q44 -66 124 -66q59 0 102 16v135h-120v53h183v-240zM345 627q-10 -57 -40 -84.5
t-78 -27.5t-78 27.5t-40 84.5h54q5 -25 20.5 -44.5t43.5 -19.5t44 19.5t21 44.5h53z" />
    <glyph glyph-name="gbreve" unicode="&#x11f;" horiz-adv-x="332" 
d="M292 -45q0 -47 -34 -76t-99 -29q-54 0 -111 34l22 50q53 -31 93 -31q31 0 51.5 14.5t20.5 34.5q0 30 -56 53q-42 17 -81 38t-39 55q0 16 9 41q-36 39 -36 83q0 55 37 90t89 35h144v-43h-50q18 -7 29 -33q9 -21 9 -42q0 -59 -32.5 -93.5t-93.5 -34.5q-22 0 -43 7
q-5 -5 -5 -13q0 -15 72 -35q104 -29 104 -105zM237 224q0 30 -21.5 51t-51.5 21t-51.5 -21t-21.5 -51t21.5 -50.5t51.5 -20.5q36 0 54.5 20.5t18.5 50.5zM289 491q-10 -57 -40 -84.5t-78 -27.5t-78 27.5t-40 84.5h54q5 -25 20.5 -44.5t43.5 -19.5t44 19.5t21 44.5h53z" />
    <glyph glyph-name="Idotaccent" unicode="&#x130;" horiz-adv-x="163" 
d="M113 0h-63v476h63v-476zM131 545q0 -19 -13 -31.5t-30 -12.5t-30.5 12.5t-13.5 31.5q0 18 13.5 31t30.5 13t30 -13t13 -31z" />
    <glyph glyph-name="Scedilla" unicode="&#x15e;" horiz-adv-x="365" 
d="M339 130q0 -62 -49.5 -100.5t-123.5 -38.5q-79 0 -147 43l27 57q57 -43 124 -43q49 0 77 21.5t28 57.5q0 60 -96 91q-141 45 -141 138q0 56 44.5 92.5t115.5 36.5t123 -32l-27 -50q-50 25 -97 25q-43 0 -69.5 -19.5t-26.5 -47.5q0 -55 96 -86q78 -25 110 -58t32 -87z
M254 -90q0 -32 -21 -50.5t-59 -18.5q-14 0 -31 4.5t-32 13.5l14 32q14 -7 28.5 -11t22.5 -4q32 0 32 30q0 28 -64 39l43 66h43l-28 -39q27 -8 39.5 -23.5t12.5 -38.5z" />
    <glyph glyph-name="scedilla" unicode="&#x15f;" horiz-adv-x="296" 
d="M271 97q0 -47 -36.5 -76.5t-98.5 -29.5q-51 0 -110 33l25 50q41 -28 88 -28q70 0 70 48q0 37 -68 58q-100 31 -100 95q0 43 33.5 72.5t90.5 29.5q58 0 98 -29l-23 -46q-35 26 -79 26q-26 0 -43.5 -13.5t-17.5 -34.5q0 -26 73 -51q98 -34 98 -104zM219 -90
q0 -32 -21 -50.5t-59 -18.5q-14 0 -31 4.5t-32 13.5l14 32q14 -7 28.5 -11t22.5 -4q32 0 32 30q0 28 -64 39l43 66h43l-28 -39q27 -8 39.5 -23.5t12.5 -38.5z" />
    <glyph glyph-name="Ohorn" unicode="&#x1a0;" horiz-adv-x="518" 
d="M492 237q0 -105 -65 -176t-168 -71t-168 71t-65 176t65 176.5t168 71.5q72 0 128 -37q26 33 26 79h54q0 -58 -43 -111q68 -71 68 -179zM430 238q0 82 -47 137.5t-124 55.5t-124 -55.5t-47 -137.5t47 -137.5t124 -55.5t124 55.5t47 137.5z" />
    <glyph glyph-name="ohorn" unicode="&#x1a1;" horiz-adv-x="412" 
d="M386 172q0 -76 -51 -128t-129 -52t-129 52t-51 128t51 128.5t129 52.5q70 0 120 -45q20 33 20 71h54q0 -55 -42 -109q28 -44 28 -98zM324 172q0 54 -33 90.5t-85 36.5t-85 -36.5t-33 -90.5t33 -90.5t85 -36.5t85 36.5t33 90.5z" />
    <glyph glyph-name="Uhorn" unicode="&#x1af;" horiz-adv-x="482" 
d="M432 203q0 -212 -191 -212t-191 212v273h64v-273q0 -158 127 -158t127 158v273h64v-40q22 12 35.5 38.5t13.5 52.5h54q-3 -47 -32.5 -90.5t-70.5 -58.5v-175z" />
    <glyph glyph-name="uhorn" unicode="&#x1b0;" horiz-adv-x="414" 
d="M386 4l-61 -12q-9 19 -15 48q-63 -49 -122 -49q-141 0 -141 163v186h63v-180q0 -113 86 -113q36 0 71 27.5t35 64.5v201h63v-61q20 11 35.5 38.5t15.5 53.5h54q0 -39 -29 -84q-32 -49 -76 -65v-131q0 -34 21 -87z" />
    <glyph glyph-name="hookabovecomb" unicode="&#x309;" 
d="M-42 477q0 -17 -9 -30.5t-19.5 -25.5t-19 -23.5t-8.5 -24.5h-45q0 16 9 29t20 24.5t20 22.5t9 23q0 17 -7.5 22.5t-20.5 5.5q-17 0 -30 -11t-17 -17l-26 22q8 16 27 30.5t51 14.5q29 0 47.5 -15t18.5 -47z" />
    <glyph glyph-name="tildecomb" unicode="&#x303;" 
d="M-30 456q-1 -35 -15.5 -55.5t-43.5 -20.5q-8 0 -19.5 4.5t-24 10l-23.5 10t-18 4.5q-8 0 -10 -7.5t-2 -16.5h-44q0 30 14.5 50.5t41.5 20.5q9 0 20.5 -4t22.5 -9.5t21.5 -9.5t17.5 -4q19 0 19 27h43z" />
    <glyph glyph-name="acutecomb" unicode="&#x301;" 
d="M-132 500l57 -18l-84 -97h-48z" />
    <glyph glyph-name="dotbelowcomb" unicode="&#x323;" horiz-adv-x="200" 
d="M147 -96q0 -20 -14 -34t-33 -14t-33 14t-14 34t14 34t33 14t33 -14t14 -34z" />
    <glyph glyph-name="gravecomb" unicode="&#x300;" 
d="M-53 385h-48l-84 97l57 18z" />
    <glyph glyph-name="oneeighth" unicode="&#x215b;" horiz-adv-x="542" 
d="M142 -9h-49l285 477h49zM462 79q0 17 -11.5 33t-37.5 18q-26 -2 -38 -18t-12 -33q0 -20 14 -31t36 -11q23 0 36 11t13 31zM454 209q0 14 -10.5 23.5t-30.5 9.5t-30.5 -9.5t-10.5 -23.5q0 -12 11 -21t29 -14q20 6 31 15t11 20zM511 80q0 -41 -26.5 -64.5t-72.5 -23.5
q-45 0 -71 23.5t-26 64.5q0 22 10.5 42t27.5 31q-13 10 -21.5 24t-8.5 30q0 35 25.5 57.5t64.5 22.5q38 0 64 -22.5t26 -57.5q0 -32 -30 -54q18 -11 28 -30.5t10 -42.5zM180 176h-134v39h43v174l-38 -33l-28 36l84 74q31 -2 31 -35v-216h42v-39z" />
    <glyph glyph-name="threeeighths" unicode="&#x215c;" horiz-adv-x="542" 
d="M142 -9h-49l285 477h49zM462 79q0 17 -11.5 33t-37.5 18q-26 -2 -38 -18t-12 -33q0 -20 14 -31t36 -11q23 0 36 11t13 31zM454 209q0 14 -10.5 23.5t-30.5 9.5t-30.5 -9.5t-10.5 -23.5q0 -12 11 -21t29 -14q20 6 31 15t11 20zM511 80q0 -41 -26.5 -64.5t-72.5 -23.5
q-45 0 -71 23.5t-26 64.5q0 22 10.5 42t27.5 31q-13 10 -21.5 24t-8.5 30q0 35 25.5 57.5t64.5 22.5q38 0 64 -22.5t26 -57.5q0 -32 -30 -54q18 -11 28 -30.5t10 -42.5zM223 285q0 -26 -10 -46t-26 -33.5t-37.5 -20.5t-43.5 -7q-41 0 -75 25l20 43q14 -11 28 -16.5t28 -5.5
q32 0 50.5 17t18.5 43q0 35 -33 35q-25 0 -46 -18l-16 30q44 23 59.5 41t15.5 38q0 8 -6 13.5t-19 5.5q-40 0 -57 -49l-37 19q30 72 97 72q35 0 51.5 -16t16.5 -38q0 -34 -31 -62q27 -4 39.5 -23t12.5 -47z" />
    <glyph glyph-name="fiveeighths" unicode="&#x215d;" horiz-adv-x="542" 
d="M142 -9h-49l285 477h49zM462 79q0 17 -11.5 33t-37.5 18q-26 -2 -38 -18t-12 -33q0 -20 14 -31t36 -11q23 0 36 11t13 31zM454 209q0 14 -10.5 23.5t-30.5 9.5t-30.5 -9.5t-10.5 -23.5q0 -12 11 -21t29 -14q20 6 31 15t11 20zM511 80q0 -41 -26.5 -64.5t-72.5 -23.5
q-45 0 -71 23.5t-26 64.5q0 22 10.5 42t27.5 31q-13 10 -21.5 24t-8.5 30q0 35 25.5 57.5t64.5 22.5q38 0 64 -22.5t26 -57.5q0 -32 -30 -54q18 -11 28 -30.5t10 -42.5zM223 287q0 -48 -34 -78t-88 -30q-44 0 -81 29l22 38q14 -8 28.5 -15.5t33.5 -7.5q27 0 47.5 17.5
t20.5 45.5q0 22 -15.5 35t-41.5 13q-8 0 -20 -5.5t-17 -16.5h-33l9 161h162l-9 -44h-106l-3 -57q6 3 15 5t15 2q39 0 67 -25t28 -67z" />
    <glyph glyph-name="seveneighths" unicode="&#x215e;" horiz-adv-x="542" 
d="M142 -9h-49l285 477h49zM462 79q0 17 -11.5 33t-37.5 18q-26 -2 -38 -18t-12 -33q0 -20 14 -31t36 -11q23 0 36 11t13 31zM454 209q0 14 -10.5 23.5t-30.5 9.5t-30.5 -9.5t-10.5 -23.5q0 -12 11 -21t29 -14q20 6 31 15t11 20zM511 80q0 -41 -26.5 -64.5t-72.5 -23.5
q-45 0 -71 23.5t-26 64.5q0 22 10.5 42t27.5 31q-13 10 -21.5 24t-8.5 30q0 35 25.5 57.5t64.5 22.5q38 0 64 -22.5t26 -57.5q0 -32 -30 -54q18 -11 28 -30.5t10 -42.5zM145 183h-53q2 74 19.5 136t54.5 107h-138l12 45h196l-6 -40q-21 -26 -37 -51.5t-26.5 -54.5t-16 -63.5
t-5.5 -78.5z" />
    <glyph glyph-name="space" unicode=" " horiz-adv-x="226" 
 />
    <glyph glyph-name="uni0E0E.alt1" unicode="&#xf71b;" horiz-adv-x="425" 
d="M374 -230h-63q-13 53 -92 84q-7 -88 -78 -88q-33 0 -56.5 21t-23.5 53q0 71 94 71q14 0 23 -1q5 19 11 28q10 16 31 29l41 -22q-31 -17 -37 -45q57 -20 88 -50v415q0 40 -26.5 64.5t-66.5 24.5q-61 0 -89 -51q49 -10 67 -45q-27 -15 -36 -25q-13 -16 -13 -43
q0 -22 5 -63.5t5 -58.5q0 -32 -21.5 -54t-52.5 -22q-32 0 -54 22t-22 54q0 31 22 53t52 22q12 0 15 -3l-6 62q0 35 34 54q-27 17 -61 12q1 62 46 102q43 37 108 37q70 0 113 -39t43 -104v-494zM173 -135q-9 3 -24 3q-41 0 -42 -24q-1 -32 32 -32q19 2 27 15t7 38zM118 68
q0 14 -10 24t-24 10t-24 -10t-10 -24t10 -24t24 -10t24 10t10 24z" />
    <glyph glyph-name="onethird" unicode="&#x2153;" horiz-adv-x="542" 
d="M142 -9h-49l285 477h49zM180 176h-134v39h43v174l-38 -33l-28 36l84 74q31 -2 31 -35v-216h42v-39zM515 99q0 -26 -10 -46t-26 -33.5t-37.5 -20.5t-43.5 -7q-41 0 -75 25l20 43q14 -11 28 -16.5t28 -5.5q32 0 50.5 17t18.5 43q0 35 -33 35q-25 0 -46 -18l-16 30
q44 23 59.5 41t15.5 38q0 8 -6 13.5t-19 5.5q-40 0 -57 -49l-37 19q30 72 97 72q35 0 51.5 -16t16.5 -38q0 -34 -31 -62q27 -4 39.5 -23t12.5 -47z" />
    <glyph glyph-name="twothirds" unicode="&#x2154;" horiz-adv-x="542" 
d="M142 -9h-49l285 477h49zM515 99q0 -26 -10 -46t-26 -33.5t-37.5 -20.5t-43.5 -7q-41 0 -75 25l20 43q14 -11 28 -16.5t28 -5.5q32 0 50.5 17t18.5 43q0 35 -33 35q-25 0 -46 -18l-16 30q44 23 59.5 41t15.5 38q0 8 -6 13.5t-19 5.5q-40 0 -57 -49l-37 19q30 72 97 72
q35 0 51.5 -16t16.5 -38q0 -34 -31 -62q27 -4 39.5 -23t12.5 -47zM186 182h-178q1 23 18 51.5t52 60.5l26 24.5t24 25t18 25t7 25.5q0 37 -34 37q-20 0 -33.5 -14t-15.5 -40l-46 7q5 42 30.5 65t61.5 23q39 0 64 -18t25 -60q0 -20 -11.5 -40t-30.5 -40.5t-42.5 -43
l-47.5 -47.5h119z" />
    <glyph glyph-name="uni2155" unicode="&#x2155;" horiz-adv-x="542" 
d="M142 -9h-49l285 477h49zM180 176h-134v39h43v174l-38 -33l-28 36l84 74q31 -2 31 -35v-216h42v-39zM519 100q0 -48 -34 -78t-88 -30q-44 0 -81 29l22 38q14 -8 28.5 -15.5t33.5 -7.5q27 0 47.5 17.5t20.5 45.5q0 22 -15.5 35t-41.5 13q-8 0 -20 -5.5t-17 -16.5h-33l9 161
h162l-9 -44h-106l-3 -57q6 3 15 5t15 2q39 0 67 -25t28 -67z" />
    <glyph glyph-name="uni2156" unicode="&#x2156;" horiz-adv-x="542" 
d="M142 -9h-49l285 477h49zM519 100q0 -48 -34 -78t-88 -30q-44 0 -81 29l22 38q14 -8 28.5 -15.5t33.5 -7.5q27 0 47.5 17.5t20.5 45.5q0 22 -15.5 35t-41.5 13q-8 0 -20 -5.5t-17 -16.5h-33l9 161h162l-9 -44h-106l-3 -57q6 3 15 5t15 2q39 0 67 -25t28 -67zM186 182h-178
q1 23 18 51.5t52 60.5l26 24.5t24 25t18 25t7 25.5q0 37 -34 37q-20 0 -33.5 -14t-15.5 -40l-46 7q5 42 30.5 65t61.5 23q39 0 64 -18t25 -60q0 -20 -11.5 -40t-30.5 -40.5t-42.5 -43l-47.5 -47.5h119z" />
    <glyph glyph-name="uni2157" unicode="&#x2157;" horiz-adv-x="542" 
d="M142 -9h-49l285 477h49zM519 100q0 -48 -34 -78t-88 -30q-44 0 -81 29l22 38q14 -8 28.5 -15.5t33.5 -7.5q27 0 47.5 17.5t20.5 45.5q0 22 -15.5 35t-41.5 13q-8 0 -20 -5.5t-17 -16.5h-33l9 161h162l-9 -44h-106l-3 -57q6 3 15 5t15 2q39 0 67 -25t28 -67zM223 285
q0 -26 -10 -46t-26 -33.5t-37.5 -20.5t-43.5 -7q-41 0 -75 25l20 43q14 -11 28 -16.5t28 -5.5q32 0 50.5 17t18.5 43q0 35 -33 35q-25 0 -46 -18l-16 30q44 23 59.5 41t15.5 38q0 8 -6 13.5t-19 5.5q-40 0 -57 -49l-37 19q30 72 97 72q35 0 51.5 -16t16.5 -38q0 -34 -31 -62
q27 -4 39.5 -23t12.5 -47z" />
    <glyph glyph-name="uni2158" unicode="&#x2158;" horiz-adv-x="542" 
d="M142 -9h-49l285 477h49zM519 100q0 -48 -34 -78t-88 -30q-44 0 -81 29l22 38q14 -8 28.5 -15.5t33.5 -7.5q27 0 47.5 17.5t20.5 45.5q0 22 -15.5 35t-41.5 13q-8 0 -20 -5.5t-17 -16.5h-33l9 161h162l-9 -44h-106l-3 -57q6 3 15 5t15 2q39 0 67 -25t28 -67zM134 282v125
q-22 -29 -38.5 -63.5t-19.5 -61.5h58zM225 240h-41v-61h-50v61h-110q2 71 31 127t60 78.5t69 23.5v-187h43z" />
    <glyph glyph-name="uni2159" unicode="&#x2159;" horiz-adv-x="542" 
d="M142 -9h-49l285 477h49zM180 176h-134v39h43v174l-38 -33l-28 36l84 74q31 -2 31 -35v-216h42v-39zM502 89q0 -41 -23.5 -67.5t-65.5 -26.5q-50 0 -76 31.5t-26 75.5q0 32 12 63.5t34 58t53.5 45t71.5 24.5l1 -35q-32 -11 -60.5 -30.5t-45.5 -49.5q8 3 18 4.5t21 1.5
q35 0 60.5 -24t25.5 -71zM454 89q0 25 -12.5 41t-32.5 16q-21 0 -34 -16t-13 -41q0 -23 13 -38.5t34 -15.5q22 0 33.5 15.5t11.5 38.5z" />
    <glyph glyph-name="uni215A" unicode="&#x215a;" horiz-adv-x="542" 
d="M142 -9h-49l285 477h49zM502 89q0 -41 -23.5 -67.5t-65.5 -26.5q-50 0 -76 31.5t-26 75.5q0 32 12 63.5t34 58t53.5 45t71.5 24.5l1 -35q-32 -11 -60.5 -30.5t-45.5 -49.5q8 3 18 4.5t21 1.5q35 0 60.5 -24t25.5 -71zM454 89q0 25 -12.5 41t-32.5 16q-21 0 -34 -16
t-13 -41q0 -23 13 -38.5t34 -15.5q22 0 33.5 15.5t11.5 38.5zM223 287q0 -48 -34 -78t-88 -30q-44 0 -81 29l22 38q14 -8 28.5 -15.5t33.5 -7.5q27 0 47.5 17.5t20.5 45.5q0 22 -15.5 35t-41.5 13q-8 0 -20 -5.5t-17 -16.5h-33l9 161h162l-9 -44h-106l-3 -57q6 3 15 5t15 2
q39 0 67 -25t28 -67z" />
    <glyph glyph-name="nonmarkingreturn" 
 />
    </font>
</defs>
</svg>
