<?xml version="1.0" standalone="no"?>
<!DOCTYPE svg PUBLIC "-//W3C//DTD SVG 1.1//EN" "http://www.w3.org/Graphics/SVG/1.1/DTD/svg11.dtd" >
<svg>
<metadata>
Created by FontForge 20090622 at Mon Dec  7 09:11:32 2015
 By deploy user
Copyright (c) 2010-2011 by Software Industry Promotion Agency (Public Organization) (SIPA). All rights reserved.
Created by : Suppakit CHALERMLARP.
</metadata>
<defs>
<font id="THSarabunNew-BoldItalic" horiz-adv-x="0" >
  <font-face 
    font-family="TH Sarabun New"
    font-weight="700"
    font-style="italic"
    font-stretch="normal"
    units-per-em="1000"
    panose-1="2 11 5 0 4 2 0 2 0 3"
    ascent="800"
    descent="-200"
    x-height="340"
    cap-height="476"
    bbox="-407 -481 947 844"
    underline-thickness="30"
    underline-position="-20"
    slope="-12"
    unicode-range="U+0020-U+FB02"
  />
<missing-glyph horiz-adv-x="698" 
d="M645 0h-592v809h592v-809zM609 31v747h-520v-747h520z" />
    <glyph glyph-name="Agrave" unicode="A&#x300;" horiz-adv-x="451" 
d="M408 0h-69l-30 159h-191l-95 -159h-68l302 483h54zM297 213l-28 198l-116 -198h144zM357 521h-48l-63 97l61 18z" />
    <glyph glyph-name="Aacute" unicode="A&#x301;" horiz-adv-x="451" 
d="M408 0h-69l-30 159h-191l-95 -159h-68l302 483h54zM297 213l-28 198l-116 -198h144zM325 636l53 -18l-105 -97h-48z" />
    <glyph glyph-name="Atilde" unicode="A&#x303;" horiz-adv-x="451" 
d="M408 0h-69l-30 159h-191l-95 -159h-68l302 483h54zM297 213l-28 198l-116 -198h144zM405 592q-8 -35 -26.5 -55.5t-47.5 -20.5q-8 0 -18.5 4.5t-21.5 10t-21.5 10t-17.5 4.5q-8 0 -11.5 -7.5t-5.5 -16.5h-44q7 30 25.5 50.5t45.5 20.5q9 0 20 -4t20.5 -9.5t19.5 -9.5
t17 -4q19 0 24 27h42z" />
    <glyph glyph-name="Egrave" unicode="E&#x300;" horiz-adv-x="358" 
d="M289 0h-283l101 476h283l-12 -54h-220l-30 -144h196l-12 -54h-196l-36 -170h220zM311 521h-48l-63 97l61 18z" />
    <glyph glyph-name="Eacute" unicode="E&#x301;" horiz-adv-x="358" 
d="M289 0h-283l101 476h283l-12 -54h-220l-30 -144h196l-12 -54h-196l-36 -170h220zM279 636l53 -18l-105 -97h-48z" />
    <glyph glyph-name="Igrave" unicode="I&#x300;" horiz-adv-x="163" 
d="M69 0h-63l101 476h63zM213 521h-48l-63 97l61 18z" />
    <glyph glyph-name="Iacute" unicode="I&#x301;" horiz-adv-x="163" 
d="M69 0h-63l101 476h63zM181 636l53 -18l-105 -97h-48z" />
    <glyph glyph-name="Ograve" unicode="O&#x300;" horiz-adv-x="518" 
d="M436 238q18 82 -17.5 137.5t-112.5 55.5t-135.5 -55.5t-76.5 -137.5q-17 -82 18 -137.5t112 -55.5t136 55.5t76 137.5zM498 237q-22 -105 -102.5 -176t-183.5 -71t-152.5 71t-27.5 176t102.5 176.5t183.5 71.5t152.5 -71.5t27.5 -176.5zM391 521h-48l-63 97l61 18z" />
    <glyph glyph-name="Oacute" unicode="O&#x301;" horiz-adv-x="518" 
d="M436 238q18 82 -17.5 137.5t-112.5 55.5t-135.5 -55.5t-76.5 -137.5q-17 -82 18 -137.5t112 -55.5t136 55.5t76 137.5zM498 237q-22 -105 -102.5 -176t-183.5 -71t-152.5 71t-27.5 176t102.5 176.5t183.5 71.5t152.5 -71.5t27.5 -176.5zM359 636l53 -18l-105 -97h-48z
" />
    <glyph glyph-name="Otilde" unicode="O&#x303;" horiz-adv-x="518" 
d="M436 238q18 82 -17.5 137.5t-112.5 55.5t-135.5 -55.5t-76.5 -137.5q-17 -82 18 -137.5t112 -55.5t136 55.5t76 137.5zM498 237q-22 -105 -102.5 -176t-183.5 -71t-152.5 71t-27.5 176t102.5 176.5t183.5 71.5t152.5 -71.5t27.5 -176.5zM439 592q-8 -35 -26.5 -55.5
t-47.5 -20.5q-8 0 -18.5 4.5t-21.5 10t-21.5 10t-17.5 4.5q-8 0 -11.5 -7.5t-5.5 -16.5h-44q7 30 25.5 50.5t45.5 20.5q9 0 20 -4t20.5 -9.5t19.5 -9.5t17 -4q19 0 24 27h42z" />
    <glyph glyph-name="Ugrave" unicode="U&#x300;" horiz-adv-x="482" 
d="M431 203q-45 -212 -236 -212t-146 212l58 273h64l-58 -273q-34 -158 93 -158t161 158l58 273h64zM372 521h-48l-63 97l61 18z" />
    <glyph glyph-name="Uacute" unicode="U&#x301;" horiz-adv-x="482" 
d="M431 203q-45 -212 -236 -212t-146 212l58 273h64l-58 -273q-34 -158 93 -158t161 158l58 273h64zM340 636l53 -18l-105 -97h-48z" />
    <glyph glyph-name="Yacute" unicode="Y&#x301;" horiz-adv-x="396" 
d="M186 0h-62l44 208l-117 268h73l86 -214l177 214h72l-229 -267zM298 636l53 -18l-105 -97h-48z" />
    <glyph glyph-name="agrave" unicode="a&#x300;" horiz-adv-x="431" 
d="M366 4l-63 -12q-12 16 -15 58q-49 -59 -130 -59q-63 0 -103.5 38t-40.5 101q0 90 61.5 156.5t151.5 66.5q111 0 170 -63l-42 -199q-8 -48 11 -87zM304 142l25 120q-39 39 -108 39q-59 0 -102.5 -48.5t-43.5 -113.5q0 -93 96 -93q47 0 86 28.5t47 67.5zM316 385h-48
l-63 97l61 18z" />
    <glyph glyph-name="aacute" unicode="a&#x301;" horiz-adv-x="431" 
d="M366 4l-63 -12q-12 16 -15 58q-49 -59 -130 -59q-63 0 -103.5 38t-40.5 101q0 90 61.5 156.5t151.5 66.5q111 0 170 -63l-42 -199q-8 -48 11 -87zM304 142l25 120q-39 39 -108 39q-59 0 -102.5 -48.5t-43.5 -113.5q0 -93 96 -93q47 0 86 28.5t47 67.5zM306 500l53 -18
l-105 -97h-48z" />
    <glyph glyph-name="atilde" unicode="a&#x303;" horiz-adv-x="431" 
d="M366 4l-63 -12q-12 16 -15 58q-49 -59 -130 -59q-63 0 -103.5 38t-40.5 101q0 90 61.5 156.5t151.5 66.5q111 0 170 -63l-42 -199q-8 -48 11 -87zM304 142l25 120q-39 39 -108 39q-59 0 -102.5 -48.5t-43.5 -113.5q0 -93 96 -93q47 0 86 28.5t47 67.5zM365 456
q-8 -35 -26.5 -55.5t-47.5 -20.5q-8 0 -18.5 4.5t-21.5 10t-21.5 10t-17.5 4.5q-8 0 -11.5 -7.5t-5.5 -16.5h-44q7 30 25.5 50.5t45.5 20.5q9 0 20 -4t20.5 -9.5t19.5 -9.5t17 -4q19 0 24 27h42z" />
    <glyph glyph-name="egrave" unicode="e&#x300;" horiz-adv-x="391" 
d="M362 246q0 -51 -53 -78q-45 -23 -112 -23q-61 0 -120 8q-1 -6 -1 -12q0 -45 29 -69.5t76 -24.5q54 0 134 26l-5 -55q-78 -27 -144 -27q-69 0 -111.5 35.5t-42.5 96.5q0 96 68 163t159 67q123 0 123 -107zM308 247q0 54 -78 54q-41 0 -83.5 -30t-58.5 -73q28 -7 96 -7
q124 0 124 56zM299 385h-48l-63 97l61 18z" />
    <glyph glyph-name="eacute" unicode="e&#x301;" horiz-adv-x="391" 
d="M362 246q0 -51 -53 -78q-45 -23 -112 -23q-61 0 -120 8q-1 -6 -1 -12q0 -45 29 -69.5t76 -24.5q54 0 134 26l-5 -55q-78 -27 -144 -27q-69 0 -111.5 35.5t-42.5 96.5q0 96 68 163t159 67q123 0 123 -107zM308 247q0 54 -78 54q-41 0 -83.5 -30t-58.5 -73q28 -7 96 -7
q124 0 124 56zM267 500l53 -18l-105 -97h-48z" />
    <glyph glyph-name="igrave" unicode="i&#x300;" horiz-adv-x="163" 
d="M69 0h-63l72 340h63zM185 385h-48l-63 97l61 18z" />
    <glyph glyph-name="iacute" unicode="i&#x301;" horiz-adv-x="163" 
d="M69 0h-63l72 340h63zM153 500l53 -18l-105 -97h-48z" />
    <glyph glyph-name="ograve" unicode="o&#x300;" horiz-adv-x="412" 
d="M378 172q-16 -76 -78 -128t-140 -52t-118 52t-24 128t78.5 128.5t140.5 52.5t117.5 -52.5t23.5 -128.5zM316 172q12 54 -13.5 90.5t-77.5 36.5t-92.5 -36.5t-52.5 -90.5q-11 -54 14 -90.5t77 -36.5t93 36.5t52 90.5zM310 385h-48l-63 97l61 18z" />
    <glyph glyph-name="oacute" unicode="o&#x301;" horiz-adv-x="412" 
d="M378 172q-16 -76 -78 -128t-140 -52t-118 52t-24 128t78.5 128.5t140.5 52.5t117.5 -52.5t23.5 -128.5zM316 172q12 54 -13.5 90.5t-77.5 36.5t-92.5 -36.5t-52.5 -90.5q-11 -54 14 -90.5t77 -36.5t93 36.5t52 90.5zM278 500l53 -18l-105 -97h-48z" />
    <glyph glyph-name="otilde" unicode="o&#x303;" horiz-adv-x="412" 
d="M378 172q-16 -76 -78 -128t-140 -52t-118 52t-24 128t78.5 128.5t140.5 52.5t117.5 -52.5t23.5 -128.5zM316 172q12 54 -13.5 90.5t-77.5 36.5t-92.5 -36.5t-52.5 -90.5q-11 -54 14 -90.5t77 -36.5t93 36.5t52 90.5zM358 456q-8 -35 -26.5 -55.5t-47.5 -20.5
q-8 0 -18.5 4.5t-21.5 10t-21.5 10t-17.5 4.5q-8 0 -11.5 -7.5t-5.5 -16.5h-44q7 30 25.5 50.5t45.5 20.5q9 0 20 -4t20.5 -9.5t19.5 -9.5t17 -4q19 0 24 27h42z" />
    <glyph glyph-name="ugrave" unicode="u&#x300;" horiz-adv-x="418" 
d="M354 4l-63 -12q-12 16 -15 58q-73 -59 -131 -59q-114 0 -114 105q0 26 7 58l24 111q3 14 3 29q0 22 -6 44l60 12q9 -27 9 -54q0 -19 -4 -38l-21 -98q-6 -28 -6 -45q0 -68 67 -68q37 0 77.5 28.5t48.5 63.5l43 201h63l-53 -249q-2 -9 -2 -21q0 -30 13 -66zM313 385h-48
l-63 97l61 18z" />
    <glyph glyph-name="uacute" unicode="u&#x301;" horiz-adv-x="418" 
d="M354 4l-63 -12q-12 16 -15 58q-73 -59 -131 -59q-114 0 -114 105q0 26 7 58l24 111q3 14 3 29q0 22 -6 44l60 12q9 -27 9 -54q0 -19 -4 -38l-21 -98q-6 -28 -6 -45q0 -68 67 -68q37 0 77.5 28.5t48.5 63.5l43 201h63l-53 -249q-2 -9 -2 -21q0 -30 13 -66zM281 500l53 -18
l-105 -97h-48z" />
    <glyph glyph-name="yacute" unicode="y&#x301;" horiz-adv-x="361" 
d="M165 7q-91 -133 -209 -158l-5 52q93 20 157 124l-84 315h69l64 -252l166 252h69zM252 500l53 -18l-105 -97h-48z" />
    <glyph glyph-name="fi" unicode="fi" horiz-adv-x="405" 
d="M314 0h-63l61 288h-158l-57 -267q-37 -171 -170 -171q-42 0 -66 22l28 47q31 -15 51 -15q69 0 94 117l57 267h-57l11 52h58q17 81 69.5 126t121.5 45q72 0 107 -54l-43 -45q-29 45 -77 45q-36 0 -69 -30q-36 -33 -47 -87h221z" />
    <glyph glyph-name="fl" unicode="fl" horiz-adv-x="455" 
d="M417 49l-19 -57q-148 7 -110 183l54 257q-24 25 -61 25q-36 0 -69 -30q-36 -33 -47 -87h118l-11 -52h-118l-57 -267q-37 -171 -170 -171q-42 0 -66 22l28 47q31 -15 51 -15q69 0 94 117l57 267h-57l11 52h58q17 81 69.5 126t121.5 45q80 0 115 -64l-55 -258
q-17 -77 1 -109q15 -27 62 -31z" />
    <glyph glyph-name="PSK" unicode="PSK&#x2e;Design&#x28;c&#x29;" horiz-adv-x="954" 
d="M212 520q0 28 -44 28h-38v-57h38q44 0 44 29zM271 519q0 -73 -100 -73h-41v-80h-58v225h110q89 0 89 -72zM779 366l-82 114v-114h-60v225h60v-96l82 96h70l-89 -100l96 -125h-77zM916 666q-5 -26 -30 -26q-31 0 -31 36t31 36q27 0 29 -24h-16q-3 10 -13 10q-13 0 -13 -21
q0 -24 14 -24q11 0 12 13h17zM237 120q0 26 -25 26q-27 0 -27 -25t27 -25q25 0 25 24zM261 121q0 -42 -51 -42q-48 0 -48 42q0 41 50 41q49 0 49 -41zM325 135q0 10 -17 10h-15v-21h15q17 0 17 11zM348 135q0 -27 -38 -27h-17v-25h-21v79h41q35 0 35 -27zM404 83h-23v28
l-36 51h26l24 -34q3 4 22 34h23l-36 -52v-27zM196 17l-7 17l-8 -17h15zM215 0h-13l-4 9h-20l-4 -9h-12l20 43h15zM689 0h-34v43h34v-9h-23v-8h21v-8h-21v-9h23v-9zM774 43l-17 -43h-12l-18 43h12l12 -32l12 32h11zM847 21q0 13 -13 13h-8v-24h8q13 0 13 11zM858 21
q0 -21 -24 -21h-20v43h20q24 0 24 -22zM249 0h-32v43h10v-34h22v-9zM332 30q0 5 -8 5h-6v-9h6q8 0 8 4zM345 32q0 -8 -8 -11q6 -2 10 -21h-13q0 4 -1 8q-3 9 -9 9h-6v-17h-11v43h21q17 0 17 -11zM361 43v-43h-9v43h9zM412 3q-9 -4 -19 -4q-26 0 -26 22q0 23 25 23
q19 0 20 -16h-11q-1 7 -9 7q-13 0 -13 -13q0 -14 14 -14q5 0 8 1v7h-9v8h20v-21zM462 0h-11v18h-22v-18h-11v43h11v-17h22v17h11v-43zM506 34h-14v-34h-12v34h-15v9h41v-9zM565 83h-25v79h25v-79zM668 86q-18 -5 -41 -5q-51 0 -51 41t49 41q40 0 43 -27h-26q-2 11 -18 11
q-24 0 -24 -24q0 -26 27 -26l16 2v14h-19v13h44v-40zM768 83h-23v32h-40v-32h-24v79h24v-31h40v31h23v-79zM864 144h-33v-61h-23v61h-31v18h87v-18zM506 137q0 8 -18 8h-15v-19h15q18 0 18 11zM531 83h-22l-5 20q-1 10 -17 10h-14v-30h-23v79h45q34 0 34 -21q0 -13 -17 -19
q15 -3 15 -19zM650 13q0 -14 -20 -14q-18 0 -18 16h11q0 -7 8 -7q7 0 7 4q0 1 -12.5 5.5t-12.5 12.5q0 14 18 14t18 -14h-11q0 6 -7 6t-7 -5q0 -4 13 -7t13 -11zM809 0h-33v43h33v-9h-21v-8h20v-8h-20v-9h21v-9zM608 9v-9h-34v43h33v-9h-22v-8h21v-8h-21v-9h23zM156 109
q-3 -30 -43 -30q-47 0 -47 43q0 42 49 42q37 0 41 -30h-26q-1 13 -17 13q-23 0 -23 -25t22 -25q17 0 18 12h26zM867 199h-809v25h809v-25zM562 406q0 -79 -58 -116q-46 -30 -118 -30q-61 0 -95.5 26t-34.5 73q0 16 4 31h38q-1 -7 -1 -17q0 -79 99 -79q44 0 79 21
q45 27 45 77q0 38 -52 58l-95 32q-52 22 -52 64q0 68 52 104q46 31 119 31q50 0 79.5 -21t29.5 -59q0 -15 -5 -33h-36q2 14 2 19q0 60 -66 60q-60 0 -95.5 -23t-35.5 -62q0 -26 18 -39t75.5 -29.5t80.5 -36t23 -51.5zM947 675q0 -26 -17 -42t-43 -16q-25 0 -41.5 16
t-16.5 42t16.5 42.5t41.5 16.5q26 0 43 -16.5t17 -42.5zM938 674q0 21 -15 35.5t-36 14.5q-20 0 -34 -14.5t-14 -35.5t14 -35t34 -14q21 0 36 14t15 35zM557 30q0 5 -7 5h-7v-9h7q7 0 7 4zM569 32q0 -8 -8 -11q6 -2 10 -21h-12q0 4 -1 8q-3 9 -8 9h-7v-17h-12v43h22
q16 0 16 -11zM702 26h7q7 0 7 4q0 5 -7 5h-7v-9zM730 0h-12q0 4 -1 8q-3 9 -8 9h-7v-17h-10v43h21q15 0 15 -11q0 -8 -8 -11q6 -2 10 -21zM284 0h-32v43h10v-34h22v-9z" />
    <glyph glyph-name="uni1EA0" unicode="A&#x323;" horiz-adv-x="451" 
d="M408 0h-69l-30 159h-191l-95 -159h-68l302 483h54zM297 213l-28 198l-116 -198h144zM207 -96q-4 -20 -21 -34t-36 -14t-29.5 14t-6.5 34t20.5 34t35.5 14t30 -14t7 -34z" />
    <glyph glyph-name="uni1EA1" unicode="a&#x323;" horiz-adv-x="431" 
d="M366 4l-63 -12q-12 16 -15 58q-49 -59 -130 -59q-63 0 -103.5 38t-40.5 101q0 90 61.5 156.5t151.5 66.5q111 0 170 -63l-42 -199q-8 -48 11 -87zM304 142l25 120q-39 39 -108 39q-59 0 -102.5 -48.5t-43.5 -113.5q0 -93 96 -93q47 0 86 28.5t47 67.5zM213 -96
q-4 -20 -21 -34t-36 -14t-29.5 14t-6.5 34t20.5 34t35.5 14t30 -14t7 -34z" />
    <glyph glyph-name="uni1EA2" unicode="A&#x309;" horiz-adv-x="451" 
d="M408 0h-69l-30 159h-191l-95 -159h-68l302 483h54zM297 213l-28 198l-116 -198h144zM389 613q-4 -17 -15.5 -30.5t-24 -25.5l-23.5 -23.5t-14 -24.5h-45q3 16 15 29t25.5 24.5t24.5 22.5t14 23q4 17 -2.5 22.5t-19.5 5.5q-17 0 -32.5 -11t-20.5 -17l-21 22q11 16 33 30.5
t54 14.5q29 0 44 -15t8 -47z" />
    <glyph glyph-name="uni1EA3" unicode="a&#x309;" horiz-adv-x="431" 
d="M366 4l-63 -12q-12 16 -15 58q-49 -59 -130 -59q-63 0 -103.5 38t-40.5 101q0 90 61.5 156.5t151.5 66.5q111 0 170 -63l-42 -199q-8 -48 11 -87zM304 142l25 120q-39 39 -108 39q-59 0 -102.5 -48.5t-43.5 -113.5q0 -93 96 -93q47 0 86 28.5t47 67.5zM371 477
q-4 -17 -15.5 -30.5t-24 -25.5l-23.5 -23.5t-14 -24.5h-45q3 16 15 29t25.5 24.5t24.5 22.5t14 23q4 17 -2.5 22.5t-19.5 5.5q-17 0 -32.5 -11t-20.5 -17l-21 22q11 16 33 30.5t54 14.5q29 0 44 -15t8 -47z" />
    <glyph glyph-name="uni1EA4" unicode="&#xc2;&#x301;" horiz-adv-x="451" 
d="M408 0h-69l-30 159h-191l-95 -159h-68l302 483h54zM297 213l-28 198l-116 -198h144zM386 521h-54l-26 71l-55 -71h-55l103 115h35zM478 720l53 -18l-105 -97h-48z" />
    <glyph glyph-name="uni1EA5" unicode="&#xe2;&#x301;" horiz-adv-x="431" 
d="M366 4l-63 -12q-12 16 -15 58q-49 -59 -130 -59q-63 0 -103.5 38t-40.5 101q0 90 61.5 156.5t151.5 66.5q111 0 170 -63l-42 -199q-8 -48 11 -87zM304 142l25 120q-39 39 -108 39q-59 0 -102.5 -48.5t-43.5 -113.5q0 -93 96 -93q47 0 86 28.5t47 67.5zM355 385h-54
l-26 71l-55 -71h-55l103 115h35zM452 592l53 -18l-105 -97h-48z" />
    <glyph glyph-name="uni1EA6" unicode="&#xc2;&#x300;" horiz-adv-x="451" 
d="M408 0h-69l-30 159h-191l-95 -159h-68l302 483h54zM297 213l-28 198l-116 -198h144zM386 521h-54l-26 71l-55 -71h-55l103 115h35zM485 605h-48l-63 97l61 18z" />
    <glyph glyph-name="uni1EA7" unicode="&#xe2;&#x300;" horiz-adv-x="431" 
d="M366 4l-63 -12q-12 16 -15 58q-49 -59 -130 -59q-63 0 -103.5 38t-40.5 101q0 90 61.5 156.5t151.5 66.5q111 0 170 -63l-42 -199q-8 -48 11 -87zM304 142l25 120q-39 39 -108 39q-59 0 -102.5 -48.5t-43.5 -113.5q0 -93 96 -93q47 0 86 28.5t47 67.5zM355 385h-54
l-26 71l-55 -71h-55l103 115h35zM437 477h-48l-63 97l61 18z" />
    <glyph glyph-name="uni1EA8" unicode="&#xc2;&#x309;" horiz-adv-x="451" 
d="M408 0h-69l-30 159h-191l-95 -159h-68l302 483h54zM297 213l-28 198l-116 -198h144zM387 521h-54l-26 71l-55 -71h-55l103 115h35zM526 701q-4 -17 -15.5 -30.5t-24 -25.5l-23.5 -23.5t-14 -24.5h-45q3 16 15 29t25.5 24.5t24.5 22.5t14 23q4 17 -2.5 22.5t-19.5 5.5
q-17 0 -32.5 -11t-20.5 -17l-21 22q11 16 33 30.5t54 14.5q29 0 44 -15t8 -47z" />
    <glyph glyph-name="uni1EA9" unicode="&#xe2;&#x309;" horiz-adv-x="431" 
d="M366 4l-63 -12q-12 16 -15 58q-49 -59 -130 -59q-63 0 -103.5 38t-40.5 101q0 90 61.5 156.5t151.5 66.5q111 0 170 -63l-42 -199q-8 -48 11 -87zM304 142l25 120q-39 39 -108 39q-59 0 -102.5 -48.5t-43.5 -113.5q0 -93 96 -93q47 0 86 28.5t47 67.5zM355 385h-54
l-26 71l-55 -71h-55l103 115h35zM487 571q-4 -17 -15.5 -30.5t-24 -25.5l-23.5 -23.5t-14 -24.5h-45q3 16 15 29t25.5 24.5t24.5 22.5t14 23q4 17 -2.5 22.5t-19.5 5.5q-17 0 -32.5 -11t-20.5 -17l-21 22q11 16 33 30.5t54 14.5q29 0 44 -15t8 -47z" />
    <glyph glyph-name="uni1EAA" unicode="&#xc2;&#x303;" horiz-adv-x="451" 
d="M408 0h-69l-30 159h-191l-95 -159h-68l302 483h54zM297 213l-28 198l-116 -198h144zM386 521h-54l-26 71l-55 -71h-55l103 115h35zM437 748q-8 -35 -26.5 -55.5t-47.5 -20.5q-8 0 -18.5 4.5t-21.5 10t-21.5 10t-17.5 4.5q-8 0 -11.5 -7.5t-5.5 -16.5h-44q7 30 25.5 50.5
t45.5 20.5q9 0 20 -4t20.5 -9.5t19.5 -9.5t17 -4q19 0 24 27h42z" />
    <glyph glyph-name="uni1EAB" unicode="&#xe2;&#x303;" horiz-adv-x="431" 
d="M366 4l-63 -12q-12 16 -15 58q-49 -59 -130 -59q-63 0 -103.5 38t-40.5 101q0 90 61.5 156.5t151.5 66.5q111 0 170 -63l-42 -199q-8 -48 11 -87zM304 142l25 120q-39 39 -108 39q-59 0 -102.5 -48.5t-43.5 -113.5q0 -93 96 -93q47 0 86 28.5t47 67.5zM355 385h-54
l-26 71l-55 -71h-55l103 115h35zM405 600q-8 -35 -26.5 -55.5t-47.5 -20.5q-8 0 -18.5 4.5t-21.5 10t-21.5 10t-17.5 4.5q-8 0 -11.5 -7.5t-5.5 -16.5h-44q7 30 25.5 50.5t45.5 20.5q9 0 20 -4t20.5 -9.5t19.5 -9.5t17 -4q19 0 24 27h42z" />
    <glyph glyph-name="uni1EAC" unicode="&#xc2;&#x323;" horiz-adv-x="451" 
d="M408 0h-69l-30 159h-191l-95 -159h-68l302 483h54zM297 213l-28 198l-116 -198h144zM207 -96q-4 -20 -21 -34t-36 -14t-29.5 14t-6.5 34t20.5 34t35.5 14t30 -14t7 -34zM386 521h-54l-26 71l-55 -71h-55l103 115h35z" />
    <glyph glyph-name="uni1EAD" unicode="&#xe2;&#x323;" horiz-adv-x="431" 
d="M366 4l-63 -12q-12 16 -15 58q-49 -59 -130 -59q-63 0 -103.5 38t-40.5 101q0 90 61.5 156.5t151.5 66.5q111 0 170 -63l-42 -199q-8 -48 11 -87zM304 142l25 120q-39 39 -108 39q-59 0 -102.5 -48.5t-43.5 -113.5q0 -93 96 -93q47 0 86 28.5t47 67.5zM213 -96
q-4 -20 -21 -34t-36 -14t-29.5 14t-6.5 34t20.5 34t35.5 14t30 -14t7 -34zM355 385h-54l-26 71l-55 -71h-55l103 115h35z" />
    <glyph glyph-name="uni1EAE" unicode="&#x102;&#x301;" horiz-adv-x="451" 
d="M408 0h-69l-30 159h-191l-95 -159h-68l302 483h54zM297 213l-28 198l-116 -198h144zM432 627q-22 -57 -58 -84.5t-84 -27.5t-72 27.5t-22 84.5h54q0 -25 11 -44.5t39 -19.5t48.5 19.5t30.5 44.5h53zM391 762l53 -18l-105 -97h-48z" />
    <glyph glyph-name="uni1EAF" unicode="&#x103;&#x301;" horiz-adv-x="431" 
d="M366 4l-63 -12q-12 16 -15 58q-49 -59 -130 -59q-63 0 -103.5 38t-40.5 101q0 90 61.5 156.5t151.5 66.5q111 0 170 -63l-42 -199q-8 -48 11 -87zM304 142l25 120q-39 39 -108 39q-59 0 -102.5 -48.5t-43.5 -113.5q0 -93 96 -93q47 0 86 28.5t47 67.5zM413 491
q-22 -57 -58 -84.5t-84 -27.5t-72 27.5t-22 84.5h54q0 -25 11 -44.5t39 -19.5t48.5 19.5t30.5 44.5h53zM372 626l53 -18l-105 -97h-48z" />
    <glyph glyph-name="uni1EB0" unicode="&#x102;&#x300;" horiz-adv-x="451" 
d="M408 0h-69l-30 159h-191l-95 -159h-68l302 483h54zM297 213l-28 198l-116 -198h144zM432 627q-22 -57 -58 -84.5t-84 -27.5t-72 27.5t-22 84.5h54q0 -25 11 -44.5t39 -19.5t48.5 19.5t30.5 44.5h53zM344 636h-48l-63 97l61 18z" />
    <glyph glyph-name="uni1EB1" unicode="&#x103;&#x300;" horiz-adv-x="431" 
d="M366 4l-63 -12q-12 16 -15 58q-49 -59 -130 -59q-63 0 -103.5 38t-40.5 101q0 90 61.5 156.5t151.5 66.5q111 0 170 -63l-42 -199q-8 -48 11 -87zM304 142l25 120q-39 39 -108 39q-59 0 -102.5 -48.5t-43.5 -113.5q0 -93 96 -93q47 0 86 28.5t47 67.5zM413 491
q-22 -57 -58 -84.5t-84 -27.5t-72 27.5t-22 84.5h54q0 -25 11 -44.5t39 -19.5t48.5 19.5t30.5 44.5h53zM326 502h-48l-63 97l61 18z" />
    <glyph glyph-name="uni1EB2" unicode="&#x102;&#x309;" horiz-adv-x="451" 
d="M408 0h-69l-30 159h-191l-95 -159h-68l302 483h54zM297 213l-28 198l-116 -198h144zM432 627q-22 -57 -58 -84.5t-84 -27.5t-72 27.5t-22 84.5h54q0 -25 11 -44.5t39 -19.5t48.5 19.5t30.5 44.5h53zM411 735q-4 -17 -15.5 -30.5t-24 -25.5l-23.5 -23.5t-14 -24.5h-45
q3 16 15 29t25.5 24.5t24.5 22.5t14 23q4 17 -2.5 22.5t-19.5 5.5q-17 0 -32.5 -11t-20.5 -17l-21 22q11 16 33 30.5t54 14.5q29 0 44 -15t8 -47z" />
    <glyph glyph-name="uni1EB3" unicode="&#x103;&#x309;" horiz-adv-x="431" 
d="M366 4l-63 -12q-12 16 -15 58q-49 -59 -130 -59q-63 0 -103.5 38t-40.5 101q0 90 61.5 156.5t151.5 66.5q111 0 170 -63l-42 -199q-8 -48 11 -87zM304 142l25 120q-39 39 -108 39q-59 0 -102.5 -48.5t-43.5 -113.5q0 -93 96 -93q47 0 86 28.5t47 67.5zM413 491
q-22 -57 -58 -84.5t-84 -27.5t-72 27.5t-22 84.5h54q0 -25 11 -44.5t39 -19.5t48.5 19.5t30.5 44.5h53zM395 593q-4 -17 -15.5 -30.5t-24 -25.5l-23.5 -23.5t-14 -24.5h-45q3 16 15 29t25.5 24.5t24.5 22.5t14 23q4 17 -2.5 22.5t-19.5 5.5q-17 0 -32.5 -11t-20.5 -17
l-21 22q11 16 33 30.5t54 14.5q29 0 44 -15t8 -47z" />
    <glyph glyph-name="uni1EB4" unicode="&#x102;&#x303;" horiz-adv-x="451" 
d="M408 0h-69l-30 159h-191l-95 -159h-68l302 483h54zM297 213l-28 198l-116 -198h144zM432 627q-22 -57 -58 -84.5t-84 -27.5t-72 27.5t-22 84.5h54q0 -25 11 -44.5t39 -19.5t48.5 19.5t30.5 44.5h53zM438 748q-8 -35 -26.5 -55.5t-47.5 -20.5q-8 0 -18.5 4.5t-21.5 10
t-21.5 10t-17.5 4.5q-8 0 -11.5 -7.5t-5.5 -16.5h-44q7 30 25.5 50.5t45.5 20.5q9 0 20 -4t20.5 -9.5t19.5 -9.5t17 -4q19 0 24 27h42z" />
    <glyph glyph-name="uni1EB5" unicode="&#x103;&#x303;" horiz-adv-x="431" 
d="M366 4l-63 -12q-12 16 -15 58q-49 -59 -130 -59q-63 0 -103.5 38t-40.5 101q0 90 61.5 156.5t151.5 66.5q111 0 170 -63l-42 -199q-8 -48 11 -87zM304 142l25 120q-39 39 -108 39q-59 0 -102.5 -48.5t-43.5 -113.5q0 -93 96 -93q47 0 86 28.5t47 67.5zM413 491
q-22 -57 -58 -84.5t-84 -27.5t-72 27.5t-22 84.5h54q0 -25 11 -44.5t39 -19.5t48.5 19.5t30.5 44.5h53zM416 596q-8 -35 -26.5 -55.5t-47.5 -20.5q-8 0 -18.5 4.5t-21.5 10t-21.5 10t-17.5 4.5q-8 0 -11.5 -7.5t-5.5 -16.5h-44q7 30 25.5 50.5t45.5 20.5q9 0 20 -4
t20.5 -9.5t19.5 -9.5t17 -4q19 0 24 27h42z" />
    <glyph glyph-name="uni1EB6" unicode="&#x102;&#x323;" horiz-adv-x="451" 
d="M408 0h-69l-30 159h-191l-95 -159h-68l302 483h54zM297 213l-28 198l-116 -198h144zM207 -96q-4 -20 -21 -34t-36 -14t-29.5 14t-6.5 34t20.5 34t35.5 14t30 -14t7 -34zM431 627q-22 -57 -58 -84.5t-84 -27.5t-72 27.5t-22 84.5h54q0 -25 11 -44.5t39 -19.5t48.5 19.5
t30.5 44.5h53z" />
    <glyph glyph-name="uni1EB7" unicode="&#x103;&#x323;" horiz-adv-x="431" 
d="M366 4l-63 -12q-12 16 -15 58q-49 -59 -130 -59q-63 0 -103.5 38t-40.5 101q0 90 61.5 156.5t151.5 66.5q111 0 170 -63l-42 -199q-8 -48 11 -87zM304 142l25 120q-39 39 -108 39q-59 0 -102.5 -48.5t-43.5 -113.5q0 -93 96 -93q47 0 86 28.5t47 67.5zM212 -96
q-4 -20 -21 -34t-36 -14t-29.5 14t-6.5 34t20.5 34t35.5 14t30 -14t7 -34zM407 491q-22 -57 -58 -84.5t-84 -27.5t-72 27.5t-22 84.5h54q0 -25 11 -44.5t39 -19.5t48.5 19.5t30.5 44.5h53z" />
    <glyph glyph-name="uni1EB8" unicode="E&#x323;" horiz-adv-x="358" 
d="M289 0h-283l101 476h283l-12 -54h-220l-30 -144h196l-12 -54h-196l-36 -170h220zM161 -96q-4 -20 -21 -34t-36 -14t-29.5 14t-6.5 34t20.5 34t35.5 14t30 -14t7 -34z" />
    <glyph glyph-name="uni1EB9" unicode="e&#x323;" horiz-adv-x="391" 
d="M362 246q0 -51 -53 -78q-45 -23 -112 -23q-61 0 -120 8q-1 -6 -1 -12q0 -45 29 -69.5t76 -24.5q54 0 134 26l-5 -55q-78 -27 -144 -27q-69 0 -111.5 35.5t-42.5 96.5q0 96 68 163t159 67q123 0 123 -107zM308 247q0 54 -78 54q-41 0 -83.5 -30t-58.5 -73q28 -7 96 -7
q124 0 124 56zM177 -96q-4 -20 -21 -34t-36 -14t-29.5 14t-6.5 34t20.5 34t35.5 14t30 -14t7 -34z" />
    <glyph glyph-name="uni1EBA" unicode="E&#x309;" horiz-adv-x="358" 
d="M289 0h-283l101 476h283l-12 -54h-220l-30 -144h196l-12 -54h-196l-36 -170h220zM345 613q-4 -17 -15.5 -30.5t-24 -25.5l-23.5 -23.5t-14 -24.5h-45q3 16 15 29t25.5 24.5t24.5 22.5t14 23q4 17 -2.5 22.5t-19.5 5.5q-17 0 -32.5 -11t-20.5 -17l-21 22q11 16 33 30.5
t54 14.5q29 0 44 -15t8 -47z" />
    <glyph glyph-name="uni1EBB" unicode="e&#x309;" horiz-adv-x="391" 
d="M362 246q0 -51 -53 -78q-45 -23 -112 -23q-61 0 -120 8q-1 -6 -1 -12q0 -45 29 -69.5t76 -24.5q54 0 134 26l-5 -55q-78 -27 -144 -27q-69 0 -111.5 35.5t-42.5 96.5q0 96 68 163t159 67q123 0 123 -107zM308 247q0 54 -78 54q-41 0 -83.5 -30t-58.5 -73q28 -7 96 -7
q124 0 124 56zM334 477q-4 -17 -15.5 -30.5t-24 -25.5l-23.5 -23.5t-14 -24.5h-45q3 16 15 29t25.5 24.5t24.5 22.5t14 23q4 17 -2.5 22.5t-19.5 5.5q-17 0 -32.5 -11t-20.5 -17l-21 22q11 16 33 30.5t54 14.5q29 0 44 -15t8 -47z" />
    <glyph glyph-name="uni1EBC" unicode="E&#x303;" horiz-adv-x="358" 
d="M289 0h-283l101 476h283l-12 -54h-220l-30 -144h196l-12 -54h-196l-36 -170h220zM359 592q-8 -35 -26.5 -55.5t-47.5 -20.5q-8 0 -18.5 4.5t-21.5 10t-21.5 10t-17.5 4.5q-8 0 -11.5 -7.5t-5.5 -16.5h-44q7 30 25.5 50.5t45.5 20.5q9 0 20 -4t20.5 -9.5t19.5 -9.5t17 -4
q19 0 24 27h42z" />
    <glyph glyph-name="uni1EBD" unicode="e&#x303;" horiz-adv-x="391" 
d="M362 246q0 -51 -53 -78q-45 -23 -112 -23q-61 0 -120 8q-1 -6 -1 -12q0 -45 29 -69.5t76 -24.5q54 0 134 26l-5 -55q-78 -27 -144 -27q-69 0 -111.5 35.5t-42.5 96.5q0 96 68 163t159 67q123 0 123 -107zM308 247q0 54 -78 54q-41 0 -83.5 -30t-58.5 -73q28 -7 96 -7
q124 0 124 56zM347 456q-8 -35 -26.5 -55.5t-47.5 -20.5q-8 0 -18.5 4.5t-21.5 10t-21.5 10t-17.5 4.5q-8 0 -11.5 -7.5t-5.5 -16.5h-44q7 30 25.5 50.5t45.5 20.5q9 0 20 -4t20.5 -9.5t19.5 -9.5t17 -4q19 0 24 27h42z" />
    <glyph glyph-name="uni1EBE" unicode="&#xca;&#x301;" horiz-adv-x="358" 
d="M289 0h-283l101 476h283l-12 -54h-220l-30 -144h196l-12 -54h-196l-36 -170h220zM340 521h-54l-26 71l-55 -71h-55l103 115h35zM434 735l53 -18l-105 -97h-48z" />
    <glyph glyph-name="uni1EBF" unicode="&#xea;&#x301;" horiz-adv-x="391" 
d="M362 246q0 -51 -53 -78q-45 -23 -112 -23q-61 0 -120 8q-1 -6 -1 -12q0 -45 29 -69.5t76 -24.5q54 0 134 26l-5 -55q-78 -27 -144 -27q-69 0 -111.5 35.5t-42.5 96.5q0 96 68 163t159 67q123 0 123 -107zM308 247q0 54 -78 54q-41 0 -83.5 -30t-58.5 -73q28 -7 96 -7
q124 0 124 56zM327 385h-54l-26 71l-55 -71h-55l103 115h35zM422 602l53 -18l-105 -97h-48z" />
    <glyph glyph-name="uni1EC0" unicode="&#xca;&#x300;" horiz-adv-x="358" 
d="M289 0h-283l101 476h283l-12 -54h-220l-30 -144h196l-12 -54h-196l-36 -170h220zM340 521h-54l-26 71l-55 -71h-55l103 115h35zM423 636h-48l-63 97l61 18z" />
    <glyph glyph-name="uni1EC1" unicode="&#xea;&#x300;" horiz-adv-x="391" 
d="M362 246q0 -51 -53 -78q-45 -23 -112 -23q-61 0 -120 8q-1 -6 -1 -12q0 -45 29 -69.5t76 -24.5q54 0 134 26l-5 -55q-78 -27 -144 -27q-69 0 -111.5 35.5t-42.5 96.5q0 96 68 163t159 67q123 0 123 -107zM308 247q0 54 -78 54q-41 0 -83.5 -30t-58.5 -73q28 -7 96 -7
q124 0 124 56zM327 385h-54l-26 71l-55 -71h-55l103 115h35zM421 476h-48l-63 97l61 18z" />
    <glyph glyph-name="uni1EC2" unicode="&#xca;&#x309;" horiz-adv-x="358" 
d="M289 0h-283l101 476h283l-12 -54h-220l-30 -144h196l-12 -54h-196l-36 -170h220zM340 521h-54l-26 71l-55 -71h-55l103 115h35zM470 700q-4 -17 -15.5 -30.5t-24 -25.5l-23.5 -23.5t-14 -24.5h-45q3 16 15 29t25.5 24.5t24.5 22.5t14 23q4 17 -2.5 22.5t-19.5 5.5
q-17 0 -32.5 -11t-20.5 -17l-21 22q11 16 33 30.5t54 14.5q29 0 44 -15t8 -47z" />
    <glyph glyph-name="uni1EC3" unicode="&#xea;&#x309;" horiz-adv-x="391" 
d="M362 246q0 -51 -53 -78q-45 -23 -112 -23q-61 0 -120 8q-1 -6 -1 -12q0 -45 29 -69.5t76 -24.5q54 0 134 26l-5 -55q-78 -27 -144 -27q-69 0 -111.5 35.5t-42.5 96.5q0 96 68 163t159 67q123 0 123 -107zM308 247q0 54 -78 54q-41 0 -83.5 -30t-58.5 -73q28 -7 96 -7
q124 0 124 56zM327 385h-54l-26 71l-55 -71h-55l103 115h35zM472 559q-4 -17 -15.5 -30.5t-24 -25.5l-23.5 -23.5t-14 -24.5h-45q3 16 15 29t25.5 24.5t24.5 22.5t14 23q4 17 -2.5 22.5t-19.5 5.5q-17 0 -32.5 -11t-20.5 -17l-21 22q11 16 33 30.5t54 14.5q29 0 44 -15
t8 -47z" />
    <glyph glyph-name="uni1EC4" unicode="&#xca;&#x303;" horiz-adv-x="358" 
d="M289 0h-283l101 476h283l-12 -54h-220l-30 -144h196l-12 -54h-196l-36 -170h220zM340 521h-54l-26 71l-55 -71h-55l103 115h35zM392 747q-8 -35 -26.5 -55.5t-47.5 -20.5q-8 0 -18.5 4.5t-21.5 10t-21.5 10t-17.5 4.5q-8 0 -11.5 -7.5t-5.5 -16.5h-44q7 30 25.5 50.5
t45.5 20.5q9 0 20 -4t20.5 -9.5t19.5 -9.5t17 -4q19 0 24 27h42z" />
    <glyph glyph-name="uni1EC5" unicode="&#xea;&#x303;" horiz-adv-x="391" 
d="M362 246q0 -51 -53 -78q-45 -23 -112 -23q-61 0 -120 8q-1 -6 -1 -12q0 -45 29 -69.5t76 -24.5q54 0 134 26l-5 -55q-78 -27 -144 -27q-69 0 -111.5 35.5t-42.5 96.5q0 96 68 163t159 67q123 0 123 -107zM308 247q0 54 -78 54q-41 0 -83.5 -30t-58.5 -73q28 -7 96 -7
q124 0 124 56zM327 385h-54l-26 71l-55 -71h-55l103 115h35zM375 593q-8 -35 -26.5 -55.5t-47.5 -20.5q-8 0 -18.5 4.5t-21.5 10t-21.5 10t-17.5 4.5q-8 0 -11.5 -7.5t-5.5 -16.5h-44q7 30 25.5 50.5t45.5 20.5q9 0 20 -4t20.5 -9.5t19.5 -9.5t17 -4q19 0 24 27h42z" />
    <glyph glyph-name="uni1EC6" unicode="&#xca;&#x323;" horiz-adv-x="358" 
d="M289 0h-283l101 476h283l-12 -54h-220l-30 -144h196l-12 -54h-196l-36 -170h220zM161 -96q-4 -20 -21 -34t-36 -14t-29.5 14t-6.5 34t20.5 34t35.5 14t30 -14t7 -34zM340 521h-54l-26 71l-55 -71h-55l103 115h35z" />
    <glyph glyph-name="uni1EC7" unicode="&#xea;&#x323;" horiz-adv-x="391" 
d="M362 246q0 -51 -53 -78q-45 -23 -112 -23q-61 0 -120 8q-1 -6 -1 -12q0 -45 29 -69.5t76 -24.5q54 0 134 26l-5 -55q-78 -27 -144 -27q-69 0 -111.5 35.5t-42.5 96.5q0 96 68 163t159 67q123 0 123 -107zM308 247q0 54 -78 54q-41 0 -83.5 -30t-58.5 -73q28 -7 96 -7
q124 0 124 56zM177 -96q-4 -20 -21 -34t-36 -14t-29.5 14t-6.5 34t20.5 34t35.5 14t30 -14t7 -34zM327 385h-54l-26 71l-55 -71h-55l103 115h35z" />
    <glyph glyph-name="uni1EC8" unicode="I&#x309;" horiz-adv-x="163" 
d="M69 0h-63l101 476h63zM243 613q-4 -17 -15.5 -30.5t-24 -25.5l-23.5 -23.5t-14 -24.5h-45q3 16 15 29t25.5 24.5t24.5 22.5t14 23q4 17 -2.5 22.5t-19.5 5.5q-17 0 -32.5 -11t-20.5 -17l-21 22q11 16 33 30.5t54 14.5q29 0 44 -15t8 -47z" />
    <glyph glyph-name="uni1EC9" unicode="i&#x309;" horiz-adv-x="163" 
d="M216 477q-4 -17 -15.5 -30.5t-24 -25.5l-23.5 -23.5t-14 -24.5h-45q3 16 15 29t25.5 24.5t24.5 22.5t14 23q4 17 -2.5 22.5t-19.5 5.5q-17 0 -32.5 -11t-20.5 -17l-21 22q11 16 33 30.5t54 14.5q29 0 44 -15t8 -47zM69 0h-63l72 340h63z" />
    <glyph glyph-name="uni1ECA" unicode="I&#x323;" horiz-adv-x="163" 
d="M69 0h-63l101 476h63zM64 -96q-4 -20 -21 -34t-36 -14t-29.5 14t-6.5 34t20.5 34t35.5 14t30 -14t7 -34z" />
    <glyph glyph-name="uni1ECB" unicode="i&#x323;" horiz-adv-x="163" 
d="M69 0h-63l72 340h63zM177 440q-4 -20 -21 -34t-37 -14t-31 14t-7 34t21 34t37 14t31 -14t7 -34zM64 -96q-4 -20 -21 -34t-36 -14t-29.5 14t-6.5 34t20.5 34t35.5 14t30 -14t7 -34z" />
    <glyph glyph-name="uni1ECC" unicode="O&#x323;" horiz-adv-x="518" 
d="M436 238q18 82 -17.5 137.5t-112.5 55.5t-135.5 -55.5t-76.5 -137.5q-17 -82 18 -137.5t112 -55.5t136 55.5t76 137.5zM498 237q-22 -105 -102.5 -176t-183.5 -71t-152.5 71t-27.5 176t102.5 176.5t183.5 71.5t152.5 -71.5t27.5 -176.5zM241 -96q-4 -20 -21 -34t-36 -14
t-29.5 14t-6.5 34t20.5 34t35.5 14t30 -14t7 -34z" />
    <glyph glyph-name="uni1ECD" unicode="o&#x323;" horiz-adv-x="412" 
d="M378 172q-16 -76 -78 -128t-140 -52t-118 52t-24 128t78.5 128.5t140.5 52.5t117.5 -52.5t23.5 -128.5zM316 172q12 54 -13.5 90.5t-77.5 36.5t-92.5 -36.5t-52.5 -90.5q-11 -54 14 -90.5t77 -36.5t93 36.5t52 90.5zM188 -96q-4 -20 -21 -34t-36 -14t-29.5 14t-6.5 34
t20.5 34t35.5 14t30 -14t7 -34z" />
    <glyph glyph-name="uni1ECE" unicode="O&#x309;" horiz-adv-x="518" 
d="M436 238q18 82 -17.5 137.5t-112.5 55.5t-135.5 -55.5t-76.5 -137.5q-17 -82 18 -137.5t112 -55.5t136 55.5t76 137.5zM498 237q-22 -105 -102.5 -176t-183.5 -71t-152.5 71t-27.5 176t102.5 176.5t183.5 71.5t152.5 -71.5t27.5 -176.5zM416 613q-4 -17 -15.5 -30.5
t-24 -25.5l-23.5 -23.5t-14 -24.5h-45q3 16 15 29t25.5 24.5t24.5 22.5t14 23q4 17 -2.5 22.5t-19.5 5.5q-17 0 -32.5 -11t-20.5 -17l-21 22q11 16 33 30.5t54 14.5q29 0 44 -15t8 -47z" />
    <glyph glyph-name="uni1ECF" unicode="o&#x309;" horiz-adv-x="412" 
d="M378 172q-16 -76 -78 -128t-140 -52t-118 52t-24 128t78.5 128.5t140.5 52.5t117.5 -52.5t23.5 -128.5zM316 172q12 54 -13.5 90.5t-77.5 36.5t-92.5 -36.5t-52.5 -90.5q-11 -54 14 -90.5t77 -36.5t93 36.5t52 90.5zM335 477q-4 -17 -15.5 -30.5t-24 -25.5l-23.5 -23.5
t-14 -24.5h-45q3 16 15 29t25.5 24.5t24.5 22.5t14 23q4 17 -2.5 22.5t-19.5 5.5q-17 0 -32.5 -11t-20.5 -17l-21 22q11 16 33 30.5t54 14.5q29 0 44 -15t8 -47z" />
    <glyph glyph-name="uni1ED0" unicode="&#xd4;&#x301;" horiz-adv-x="518" 
d="M436 238q18 82 -17.5 137.5t-112.5 55.5t-135.5 -55.5t-76.5 -137.5q-17 -82 18 -137.5t112 -55.5t136 55.5t76 137.5zM498 237q-22 -105 -102.5 -176t-183.5 -71t-152.5 71t-27.5 176t102.5 176.5t183.5 71.5t152.5 -71.5t27.5 -176.5zM420 521h-54l-26 71l-55 -71h-55
l103 115h35zM541 706l53 -18l-105 -97h-48z" />
    <glyph glyph-name="uni1ED1" unicode="&#xf4;&#x301;" horiz-adv-x="432" 
d="M388 172q-16 -76 -78 -128t-140 -52t-118 52t-24 128t78.5 128.5t140.5 52.5t117.5 -52.5t23.5 -128.5zM326 172q12 54 -13.5 90.5t-77.5 36.5t-92.5 -36.5t-52.5 -90.5q-11 -54 14 -90.5t77 -36.5t93 36.5t52 90.5zM348 385h-54l-26 71l-55 -71h-55l103 115h35zM452 586
l53 -18l-105 -97h-48z" />
    <glyph glyph-name="uni1ED2" unicode="&#xd4;&#x300;" horiz-adv-x="518" 
d="M436 238q18 82 -17.5 137.5t-112.5 55.5t-135.5 -55.5t-76.5 -137.5q-17 -82 18 -137.5t112 -55.5t136 55.5t76 137.5zM498 237q-22 -105 -102.5 -176t-183.5 -71t-152.5 71t-27.5 176t102.5 176.5t183.5 71.5t152.5 -71.5t27.5 -176.5zM420 521h-54l-26 71l-55 -71h-55
l103 115h35zM531 591h-48l-63 97l61 18z" />
    <glyph glyph-name="uni1ED3" unicode="&#xf4;&#x300;" horiz-adv-x="432" 
d="M388 172q-16 -76 -78 -128t-140 -52t-118 52t-24 128t78.5 128.5t140.5 52.5t117.5 -52.5t23.5 -128.5zM326 172q12 54 -13.5 90.5t-77.5 36.5t-92.5 -36.5t-52.5 -90.5q-11 -54 14 -90.5t77 -36.5t93 36.5t52 90.5zM348 385h-54l-26 71l-55 -71h-55l103 115h35zM451 471
h-48l-63 97l61 18z" />
    <glyph glyph-name="uni1ED4" unicode="&#xd4;&#x309;" horiz-adv-x="518" 
d="M436 238q18 82 -17.5 137.5t-112.5 55.5t-135.5 -55.5t-76.5 -137.5q-17 -82 18 -137.5t112 -55.5t136 55.5t76 137.5zM498 237q-22 -105 -102.5 -176t-183.5 -71t-152.5 71t-27.5 176t102.5 176.5t183.5 71.5t152.5 -71.5t27.5 -176.5zM421 521h-54l-26 71l-55 -71h-55
l103 115h35zM561 701q-4 -17 -15.5 -30.5t-24 -25.5l-23.5 -23.5t-14 -24.5h-45q3 16 15 29t25.5 24.5t24.5 22.5t14 23q4 17 -2.5 22.5t-19.5 5.5q-17 0 -32.5 -11t-20.5 -17l-21 22q11 16 33 30.5t54 14.5q29 0 44 -15t8 -47z" />
    <glyph glyph-name="uni1ED5" unicode="&#xf4;&#x309;" horiz-adv-x="432" 
d="M388 172q-16 -76 -78 -128t-140 -52t-118 52t-24 128t78.5 128.5t140.5 52.5t117.5 -52.5t23.5 -128.5zM326 172q12 54 -13.5 90.5t-77.5 36.5t-92.5 -36.5t-52.5 -90.5q-11 -54 14 -90.5t77 -36.5t93 36.5t52 90.5zM348 385h-54l-26 71l-55 -71h-55l103 115h35zM489 571
q-4 -17 -15.5 -30.5t-24 -25.5l-23.5 -23.5t-14 -24.5h-45q3 16 15 29t25.5 24.5t24.5 22.5t14 23q4 17 -2.5 22.5t-19.5 5.5q-17 0 -32.5 -11t-20.5 -17l-21 22q11 16 33 30.5t54 14.5q29 0 44 -15t8 -47z" />
    <glyph glyph-name="uni1ED6" unicode="&#xd4;&#x303;" horiz-adv-x="518" 
d="M436 238q18 82 -17.5 137.5t-112.5 55.5t-135.5 -55.5t-76.5 -137.5q-17 -82 18 -137.5t112 -55.5t136 55.5t76 137.5zM498 237q-22 -105 -102.5 -176t-183.5 -71t-152.5 71t-27.5 176t102.5 176.5t183.5 71.5t152.5 -71.5t27.5 -176.5zM420 521h-54l-26 71l-55 -71h-55
l103 115h35zM472 748q-8 -35 -26.5 -55.5t-47.5 -20.5q-8 0 -18.5 4.5t-21.5 10t-21.5 10t-17.5 4.5q-8 0 -11.5 -7.5t-5.5 -16.5h-44q7 30 25.5 50.5t45.5 20.5q9 0 20 -4t20.5 -9.5t19.5 -9.5t17 -4q19 0 24 27h42z" />
    <glyph glyph-name="uni1ED7" unicode="&#xf4;&#x303;" horiz-adv-x="432" 
d="M388 172q-16 -76 -78 -128t-140 -52t-118 52t-24 128t78.5 128.5t140.5 52.5t117.5 -52.5t23.5 -128.5zM326 172q12 54 -13.5 90.5t-77.5 36.5t-92.5 -36.5t-52.5 -90.5q-11 -54 14 -90.5t77 -36.5t93 36.5t52 90.5zM348 385h-54l-26 71l-55 -71h-55l103 115h35zM397 600
q-8 -35 -26.5 -55.5t-47.5 -20.5q-8 0 -18.5 4.5t-21.5 10t-21.5 10t-17.5 4.5q-8 0 -11.5 -7.5t-5.5 -16.5h-44q7 30 25.5 50.5t45.5 20.5q9 0 20 -4t20.5 -9.5t19.5 -9.5t17 -4q19 0 24 27h42z" />
    <glyph glyph-name="uni1ED8" unicode="&#xd4;&#x323;" horiz-adv-x="518" 
d="M436 238q18 82 -17.5 137.5t-112.5 55.5t-135.5 -55.5t-76.5 -137.5q-17 -82 18 -137.5t112 -55.5t136 55.5t76 137.5zM498 237q-22 -105 -102.5 -176t-183.5 -71t-152.5 71t-27.5 176t102.5 176.5t183.5 71.5t152.5 -71.5t27.5 -176.5zM241 -96q-4 -20 -21 -34t-36 -14
t-29.5 14t-6.5 34t20.5 34t35.5 14t30 -14t7 -34zM420 521h-54l-26 71l-55 -71h-55l103 115h35z" />
    <glyph glyph-name="uni1ED9" unicode="&#xf4;&#x323;" horiz-adv-x="412" 
d="M378 172q-16 -76 -78 -128t-140 -52t-118 52t-24 128t78.5 128.5t140.5 52.5t117.5 -52.5t23.5 -128.5zM316 172q12 54 -13.5 90.5t-77.5 36.5t-92.5 -36.5t-52.5 -90.5q-11 -54 14 -90.5t77 -36.5t93 36.5t52 90.5zM188 -96q-4 -20 -21 -34t-36 -14t-29.5 14t-6.5 34
t20.5 34t35.5 14t30 -14t7 -34zM338 385h-54l-26 71l-55 -71h-55l103 115h35z" />
    <glyph glyph-name="uni1EDA" unicode="&#x1a0;&#x301;" horiz-adv-x="518" 
d="M498 237q-22 -105 -102.5 -176t-183.5 -71t-152.5 71t-27.5 176t102.5 176.5t183.5 71.5q72 0 120 -37q33 33 43 79h54q-13 -58 -67 -111q53 -71 30 -179zM436 238q18 82 -17.5 137.5t-112.5 55.5t-135.5 -55.5t-76.5 -137.5q-17 -82 18 -137.5t112 -55.5t136 55.5
t76 137.5zM359 636l53 -18l-105 -97h-48z" />
    <glyph glyph-name="uni1EDB" unicode="&#x1a1;&#x301;" horiz-adv-x="432" 
d="M378 172q-16 -76 -78 -128t-140 -52t-118 52t-24 128t78.5 128.5t140.5 52.5q70 0 110 -45q27 33 35 71h54q-12 -55 -65 -109q19 -44 7 -98zM316 172q12 54 -13.5 90.5t-77.5 36.5t-92.5 -36.5t-52.5 -90.5q-11 -54 14 -90.5t77 -36.5t93 36.5t52 90.5zM288 500l53 -18
l-105 -97h-48z" />
    <glyph glyph-name="uni1EDC" unicode="&#x1a0;&#x300;" horiz-adv-x="518" 
d="M498 237q-22 -105 -102.5 -176t-183.5 -71t-152.5 71t-27.5 176t102.5 176.5t183.5 71.5q72 0 120 -37q33 33 43 79h54q-13 -58 -67 -111q53 -71 30 -179zM436 238q18 82 -17.5 137.5t-112.5 55.5t-135.5 -55.5t-76.5 -137.5q-17 -82 18 -137.5t112 -55.5t136 55.5
t76 137.5zM391 521h-48l-63 97l61 18z" />
    <glyph glyph-name="uni1EDD" unicode="&#x1a1;&#x300;" horiz-adv-x="432" 
d="M378 172q-16 -76 -78 -128t-140 -52t-118 52t-24 128t78.5 128.5t140.5 52.5q70 0 110 -45q27 33 35 71h54q-12 -55 -65 -109q19 -44 7 -98zM316 172q12 54 -13.5 90.5t-77.5 36.5t-92.5 -36.5t-52.5 -90.5q-11 -54 14 -90.5t77 -36.5t93 36.5t52 90.5zM320 385h-48
l-63 97l61 18z" />
    <glyph glyph-name="uni1EDE" unicode="&#x1a0;&#x309;" horiz-adv-x="518" 
d="M498 237q-22 -105 -102.5 -176t-183.5 -71t-152.5 71t-27.5 176t102.5 176.5t183.5 71.5q72 0 120 -37q33 33 43 79h54q-13 -58 -67 -111q53 -71 30 -179zM436 238q18 82 -17.5 137.5t-112.5 55.5t-135.5 -55.5t-76.5 -137.5q-17 -82 18 -137.5t112 -55.5t136 55.5
t76 137.5zM417 617q-4 -17 -15.5 -30.5t-24 -25.5l-23.5 -23.5t-14 -24.5h-45q3 16 15 29t25.5 24.5t24.5 22.5t14 23q4 17 -2.5 22.5t-19.5 5.5q-17 0 -32.5 -11t-20.5 -17l-21 22q11 16 33 30.5t54 14.5q29 0 44 -15t8 -47z" />
    <glyph glyph-name="uni1EDF" unicode="&#x1a1;&#x309;" horiz-adv-x="432" 
d="M378 172q-16 -76 -78 -128t-140 -52t-118 52t-24 128t78.5 128.5t140.5 52.5q70 0 110 -45q27 33 35 71h54q-12 -55 -65 -109q19 -44 7 -98zM316 172q12 54 -13.5 90.5t-77.5 36.5t-92.5 -36.5t-52.5 -90.5q-11 -54 14 -90.5t77 -36.5t93 36.5t52 90.5zM345 481
q-4 -17 -15.5 -30.5t-24 -25.5l-23.5 -23.5t-14 -24.5h-45q3 16 15 29t25.5 24.5t24.5 22.5t14 23q4 17 -2.5 22.5t-19.5 5.5q-17 0 -32.5 -11t-20.5 -17l-21 22q11 16 33 30.5t54 14.5q29 0 44 -15t8 -47z" />
    <glyph glyph-name="uni1EE0" unicode="&#x1a0;&#x303;" horiz-adv-x="518" 
d="M498 237q-22 -105 -102.5 -176t-183.5 -71t-152.5 71t-27.5 176t102.5 176.5t183.5 71.5q72 0 120 -37q33 33 43 79h54q-13 -58 -67 -111q53 -71 30 -179zM436 238q18 82 -17.5 137.5t-112.5 55.5t-135.5 -55.5t-76.5 -137.5q-17 -82 18 -137.5t112 -55.5t136 55.5
t76 137.5zM439 592q-8 -35 -26.5 -55.5t-47.5 -20.5q-8 0 -18.5 4.5t-21.5 10t-21.5 10t-17.5 4.5q-8 0 -11.5 -7.5t-5.5 -16.5h-44q7 30 25.5 50.5t45.5 20.5q9 0 20 -4t20.5 -9.5t19.5 -9.5t17 -4q19 0 24 27h42z" />
    <glyph glyph-name="uni1EE1" unicode="&#x1a1;&#x303;" horiz-adv-x="432" 
d="M378 172q-16 -76 -78 -128t-140 -52t-118 52t-24 128t78.5 128.5t140.5 52.5q70 0 110 -45q27 33 35 71h54q-12 -55 -65 -109q19 -44 7 -98zM316 172q12 54 -13.5 90.5t-77.5 36.5t-92.5 -36.5t-52.5 -90.5q-11 -54 14 -90.5t77 -36.5t93 36.5t52 90.5zM368 456
q-8 -35 -26.5 -55.5t-47.5 -20.5q-8 0 -18.5 4.5t-21.5 10t-21.5 10t-17.5 4.5q-8 0 -11.5 -7.5t-5.5 -16.5h-44q7 30 25.5 50.5t45.5 20.5q9 0 20 -4t20.5 -9.5t19.5 -9.5t17 -4q19 0 24 27h42z" />
    <glyph glyph-name="uni1EE2" unicode="&#x1a0;&#x323;" horiz-adv-x="518" 
d="M498 237q-22 -105 -102.5 -176t-183.5 -71t-152.5 71t-27.5 176t102.5 176.5t183.5 71.5q72 0 120 -37q33 33 43 79h54q-13 -58 -67 -111q53 -71 30 -179zM436 238q18 82 -17.5 137.5t-112.5 55.5t-135.5 -55.5t-76.5 -137.5q-17 -82 18 -137.5t112 -55.5t136 55.5
t76 137.5zM241 -96q-4 -20 -21 -34t-36 -14t-29.5 14t-6.5 34t20.5 34t35.5 14t30 -14t7 -34z" />
    <glyph glyph-name="uni1EE3" unicode="&#x1a1;&#x323;" horiz-adv-x="432" 
d="M378 172q-16 -76 -78 -128t-140 -52t-118 52t-24 128t78.5 128.5t140.5 52.5q70 0 110 -45q27 33 35 71h54q-12 -55 -65 -109q19 -44 7 -98zM316 172q12 54 -13.5 90.5t-77.5 36.5t-92.5 -36.5t-52.5 -90.5q-11 -54 14 -90.5t77 -36.5t93 36.5t52 90.5zM198 -96
q-4 -20 -21 -34t-36 -14t-29.5 14t-6.5 34t20.5 34t35.5 14t30 -14t7 -34z" />
    <glyph glyph-name="uni1EE4" unicode="U&#x323;" horiz-adv-x="482" 
d="M431 203q-45 -212 -236 -212t-146 212l58 273h64l-58 -273q-34 -158 93 -158t161 158l58 273h64zM223 -96q-4 -20 -21 -34t-36 -14t-29.5 14t-6.5 34t20.5 34t35.5 14t30 -14t7 -34z" />
    <glyph glyph-name="uni1EE5" unicode="u&#x323;" horiz-adv-x="418" 
d="M354 4l-63 -12q-12 16 -15 58q-73 -59 -131 -59q-114 0 -114 105q0 26 7 58l24 111q3 14 3 29q0 22 -6 44l60 12q9 -27 9 -54q0 -19 -4 -38l-21 -98q-6 -28 -6 -45q0 -68 67 -68q37 0 77.5 28.5t48.5 63.5l43 201h63l-53 -249q-2 -9 -2 -21q0 -30 13 -66zM191 -96
q-4 -20 -21 -34t-36 -14t-29.5 14t-6.5 34t20.5 34t35.5 14t30 -14t7 -34z" />
    <glyph glyph-name="uni1EE6" unicode="U&#x309;" horiz-adv-x="482" 
d="M431 203q-45 -212 -236 -212t-146 212l58 273h64l-58 -273q-34 -158 93 -158t161 158l58 273h64zM398 613q-4 -17 -15.5 -30.5t-24 -25.5l-23.5 -23.5t-14 -24.5h-45q3 16 15 29t25.5 24.5t24.5 22.5t14 23q4 17 -2.5 22.5t-19.5 5.5q-17 0 -32.5 -11t-20.5 -17l-21 22
q11 16 33 30.5t54 14.5q29 0 44 -15t8 -47z" />
    <glyph glyph-name="uni1EE7" unicode="u&#x309;" horiz-adv-x="418" 
d="M354 4l-63 -12q-12 16 -15 58q-73 -59 -131 -59q-114 0 -114 105q0 26 7 58l24 111q3 14 3 29q0 22 -6 44l60 12q9 -27 9 -54q0 -19 -4 -38l-21 -98q-6 -28 -6 -45q0 -68 67 -68q37 0 77.5 28.5t48.5 63.5l43 201h63l-53 -249q-2 -9 -2 -21q0 -30 13 -66zM338 477
q-4 -17 -15.5 -30.5t-24 -25.5l-23.5 -23.5t-14 -24.5h-45q3 16 15 29t25.5 24.5t24.5 22.5t14 23q4 17 -2.5 22.5t-19.5 5.5q-17 0 -32.5 -11t-20.5 -17l-21 22q11 16 33 30.5t54 14.5q29 0 44 -15t8 -47z" />
    <glyph glyph-name="uni1EE8" unicode="&#x1af;&#x301;" horiz-adv-x="482" 
d="M431 203q-45 -212 -236 -212t-146 212l58 273h64l-58 -273q-34 -158 93 -158t161 158l58 273h64l-9 -40q25 12 44 38.5t25 52.5h54q-13 -47 -52 -90.5t-83 -58.5zM340 636l53 -18l-105 -97h-48z" />
    <glyph glyph-name="uni1EE9" unicode="&#x1b0;&#x301;" horiz-adv-x="414" 
d="M354 4l-63 -12q-12 16 -15 58q-73 -59 -131 -59q-114 0 -114 105q0 26 7 58l24 111q3 14 3 29q0 22 -6 44l60 12q9 -27 9 -54q0 -19 -4 -38l-21 -98q-6 -28 -6 -45q0 -68 67 -68q37 0 77.5 28.5t48.5 63.5l43 201h63l-13 -60q20 12 40 37q22 28 27 54h54q-8 -39 -46 -84
q-42 -48 -87 -64l-28 -132q-2 -9 -2 -21q0 -30 13 -66zM279 500l53 -18l-105 -97h-48z" />
    <glyph glyph-name="uni1EEA" unicode="&#x1af;&#x300;" horiz-adv-x="482" 
d="M431 203q-45 -212 -236 -212t-146 212l58 273h64l-58 -273q-34 -158 93 -158t161 158l58 273h64l-9 -40q25 12 44 38.5t25 52.5h54q-13 -47 -52 -90.5t-83 -58.5zM373 521h-48l-63 97l61 18z" />
    <glyph glyph-name="uni1EEB" unicode="&#x1b0;&#x300;" horiz-adv-x="414" 
d="M354 4l-63 -12q-12 16 -15 58q-73 -59 -131 -59q-114 0 -114 105q0 26 7 58l24 111q3 14 3 29q0 22 -6 44l60 12q9 -27 9 -54q0 -19 -4 -38l-21 -98q-6 -28 -6 -45q0 -68 67 -68q37 0 77.5 28.5t48.5 63.5l43 201h63l-13 -60q20 12 40 37q22 28 27 54h54q-8 -39 -46 -84
q-42 -48 -87 -64l-28 -132q-2 -9 -2 -21q0 -30 13 -66zM311 385h-48l-63 97l61 18z" />
    <glyph glyph-name="uni1EEC" unicode="&#x1af;&#x309;" horiz-adv-x="482" 
d="M431 203q-45 -212 -236 -212t-146 212l58 273h64l-58 -273q-34 -158 93 -158t161 158l58 273h64l-9 -40q25 12 44 38.5t25 52.5h54q-13 -47 -52 -90.5t-83 -58.5zM398 613q-4 -17 -15.5 -30.5t-24 -25.5l-23.5 -23.5t-14 -24.5h-45q3 16 15 29t25.5 24.5t24.5 22.5t14 23
q4 17 -2.5 22.5t-19.5 5.5q-17 0 -32.5 -11t-20.5 -17l-21 22q11 16 33 30.5t54 14.5q29 0 44 -15t8 -47z" />
    <glyph glyph-name="uni1EED" unicode="&#x1b0;&#x309;" horiz-adv-x="414" 
d="M354 4l-63 -12q-12 16 -15 58q-73 -59 -131 -59q-114 0 -114 105q0 26 7 58l24 111q3 14 3 29q0 22 -6 44l60 12q9 -27 9 -54q0 -19 -4 -38l-21 -98q-6 -28 -6 -45q0 -68 67 -68q37 0 77.5 28.5t48.5 63.5l43 201h63l-13 -60q20 12 40 37q22 28 27 54h54q-8 -39 -46 -84
q-42 -48 -87 -64l-28 -132q-2 -9 -2 -21q0 -30 13 -66zM336 477q-4 -17 -15.5 -30.5t-24 -25.5l-23.5 -23.5t-14 -24.5h-45q3 16 15 29t25.5 24.5t24.5 22.5t14 23q4 17 -2.5 22.5t-19.5 5.5q-17 0 -32.5 -11t-20.5 -17l-21 22q11 16 33 30.5t54 14.5q29 0 44 -15t8 -47z
" />
    <glyph glyph-name="uni1EEE" unicode="&#x1af;&#x303;" horiz-adv-x="482" 
d="M431 203q-45 -212 -236 -212t-146 212l58 273h64l-58 -273q-34 -158 93 -158t161 158l58 273h64l-9 -40q25 12 44 38.5t25 52.5h54q-13 -47 -52 -90.5t-83 -58.5zM421 592q-8 -35 -26.5 -55.5t-47.5 -20.5q-8 0 -18.5 4.5t-21.5 10t-21.5 10t-17.5 4.5q-8 0 -11.5 -7.5
t-5.5 -16.5h-44q7 30 25.5 50.5t45.5 20.5q9 0 20 -4t20.5 -9.5t19.5 -9.5t17 -4q19 0 24 27h42z" />
    <glyph glyph-name="uni1EEF" unicode="&#x1b0;&#x303;" horiz-adv-x="414" 
d="M354 4l-63 -12q-12 16 -15 58q-73 -59 -131 -59q-114 0 -114 105q0 26 7 58l24 111q3 14 3 29q0 22 -6 44l60 12q9 -27 9 -54q0 -19 -4 -38l-21 -98q-6 -28 -6 -45q0 -68 67 -68q37 0 77.5 28.5t48.5 63.5l43 201h63l-13 -60q20 12 40 37q22 28 27 54h54q-8 -39 -46 -84
q-42 -48 -87 -64l-28 -132q-2 -9 -2 -21q0 -30 13 -66zM359 456q-8 -35 -26.5 -55.5t-47.5 -20.5q-8 0 -18.5 4.5t-21.5 10t-21.5 10t-17.5 4.5q-8 0 -11.5 -7.5t-5.5 -16.5h-44q7 30 25.5 50.5t45.5 20.5q9 0 20 -4t20.5 -9.5t19.5 -9.5t17 -4q19 0 24 27h42z" />
    <glyph glyph-name="uni1EF0" unicode="&#x1af;&#x323;" horiz-adv-x="482" 
d="M431 203q-45 -212 -236 -212t-146 212l58 273h64l-58 -273q-34 -158 93 -158t161 158l58 273h64l-9 -40q25 12 44 38.5t25 52.5h54q-13 -47 -52 -90.5t-83 -58.5zM223 -96q-4 -20 -21 -34t-36 -14t-29.5 14t-6.5 34t20.5 34t35.5 14t30 -14t7 -34z" />
    <glyph glyph-name="uni1EF1" unicode="&#x1b0;&#x323;" horiz-adv-x="414" 
d="M354 4l-63 -12q-12 16 -15 58q-73 -59 -131 -59q-114 0 -114 105q0 26 7 58l24 111q3 14 3 29q0 22 -6 44l60 12q9 -27 9 -54q0 -19 -4 -38l-21 -98q-6 -28 -6 -45q0 -68 67 -68q37 0 77.5 28.5t48.5 63.5l43 201h63l-13 -60q20 12 40 37q22 28 27 54h54q-8 -39 -46 -84
q-42 -48 -87 -64l-28 -132q-2 -9 -2 -21q0 -30 13 -66zM189 -96q-4 -20 -21 -34t-36 -14t-29.5 14t-6.5 34t20.5 34t35.5 14t30 -14t7 -34z" />
    <glyph glyph-name="Ygrave" unicode="Y&#x300;" horiz-adv-x="396" 
d="M186 0h-62l44 208l-117 268h73l86 -214l177 214h72l-229 -267zM330 521h-48l-63 97l61 18z" />
    <glyph glyph-name="ygrave" unicode="y&#x300;" horiz-adv-x="361" 
d="M165 7q-91 -133 -209 -158l-5 52q93 20 157 124l-84 315h69l64 -252l166 252h69zM284 385h-48l-63 97l61 18z" />
    <glyph glyph-name="uni1EF4" unicode="Y&#x323;" horiz-adv-x="396" 
d="M186 0h-62l44 208l-117 268h73l86 -214l177 214h72l-229 -267zM180 -96q-4 -20 -21 -34t-36 -14t-29.5 14t-6.5 34t20.5 34t35.5 14t30 -14t7 -34z" />
    <glyph glyph-name="uni1EF5" unicode="y&#x323;" horiz-adv-x="361" 
d="M165 7q-91 -133 -209 -158l-5 52q93 20 157 124l-84 315h69l64 -252l166 252h69zM271 -96q-4 -20 -21 -34t-36 -14t-29.5 14t-6.5 34t20.5 34t35.5 14t30 -14t7 -34z" />
    <glyph glyph-name="uni1EF6" unicode="Y&#x309;" horiz-adv-x="396" 
d="M186 0h-62l44 208l-117 268h73l86 -214l177 214h72l-229 -267zM354 613q-4 -17 -15.5 -30.5t-24 -25.5l-23.5 -23.5t-14 -24.5h-45q3 16 15 29t25.5 24.5t24.5 22.5t14 23q4 17 -2.5 22.5t-19.5 5.5q-17 0 -32.5 -11t-20.5 -17l-21 22q11 16 33 30.5t54 14.5q29 0 44 -15
t8 -47z" />
    <glyph glyph-name="uni1EF7" unicode="y&#x309;" horiz-adv-x="361" 
d="M165 7q-91 -133 -209 -158l-5 52q93 20 157 124l-84 315h69l64 -252l166 252h69zM309 477q-4 -17 -15.5 -30.5t-24 -25.5l-23.5 -23.5t-14 -24.5h-45q3 16 15 29t25.5 24.5t24.5 22.5t14 23q4 17 -2.5 22.5t-19.5 5.5q-17 0 -32.5 -11t-20.5 -17l-21 22q11 16 33 30.5
t54 14.5q29 0 44 -15t8 -47z" />
    <glyph glyph-name="uni1EF8" unicode="Y&#x303;" horiz-adv-x="396" 
d="M186 0h-62l44 208l-117 268h73l86 -214l177 214h72l-229 -267zM378 592q-8 -35 -26.5 -55.5t-47.5 -20.5q-8 0 -18.5 4.5t-21.5 10t-21.5 10t-17.5 4.5q-8 0 -11.5 -7.5t-5.5 -16.5h-44q7 30 25.5 50.5t45.5 20.5q9 0 20 -4t20.5 -9.5t19.5 -9.5t17 -4q19 0 24 27h42z
" />
    <glyph glyph-name="uni1EF9" unicode="y&#x303;" horiz-adv-x="361" 
d="M165 7q-91 -133 -209 -158l-5 52q93 20 157 124l-84 315h69l64 -252l166 252h69zM332 456q-8 -35 -26.5 -55.5t-47.5 -20.5q-8 0 -18.5 4.5t-21.5 10t-21.5 10t-17.5 4.5q-8 0 -11.5 -7.5t-5.5 -16.5h-44q7 30 25.5 50.5t45.5 20.5q9 0 20 -4t20.5 -9.5t19.5 -9.5t17 -4
q19 0 24 27h42z" />
    <glyph glyph-name="Itilde" unicode="I&#x303;" horiz-adv-x="163" 
d="M69 0h-63l101 476h63zM263 592q-8 -35 -26.5 -55.5t-47.5 -20.5q-8 0 -18.5 4.5t-21.5 10t-21.5 10t-17.5 4.5q-8 0 -11.5 -7.5t-5.5 -16.5h-44q7 30 25.5 50.5t45.5 20.5q9 0 20 -4t20.5 -9.5t19.5 -9.5t17 -4q19 0 24 27h42z" />
    <glyph glyph-name="itilde" unicode="i&#x303;" horiz-adv-x="163" 
d="M69 0h-63l72 340h63zM233 456q-8 -35 -26.5 -55.5t-47.5 -20.5q-8 0 -18.5 4.5t-21.5 10t-21.5 10t-17.5 4.5q-8 0 -11.5 -7.5t-5.5 -16.5h-44q7 30 25.5 50.5t45.5 20.5q9 0 20 -4t20.5 -9.5t19.5 -9.5t17 -4q19 0 24 27h42z" />
    <glyph glyph-name="Utilde" unicode="U&#x303;" horiz-adv-x="482" 
d="M431 203q-45 -212 -236 -212t-146 212l58 273h64l-58 -273q-34 -158 93 -158t161 158l58 273h64zM421 592q-8 -35 -26.5 -55.5t-47.5 -20.5q-8 0 -18.5 4.5t-21.5 10t-21.5 10t-17.5 4.5q-8 0 -11.5 -7.5t-5.5 -16.5h-44q7 30 25.5 50.5t45.5 20.5q9 0 20 -4t20.5 -9.5
t19.5 -9.5t17 -4q19 0 24 27h42z" />
    <glyph glyph-name="utilde" unicode="u&#x303;" horiz-adv-x="418" 
d="M354 4l-63 -12q-12 16 -15 58q-73 -59 -131 -59q-114 0 -114 105q0 26 7 58l24 111q3 14 3 29q0 22 -6 44l60 12q9 -27 9 -54q0 -19 -4 -38l-21 -98q-6 -28 -6 -45q0 -68 67 -68q37 0 77.5 28.5t48.5 63.5l43 201h63l-53 -249q-2 -9 -2 -21q0 -30 13 -66zM361 456
q-8 -35 -26.5 -55.5t-47.5 -20.5q-8 0 -18.5 4.5t-21.5 10t-21.5 10t-17.5 4.5q-8 0 -11.5 -7.5t-5.5 -16.5h-44q7 30 25.5 50.5t45.5 20.5q9 0 20 -4t20.5 -9.5t19.5 -9.5t17 -4q19 0 24 27h42z" />
    <glyph glyph-name="uni0E4F.liga" unicode="&#xe4f;&#x22;" horiz-adv-x="449" 
d="M279 163q6 26 -8.5 45t-41.5 19t-49.5 -19t-28.5 -45q-6 -27 9 -45.5t42 -18.5t49 18.5t28 45.5zM314 163q-9 -41 -44 -70.5t-76 -29.5t-64 29.5t-14 70.5t44 70t76 29t64 -29t14 -70zM349 163q12 56 -18.5 95t-86.5 39q-55 0 -103 -39t-60 -95t19 -95.5t86 -39.5t103 40
t60 95zM384 163q-15 -70 -75 -119.5t-130 -49.5t-109 49.5t-24 119.5t75 119.5t130 49.5q68 0 108 -50.5t25 -118.5zM324.997 366.396h-36.7998l22.3994 154.398h56.7998zM227.398 366.396h-36l22.4004 154.398h56.7988z" />
    <glyph glyph-name="uni0E24.liga" unicode="&#xe24;&#xe32;" horiz-adv-x="598" 
d="M273 -107q-12 -57 -47 -74l-49 27q29 17 39 70l74 349q9 41 -11 65t-61 24q-60 0 -102 -51q45 -9 57 -45q-57 -30 -66 -72l-10 -47q8 4 20 4q31 0 48 -21.5t10 -53.5t-33.5 -54t-58.5 -22q-33 0 -51 23t-11 58l25 117q9 42 55 66q-21 17 -59 12q16 62 70 102
q50 37 115 37q72 0 105.5 -38.5t19.5 -104.5zM135 67q3 14 -5 24t-22 10t-26 -10t-15 -24t5 -24t22 -10t26 10t15 24zM480 -107q-12 -57 -47 -74l-49 27q29 17 39 70l79 375q6 28 -9 45.5t-48 17.5t-58.5 -22t-33.5 -56h-60q16 60 59.5 95.5t103.5 35.5q56 0 88.5 -28.5
t20.5 -86.5z" />
    <glyph glyph-name="uni0E26.liga" unicode="&#xe26;&#xe32;" horiz-adv-x="629" 
d="M88 68q3 14 -5 24t-22 10t-26 -10t-15 -24t5 -24t22 -10t26 10t15 24zM307 -107q-12 -57 -47 -74l-49 27q29 17 39 70l74 349q8 40 -13 64.5t-61 24.5q-61 0 -100 -51q47 -10 57 -45q-30 -15 -41 -25q-16 -16 -22 -43q-5 -22 -8.5 -63.5t-7.5 -58.5q-7 -32 -33 -54
t-57 -22q-32 0 -49 22t-10 54q7 31 33 53t56 22q12 0 14 -3l7 62q8 35 46 54q-24 12 -59 11q15 63 68 103q51 37 116 37q70 0 104.5 -39t21.5 -104zM511 -107q-12 -57 -47 -74l-49 27q29 17 39 70l79 375q6 28 -9 45.5t-48 17.5t-58.5 -22t-33.5 -56h-60q16 60 59.5 95.5
t103.5 35.5q56 0 88.5 -28.5t20.5 -86.5z" />
    <glyph glyph-name=".notdef" horiz-adv-x="698" 
d="M645 0h-592v809h592v-809zM609 31v747h-520v-747h520z" />
    <glyph glyph-name="nonbreakingspace" unicode="&#xa0;" horiz-adv-x="226" 
 />
    <glyph glyph-name="exclam" unicode="!" horiz-adv-x="168" 
d="M96 139h-56l65 337h72zM96 39q-4 -20 -21 -34t-37 -14t-30.5 14t-7.5 34q4 20 21 34t37 14t31 -14t7 -34z" />
    <glyph glyph-name="quotedbl" unicode="&#x22;" horiz-adv-x="291" 
d="M255 333h-46l28 193h71zM133 333h-45l28 193h71z" />
    <glyph glyph-name="numbersign" unicode="#" horiz-adv-x="462" 
d="M278 0h-59l50 142h-129l-47 -142h-59l47 142h-62l11 53h69l31 89h-68l11 54h74l48 137h57l-46 -137h127l46 137h59l-46 -137h63l-11 -54h-71l-30 -89h67l-11 -53h-72zM285 195l31 89h-128l-30 -89h127z" />
    <glyph glyph-name="dollar" unicode="$" horiz-adv-x="367" 
d="M309 138q-9 -42 -46.5 -76t-90.5 -45l-15 -72h-59l15 70q-65 6 -103 41l38 48q36 -35 97 -35q40 0 68 18.5t34 48.5q10 47 -63 81q-116 54 -100 127q9 43 44 74t87 41l16 74h58l-16 -73q46 -6 89 -33l-40 -49q-28 29 -87 29q-33 0 -58.5 -15.5t-30.5 -42.5q-8 -38 71 -77
q60 -29 80.5 -59t11.5 -75z" />
    <glyph glyph-name="percent" unicode="%" horiz-adv-x="688" 
d="M171 -9h-61l408 485h61zM303 338q-31 -146 -150 -146q-118 0 -87 146q32 147 150 147q119 0 87 -147zM244 338q20 94 -40 94q-58 0 -78 -94q-19 -92 39 -92q60 0 79 92zM634 139q-31 -147 -151 -147q-119 0 -88 147q31 146 150 146q120 0 89 -146zM574 139q20 94 -40 94
q-59 0 -79 -94q-20 -93 39 -93q60 0 80 93z" />
    <glyph glyph-name="ampersand" unicode="&#x26;" horiz-adv-x="486" 
d="M373 -14l-55 62q-91 -57 -172 -57q-68 0 -104 42t-23 101q19 89 125 141q-27 48 -17 93q11 52 55 88t101 36q49 0 74.5 -29.5t15.5 -75.5q-17 -79 -142 -132q34 -50 99 -129q63 64 86 140h53q-37 -108 -105 -177l68 -75zM314 384q12 57 -45 57q-30 0 -52 -20t-28 -49
q-7 -29 21 -74q95 43 104 86zM286 85l-114 148q-77 -39 -89 -95q-9 -41 14.5 -67t67.5 -26q66 0 121 40z" />
    <glyph glyph-name="quotesingle" unicode="'" horiz-adv-x="169" 
d="M133 333h-45l28 193h71z" />
    <glyph glyph-name="parenleft" unicode="(" horiz-adv-x="244" 
d="M106 -55q-92 122 -57 290q34 157 178 295h74q-156 -139 -190 -295q-31 -148 65 -290h-70z" />
    <glyph glyph-name="parenright" unicode=")" horiz-adv-x="244" 
d="M205 238q-35 -164 -180 -293h-68q155 149 186 293q31 145 -64 292h69q92 -127 57 -292z" />
    <glyph glyph-name="asterisk" unicode="*" horiz-adv-x="343" 
d="M280 277l-57 -30l-26 86l-62 -86l-45 30l79 77l-101 -9l11 52l97 -8l-45 77l57 30l26 -86l62 86l45 -30l-79 -77l101 8l-11 -51l-97 8z" />
    <glyph glyph-name="plus" unicode="+" horiz-adv-x="417" 
d="M196 0h-63l33 157h-148l12 55h148l32 151h63l-32 -151h148l-12 -55h-148z" />
    <glyph glyph-name="comma" unicode="," horiz-adv-x="172" 
d="M100 37q-21 -99 -120 -144l-15 29q59 32 75 70q-47 3 -38 50q5 21 22.5 35.5t37.5 14.5q21 0 32 -15.5t6 -39.5z" />
    <glyph glyph-name="hyphen" unicode="-" horiz-adv-x="226" 
d="M191 157h-198l21 54h199z" />
    <glyph glyph-name="hyphen" unicode="&#xad;" horiz-adv-x="226" 
d="M191 157h-198l21 54h199z" />
    <glyph glyph-name="period" unicode="." horiz-adv-x="172" 
d="M98 39q-4 -20 -21 -34t-37 -14t-30.5 14t-7.5 34q4 20 21 34t37 14t31 -14t7 -34z" />
    <glyph glyph-name="slash" unicode="/" horiz-adv-x="276" 
d="M-15 -28h-64l376 520h64z" />
    <glyph glyph-name="zero" unicode="0" horiz-adv-x="378" 
d="M354 235q-21 -101 -78 -172.5t-135 -71.5q-75 0 -102 71.5t-6 172.5q22 101 79 172.5t132 71.5q78 0 105 -71.5t5 -172.5zM290 235q18 84 5.5 136.5t-60.5 52.5q-49 0 -84.5 -52.5t-53.5 -136.5q-17 -84 -4.5 -136.5t60.5 -52.5q49 0 84.5 52.5t52.5 136.5z" />
    <glyph glyph-name="one" unicode="1" horiz-adv-x="378" 
d="M263 0h-211l10 51h74l71 332l-74 -53l-29 41l150 107q37 0 27 -48l-81 -379h73z" />
    <glyph glyph-name="two" unicode="2" horiz-adv-x="378" 
d="M304 0h-324q18 44 32 72q33 32 192 156q98 77 109 126q14 66 -64 66q-77 0 -111 -89l-56 15q21 64 71 99q47 33 109 33q61 0 93.5 -36t20.5 -91q-10 -49 -75 -111q-40 -37 -129 -103q-80 -59 -100 -81h255z" />
    <glyph glyph-name="three" unicode="3" horiz-adv-x="378" 
d="M336 165q-17 -78 -82.5 -125.5t-155.5 -47.5q-68 0 -108 42l38 51q38 -32 93 -32q52 0 97 33t54 77q7 32 -9 54t-47 22q-37 0 -77 -29l-18 44q55 28 101 63q54 42 59 68q9 39 -46 39q-36 0 -71.5 -23t-55.5 -54l-40 23q30 50 78.5 79t102.5 29q48 0 74.5 -25t18.5 -67
q-9 -41 -82 -94q45 -9 65.5 -43t10.5 -84z" />
    <glyph glyph-name="four" unicode="4" horiz-adv-x="378" 
d="M219 160l51 244q-54 -31 -107.5 -101t-81.5 -143h138zM249 0h-64l22 106h-201q27 125 132.5 249.5t213.5 133.5l-69 -329h64l-19 -54h-57z" />
    <glyph glyph-name="five" unicode="5" horiz-adv-x="378" 
d="M337 168q-16 -78 -81.5 -127t-152.5 -49q-74 0 -113 43l36 46q48 -35 95 -35q52 0 96.5 34.5t55.5 86.5q9 43 -14 66.5t-70 23.5t-68 -33l-40 -2l71 254h238l-23 -54h-166l-31 -116q19 8 44 8q66 0 101.5 -41t21.5 -105z" />
    <glyph glyph-name="six" unicode="6" horiz-adv-x="378" 
d="M328 150q-14 -67 -64 -112.5t-113 -45.5q-70 0 -105 49t-18 130q24 115 119 203t222 112l-5 -50q-66 -17 -132.5 -61.5t-103.5 -99.5q38 31 92 31q60 0 91 -45t17 -111zM270 150q9 40 -10.5 71t-55.5 31q-38 0 -70.5 -29.5t-42.5 -72.5q-9 -42 11.5 -72t58.5 -30
q36 0 68.5 31t40.5 71z" />
    <glyph glyph-name="seven" unicode="7" horiz-adv-x="378" 
d="M153 0h-65q67 279 230 422h-245l27 54h311l-21 -54q-97 -96 -149 -184q-59 -101 -88 -238z" />
    <glyph glyph-name="eight" unicode="8" horiz-adv-x="378" 
d="M269 131q8 37 -10.5 67t-64.5 33q-48 -3 -79.5 -33t-39.5 -67q-8 -39 14 -62t65 -23t75 23t40 62zM303 355q6 30 -12.5 50t-55.5 20t-64.5 -20t-33.5 -50q-10 -49 67 -72q89 23 99 72zM331 134q-14 -66 -65 -104t-124 -38q-72 0 -106.5 38t-20.5 104q8 40 38 74t68 50
q-57 35 -45 94q12 55 60 91t110 36t95 -36t21 -91q-12 -59 -85 -94q32 -16 47 -50t7 -74z" />
    <glyph glyph-name="nine" unicode="9" horiz-adv-x="378" 
d="M360 299q-24 -115 -119 -203t-222 -112l5 50q64 16 135 64t105 98q-36 -32 -96 -32t-91.5 45t-16.5 111q14 67 64 112.5t113 45.5q70 0 105 -49t18 -130zM297 320q8 42 -12 72t-58 30q-36 0 -68.5 -31t-40.5 -71q-9 -40 10.5 -71t55.5 -31q38 0 70.5 29.5t42.5 72.5z" />
    <glyph glyph-name="colon" unicode=":" horiz-adv-x="172" 
d="M98 39q-4 -20 -21 -34t-37 -14t-30.5 14t-7.5 34q4 20 21 34t37 14t31 -14t7 -34zM150 285q-4 -20 -21 -34t-37 -14t-31 14t-7 34t21 34t37 14t31 -14t7 -34z" />
    <glyph glyph-name="semicolon" unicode=";" horiz-adv-x="172" 
d="M150 285q-4 -20 -21 -34t-37 -14t-31 14t-7 34t21 34t37 14t31 -14t7 -34zM100 37q-21 -99 -120 -144l-15 29q59 32 75 70q-47 3 -38 50q5 21 22.5 35.5t37.5 14.5q21 0 32 -15.5t6 -39.5z" />
    <glyph glyph-name="less" unicode="&#x3c;" horiz-adv-x="417" 
d="M334 -10l-306 180l8 41l383 179l-13 -63l-294 -137l236 -137z" />
    <glyph glyph-name="equal" unicode="=" horiz-adv-x="417" 
d="M374 223h-325l11 52h325zM347 97h-325l11 53h325z" />
    <glyph glyph-name="greater" unicode="&#x3e;" horiz-adv-x="417" 
d="M373 170l-383 -180l13 63l295 138l-237 136l13 63l307 -179z" />
    <glyph glyph-name="question" unicode="?" horiz-adv-x="289" 
d="M299 371q-11 -54 -91 -121q-55 -45 -66 -91q-3 -15 -2 -42h-57q-3 30 0 45q10 49 78 112t75 95q12 57 -58 57q-43 0 -89 -29l-15 49q67 37 123 37q57 0 85 -30.5t17 -81.5zM147 39q-4 -20 -21 -34t-37 -14t-31 14t-7 34t21 34t37 14t31 -14t7 -34z" />
    <glyph glyph-name="at" unicode="@" horiz-adv-x="572" 
d="M533 177q-17 -80 -85 -128q-60 -42 -130 -42l2 36q-56 -42 -116 -42q-43 0 -68.5 24.5t-17.5 61.5q23 109 223 114q16 76 -56 76q-39 0 -76 -21l-10 35q54 28 111 28q53 0 74 -35t9 -95l-22 -104q-5 -23 -6 -32h12q37 10 68.5 45.5t40.5 76.5q16 77 -25 128.5t-128 51.5
q-98 0 -173 -62.5t-95 -156.5q-17 -82 26 -136t123 -54q61 0 129 32l10 -40q-77 -33 -151 -33q-98 0 -152 64q-56 65 -36 164q24 113 119 188t214 75q102 0 154.5 -61.5t31.5 -157.5zM324 107l12 56q-153 -6 -167 -71q-10 -47 45 -47q37 0 68 16q36 18 42 46z" />
    <glyph glyph-name="A" unicode="A" horiz-adv-x="451" 
d="M408 0h-69l-30 159h-191l-95 -159h-68l302 483h54zM297 213l-28 198l-116 -198h144z" />
    <glyph glyph-name="B" unicode="B" horiz-adv-x="396" 
d="M351 138q-31 -144 -243 -144q-45 0 -101 13l98 460q65 15 117 15q183 0 156 -126q-13 -64 -81 -101q71 -37 54 -117zM315 355q15 72 -105 72q-21 0 -51 -3l-31 -146h71q44 0 76 20.5t40 56.5zM289 137q10 48 -31 71q-32 17 -84 17h-58l-37 -174q17 -3 50 -3
q65 0 107.5 23t52.5 66z" />
    <glyph glyph-name="C" unicode="C" horiz-adv-x="432" 
d="M371 25q-80 -32 -181 -32q-95 0 -138 67.5t-20 176.5q23 108 93 174q77 72 188 72q85 0 149 -29l-31 -50q-54 25 -127 25q-92 0 -150 -68q-42 -50 -59 -126q-14 -70 10 -122q29 -66 109 -66q83 0 151 30z" />
    <glyph glyph-name="D" unicode="D" horiz-adv-x="459" 
d="M441 248q-23 -108 -89 -173q-80 -79 -213 -79q-41 0 -132 10l98 462q117 13 157 13q122 0 165 -73q36 -59 14 -160zM377 248q38 179 -130 179q-28 0 -89 -6l-78 -368q32 -3 82 -3q97 0 156 69q43 51 59 129z" />
    <glyph glyph-name="E" unicode="E" horiz-adv-x="358" 
d="M289 0h-283l101 476h283l-12 -54h-220l-30 -144h196l-12 -54h-196l-36 -170h220z" />
    <glyph glyph-name="F" unicode="F" horiz-adv-x="358" 
d="M69 0h-63l101 476h293l-12 -54h-230l-32 -150h216l-11 -53h-216z" />
    <glyph glyph-name="G" unicode="G" horiz-adv-x="454" 
d="M372 11l-30 8q-64 -26 -152 -26q-95 0 -138 67.5t-20 176.5q23 108 93 174q77 72 188 72q85 0 149 -29l-31 -50q-54 25 -127 25q-92 0 -150 -68q-42 -50 -59 -126q-14 -70 10 -122q29 -66 109 -66q59 0 106 16l29 135h-120l11 53h183z" />
    <glyph glyph-name="H" unicode="H" horiz-adv-x="472" 
d="M378 0h-63l48 226h-246l-48 -226h-63l101 476h63l-42 -196h246l42 196h63z" />
    <glyph glyph-name="I" unicode="I" horiz-adv-x="163" 
d="M69 0h-63l101 476h63z" />
    <glyph glyph-name="J" unicode="J" horiz-adv-x="282" 
d="M222 160q-36 -169 -189 -169q-38 0 -80 19l28 52q24 -17 63 -17q47 0 74.5 28t42.5 97l65 306h63z" />
    <glyph glyph-name="K" unicode="K" horiz-adv-x="411" 
d="M377 15l-65 -22l-156 236l-47 -38l-40 -191h-63l101 476h63l-45 -210l273 218l58 -16l-248 -197z" />
    <glyph glyph-name="L" unicode="L" horiz-adv-x="359" 
d="M302 0h-296l101 476h63l-90 -422h233z" />
    <glyph glyph-name="M" unicode="M" horiz-adv-x="574" 
d="M501 0h-61l52 369l-228 -369h-42l-72 369l-104 -369h-61l135 476h66l74 -396l242 396h66z" />
    <glyph glyph-name="N" unicode="N" horiz-adv-x="472" 
d="M378 0h-60l-167 386l-82 -386h-63l101 476h63l166 -376l80 376h63z" />
    <glyph glyph-name="O" unicode="O" horiz-adv-x="518" 
d="M436 238q18 82 -17.5 137.5t-112.5 55.5t-135.5 -55.5t-76.5 -137.5q-17 -82 18 -137.5t112 -55.5t136 55.5t76 137.5zM498 237q-22 -105 -102.5 -176t-183.5 -71t-152.5 71t-27.5 176t102.5 176.5t183.5 71.5t152.5 -71.5t27.5 -176.5z" />
    <glyph glyph-name="P" unicode="P" horiz-adv-x="390" 
d="M393 339q-15 -69 -79.5 -111.5t-155.5 -42.5q-23 0 -50 3l-39 -188h-63l99 469q75 12 130 12q88 0 129.5 -39.5t28.5 -102.5zM329 336q19 91 -107 91q-34 0 -63 -3l-38 -179q32 -6 55 -6q132 0 153 97z" />
    <glyph glyph-name="Q" unicode="Q" horiz-adv-x="518" 
d="M436 238q18 82 -17.5 137.5t-112.5 55.5t-135.5 -55.5t-76.5 -137.5q-17 -82 18 -137.5t112 -55.5t136 55.5t76 137.5zM498 237q-17 -80 -67 -138.5t-121 -81.5l-1 -4q76 -20 139 -30l-32 -54q-71 20 -178 57q-5 2 -26 4q-103 0 -152.5 71t-27.5 176t102.5 176.5
t183.5 71.5t152.5 -71.5t27.5 -176.5z" />
    <glyph glyph-name="R" unicode="R" horiz-adv-x="395" 
d="M336 0h-63q16 207 -81 207h-80l-43 -207h-63l99 468q75 13 132 13q85 0 127 -36t29 -98q-17 -82 -103 -118q32 -25 42 -73t4 -156zM331 343q18 83 -106 83q-40 0 -67 -3l-34 -164h77q113 0 130 84z" />
    <glyph glyph-name="S" unicode="S" horiz-adv-x="365" 
d="M322 130q-13 -62 -70.5 -100.5t-131.5 -38.5q-79 0 -137 43l38 57q48 -43 115 -43q49 0 81.5 21.5t39.5 57.5q13 60 -76 91q-132 45 -112 138q12 56 64.5 92.5t123.5 36.5t116 -32l-38 -50q-45 25 -92 25q-43 0 -73.5 -19.5t-36.5 -47.5q-11 -55 78 -86q73 -25 98 -58
t13 -87z" />
    <glyph glyph-name="T" unicode="T" horiz-adv-x="421" 
d="M199 0h-63l89 422h-176l12 54h413l-12 -54h-174z" />
    <glyph glyph-name="U" unicode="U" horiz-adv-x="482" 
d="M431 203q-45 -212 -236 -212t-146 212l58 273h64l-58 -273q-34 -158 93 -158t161 158l58 273h64z" />
    <glyph glyph-name="V" unicode="V" horiz-adv-x="422" 
d="M196 0h-58l-82 476h68l61 -390l227 390h68z" />
    <glyph glyph-name="W" unicode="W" horiz-adv-x="612" 
d="M440 0h-58l-38 389l-202 -389h-58l-31 476h69l12 -380l199 380h60l37 -380l174 380h69z" />
    <glyph glyph-name="X" unicode="X" horiz-adv-x="426" 
d="M384 0h-75l-97 193l-181 -193h-76l228 244l-120 232h77l92 -186l169 186h78l-220 -232z" />
    <glyph glyph-name="Y" unicode="Y" horiz-adv-x="396" 
d="M186 0h-62l44 208l-117 268h73l86 -214l177 214h72l-229 -267z" />
    <glyph glyph-name="Z" unicode="Z" horiz-adv-x="451" 
d="M382 0h-399l9 40l389 382h-293l23 54h369l-9 -41l-390 -381h324z" />
    <glyph glyph-name="bracketleft" unicode="[" horiz-adv-x="234" 
d="M143 -77h-157l128 605h158l-11 -52h-99l-107 -502h99z" />
    <glyph glyph-name="backslash" unicode="\" horiz-adv-x="268" 
d="M252 -27h-64l-152 510h65z" />
    <glyph glyph-name="bracketright" unicode="]" horiz-adv-x="234" 
d="M127 -77h-157l11 51h98l107 502h-99l11 52h158z" />
    <glyph glyph-name="asciicircum" unicode="^" horiz-adv-x="418" 
d="M382 152h-65l-62 253l-170 -253h-65l226 328h51z" />
    <glyph glyph-name="underscore" unicode="_" horiz-adv-x="376" 
d="M294 -175h-375l12 53h375z" />
    <glyph glyph-name="grave" unicode="`" horiz-adv-x="210" 
d="M201 375h-48l-63 97l61 18z" />
    <glyph glyph-name="a" unicode="a" horiz-adv-x="431" 
d="M366 4l-63 -12q-12 16 -15 58q-49 -59 -130 -59q-63 0 -103.5 38t-40.5 101q0 90 61.5 156.5t151.5 66.5q111 0 170 -63l-42 -199q-8 -48 11 -87zM304 142l25 120q-39 39 -108 39q-59 0 -102.5 -48.5t-43.5 -113.5q0 -93 96 -93q47 0 86 28.5t47 67.5z" />
    <glyph glyph-name="b" unicode="b" horiz-adv-x="435" 
d="M406 215q0 -90 -63 -156.5t-150 -66.5q-157 0 -157 112q0 16 4 35l74 349h63l-37 -175q53 41 122 41q64 0 104 -38.5t40 -100.5zM345 206q0 93 -96 93q-45 0 -86 -26.5t-47 -69.5l-17 -73q-3 -13 -3 -25q0 -26 27 -43.5t76 -17.5q59 0 102.5 49t43.5 113z" />
    <glyph glyph-name="c" unicode="c" horiz-adv-x="347" 
d="M282 21q-54 -30 -123 -30q-81 0 -119.5 50.5t-21.5 130.5q17 81 77 131t141 50q68 0 110 -30l-33 -52q-41 29 -91 29q-51 0 -89.5 -35.5t-50.5 -92.5q-12 -58 11.5 -93t74.5 -35q50 0 103 29z" />
    <glyph glyph-name="d" unicode="d" horiz-adv-x="435" 
d="M356 91q-5 -46 11 -87l-63 -12q-12 16 -15 58q-60 -59 -134 -59t-113.5 52.5t-22.5 133.5q16 75 75.5 125.5t132.5 50.5q75 0 112 -47l42 198h63zM301 129l16 78q9 38 -22.5 66t-73.5 28q-52 0 -90 -35t-50 -89q-13 -61 10.5 -96t79.5 -35q50 0 86 22.5t44 60.5z" />
    <glyph glyph-name="e" unicode="e" horiz-adv-x="391" 
d="M362 246q0 -51 -53 -78q-45 -23 -112 -23q-61 0 -120 8q-1 -6 -1 -12q0 -45 29 -69.5t76 -24.5q54 0 134 26l-5 -55q-78 -27 -144 -27q-69 0 -111.5 35.5t-42.5 96.5q0 96 68 163t159 67q123 0 123 -107zM308 247q0 54 -78 54q-41 0 -83.5 -30t-58.5 -73q28 -7 96 -7
q124 0 124 56z" />
    <glyph glyph-name="f" unicode="f" horiz-adv-x="254" 
d="M97 21q-37 -171 -170 -171q-42 0 -66 22l28 47q31 -15 51 -15q69 0 94 117l57 267h-57l11 52h58q36 171 169 171q42 0 66 -22l-28 -47q-31 15 -51 15q-69 0 -94 -117h97l-11 -52h-97z" />
    <glyph glyph-name="g" unicode="g" horiz-adv-x="332" 
d="M238 -45q-10 -47 -50 -76t-105 -29q-54 0 -103 34l31 50q47 -31 87 -31q31 0 54.5 14.5t27.5 34.5q7 30 -44 53q-39 17 -73.5 38t-27.5 55q4 16 18 41q-28 39 -18 83q11 55 55.5 90t96.5 35h144l-9 -43h-50q31 -23 22 -75q-12 -59 -52 -93.5t-101 -34.5q-22 0 -42 7
q-6 -5 -7 -13q-3 -15 64 -35q98 -29 82 -105zM240 224q6 30 -11 51t-47 21t-56 -21t-32 -51t11 -50.5t47 -20.5q36 0 59 20.5t29 50.5z" />
    <glyph glyph-name="h" unicode="h" horiz-adv-x="423" 
d="M369 192l-23 -113q-4 -20 -4 -30q0 -17 11 -42l-60 -22q-16 23 -16 53q0 17 7 50l22 103q3 14 3 29q0 34 -19 54.5t-53 20.5q-40 0 -79 -29.5t-47 -66.5l-42 -199h-63l107 504h63l-43 -201q55 46 125 46q116 0 116 -111q0 -21 -5 -46z" />
    <glyph glyph-name="i" unicode="i" horiz-adv-x="163" 
d="M69 0h-63l72 340h63zM177 440q-4 -20 -21 -34t-37 -14t-31 14t-7 34t21 34t37 14t31 -14t7 -34z" />
    <glyph glyph-name="j" unicode="j" horiz-adv-x="171" 
d="M80 18q-33 -155 -194 -159l3 51q69 5 93 30t41 104l63 296h63zM186 440q-4 -20 -21 -34t-37 -14t-31 14t-7 34t21 34t37 14t31 -14t7 -34z" />
    <glyph glyph-name="k" unicode="k" horiz-adv-x="340" 
d="M315 6l-69 -16l-119 174l-28 -20l-30 -144h-63l107 504h63l-61 -287l179 130l67 -12l-182 -135z" />
    <glyph glyph-name="l" unicode="l" horiz-adv-x="213" 
d="M153 -8q-147 8 -110 183l70 329h63l-67 -315q-17 -77 1 -109q15 -27 62 -31z" />
    <glyph glyph-name="m" unicode="m" horiz-adv-x="636" 
d="M558 76q-4 -25 -2 -40.5t10 -28.5l-60 -22q-9 13 -12.5 40.5t3.5 62.5l21 100q10 46 -4 76q-17 33 -56 33q-33 0 -67 -26t-41 -56l-45 -215h-63l43 205q20 92 -57 92q-34 0 -71.5 -30.5t-44.5 -63.5l-43 -203h-63l53 250q5 25 8 44q3 21 -6 44l55 11q13 -24 8 -57
q22 30 57 44t66 14q66 0 94 -56q65 56 140 56q59 0 87.5 -44.5t13.5 -116.5z" />
    <glyph glyph-name="n" unicode="n" horiz-adv-x="423" 
d="M345 76q-3 -25 -1 -40.5t10 -28.5l-60 -22q-9 13 -12.5 40.5t3.5 62.5l22 105q22 104 -73 104q-35 0 -75.5 -31.5t-46.5 -62.5l-43 -203h-63l53 250q5 25 8 44q3 21 -6 44l55 11q13 -24 8 -57q62 58 130 58t99.5 -42t16.5 -115z" />
    <glyph glyph-name="o" unicode="o" horiz-adv-x="412" 
d="M378 172q-16 -76 -78 -128t-140 -52t-118 52t-24 128t78.5 128.5t140.5 52.5t117.5 -52.5t23.5 -128.5zM316 172q12 54 -13.5 90.5t-77.5 36.5t-92.5 -36.5t-52.5 -90.5q-11 -54 14 -90.5t77 -36.5t93 36.5t52 90.5z" />
    <glyph glyph-name="p" unicode="p" horiz-adv-x="431" 
d="M337 178q11 52 -14 87.5t-75 35.5q-40 0 -84.5 -32t-52.5 -71l-12 -56q-9 -39 17.5 -67.5t73.5 -28.5q56 0 95 35.5t52 96.5zM399 179q-18 -83 -80 -135.5t-138 -52.5q-70 0 -106 41l-37 -175h-62l91 434q3 24 -6 47l55 11q13 -24 8 -57q61 61 142 61q74 0 111 -50
t22 -124z" />
    <glyph glyph-name="q" unicode="q" horiz-adv-x="431" 
d="M306 -143h-63l37 175q-53 -41 -122 -41q-63 0 -103.5 38t-40.5 101q0 90 61.5 156.5t151.5 66.5q111 0 170 -63zM304 142l25 120q-39 39 -108 39q-59 0 -102.5 -48.5t-43.5 -113.5q0 -93 96 -93q47 0 86 28.5t47 67.5z" />
    <glyph glyph-name="r" unicode="r" horiz-adv-x="246" 
d="M249 293q-8 2 -23 2q-95 0 -119 -114l-38 -181h-63l47 225q8 36 12 69q3 21 -6 44l55 11q13 -24 3 -63q20 30 52 47t60 17q20 0 31 -3z" />
    <glyph glyph-name="s" unicode="s" horiz-adv-x="296" 
d="M247 97q-10 -47 -52.5 -76.5t-104.5 -29.5q-51 0 -102 33l34 50q35 -28 82 -28q70 0 80 48q8 37 -55 58q-94 31 -80 95q9 43 49 72.5t97 29.5q58 0 92 -29l-33 -46q-30 26 -74 26q-26 0 -46 -13.5t-25 -34.5q-5 -26 62 -51q91 -34 76 -104z" />
    <glyph glyph-name="t" unicode="t" horiz-adv-x="258" 
d="M199 5q-36 -14 -69 -14q-46 0 -66 31t-9 85l39 181h-68l11 52h68l20 93l68 27l-25 -120h109l-11 -52h-109l-39 -180q-13 -61 26 -61q25 0 59 11z" />
    <glyph glyph-name="u" unicode="u" horiz-adv-x="418" 
d="M354 4l-63 -12q-12 16 -15 58q-73 -59 -131 -59q-114 0 -114 105q0 26 7 58l24 111q3 14 3 29q0 22 -6 44l60 12q9 -27 9 -54q0 -19 -4 -38l-21 -98q-6 -28 -6 -45q0 -68 67 -68q37 0 77.5 28.5t48.5 63.5l43 201h63l-53 -249q-2 -9 -2 -21q0 -30 13 -66z" />
    <glyph glyph-name="v" unicode="v" horiz-adv-x="358" 
d="M160 0h-50l-86 340h66l61 -262l173 262h66z" />
    <glyph glyph-name="w" unicode="w" horiz-adv-x="480" 
d="M355 0h-53l-48 273l-164 -273h-53l-13 340h65l-4 -257l157 257h52l47 -257l106 257h65z" />
    <glyph glyph-name="x" unicode="x" horiz-adv-x="349" 
d="M316 0h-77l-82 131l-135 -131h-77l184 174l-103 166h76l75 -120l126 120h76l-175 -166z" />
    <glyph glyph-name="y" unicode="y" horiz-adv-x="361" 
d="M165 7q-91 -133 -209 -158l-5 52q93 20 157 124l-84 315h69l64 -252l166 252h69z" />
    <glyph glyph-name="z" unicode="z" horiz-adv-x="358" 
d="M286 0h-310l9 38l278 249h-216l23 53h290l-9 -41l-277 -246h232z" />
    <glyph glyph-name="braceleft" unicode="{" horiz-adv-x="255" 
d="M158 -88h-23q-120 0 -99 102q5 20 21.5 64.5t19.5 62.5q8 36 -53 38l11 52q62 2 69 37q5 21 7.5 65.5t6.5 62.5q21 102 141 102h23l-11 -52h-26q-55 0 -69 -52q-4 -85 -12 -123q-5 -22 -21.5 -41.5t-34.5 -24.5q38 -17 28 -67q-8 -37 -40 -122q-9 -53 47 -53h26z" />
    <glyph glyph-name="bar" unicode="|" horiz-adv-x="177" 
d="M37 -166h-56l146 692h57z" />
    <glyph glyph-name="braceright" unicode="}" horiz-adv-x="255" 
d="M222 179q-63 -2 -71 -38q-3 -18 -5.5 -62.5t-7.5 -64.5q-21 -102 -140 -102h-23l11 51h25q58 0 68 49q5 23 7 64.5t6 61.5q10 50 56 67q-16 5 -24.5 24.5t-3.5 41.5t21 64t20 63q10 48 -48 48h-26l11 52h23q120 0 99 -102q-4 -18 -20.5 -62.5t-21.5 -65.5q-7 -35 55 -37z
" />
    <glyph glyph-name="asciitilde" unicode="~" horiz-adv-x="422" 
d="M415 243q-10 -46 -40.5 -72.5t-70.5 -26.5q-24 0 -99 31t-92 31q-35 0 -50 -62h-55l4 19q9 44 41.5 70t71.5 26q27 0 100.5 -29.5t92.5 -29.5q31 0 47 59h54z" />
    <glyph glyph-name="uni0E33.alt1" horiz-adv-x="343" 
d="M-84 549q-7 -35 -37 -59.5t-65 -24.5q-36 0 -55 24.5t-12 59.5q8 35 38 60t65 25t54.5 -24.5t11.5 -60.5zM-128 549q4 17 -5 29t-26 12t-31.5 -12t-18.5 -29q-3 -17 6.5 -28.5t26.5 -11.5t31 11.5t17 28.5zM258 47q-12 -57 -47 -74l-49 27q29 17 39 70l46 221
q6 28 -9 45.5t-48 17.5t-59 -22t-34 -56h-60q16 60 60 95.5t104 35.5q56 0 88.5 -28.5t20.5 -86.5z" />
    <glyph glyph-name=".null" 
 />
    <glyph glyph-name="nonmarkingreturn" horiz-adv-x="216" 
 />
    <glyph glyph-name="uni0E4E.alt1" 
d="M-122 664l-9 -25q-17 5 -37 5q-46 0 -46 -31q0 -33 50 -39l-9 -23q-12 4 -24 4q-28 0 -45.5 -12.5t-17.5 -27.5q0 -27 45 -27q13 0 32 8l1 -25q-19 -8 -46 -8q-25 0 -43 14.5t-18 38.5q0 25 20 42t45 17q-20 13 -20 38q0 58 77 58q27 0 45 -7z" />
    <glyph glyph-name="exclamdown" unicode="&#xa1;" horiz-adv-x="168" 
d="M46 -141h-71l77 337h56zM150 296q-4 -20 -21 -34t-37 -14t-31 14t-7 34q5 20 22 34t37 14t31 -14t6 -34z" />
    <glyph glyph-name="cent" unicode="&#xa2;" horiz-adv-x="480" 
d="M385 52q-60 -29 -140 -31l-16 -77h-55l17 80q-75 14 -109 68.5t-17 136.5q18 82 75 136.5t138 68.5l17 80h55l-17 -77q80 -2 127 -31l-31 -48q-23 11 -49 17t-55 6q-79 0 -132 -40t-68 -112t21 -112t115 -40q29 0 57 6t56 17z" />
    <glyph glyph-name="sterling" unicode="&#xa3;" horiz-adv-x="480" 
d="M347 0h-302l7 37q93 51 109 124q1 8 3 21t3 27h-77l10 46h71q2 21 4.5 38.5t5.5 34.5q30 140 161 140q40 0 86 -23l-27 -42q-40 18 -71 18q-80 0 -100 -93q-8 -38 -8 -73h111l-10 -46h-103q-1 -8 -3 -19.5t-4 -21.5q-15 -73 -68 -121h211z" />
    <glyph glyph-name="currency" unicode="&#xa4;" horiz-adv-x="480" 
d="M431 226q-13 -59 -57 -106l29 -39l-53 -46l-30 41q-52 -35 -117 -35q-63 0 -99 35l-48 -41l-33 46l45 39q-24 47 -11 106q12 59 56 106l-29 39l53 46l30 -41q52 35 115 35q65 0 101 -35l48 41l33 -46l-45 -39q24 -47 12 -106zM369 226q10 51 -19 88t-80 37q-53 0 -97 -37
t-54 -88q-12 -53 16.5 -89t81.5 -36q51 0 95.5 36t56.5 89z" />
    <glyph glyph-name="yen" unicode="&#xa5;" horiz-adv-x="480" 
d="M359 91h-115l-16 -73h-58l16 73h-115l10 50h115l7 32h-115l11 50h105l-95 238h70l73 -190l154 190h71l-196 -237h106l-11 -51h-115l-7 -32h115z" />
    <glyph glyph-name="brokenbar" unicode="&#xa6;" horiz-adv-x="161" 
d="M106 220h-48l55 256h48zM34 -119h-47l54 257h48z" />
    <glyph glyph-name="section" unicode="&#xa7;" horiz-adv-x="380" 
d="M278 71q-11 -51 -54 -80t-99 -29q-63 0 -101 38l31 42q16 -19 36.5 -27t45.5 -8q36 0 61 16.5t31 42.5q7 35 -36 59l-47.5 20.5t-47.5 21.5q-47 26 -36 82q10 43 56 78q-13 23 -7 52q10 45 50 73t96 28q26 0 50.5 -8t47.5 -22l-34 -43q-34 29 -79 29q-29 0 -52 -14.5
t-28 -36.5q-2 -11 2.5 -20t13.5 -17q7 -5 23.5 -12.5t39.5 -15.5q47 -18 69.5 -45.5t15.5 -62.5q-5 -23 -19.5 -43.5t-35.5 -39.5q14 -23 7 -58zM273 207q4 17 -11.5 34.5t-43.5 28.5q-24 9 -42 17t-30 14q-29 -22 -35 -50q-3 -12 3 -21.5t18 -19.5q9 -5 24 -12.5t39 -16.5
q17 -7 29 -12.5t20 -11.5q14 13 20.5 25t8.5 25z" />
    <glyph glyph-name="dieresis" unicode="&#xa8;" horiz-adv-x="341" 
d="M186 425q-4 -19 -20 -31.5t-33 -12.5q-18 0 -28 12.5t-6 31.5q4 18 19.5 31t33.5 13q17 0 27.5 -13t6.5 -31zM334 425q-4 -19 -20 -31.5t-33 -12.5t-27.5 12.5t-6.5 31.5q4 18 20 31t33 13t27.5 -13t6.5 -31z" />
    <glyph glyph-name="copyright" unicode="&#xa9;" horiz-adv-x="540" 
d="M385 117q-38 -29 -103 -29q-67 0 -106 42t-39 103q0 70 41 110.5t109 40.5q61 0 93 -24l-12 -36q-38 22 -81 22q-104 0 -104 -108q0 -109 105 -109q49 0 84 25zM527 240q0 -100 -71.5 -171.5t-171.5 -71.5t-171.5 71.5t-71.5 171.5t71.5 171.5t171.5 71.5t171.5 -71.5
t71.5 -171.5zM485 240q0 83 -59 142t-142 59t-142 -59t-59 -142t59 -142t142 -59t142 59t59 142z" />
    <glyph glyph-name="ordfeminine" unicode="&#xaa;" horiz-adv-x="289" 
d="M294 443l-33 -149q-2 -9 -2 -20q0 -16 5 -25l-34 -8q-4 11 -4 24q0 10 1 17q-43 -41 -91 -41q-39 0 -61.5 23t-22.5 60q0 59 39 106.5t98 47.5q62 0 105 -35zM229 345l17 79q-27 17 -56 17q-41 0 -67 -34.5t-26 -75.5q0 -53 51 -53q27 0 50.5 20.5t30.5 46.5z" />
    <glyph glyph-name="guillemotleft" unicode="&#xab;" horiz-adv-x="356" 
d="M291 47h-60l-85 132l142 135h59l-141 -134zM169 47h-61l-84 132l139 136h62l-142 -136z" />
    <glyph glyph-name="logicalnot" unicode="&#xac;" horiz-adv-x="448" 
d="M403 88h-48v146h-321v45h369v-191z" />
    <glyph glyph-name="registered" unicode="&#xae;" horiz-adv-x="540" 
d="M393 89h-39q-18 131 -78 131h-50v-131h-41v295q46 8 82 8q53 0 84.5 -22.5t31.5 -61.5q0 -52 -49 -74q24 -17 36.5 -47t22.5 -98zM346 305q0 52 -79 52q-25 0 -41 -2v-102h47q73 0 73 52zM527 240q0 -100 -71.5 -171.5t-171.5 -71.5t-171.5 71.5t-71.5 171.5t71.5 171.5
t171.5 71.5t171.5 -71.5t71.5 -171.5zM485 240q0 83 -59 142t-142 59t-142 -59t-59 -142t59 -142t142 -59t142 59t59 142z" />
    <glyph glyph-name="macron" unicode="&#xaf;" horiz-adv-x="376" 
d="M444 528h-376l11 53h376z" />
    <glyph glyph-name="degree" unicode="&#xb0;" horiz-adv-x="277" 
d="M267 397q-8 -37 -39.5 -63t-68.5 -26t-57.5 26t-12.5 63t39.5 63t68.5 26t57.5 -26t12.5 -63zM235 397q5 23 -8.5 40t-36.5 17t-43.5 -17t-25.5 -40t8.5 -40t36.5 -17t43.5 17t25.5 40z" />
    <glyph glyph-name="plusminus" unicode="&#xb1;" horiz-adv-x="440" 
d="M361 0h-369l11 55h369zM402 217h-148l-30 -139h-63l30 139h-148l11 55h148l32 151h63l-32 -151h148z" />
    <glyph glyph-name="twosuperior" unicode="&#xb2;" horiz-adv-x="260" 
d="M213 190h-190q6 31 35 59.5t61 54.5l59.5 50.5t32.5 47.5q4 17 -4 26t-23 9q-19 0 -37 -14t-25 -41l-41 8q15 45 44 68.5t66 23.5q38 0 57 -21.5t11 -58.5q-5 -21 -23 -46t-52 -54l-80 -67h124z" />
    <glyph glyph-name="threesuperior" unicode="&#xb3;" horiz-adv-x="260" 
d="M246 294q-10 -48 -48 -77t-92 -30q-41 0 -69 25l28 42q12 -12 25 -16t27 -4q32 0 54 16.5t28 42.5q3 17 -5.5 26t-22.5 9q-12 0 -25 -4.5t-22 -10.5l-10 30q43 18 67 37.5t27 35.5q5 22 -23 22q-17 0 -35.5 -11.5t-31.5 -34.5l-33 19q46 72 112 72q69 0 57 -59
q-8 -34 -46 -62q49 -15 38 -68z" />
    <glyph glyph-name="acute" unicode="&#xb4;" horiz-adv-x="259" 
d="M133 366h-47l100 115h78z" />
    <glyph glyph-name="mu" unicode="&#xb5;" horiz-adv-x="414" 
d="M342 4l-63 -12q-3 11 -4 22.5t-1 25.5q-33 -22 -65 -35.5t-67 -13.5q-23 0 -42 8t-29 25l-35 -165h-62l101 483h63l-38 -182q-25 -113 61 -113q37 0 77 25.5t49 66.5l43 203h63l-53 -251q-4 -18 -3 -40t5 -47z" />
    <glyph glyph-name="paragraph" unicode="&#xb6;" horiz-adv-x="380" 
d="M266 -63h-34l108 506h-48l-108 -506h-35l52 243h-4q-60 0 -99.5 37.5t-25.5 103.5q32 154 230 154q53 0 77 -5z" />
    <glyph glyph-name="periodcentered" unicode="&#xb7;" horiz-adv-x="172" 
d="M128 182q-4 -20 -21 -34t-37 -14t-31 14t-7 34t21 34t37 14t31 -14t7 -34z" />
    <glyph glyph-name="cedilla" unicode="&#xb8;" horiz-adv-x="249" 
d="M132 -90q-6 -32 -31 -50.5t-63 -18.5q-14 0 -29.5 4.5t-28.5 13.5l20 32q12 -7 25.5 -11t21.5 -4q32 0 39 30q5 28 -56 39l57 66h43l-36 -39q25 -8 34 -23.5t4 -38.5z" />
    <glyph glyph-name="onesuperior" unicode="&#xb9;" horiz-adv-x="260" 
d="M207 195h-134l8 39h43l38 180l-48 -38l-17 34l98 74q15 0 21 -9.5t3 -24.5l-46 -216h42z" />
    <glyph glyph-name="ordmasculine" unicode="&#xba;" horiz-adv-x="294" 
d="M306 359q-12 -54 -57 -90.5t-98 -36.5q-54 0 -83 36.5t-17 90.5q11 53 55.5 90.5t98.5 37.5q53 0 82.5 -37.5t18.5 -90.5zM262 359q7 34 -12.5 59t-53.5 25t-64 -25t-37 -59t12 -58.5t53 -24.5t64.5 24.5t37.5 58.5z" />
    <glyph glyph-name="guillemotright" unicode="&#xbb;" horiz-adv-x="356" 
d="M55 47h-59l142 133l-85 134h59l86 -135zM178 47h-61l144 132l-86 136h62l83 -136z" />
    <glyph glyph-name="onequarter" unicode="&#xbc;" horiz-adv-x="542" 
d="M390 108l26 118q-25 -20 -48.5 -53.5t-34.5 -64.5h57zM420 0h-52l12 60h-109q7 32 25.5 72t46 75.5t63 60t76.5 25.5l-40 -185h42l-12 -48h-40zM173 176h-134l8 39h43l37 174l-45 -33l-20 36l100 74q30 -2 23 -35l-46 -216h42zM112 -9h-50l389 483h50z" />
    <glyph glyph-name="onehalf" unicode="&#xbd;" horiz-adv-x="542" 
d="M476 0h-190q11 38 39.5 67t58.5 52q14 12 29 23.5t27.5 23.5t21.5 23.5t12 22.5q3 14 -3.5 24t-23.5 10q-41 0 -60 -54l-43 8q14 45 43.5 68.5t66.5 23.5q38 0 57.5 -21t11.5 -59q-6 -25 -25 -47t-43 -42.5l-48 -39.5t-40 -37h124zM112 -9h-50l389 483h50zM173 176h-134
l8 39h43l37 174l-45 -33l-20 36l100 74q30 -2 23 -35l-46 -216h42z" />
    <glyph glyph-name="threequarters" unicode="&#xbe;" horiz-adv-x="542" 
d="M390 108l26 118q-26 -25 -49 -56t-34 -62h57zM420 0h-52l12 60h-109q10 37 28.5 77.5t45.5 75t61.5 57t75.5 23.5l-40 -185h42l-12 -48h-40zM112 -9h-50l389 483h50zM239 285q-5 -26 -19.5 -46t-33.5 -33.5t-42 -20.5t-45 -7q-41 0 -69 25l29 43q11 -11 24 -16.5t27 -5.5
q32 0 54 17t28 43q7 35 -26 35q-25 0 -50 -18l-9 30q49 23 68 41t24 38q1 8 -3.5 13.5t-17.5 5.5q-40 0 -68 -49l-33 19q46 72 113 72q35 0 48 -16t8 -38q-7 -34 -44 -62q26 -4 34.5 -23t2.5 -47z" />
    <glyph glyph-name="questiondown" unicode="&#xbf;" horiz-adv-x="289" 
d="M196 -114q-67 -37 -123 -37q-57 0 -84.5 30.5t-16.5 81.5q11 53 91 121q28 23 44 46.5t21 44.5q4 17 2 42h57q2 -14 2 -25.5t-1 -19.5q-12 -55 -83 -116q-62 -54 -70 -91q-12 -57 58 -57q43 0 89 29zM219 293q-4 -20 -21 -34t-36 -14t-30 14t-7 34t21 34t36 14t30 -14
t7 -34z" />
    <glyph glyph-name="Acircumflex" unicode="&#xc2;" horiz-adv-x="451" 
d="M408 0h-69l-30 159h-191l-95 -159h-68l302 483h54zM297 213l-28 198l-116 -198h144zM386 521h-54l-26 71l-55 -71h-55l103 115h35z" />
    <glyph glyph-name="Adieresis" unicode="&#xc4;" horiz-adv-x="451" 
d="M408 0h-69l-30 159h-191l-95 -159h-68l302 483h54zM297 213l-28 198l-116 -198h144zM270 561q-4 -19 -20 -31.5t-33 -12.5q-18 0 -28 12.5t-6 31.5q4 18 19.5 31t33.5 13q17 0 27.5 -13t6.5 -31zM418 561q-4 -19 -20 -31.5t-33 -12.5t-27.5 12.5t-6.5 31.5q4 18 20 31
t33 13t27.5 -13t6.5 -31z" />
    <glyph glyph-name="Aring" unicode="&#xc5;" horiz-adv-x="451" 
d="M408 0h-69l-30 159h-191l-95 -159h-68l302 483h54zM297 213l-28 198l-116 -198h144zM388 600q-7 -33 -35.5 -56.5t-61.5 -23.5t-51.5 23.5t-11.5 56.5t35.5 56.5t61.5 23.5t51.5 -23.5t11.5 -56.5zM346 600q4 16 -5 27t-25 11t-29.5 -11t-17.5 -27q-3 -16 6 -27.5
t25 -11.5t29.5 11.5t16.5 27.5z" />
    <glyph glyph-name="AE" unicode="&#xc6;" horiz-adv-x="583" 
d="M511 0h-229l13 190h-140l-141 -190h-68l361 483h294l-12 -55h-218l-12 -147h189l-11 -55h-180l-11 -171h176zM298 244l16 161l-121 -161h105z" />
    <glyph glyph-name="Ccedilla" unicode="&#xc7;" horiz-adv-x="432" 
d="M371 25q-80 -32 -181 -32q-95 0 -138 67.5t-20 176.5q23 108 93 174q77 72 188 72q85 0 149 -29l-31 -50q-54 25 -127 25q-92 0 -150 -68q-42 -50 -59 -126q-14 -70 10 -122q29 -66 109 -66q83 0 151 30zM223 -90q-6 -32 -31 -50.5t-63 -18.5q-14 0 -29.5 4.5t-28.5 13.5
l20 32q12 -7 25.5 -11t21.5 -4q32 0 39 30q5 28 -56 39l57 66h43l-36 -39q25 -8 34 -23.5t4 -38.5z" />
    <glyph glyph-name="Ecircumflex" unicode="&#xca;" horiz-adv-x="358" 
d="M289 0h-283l101 476h283l-12 -54h-220l-30 -144h196l-12 -54h-196l-36 -170h220zM340 521h-54l-26 71l-55 -71h-55l103 115h35z" />
    <glyph glyph-name="Edieresis" unicode="&#xcb;" horiz-adv-x="358" 
d="M289 0h-283l101 476h283l-12 -54h-220l-30 -144h196l-12 -54h-196l-36 -170h220zM223 561q-4 -19 -20 -31.5t-33 -12.5q-18 0 -28 12.5t-6 31.5q4 18 19.5 31t33.5 13q17 0 27.5 -13t6.5 -31zM371 561q-4 -19 -20 -31.5t-33 -12.5t-27.5 12.5t-6.5 31.5q4 18 20 31t33 13
t27.5 -13t6.5 -31z" />
    <glyph glyph-name="Icircumflex" unicode="&#xce;" horiz-adv-x="163" 
d="M69 0h-63l101 476h63zM243 521h-54l-26 71l-55 -71h-55l103 115h35z" />
    <glyph glyph-name="Idieresis" unicode="&#xcf;" horiz-adv-x="163" 
d="M69 0h-63l101 476h63zM131 561q-4 -19 -20 -31.5t-33 -12.5q-18 0 -28 12.5t-6 31.5q4 18 19.5 31t33.5 13q17 0 27.5 -13t6.5 -31zM279 561q-4 -19 -20 -31.5t-33 -12.5t-27.5 12.5t-6.5 31.5q4 18 20 31t33 13t27.5 -13t6.5 -31z" />
    <glyph glyph-name="Eth" unicode="&#xd0;" horiz-adv-x="459" 
d="M441 248q-23 -108 -89 -173q-80 -79 -213 -79q-41 0 -132 10l42 200h-41l12 54h41l44 208q117 13 157 13q122 0 165 -73q36 -59 14 -160zM377 248q38 179 -130 179q-28 0 -89 -6l-34 -161h160l-12 -54h-160l-32 -153q32 -3 82 -3q97 0 156 69q43 51 59 129z" />
    <glyph glyph-name="Ntilde" unicode="&#xd1;" horiz-adv-x="472" 
d="M378 0h-60l-167 386l-82 -386h-63l101 476h63l166 -376l80 376h63zM416 592q-8 -35 -26.5 -55.5t-47.5 -20.5q-8 0 -18.5 4.5t-21.5 10t-21.5 10t-17.5 4.5q-8 0 -11.5 -7.5t-5.5 -16.5h-44q7 30 25.5 50.5t45.5 20.5q9 0 20 -4t20.5 -9.5t19.5 -9.5t17 -4q19 0 24 27h42
z" />
    <glyph glyph-name="Ocircumflex" unicode="&#xd4;" horiz-adv-x="518" 
d="M436 238q18 82 -17.5 137.5t-112.5 55.5t-135.5 -55.5t-76.5 -137.5q-17 -82 18 -137.5t112 -55.5t136 55.5t76 137.5zM498 237q-22 -105 -102.5 -176t-183.5 -71t-152.5 71t-27.5 176t102.5 176.5t183.5 71.5t152.5 -71.5t27.5 -176.5zM420 521h-54l-26 71l-55 -71h-55
l103 115h35z" />
    <glyph glyph-name="Odieresis" unicode="&#xd6;" horiz-adv-x="518" 
d="M436 238q18 82 -17.5 137.5t-112.5 55.5t-135.5 -55.5t-76.5 -137.5q-17 -82 18 -137.5t112 -55.5t136 55.5t76 137.5zM498 237q-22 -105 -102.5 -176t-183.5 -71t-152.5 71t-27.5 176t102.5 176.5t183.5 71.5t152.5 -71.5t27.5 -176.5zM303 561q-4 -19 -20 -31.5
t-33 -12.5q-18 0 -28 12.5t-6 31.5q4 18 19.5 31t33.5 13q17 0 27.5 -13t6.5 -31zM451 561q-4 -19 -20 -31.5t-33 -12.5t-27.5 12.5t-6.5 31.5q4 18 20 31t33 13t27.5 -13t6.5 -31z" />
    <glyph glyph-name="multiply" unicode="&#xd7;" horiz-adv-x="417" 
d="M353 34l-49 -39l-110 148l-86.5 -74l-86.5 -74l-30 39l172 148l-54.5 75.5l-55.5 75.5l49 39l110 -148l87 74.5l86 73.5l31 -39l-175 -150z" />
    <glyph glyph-name="Oslash" unicode="&#xd8;" horiz-adv-x="518" 
d="M498 237q-22 -105 -102.5 -176t-183.5 -71q-47 0 -83 14l-22 -32h-64l42 59q-14 13 -26 30q-49 71 -27 176t102.5 176.5t183.5 71.5q49 0 85 -16l17 23h64l-38 -52q13 -12 24 -27q50 -71 28 -176zM368 419q-27 12 -62 12q-77 0 -135.5 -55.5t-76.5 -137.5
q-17 -82 18 -138q5 -9 11 -16zM436 238q18 82 -18 137q-4 7 -9 13l-243 -333q25 -10 58 -10q77 0 136 55.5t76 137.5z" />
    <glyph glyph-name="Ucircumflex" unicode="&#xdb;" horiz-adv-x="482" 
d="M431 203q-45 -212 -236 -212t-146 212l58 273h64l-58 -273q-34 -158 93 -158t161 158l58 273h64zM402 521h-54l-26 71l-55 -71h-55l103 115h35z" />
    <glyph glyph-name="Udieresis" unicode="&#xdc;" horiz-adv-x="482" 
d="M431 203q-45 -212 -236 -212t-146 212l58 273h64l-58 -273q-34 -158 93 -158t161 158l58 273h64zM285 561q-4 -19 -20 -31.5t-33 -12.5q-18 0 -28 12.5t-6 31.5q4 18 19.5 31t33.5 13q17 0 27.5 -13t6.5 -31zM433 561q-4 -19 -20 -31.5t-33 -12.5t-27.5 12.5t-6.5 31.5
q4 18 20 31t33 13t27.5 -13t6.5 -31z" />
    <glyph glyph-name="Thorn" unicode="&#xde;" horiz-adv-x="394" 
d="M365 249q-16 -77 -75.5 -117.5t-150.5 -40.5q-32 0 -51 4l-20 -95h-59l101 476h59l-16 -73q21 4 53 4q91 0 133.5 -40.5t25.5 -117.5zM307 249q23 106 -110 106q-31 0 -56 -8l-41 -196q21 -8 52 -8q133 0 155 106z" />
    <glyph glyph-name="germandbls" unicode="&#xdf;" horiz-adv-x="425" 
d="M355 109q-12 -55 -53 -86.5t-99 -31.5q-26 0 -48.5 6.5t-42.5 18.5l31 54q40 -24 72 -24t53.5 16.5t26.5 40.5q5 22 -6.5 39t-26.5 33.5t-26 34.5t-6 42q3 13 16 28.5t29 31t29 30t16 26.5q14 67 -58 67q-84 0 -117 -154l-68 -321q-6 -26 -18 -52t-31 -51l-53 15
q19 25 28.5 46.5t13.5 41.5l72 337q41 195 192 195q54 0 81.5 -32.5t15.5 -89.5q-5 -23 -19 -41.5t-28.5 -33.5t-27 -26t-14.5 -20q-2 -10 10.5 -23.5t26 -31.5t24 -39t5.5 -46z" />
    <glyph glyph-name="acircumflex" unicode="&#xe2;" horiz-adv-x="431" 
d="M366 4l-63 -12q-12 16 -15 58q-49 -59 -130 -59q-63 0 -103.5 38t-40.5 101q0 90 61.5 156.5t151.5 66.5q111 0 170 -63l-42 -199q-8 -48 11 -87zM304 142l25 120q-39 39 -108 39q-59 0 -102.5 -48.5t-43.5 -113.5q0 -93 96 -93q47 0 86 28.5t47 67.5zM355 385h-54
l-26 71l-55 -71h-55l103 115h35z" />
    <glyph glyph-name="adieresis" unicode="&#xe4;" horiz-adv-x="431" 
d="M366 4l-63 -12q-12 16 -15 58q-49 -59 -130 -59q-63 0 -103.5 38t-40.5 101q0 90 61.5 156.5t151.5 66.5q111 0 170 -63l-42 -199q-8 -48 11 -87zM304 142l25 120q-39 39 -108 39q-59 0 -102.5 -48.5t-43.5 -113.5q0 -93 96 -93q47 0 86 28.5t47 67.5zM243 425
q-4 -19 -20 -31.5t-33 -12.5q-18 0 -28 12.5t-6 31.5q4 18 19.5 31t33.5 13q17 0 27.5 -13t6.5 -31zM391 425q-4 -19 -20 -31.5t-33 -12.5t-27.5 12.5t-6.5 31.5q4 18 20 31t33 13t27.5 -13t6.5 -31z" />
    <glyph glyph-name="aring" unicode="&#xe5;" horiz-adv-x="431" 
d="M366 4l-63 -12q-12 16 -15 58q-49 -59 -130 -59q-63 0 -103.5 38t-40.5 101q0 90 61.5 156.5t151.5 66.5q111 0 170 -63l-42 -199q-8 -48 11 -87zM304 142l25 120q-39 39 -108 39q-59 0 -102.5 -48.5t-43.5 -113.5q0 -93 96 -93q47 0 86 28.5t47 67.5zM353 464
q-7 -33 -35.5 -56.5t-61.5 -23.5t-51.5 23.5t-11.5 56.5t35.5 56.5t61.5 23.5t51.5 -23.5t11.5 -56.5zM311 464q4 16 -5 27t-25 11t-29.5 -11t-17.5 -27q-3 -16 6 -27.5t25 -11.5t29.5 11.5t16.5 27.5z" />
    <glyph glyph-name="ae" unicode="&#xe6;" horiz-adv-x="621" 
d="M539 18q-73 -27 -145 -27q-98 0 -136 70q-51 -70 -157 -70q-25 0 -45.5 7t-34.5 20t-19 32t-1 43q28 130 256 132q6 34 -10.5 55.5t-54.5 21.5q-32 0 -124 -26l4 57q75 21 135 21q45 0 71.5 -13.5t36.5 -47.5q61 61 152 61q154 0 118 -194h-279q-7 -55 21 -84t82 -29
q58 0 137 26zM246 170q-86 -1 -128 -18.5t-49 -52.5q-6 -26 7.5 -39.5t37.5 -13.5q48 0 82.5 27t44.5 75zM534 213q1 37 -19.5 63t-62.5 26q-44 0 -77.5 -23.5t-51.5 -65.5h211z" />
    <glyph glyph-name="ccedilla" unicode="&#xe7;" horiz-adv-x="347" 
d="M282 21q-54 -30 -123 -30q-81 0 -119.5 50.5t-21.5 130.5q17 81 77 131t141 50q68 0 110 -30l-33 -52q-41 29 -91 29q-51 0 -89.5 -35.5t-50.5 -92.5q-12 -58 11.5 -93t74.5 -35q50 0 103 29zM181 -90q-6 -32 -31 -50.5t-63 -18.5q-14 0 -29.5 4.5t-28.5 13.5l20 32
q12 -7 25.5 -11t21.5 -4q32 0 39 30q5 28 -56 39l57 66h43l-36 -39q25 -8 34 -23.5t4 -38.5z" />
    <glyph glyph-name="ecircumflex" unicode="&#xea;" horiz-adv-x="391" 
d="M362 246q0 -51 -53 -78q-45 -23 -112 -23q-61 0 -120 8q-1 -6 -1 -12q0 -45 29 -69.5t76 -24.5q54 0 134 26l-5 -55q-78 -27 -144 -27q-69 0 -111.5 35.5t-42.5 96.5q0 96 68 163t159 67q123 0 123 -107zM308 247q0 54 -78 54q-41 0 -83.5 -30t-58.5 -73q28 -7 96 -7
q124 0 124 56zM327 385h-54l-26 71l-55 -71h-55l103 115h35z" />
    <glyph glyph-name="edieresis" unicode="&#xeb;" horiz-adv-x="391" 
d="M362 246q0 -51 -53 -78q-45 -23 -112 -23q-61 0 -120 8q-1 -6 -1 -12q0 -45 29 -69.5t76 -24.5q54 0 134 26l-5 -55q-78 -27 -144 -27q-69 0 -111.5 35.5t-42.5 96.5q0 96 68 163t159 67q123 0 123 -107zM308 247q0 54 -78 54q-41 0 -83.5 -30t-58.5 -73q28 -7 96 -7
q124 0 124 56zM211 425q-4 -19 -20 -31.5t-33 -12.5q-18 0 -28 12.5t-6 31.5q4 18 19.5 31t33.5 13q17 0 27.5 -13t6.5 -31zM359 425q-4 -19 -20 -31.5t-33 -12.5t-27.5 12.5t-6.5 31.5q4 18 20 31t33 13t27.5 -13t6.5 -31z" />
    <glyph glyph-name="icircumflex" unicode="&#xee;" horiz-adv-x="163" 
d="M69 0h-63l72 340h63zM219 385h-54l-26 71l-55 -71h-55l103 115h35z" />
    <glyph glyph-name="idieresis" unicode="&#xef;" horiz-adv-x="163" 
d="M69 0h-63l72 340h63zM102 425q-4 -19 -20 -31.5t-33 -12.5q-18 0 -28 12.5t-6 31.5q4 18 19.5 31t33.5 13q17 0 27.5 -13t6.5 -31zM250 425q-4 -19 -20 -31.5t-33 -12.5t-27.5 12.5t-6.5 31.5q4 18 20 31t33 13t27.5 -13t6.5 -31z" />
    <glyph glyph-name="eth" unicode="&#xf0;" horiz-adv-x="378" 
d="M331 163q-17 -81 -73 -130t-126 -49q-63 0 -94 45.5t-16 112.5q14 66 64.5 111t110.5 45t82 -32q-13 50 -64 98q-1 1 -2 1l-112 -52l-18 44l89 41q-32 20 -65 30l17 50q67 -14 115 -49l101 47l12 -46l-76 -35q83 -100 55 -232zM259 142q9 43 -11.5 72.5t-58.5 29.5
q-36 0 -68.5 -31t-40.5 -71q-9 -40 10.5 -71t55.5 -31q38 0 71 30t42 72z" />
    <glyph glyph-name="ntilde" unicode="&#xf1;" horiz-adv-x="423" 
d="M345 76q-3 -25 -1 -40.5t10 -28.5l-60 -22q-9 13 -12.5 40.5t3.5 62.5l22 105q22 104 -73 104q-35 0 -75.5 -31.5t-46.5 -62.5l-43 -203h-63l53 250q5 25 8 44q3 21 -6 44l55 11q13 -24 8 -57q62 58 130 58t99.5 -42t16.5 -115zM363 456q-8 -35 -26.5 -55.5t-47.5 -20.5
q-8 0 -18.5 4.5t-21.5 10t-21.5 10t-17.5 4.5q-8 0 -11.5 -7.5t-5.5 -16.5h-44q7 30 25.5 50.5t45.5 20.5q9 0 20 -4t20.5 -9.5t19.5 -9.5t17 -4q19 0 24 27h42z" />
    <glyph glyph-name="ocircumflex" unicode="&#xf4;" horiz-adv-x="412" 
d="M378 172q-16 -76 -78 -128t-140 -52t-118 52t-24 128t78.5 128.5t140.5 52.5t117.5 -52.5t23.5 -128.5zM316 172q12 54 -13.5 90.5t-77.5 36.5t-92.5 -36.5t-52.5 -90.5q-11 -54 14 -90.5t77 -36.5t93 36.5t52 90.5zM338 385h-54l-26 71l-55 -71h-55l103 115h35z" />
    <glyph glyph-name="odieresis" unicode="&#xf6;" horiz-adv-x="412" 
d="M378 172q-16 -76 -78 -128t-140 -52t-118 52t-24 128t78.5 128.5t140.5 52.5t117.5 -52.5t23.5 -128.5zM316 172q12 54 -13.5 90.5t-77.5 36.5t-92.5 -36.5t-52.5 -90.5q-11 -54 14 -90.5t77 -36.5t93 36.5t52 90.5zM221 425q-4 -19 -20 -31.5t-33 -12.5q-18 0 -28 12.5
t-6 31.5q4 18 19.5 31t33.5 13q17 0 27.5 -13t6.5 -31zM369 425q-4 -19 -20 -31.5t-33 -12.5t-27.5 12.5t-6.5 31.5q4 18 20 31t33 13t27.5 -13t6.5 -31z" />
    <glyph glyph-name="divide" unicode="&#xf7;" horiz-adv-x="417" 
d="M380 157h-365l11 54h365zM224 56q-4 -20 -21 -34t-36 -14t-30 14t-7 34q5 20 22 34t36 14t30 -14t6 -34zM279 313q-4 -20 -21 -34t-36 -14t-30 14t-7 34t21 34t36 14t30 -14t7 -34z" />
    <glyph glyph-name="oslash" unicode="&#xf8;" horiz-adv-x="412" 
d="M378 172q-16 -76 -78 -128t-140 -52q-33 0 -59 9l-21 -29h-64l40 56q-8 7 -14 16q-40 52 -24 128t78.5 128.5t140.5 52.5q28 0 51 -7l24 32h64l-41 -57q10 -9 19 -21q40 -52 24 -128zM316 172q12 54 -14 90q-3 4 -5 7l-161 -219q16 -5 35 -5q52 0 93 36.5t52 90.5z
M251 296q-12 3 -26 3q-52 0 -92.5 -36.5t-52.5 -90.5q-11 -54 14 -91l1 -1z" />
    <glyph glyph-name="ucircumflex" unicode="&#xfb;" horiz-adv-x="418" 
d="M354 4l-63 -12q-12 16 -15 58q-73 -59 -131 -59q-114 0 -114 105q0 26 7 58l24 111q3 14 3 29q0 22 -6 44l60 12q9 -27 9 -54q0 -19 -4 -38l-21 -98q-6 -28 -6 -45q0 -68 67 -68q37 0 77.5 28.5t48.5 63.5l43 201h63l-53 -249q-2 -9 -2 -21q0 -30 13 -66zM341 385h-54
l-26 71l-55 -71h-55l103 115h35z" />
    <glyph glyph-name="udieresis" unicode="&#xfc;" horiz-adv-x="418" 
d="M354 4l-63 -12q-12 16 -15 58q-73 -59 -131 -59q-114 0 -114 105q0 26 7 58l24 111q3 14 3 29q0 22 -6 44l60 12q9 -27 9 -54q0 -19 -4 -38l-21 -98q-6 -28 -6 -45q0 -68 67 -68q37 0 77.5 28.5t48.5 63.5l43 201h63l-53 -249q-2 -9 -2 -21q0 -30 13 -66zM224 425
q-4 -19 -20 -31.5t-33 -12.5q-18 0 -28 12.5t-6 31.5q4 18 19.5 31t33.5 13q17 0 27.5 -13t6.5 -31zM372 425q-4 -19 -20 -31.5t-33 -12.5t-27.5 12.5t-6.5 31.5q4 18 20 31t33 13t27.5 -13t6.5 -31z" />
    <glyph glyph-name="thorn" unicode="&#xfe;" horiz-adv-x="438" 
d="M396 179q-18 -84 -78.5 -136t-138.5 -52q-67 0 -103 41l-35 -166h-58l129 610h59l-36 -169q60 47 131 47q73 0 109.5 -49.5t20.5 -125.5zM337 178q12 54 -12.5 89t-75.5 35q-47 0 -87.5 -29.5t-50.5 -76.5l-12 -57q-8 -38 20.5 -65.5t73.5 -27.5q52 0 91.5 35t52.5 97z
" />
    <glyph glyph-name="ydieresis" unicode="&#xff;" horiz-adv-x="361" 
d="M165 7q-91 -133 -209 -158l-5 52q93 20 157 124l-84 315h69l64 -252l166 252h69zM196 425q-4 -19 -20 -31.5t-33 -12.5q-18 0 -28 12.5t-6 31.5q4 18 19.5 31t33.5 13q17 0 27.5 -13t6.5 -31zM344 425q-4 -19 -20 -31.5t-33 -12.5t-27.5 12.5t-6.5 31.5q4 18 20 31t33 13
t27.5 -13t6.5 -31z" />
    <glyph glyph-name="dotlessi" unicode="&#x131;" horiz-adv-x="163" 
d="M69 0h-63l72 340h63z" />
    <glyph glyph-name="Lslash" unicode="&#x141;" horiz-adv-x="359" 
d="M302 0h-296l31 149l-30 -7l13 62l30 7l57 265h63l-53 -250l236 53l-13 -62l-237 -53l-23 -110h233z" />
    <glyph glyph-name="lslash" unicode="&#x142;" horiz-adv-x="217" 
d="M173 49l-19 -57q-147 8 -110 183l13 61l-46 -12l12 54l45 12l46 214h63l-42 -195l99 28l-11 -54l-99 -28l-14 -66q-17 -77 1 -109q15 -27 62 -31z" />
    <glyph glyph-name="OE" unicode="&#x152;" horiz-adv-x="723" 
d="M654 0h-283l5 27q-68 -37 -144 -37q-111 0 -166.5 71t-33.5 177q22 105 108.5 176.5t197.5 71.5q76 0 128 -38l6 28h283l-12 -54h-220l-30 -144h196l-12 -54h-196l-36 -170h220zM393 104l56 265q-38 62 -123 62q-76 0 -145.5 -58.5t-85.5 -134.5q-16 -78 28 -136t121 -58
q85 0 149 60z" />
    <glyph glyph-name="oe" unicode="&#x153;" horiz-adv-x="689" 
d="M613 73l-5 -55q-78 -27 -144 -27q-101 0 -142 74q-68 -73 -162 -73q-78 0 -118 52t-24 128t78.5 128.5t140.5 52.5q97 0 131 -77q77 77 169 77q154 0 116 -193h-277q-8 -53 20 -83t83 -30t134 26zM316 172q12 54 -13.5 90.5t-77.5 36.5t-92.5 -36.5t-52.5 -90.5
q-11 -54 14 -90.5t77 -36.5t93 36.5t52 90.5zM391 213h211q3 40 -19.5 64t-63.5 24q-40 0 -76.5 -24.5t-51.5 -63.5z" />
    <glyph glyph-name="Scaron" unicode="&#x160;" horiz-adv-x="365" 
d="M322 130q-13 -62 -70.5 -100.5t-131.5 -38.5q-79 0 -137 43l38 57q48 -43 115 -43q49 0 81.5 21.5t39.5 57.5q13 60 -76 91q-132 45 -112 138q12 56 64.5 92.5t123.5 36.5t116 -32l-38 -50q-45 25 -92 25q-43 0 -73.5 -19.5t-36.5 -47.5q-11 -55 78 -86q73 -25 98 -58
t13 -87zM265 521h-35l-52 115h54l26 -71l55 71h55z" />
    <glyph glyph-name="scaron" unicode="&#x161;" horiz-adv-x="296" 
d="M247 97q-10 -47 -52.5 -76.5t-104.5 -29.5q-51 0 -102 33l34 50q35 -28 82 -28q70 0 80 48q8 37 -55 58q-94 31 -80 95q9 43 49 72.5t97 29.5q58 0 92 -29l-33 -46q-30 26 -74 26q-26 0 -46 -13.5t-25 -34.5q-5 -26 62 -51q91 -34 76 -104zM207 385h-35l-52 115h54
l26 -71l55 71h55z" />
    <glyph glyph-name="Ydieresis" unicode="&#x178;" horiz-adv-x="396" 
d="M186 0h-62l44 208l-117 268h73l86 -214l177 214h72l-229 -267zM242 561q-4 -19 -20 -31.5t-33 -12.5q-18 0 -28 12.5t-6 31.5q4 18 19.5 31t33.5 13q17 0 27.5 -13t6.5 -31zM390 561q-4 -19 -20 -31.5t-33 -12.5t-27.5 12.5t-6.5 31.5q4 18 20 31t33 13t27.5 -13t6.5 -31
z" />
    <glyph glyph-name="Zcaron" unicode="&#x17d;" horiz-adv-x="451" 
d="M382 0h-399l9 40l389 382h-293l23 54h369l-9 -41l-390 -381h324zM308 521h-35l-52 115h54l26 -71l55 71h55z" />
    <glyph glyph-name="zcaron" unicode="&#x17e;" horiz-adv-x="358" 
d="M286 0h-310l9 38l278 249h-216l23 53h290l-9 -41l-277 -246h232zM233 385h-35l-52 115h54l26 -71l55 71h55z" />
    <glyph glyph-name="florin" unicode="&#x192;" horiz-adv-x="404" 
d="M336 254h-94l-69 -161q-69 -162 -193 -162q-39 0 -60 25l35 44q22 -14 46 -14q65 0 113 112l67 156h-54l22 52h56l6 16q37 78 85.5 120t108.5 42q39 0 60 -25l-35 -44q-21 14 -46 14q-66 0 -114 -112l-5 -11h93z" />
    <glyph glyph-name="circumflex" unicode="&#x2c6;" horiz-adv-x="218" 
d="M241 385h-54l-26 71l-55 -71h-55l103 115h35z" />
    <glyph glyph-name="caron" unicode="&#x2c7;" horiz-adv-x="308" 
d="M208 385h-35l-52 115h54l26 -71l55 71h55z" />
    <glyph glyph-name="breve" unicode="&#x2d8;" horiz-adv-x="342" 
d="M349 491q-22 -57 -58 -84.5t-84 -27.5t-72 27.5t-22 84.5h54q0 -25 11 -44.5t39 -19.5t48.5 19.5t30.5 44.5h53z" />
    <glyph glyph-name="dotaccent" unicode="&#x2d9;" horiz-adv-x="193" 
d="M211 545q-4 -19 -19.5 -31.5t-32.5 -12.5t-28 12.5t-7 31.5q4 18 20.5 31t33.5 13t27 -13t6 -31z" />
    <glyph glyph-name="ring" unicode="&#x2da;" horiz-adv-x="266" 
d="M267 464q-7 -33 -35.5 -56.5t-61.5 -23.5t-51.5 23.5t-11.5 56.5t35.5 56.5t61.5 23.5t51.5 -23.5t11.5 -56.5zM225 464q4 16 -5 27t-25 11t-29.5 -11t-17.5 -27q-3 -16 6 -27.5t25 -11.5t29.5 11.5t16.5 27.5z" />
    <glyph glyph-name="ogonek" unicode="&#x2db;" horiz-adv-x="255" 
d="M129 -136q-45 -17 -77 -17q-39 0 -52 23t-7 54q4 19 14.5 43t24.5 52h59q-33 -53 -39 -81q-6 -32 21 -35q11 0 29.5 5.5t38.5 13.5z" />
    <glyph glyph-name="tilde" unicode="&#x2dc;" horiz-adv-x="259" 
d="M278 443q-9 -35 -27.5 -55.5t-47.5 -20.5q-8 0 -19 4.5t-22 10t-21 10t-17 4.5q-8 0 -12 -7.5t-5 -16.5h-44q6 30 25 50.5t46 20.5q9 0 19.5 -4t20.5 -9.5t19.5 -9.5t16.5 -4q19 0 25 27h43z" />
    <glyph glyph-name="hungarumlaut" unicode="&#x2dd;" horiz-adv-x="359" 
d="M245 320h-42l99 171h64zM119 320h-42l99 171h63z" />
    <glyph glyph-name="uni0E00" unicode="&#xe00;" 
 />
    <glyph glyph-name="uni0E01" unicode="&#xe01;" horiz-adv-x="391" 
d="M306 47q-12 -57 -47 -74l-49 27q29 17 39 70l41 195q9 41 -11 65t-61 24q-60 0 -102 -51q45 -9 57 -45q-57 -30 -66 -72l-39 -186h-62l40 190q9 42 55 66q-21 17 -59 12q16 62 70 102q50 37 115 37q72 0 105.5 -38.5t19.5 -104.5z" />
    <glyph glyph-name="uni0E02" unicode="&#xe02;" horiz-adv-x="415" 
d="M142 286q3 13 -4 22t-20 9t-24 -9t-14 -22q-2 -13 5 -22t20 -9t24 9t13 22zM339 94q-10 -49 -46 -75.5t-86 -26.5t-75 26.5t-15 75.5l14 65q6 29 43 77.5t43 76.5q5 23 -8 38t-34 15q-32 0 -45 -13q29 -1 44 -19t9 -46q-7 -30 -32 -50.5t-54 -20.5q-34 0 -49.5 24.5
t-8.5 59.5q10 46 53 76t91 30q50 0 76.5 -24t16.5 -70q-6 -30 -42.5 -84t-41.5 -76l-15 -73q-4 -17 9.5 -26t31.5 -9q19 0 36 9.5t21 25.5l59 280q12 56 47 73l55 -23q-33 -15 -45 -73z" />
    <glyph glyph-name="uni0E03" unicode="&#xe03;" horiz-adv-x="431" 
d="M137 243q3 13 -4 22t-20 9t-24 -9t-14 -22t4.5 -22t20.5 -9t23.5 9t13.5 22zM355 94q-10 -49 -46 -75.5t-86 -26.5t-75 26.5t-15 75.5l10 45q7 32 51.5 84.5t51.5 82.5q3 38 -21 53l-45 -38l-36 40q-11 -6 -26 -21.5t-18 -27.5q15 3 21 3q30 0 47 -21t10 -51
q-6 -30 -31 -51t-56 -21q-35 0 -51 29t-9 63q12 53 49.5 96.5t83.5 47.5l26 -34l38 35q86 -20 68 -106q-7 -31 -45 -79t-44 -76l-14 -67q-4 -17 9.5 -26t31.5 -9q19 0 36 9.5t21 25.5l59 280q12 56 47 73l55 -23q-33 -15 -45 -73z" />
    <glyph glyph-name="uni0E04" unicode="&#xe04;" horiz-adv-x="403" 
d="M237 238q3 13 -4 22t-20 9t-23.5 -9t-13.5 -22t4 -21.5t20 -8.5t23.5 8.5t13.5 21.5zM318 47q-12 -57 -47 -74l-49 27q29 17 39 70l43 203q7 36 -19 60q-24 21 -62 21q-45 0 -78.5 -30.5t-42.5 -70.5q-2 -11 -3 -36.5t-5 -44.5l-6 -28q0 1 8 21.5t11 31.5q19 42 46 70
q34 36 68 36q27 0 43 -19t10 -46q-5 -26 -29.5 -45.5t-51.5 -19.5q-25 0 -41 18q-49 -91 -70 -191h-62l13 64q10 47 5.5 102.5t1.5 87.5q15 69 74 112q56 41 125 41q63 0 99 -33q41 -38 27 -103z" />
    <glyph glyph-name="uni0E05" unicode="&#xe05;" horiz-adv-x="403" 
d="M232 216q3 13 -4 22t-20 9t-23.5 -9t-13.5 -22q-2 -13 4.5 -21.5t19.5 -8.5t24 8.5t13 21.5zM318 47q-12 -57 -47 -74l-49 27q29 17 39 70l43 203q12 61 -10 80l-71 -39l-60 39q-45 -27 -59 -91q-4 -19 -6 -53.5t-8 -67.5l-1 -9q0 2 5.5 15.5t10.5 28.5q16 42 42 70
q32 36 69 36q27 0 42.5 -19t10.5 -46q-6 -27 -29.5 -46t-50.5 -19q-25 0 -42 17q-48 -89 -65 -169h-62l13 64q11 49 6.5 107.5t2.5 87.5q11 53 46 93.5t89 57.5l58 -39l80 39q73 -33 54 -121z" />
    <glyph glyph-name="uni0E06" unicode="&#xe06;" horiz-adv-x="453" 
d="M358 0h-57q-47 61 -94 78l-2 -10q-7 -32 -35.5 -54t-61.5 -22t-51.5 23.5t-11.5 57.5q7 33 35.5 56.5t61.5 23.5q7 0 12 -1q6 28 47 76q39 45 45 75q8 39 -20 57l-43 -38l-35 39q-12 -5 -26.5 -21t-18.5 -29q8 3 21 3q30 0 47 -21t11 -50q-6 -30 -32 -51t-56 -21
q-35 0 -51 26t-7 69q11 52 49.5 95.5t80.5 45.5l26 -34l39 35q86 -22 69 -100q-7 -35 -46 -84.5t-44 -76.5l-3 -15q54 -21 103 -66l62 294q12 56 47 73l55 -23q-33 -15 -45 -73zM158 72q3 14 -4.5 23.5t-21.5 9.5q-13 0 -25 -9.5t-15 -23.5q-3 -13 5 -23t21 -10
q14 0 25.5 10t14.5 23zM141 243q3 13 -4 22t-20 9t-24 -9t-14 -22t4.5 -22t20.5 -9t23.5 9t13.5 22z" />
    <glyph glyph-name="uni0E07" unicode="&#xe07;" horiz-adv-x="312" 
d="M217 0h-61l-116 163q-24 35 -22 64l40 34q4 -27 18 -48l96 -136l37 181q-3 -1 -19 -1q-31 0 -48 20.5t-10 52.5q6 32 33 54.5t57 22.5q35 0 53 -22.5t11 -58.5zM240 332q3 14 -5 24t-22 10t-26 -10t-15 -24t5 -24t22 -10t26 10t15 24z" />
    <glyph glyph-name="uni0E08" unicode="&#xe08;" horiz-adv-x="390" 
d="M309 70q-7 -37 -35.5 -57.5t-66.5 -20.5q-73 0 -71 65l1 79q-11 -4 -25 -4q-29 0 -46 21t-10 50q6 29 31.5 50t54.5 21q26 0 42.5 -16.5t15.5 -41.5l-4 -153q-1 -18 21 -18q25 0 29 20l48 225q7 33 -20 50q-23 14 -61 14q-86 0 -114 -49h-60q35 101 180 102q67 0 105 -25
q45 -32 31 -96zM158 203q2 13 -5 22t-20 9t-24 -9t-13 -22q-3 -13 4 -22t20 -9t24 9t14 22z" />
    <glyph glyph-name="uni0E09" unicode="&#xe09;" horiz-adv-x="405" 
d="M341 68q-7 -32 -33.5 -54t-58.5 -22q-29 0 -47 19.5t-14 48.5q-38 -13 -82 -60h-57l16 78q6 28 18 38q-10 0 -14 1q-52 12 -40 67q6 29 30.5 49t53.5 20t45 -20t10 -49q-3 -14 -17 -37.5t-18 -38.5l-8 -42q19 16 68 40.5t71 43.5q20 20 25 47l20 92q7 33 -21 51
q-24 14 -63 14q-42 0 -75 -16q-39 -19 -50 -56h-60q42 125 195 125q66 0 103 -26q46 -32 32 -96l-20 -95q-8 -38 -34 -56q34 -22 25 -66zM128 184q2 13 -4.5 21.5t-19.5 8.5t-23.5 -8.5t-12.5 -21.5q-3 -13 3.5 -21.5t19.5 -8.5t23.5 8.5t13.5 21.5zM297 67q3 13 -4.5 22
t-20.5 9t-23.5 -9t-13.5 -22t4 -22t20 -9t24 9t14 22z" />
    <glyph glyph-name="uni0E0A" unicode="&#xe0a;" horiz-adv-x="415" 
d="M339 94q-10 -48 -45.5 -75t-86.5 -27q-93 0 -93 77q0 13 17 90q6 27 48 83q39 52 39 83q0 41 -43 41q-33 0 -45 -13q55 -2 55 -50q0 -34 -27.5 -60t-60.5 -26q-60 0 -60 63q0 54 49 92q45 35 97 35q95 0 95 -72q0 -38 -38 -95q-43 -62 -48 -87l-16 -79q0 -29 42 -29
q20 0 37 10t20 25l32 152q5 24 5 34q0 30 -23 38q15 50 59 95q37 38 68 48l45 -30q-65 -26 -109 -100q23 -12 23 -45q0 -11 -6 -39zM142 286q3 13 -4 22t-20 9t-24 -9t-14 -22q-2 -13 5 -22t20 -9t24 9t13 22z" />
    <glyph glyph-name="uni0E0B" unicode="&#xe0b;" horiz-adv-x="431" 
d="M385 233l-30 -139q-10 -48 -45.5 -75t-86.5 -27q-93 0 -93 77q0 13 13 70q7 32 51 84q52 62 52 91q0 32 -21 45l-45 -38l-36 40q-12 -6 -26.5 -22t-17.5 -27q15 3 21 3q26 0 42.5 -16t16.5 -40q0 -35 -27.5 -61.5t-61.5 -26.5q-29 0 -45.5 21t-16.5 51q0 55 42 107.5
t93 56.5l26 -34l38 35q71 -17 71 -78q0 -45 -48 -107q-39 -50 -44 -76l-15 -73q0 -29 42 -29q20 0 37 10t20 25l32 152q5 24 5 34q0 30 -23 38q15 50 59 95q37 38 68 48l45 -30q-65 -26 -109 -100q23 -12 23 -45q0 -11 -6 -39zM137 243q3 13 -4 22t-20 9t-24 -9t-14 -22
q-2 -13 5 -22t20 -9t24 9t13 22z" />
    <glyph glyph-name="uni0E0C" unicode="&#xe0c;" horiz-adv-x="565" 
d="M470 0h-55q-13 49 -66 78q-1 -14 -2 -17q-6 -32 -32.5 -50.5t-55.5 -18.5q-31 0 -49 22t-11 54q10 46 55 69l27 128q8 39 -11 63.5t-55 24.5q-61 0 -98 -50q44 -9 56 -45q-57 -28 -66 -72l-9 -43q32 0 49.5 -22t10.5 -54q-7 -31 -33.5 -53t-58.5 -22q-31 0 -48.5 22
t-10.5 53q5 26 22 43l17 80q9 42 55 66q-21 17 -59 12q16 62 68 102q49 37 113 37q67 0 100.5 -38t19.5 -105l-26 -122q73 -25 106 -70l61 288q12 56 47 73l55 -23q-33 -15 -45 -73zM115 67q3 14 -5 24t-22 10t-26 -10t-15 -24t5 -24t22 -10t26 10t15 24zM309 67q3 14 -5 24
t-22 10t-26 -10t-15 -24t5 -24t22 -10t26 10t15 24z" />
    <glyph glyph-name="uni0E0D" unicode="&#xe0d;" horiz-adv-x="565" 
d="M467 -40q-16 -74 -58 -118q-47 -49 -123 -49q-49 0 -79 25q-34 29 -24 76q6 30 31 50.5t55 20.5q29 0 44 -21t9 -51q-9 -39 -42 -50q14 -2 19 -2q84 0 114 119h54zM489 94q-10 -50 -55 -78q-39 -24 -90 -24q-52 0 -79 24q-31 27 -21 78l37 171q8 39 -11 63.5t-55 24.5
q-61 0 -98 -50q41 -8 56 -45q-57 -28 -66 -72l-10 -47q8 4 20 4q31 0 48 -21.5t10 -53.5t-33.5 -54t-58.5 -22q-33 0 -51 23t-11 58l25 117q9 42 55 66q-21 17 -59 12q16 62 68 102q49 37 113 37q67 0 100.5 -38t19.5 -105l-38 -179q-5 -21 11 -30.5t40 -9.5q23 0 44 9.5
t26 30.5l58 275q12 56 47 73l55 -23q-33 -15 -45 -73zM285 -105q3 13 -4 22t-21 9t-24.5 -9t-13.5 -22t3.5 -22.5t20.5 -9.5t25 9.5t14 22.5zM135 67q3 14 -5 24t-22 10t-26 -10t-15 -24t5 -24t22 -10t26 10t15 24z" />
    <glyph glyph-name="uni0E0E" unicode="&#xe0e;" horiz-adv-x="425" 
d="M281 -230h-63q-2 53 -75 84q-25 -88 -96 -88q-33 0 -51.5 21t-12.5 53q16 71 109 71q14 0 22 -1q9 19 17 28q14 16 37 29l37 -22q-35 -17 -47 -45q53 -20 78 -50l88 415q8 40 -13 64.5t-61 24.5q-61 0 -100 -51q41 -8 57 -45q-30 -15 -41 -25q-16 -16 -22 -43
q-5 -22 -8.5 -63.5t-7.5 -58.5q-7 -32 -33 -54t-57 -22q-32 0 -49 22t-10 54q7 31 33 53t56 22q12 0 14 -3l7 62q8 35 46 54q-23 17 -59 12q15 62 68 102q51 37 116 37q70 0 104.5 -39t21.5 -104zM100 -135q-9 3 -24 3q-41 0 -47 -24q-7 -32 26 -32q19 2 29.5 15t15.5 38z
M88 68q3 14 -5 24t-22 10t-26 -10t-15 -24t5 -24t22 -10t26 10t15 24z" />
    <glyph glyph-name="uni0E0F" unicode="&#xe0f;" horiz-adv-x="425" 
d="M52 -137q-9 5 -27 5q-31 0 -36 -27q-6 -25 19 -25q34 0 44 47zM88 68q3 14 -5 24t-22 10t-26 -10t-15 -24t5 -24t22 -10t26 10t15 24zM280 -231h-56l-37 68l-64 -68l-32 63q-10 -28 -36 -47.5t-52 -19.5q-32 0 -49.5 21.5t-11.5 53.5q16 74 100 74q19 0 27 -3
q19 37 64 58l26 -42q-39 -10 -50 -41l29 -48l61 61l36 -54l89 420q8 40 -13 64.5t-61 24.5q-61 0 -100 -51q41 -8 57 -45q-30 -15 -41 -25q-16 -16 -22 -43q-5 -22 -8.5 -63.5t-7.5 -58.5q-7 -32 -33 -54t-57 -22q-32 0 -49 22t-10 54q7 31 33 53t56 22q12 0 14 -3l7 62
q8 35 46 54q-23 17 -59 12q15 62 68 102q51 37 116 37q70 0 104.5 -39t21.5 -104z" />
    <glyph glyph-name="uni0E10" unicode="&#xe10;" horiz-adv-x="372" 
d="M12 -137q-12 5 -21 5q-38 0 -43 -26q-5 -25 21 -25q34 0 43 46zM235 -163q-14 -67 -81 -67h-82l-32 60q-7 -24 -29 -41t-46 -17q-33 0 -47.5 20t-8.5 51q7 31 32 50.5t59 19.5q20 0 27 -5q10 33 47 51l27 -18q-33 -14 -42 -56l35 -66h52q32 0 36 17l2 13h-12
q-27 0 -42 16.5t-9 40.5q4 23 26.5 40t49.5 17q26 0 41.5 -17t11.5 -40zM287 83q-19 -91 -114 -91q-92 0 -74 86l7 33q-8 -2 -14 -2q-29 0 -44 19.5t-9 47.5q6 29 31.5 48t52.5 19q30 0 47.5 -18.5t11.5 -47.5l-20 -97q-8 -36 23 -36q32 0 40 36l30 144q5 21 -85 42
q-77 17 -120 17q19 64 67 97q40 27 90 27q19 0 54.5 -10t56.5 -10q24 0 37 45l48 -13q-32 -90 -101 -90q-19 0 -52.5 12.5t-53.5 12.5q-15 0 -36.5 -8t-29.5 -19q111 -19 161 -44q35 -18 27 -53zM135 176q2 12 -4.5 20.5t-18.5 8.5t-22.5 -8.5t-12.5 -20.5q-3 -12 4 -20.5
t19 -8.5t22 8.5t13 20.5zM206 -94q1 9 -4 15t-15 6t-17.5 -6t-8.5 -15q-2 -9 2.5 -15.5t14.5 -6.5t18 6.5t10 15.5z" />
    <glyph glyph-name="uni0E11" unicode="&#xe11;" horiz-adv-x="492" 
d="M137 243q3 13 -4 22t-20 9t-24 -9t-14 -22t4.5 -22t20.5 -9t23.5 9t13.5 22zM407 47q-12 -57 -47 -74l-49 27q29 17 39 70l53 251q5 27 -11 27q-14 0 -22 -14l-187 -334h-70l22 107q9 40 49.5 105.5t47.5 100.5q7 34 -10 47l-45 -39l-34 40q-11 -5 -26 -21t-19 -28
q7 3 22 3q30 0 46.5 -21.5t10.5 -50.5q-6 -30 -31.5 -51t-55.5 -21q-33 0 -49.5 28t-8.5 68q11 52 48 94t82 46l26 -34l39 35q71 -16 54 -96q-7 -32 -42.5 -92.5t-43.5 -99.5q-18 -48 -20 -57l159 284q34 60 79 60q70 0 52 -84z" />
    <glyph glyph-name="uni0E12" unicode="&#xe12;" horiz-adv-x="551" 
d="M456 0h-58q-16 43 -50 65q-6 -31 -31 -52t-60 -21q-32 0 -48.5 22.5t-9.5 55.5q5 23 25 43t43 26l26 123q15 68 -10 91l-71 -44l-46 44q-48 -22 -64 -98q-3 -15 0.5 -65.5t-1.5 -75.5q-3 -15 -11 -28q32 50 82 77q-26 2 -37.5 21t-6.5 43q5 27 28 45.5t50 18.5
q26 0 41.5 -19t10.5 -45q-11 -49 -84.5 -115.5t-82.5 -111.5h-65l14 64q12 58 7 88q-13 70 -7 102q12 56 48.5 98t91.5 56l44 -45l58 45q101 -15 74 -144l-29 -133q19 -6 46.5 -24t36.5 -31l60 284q12 56 47 73l55 -23q-33 -15 -45 -73zM224 227q3 13 -4.5 22t-20.5 9
t-23.5 -9t-13.5 -22t4 -22t20 -9t24 9t14 22zM305 67q3 14 -4 23t-21 9t-24.5 -9t-13.5 -23t3.5 -22.5t20.5 -8.5t25 8.5t14 22.5z" />
    <glyph glyph-name="uni0E13" unicode="&#xe13;" horiz-adv-x="576" 
d="M513 68q-7 -31 -31.5 -53.5t-57.5 -22.5q-29 0 -47 18.5t-17 46.5q-31 -18 -72 -57h-63l56 265q8 39 -11 63.5t-55 24.5q-61 0 -98 -50q38 -3 56 -45q-57 -28 -66 -72l-10 -47q8 4 20 4q31 0 48 -21.5t10 -53.5t-33.5 -54t-58.5 -22q-33 0 -51 23t-11 58l25 117
q9 42 55 66q-21 17 -59 12q16 62 68 102q49 37 113 37q67 0 100.5 -37.5t19.5 -104.5l-43 -202q19 18 64 49q63 42 75 51q18 18 24 47l32 150q12 56 47 73l55 -23q-33 -15 -45 -73l-31 -148q-9 -39 -33 -55q34 -22 25 -66zM472 69q3 14 -5 24t-22 10t-26 -10t-15 -24t5 -24
t22 -10t26 10t15 24zM135 67q3 14 -5 24t-22 10t-26 -10t-15 -24t5 -24t22 -10t26 10t15 24z" />
    <glyph glyph-name="uni0E14" unicode="&#xe14;" horiz-adv-x="405" 
d="M232 241q2 13 -4.5 21.5t-19.5 8.5t-23.5 -8.5t-12.5 -21.5q-3 -13 3.5 -21.5t19.5 -8.5t23.5 8.5t13.5 21.5zM320 47q-12 -57 -47 -74l-49 27q29 17 39 70l41 198q9 38 -14.5 62t-62.5 24q-42 0 -79 -28.5t-46 -68.5q-5 -25 1.5 -71t1.5 -69q-1 -7 -6 -19q39 47 82 79
q-27 2 -39 22q-12 17 -6 42q5 26 29 45.5t51 19.5t41.5 -19.5t9.5 -45.5q-10 -45 -66 -100q-76 -75 -88 -90q-20 -26 -25 -51h-63l15 68q11 54 6 83q-4 26 -7 53.5t1 48.5q15 68 71.5 111t124.5 43q69 0 105 -36q39 -39 25 -107z" />
    <glyph glyph-name="uni0E15" unicode="&#xe15;" horiz-adv-x="405" 
d="M228 226q2 13 -4.5 21.5t-19.5 8.5t-23.5 -8.5t-12.5 -21.5q-3 -13 3.5 -21.5t19.5 -8.5t23.5 8.5t13.5 21.5zM320 47q-12 -57 -47 -74l-49 27q29 17 39 70l40 192q14 64 -15 92l-72 -45l-51 45q-47 -21 -62 -95q-6 -24 -1.5 -71t0.5 -70q-4 -16 -13 -33q9 14 37 39
t52 38q-27 2 -38.5 21t-6.5 42q6 27 28.5 46t49.5 19t42 -19t9 -46q-9 -43 -64 -91q-74 -64 -88 -83q-21 -29 -25 -51h-63q10 38 18 77q8 40 4 74q-10 72 -2 108q11 55 47 95t90 54l48 -43l62 43q104 -16 77 -144z" />
    <glyph glyph-name="uni0E16" unicode="&#xe16;" horiz-adv-x="391" 
d="M135 67q3 14 -5 24t-22 10t-26 -10t-15 -24t5 -24t22 -10t26 10t15 24zM306 47q-12 -57 -47 -74l-49 27q29 17 39 70l41 195q9 41 -11 65t-61 24q-60 0 -102 -51q45 -9 57 -45q-57 -30 -66 -72l-10 -47q8 4 20 4q31 0 48 -21.5t10 -53.5t-33.5 -54t-58.5 -22
q-33 0 -51 23t-11 58l25 117q9 42 55 66q-21 17 -59 12q16 62 70 102q50 37 115 37q72 0 105.5 -38.5t19.5 -104.5z" />
    <glyph glyph-name="uni0E17" unicode="&#xe17;" horiz-adv-x="438" 
d="M353 47q-12 -57 -47 -74l-49 27q29 17 39 70l53 253q7 31 -8 31q-13 0 -21 -15l-191 -339h-70l54 257q-10 -2 -17 -2q-32 0 -49.5 22.5t-10.5 54.5q7 31 33.5 53t58.5 22q34 0 51.5 -23t10.5 -58l-32 -149q-7 -34 -34 -106q20 44 48 98l94 178q32 61 88 60q75 -1 57 -85z
M146 331q3 14 -5 24t-22 10t-26 -10t-15 -24t5 -24t22 -10t26 10t15 24z" />
    <glyph glyph-name="uni0E18" unicode="&#xe18;" horiz-adv-x="358" 
d="M274 85q-20 -93 -145 -93q-124 0 -104 93l14 67q12 56 47 73l55 -23q-33 -15 -45 -73l-10 -48q-8 -36 55 -36q62 0 70 36l28 132q5 23 -69.5 40.5t-129.5 28.5q20 64 51 93q36 32 98 32q22 0 58 -9.5t52 -9.5q22 0 38 45l46 -13q-25 -55 -43.5 -70t-55.5 -15
q-18 0 -51 10t-53 10q-54 0 -65 -33q93 -21 144.5 -40t42.5 -65z" />
    <glyph glyph-name="uni0E19" unicode="&#xe19;" horiz-adv-x="433" 
d="M370 67q-7 -32 -33.5 -53.5t-57.5 -21.5q-29 0 -46 18.5t-15 46.5q-36 -16 -51 -24q-28 -15 -45 -33h-63l54 257q-10 -2 -17 -2q-32 0 -49.5 22.5t-10.5 54.5q7 31 33.5 53t58.5 22q34 0 51.5 -23t10.5 -58l-54 -254q18 12 79 35q55 21 78 42q17 15 24 48l35 163
q12 56 47 73l55 -23q-33 -15 -45 -73l-31 -148q-9 -40 -33 -55q34 -22 25 -67zM146 331q3 14 -5 24t-22 10t-26 -10t-15 -24t5 -24t22 -10t26 10t15 24zM328 67q3 14 -5 24t-22 10t-26 -10t-15 -24t5 -24t22 -10t26 10t15 24z" />
    <glyph glyph-name="uni0E1A" unicode="&#xe1a;" horiz-adv-x="445" 
d="M146 331q3 14 -5 24t-22 10t-26 -10t-15 -24t5 -24t22 -10t26 10t15 24zM369 90q-21 -98 -166 -98q-146 0 -125 98l35 167q-10 -2 -17 -2q-32 0 -49.5 22.5t-10.5 54.5q7 31 33.5 53t58.5 22q34 0 51.5 -23t10.5 -58l-51 -237q-4 -20 20.5 -32t54.5 -12q29 0 58.5 12
t33.5 32l58 271q12 56 47 73l55 -23q-33 -15 -45 -73z" />
    <glyph glyph-name="uni0E1B" unicode="&#xe1b;" horiz-adv-x="445" 
d="M369 90q-21 -98 -166 -98q-146 0 -125 98l35 167q-10 -2 -17 -2q-32 0 -49.5 22.5t-10.5 54.5q7 31 33.5 53t58.5 22q34 0 51.5 -23t10.5 -58l-51 -237q-4 -20 20.5 -32t54.5 -12q29 0 58.5 12t33.5 32l89 418q12 56 47 73l55 -23q-33 -15 -45 -73zM146 331q3 14 -5 24
t-22 10t-26 -10t-15 -24t5 -24t22 -10t26 10t15 24z" />
    <glyph glyph-name="uni0E1C" unicode="&#xe1c;" horiz-adv-x="414" 
d="M319 0h-62l-66 160l-134 -160h-61l69 326q7 35 35.5 58t61.5 23q32 0 49 -22.5t11 -53.5q-7 -32 -33.5 -54t-58.5 -22q-14 0 -18 1l-36 -171l105 123h40l53 -124l59 276q12 56 47 73l55 -23q-33 -15 -45 -73zM180 331q3 14 -5 24t-22 10t-26 -10t-15 -24t5 -24t22 -10
t26 10t15 24z" />
    <glyph glyph-name="uni0E1D" unicode="&#xe1d;" horiz-adv-x="414" 
d="M180 331q3 14 -5 24t-22 10t-26 -10t-15 -24t5 -24t22 -10t26 10t15 24zM319 0h-62l-66 160l-134 -160h-61l69 326q7 35 35.5 58t61.5 23q32 0 49 -22.5t11 -53.5q-7 -32 -33.5 -54t-58.5 -22q-14 0 -18 1l-36 -171l105 123h40l53 -124l90 423q12 56 47 73l55 -23
q-33 -15 -45 -73z" />
    <glyph glyph-name="uni0E1E" unicode="&#xe1e;" horiz-adv-x="482" 
d="M387 0h-70l-29 310l-162 -310h-67l54 257q-10 -2 -17 -2q-32 0 -49.5 22.5t-10.5 54.5q7 31 33.5 53t58.5 22q34 0 51.5 -23t10.5 -58l-32 -149q-5 -26 -34 -106q41 91 45 98l116 213h38l24 -213q1 -6 5 -98q5 80 10 106l39 183q12 56 47 73l55 -23q-33 -15 -45 -73z
M146 331q3 14 -5 24t-22 10t-26 -10t-15 -24t5 -24t22 -10t26 10t15 24z" />
    <glyph glyph-name="uni0E1F" unicode="&#xe1f;" horiz-adv-x="482" 
d="M387 0h-70l-29 310l-162 -310h-67l54 257q-10 -2 -17 -2q-32 0 -49.5 22.5t-10.5 54.5q7 31 33.5 53t58.5 22q34 0 51.5 -23t10.5 -58l-32 -149q-5 -26 -34 -106q41 91 45 98l116 213h38l24 -213q1 -6 5 -98q5 80 10 106l70 330q12 56 47 73l55 -23q-33 -15 -45 -73z
M146 331q3 14 -5 24t-22 10t-26 -10t-15 -24t5 -24t22 -10t26 10t15 24z" />
    <glyph glyph-name="uni0E20" unicode="&#xe20;" horiz-adv-x="425" 
d="M88 68q3 14 -5 24t-22 10t-26 -10t-15 -24t5 -24t22 -10t26 10t15 24zM340 47q-12 -57 -47 -74l-49 27q29 17 39 70l41 195q8 40 -13 64.5t-61 24.5q-61 0 -100 -51q47 -10 57 -45q-30 -15 -41 -25q-16 -16 -22 -43q-5 -22 -8.5 -63.5t-7.5 -58.5q-7 -32 -33 -54t-57 -22
q-32 0 -49 22t-10 54q7 31 33 53t56 22q12 0 14 -3l7 62q8 35 46 54q-23 17 -59 12q15 62 68 102q51 37 116 37q70 0 104.5 -39t21.5 -104z" />
    <glyph glyph-name="uni0E21" unicode="&#xe21;" horiz-adv-x="417" 
d="M157 331q3 14 -5 24t-22 10t-26 -10t-15 -24t5 -24t22 -10t26 10t15 24zM112 73q3 14 -5 24t-22 10t-26 -10t-15 -24t5 -24t22 -10t26 10t15 24zM322 0h-62q-47 52 -102 73l-1 -5q-7 -32 -36 -54t-60 -22q-33 0 -51.5 24t-11.5 57q6 33 35 56.5t62 23.5h7l22 104
q-10 -2 -17 -2q-32 0 -49.5 22.5t-10.5 54.5q7 31 33.5 53t58.5 22q34 0 51.5 -23t10.5 -58l-41 -190q74 -27 113 -71l63 295q12 56 47 73l55 -23q-33 -15 -45 -73z" />
    <glyph glyph-name="uni0E22" unicode="&#xe22;" horiz-adv-x="386" 
d="M190 339q3 14 -4.5 23t-21.5 9t-24.5 -9t-13.5 -23t4 -23t21 -9t25 9t14 23zM312 101q-23 -109 -171 -109q-146 0 -124 109l10 46q10 48 55 68q-39 31 -26 91q9 44 39.5 72.5t73.5 28.5q30 0 47 -18.5t11 -48.5q-6 -27 -29 -47t-54 -20q-16 0 -27 5q0 -38 28 -38h71
l-11 -49h-71q-16 0 -29 -14t-17 -32l-9 -46q-12 -54 73 -54q86 0 98 54l55 261q12 56 47 73l55 -23q-33 -15 -45 -73z" />
    <glyph glyph-name="uni0E23" unicode="&#xe23;" horiz-adv-x="329" 
d="M241 67q-7 -32 -34 -53.5t-59 -21.5t-50 22t-11 54t34 54t59 22q12 0 15 -1l18 86q4 16 -59.5 31.5t-115.5 24.5q14 55 48 88.5t85 33.5q21 0 55.5 -9.5t50.5 -9.5q22 0 30 45l46 -13q-25 -84 -85 -84q-18 0 -49.5 9t-48.5 9q-44 0 -57 -34q73 -16 121.5 -34t39.5 -62z
M198 68q3 14 -5 24t-22 10t-26 -10t-15 -24t5 -24t22 -10t26 10t15 24z" />
    <glyph glyph-name="uni0E24" unicode="&#xe24;" horiz-adv-x="391" 
d="M273 -107q-12 -57 -47 -74l-49 27q29 17 39 70l74 349q9 41 -11 65t-61 24q-60 0 -102 -51q45 -9 57 -45q-57 -30 -66 -72l-10 -47q8 4 20 4q31 0 48 -21.5t10 -53.5t-33.5 -54t-58.5 -22q-33 0 -51 23t-11 58l25 117q9 42 55 66q-21 17 -59 12q16 62 70 102
q50 37 115 37q72 0 105.5 -38.5t19.5 -104.5zM135 67q3 14 -5 24t-22 10t-26 -10t-15 -24t5 -24t22 -10t26 10t15 24z" />
    <glyph glyph-name="uni0E25" unicode="&#xe25;" horiz-adv-x="399" 
d="M364 286l-46 -219q-15 -74 -39 -87l-48 22q22 27 22 74q0 44 -21.5 92.5t-47.5 65.5q-30 -3 -57 -33q-23 -25 -32 -56h23q27 0 45.5 -18.5t18.5 -44.5q0 -39 -30.5 -64t-66.5 -25q-29 0 -47 16.5t-18 43.5q0 114 65 178q51 51 112 51q51 -32 73 -82l18 -66q-3 58 2 86
l14 73q0 2 1 5v4q0 24 -25.5 38t-61.5 14q-41 0 -73.5 -19.5t-45.5 -52.5h-60q16 58 68 91.5t124 33.5q55 0 93 -23q43 -27 43 -74q0 -10 -3 -24zM136 69q3 14 -5 24t-22 10t-26 -10t-15 -24t5 -24t22 -10t26 10t15 24z" />
    <glyph glyph-name="uni0E26" unicode="&#xe26;" horiz-adv-x="425" 
d="M88 68q3 14 -5 24t-22 10t-26 -10t-15 -24t5 -24t22 -10t26 10t15 24zM307 -107q-12 -57 -47 -74l-49 27q29 17 39 70l74 349q8 40 -13 64.5t-61 24.5q-61 0 -100 -51q47 -10 57 -45q-30 -15 -41 -25q-16 -16 -22 -43q-5 -22 -8.5 -63.5t-7.5 -58.5q-7 -32 -33 -54
t-57 -22q-32 0 -49 22t-10 54q7 31 33 53t56 22q12 0 14 -3l7 62q8 35 46 54q-24 12 -59 11q15 63 68 103q51 37 116 37q70 0 104.5 -39t21.5 -104z" />
    <glyph glyph-name="uni0E27" unicode="&#xe27;" horiz-adv-x="379" 
d="M299 73q-7 -35 -35 -57.5t-62 -22.5q-32 0 -49.5 22t-10.5 53q7 32 33.5 54t58.5 22q11 0 18 -1l31 147q14 64 -78 64q-38 0 -69.5 -23.5t-40.5 -62.5h-60q17 66 65.5 102.5t115.5 36.5q66 0 100 -26q42 -31 28 -95zM252 69q3 14 -5 24t-22 10t-26 -10t-15 -24t5 -24
t22 -10t26 10t15 24z" />
    <glyph glyph-name="uni0E28" unicode="&#xe28;" horiz-adv-x="403" 
d="M318 47q-12 -57 -47 -74l-49 27q28 17 39 70l43 203q2 9 2 15q0 31 -28 50q-24 16 -55 16q-43 0 -77 -30t-44 -71q-2 -11 -3 -36.5t-5 -44.5l-6 -26l19 51q53 106 114 106q23 0 38.5 -15t15.5 -37q0 -32 -26.5 -55t-55.5 -23q-24 0 -41 18q-49 -91 -70 -191h-62l13 64
q7 34 7 65q0 15 -2 40.5t-2 36.5q0 85 59 143t144 58q39 0 69 -14q40 41 74 54l45 -30q-40 -17 -77 -56q18 -25 18 -60q0 -16 -3 -30zM238 245q0 24 -25 24q-15 0 -26.5 -12t-11.5 -26q0 -23 25 -23q15 0 26.5 11.5t11.5 25.5z" />
    <glyph glyph-name="uni0E29" unicode="&#xe29;" horiz-adv-x="461" 
d="M146 331q3 14 -5 24t-22 10t-26 -10t-15 -24t5 -24t22 -10t26 10t15 24zM285 234q3 13 -3.5 22t-19.5 9t-23.5 -9t-13.5 -22t4 -22t20 -9t23 9t13 22zM474 237q-26 -32 -70 -58l-19 -89q-21 -98 -174 -98q-154 0 -133 98l35 167q-10 -2 -17 -2q-32 0 -49.5 22.5
t-10.5 54.5q7 31 33.5 53t58.5 22q34 0 51.5 -23t10.5 -58l-50 -233q-4 -20 16.5 -34t64.5 -14q45 0 71.5 14t30.5 34l13 60q-24 -5 -43 -5q-122 0 -104 83q6 28 28.5 47.5t53.5 19.5q29 0 43 -18.5t8 -44.5q-6 -32 -31 -47q28 2 55 10l34 162q12 56 47 73l55 -23
q-33 -15 -45 -73l-22 -104q19 15 33 37z" />
    <glyph glyph-name="uni0E2A" unicode="&#xe2a;" horiz-adv-x="399" 
d="M364 286l-46 -219q-15 -74 -39 -87l-48 22q22 27 22 74q0 44 -21.5 92.5t-47.5 65.5q-30 -3 -57 -33q-23 -25 -32 -56h23q27 0 45.5 -18.5t18.5 -44.5q0 -39 -30.5 -64t-66.5 -25q-29 0 -47 16.5t-18 43.5q0 114 65 178q51 51 112 51q51 -32 73 -82l18 -66q-3 58 2 86
l14 73q1 5 1 9q0 24 -25.5 38t-61.5 14q-41 0 -73.5 -19.5t-45.5 -52.5h-60q16 58 68 91.5t124 33.5q42 0 76 -15q43 45 75 55l45 -30q-42 -17 -77 -56q17 -22 17 -51q0 -10 -3 -24zM136 69q3 14 -5 24t-22 10t-26 -10t-15 -24t5 -24t22 -10t26 10t15 24z" />
    <glyph glyph-name="uni0E2B" unicode="&#xe2b;" horiz-adv-x="438" 
d="M353 47q-12 -57 -47 -74l-49 27q29 17 39 70l32 152q5 27 -6 27q-8 0 -28 -25l-177 -224h-58l54 257q-10 -2 -17 -2q-32 0 -49.5 22.5t-10.5 54.5q7 31 33.5 53t58.5 22q34 0 51.5 -23t10.5 -58l-32 -149q-5 -26 -34 -106q19 43 46 79l76 95q24 30 39 34q-15 25 -9 52
q7 32 33.5 54t58.5 22t49.5 -22t10.5 -54q-7 -33 -40 -58q7 -25 1 -54zM146 331q3 14 -5 24t-22 10t-26 -10t-15 -24t5 -24t22 -10t26 10t15 24zM386 331q3 14 -5 24t-22 10t-26 -10t-15 -24t5 -24t22 -10t26 10t15 24z" />
    <glyph glyph-name="uni0E2C" unicode="&#xe2c;" horiz-adv-x="468" 
d="M373 0h-63l-57 178l-130 -178h-64l54 257q-10 -2 -17 -2q-32 0 -49.5 22.5t-10.5 54.5q7 31 33.5 53t58.5 22q34 0 51.5 -23t10.5 -58l-34 -160q-7 -31 -33 -98q14 24 32 48l85 105h44l41 -105q8 -24 12 -48q2 67 9 98l19 91q-10 -2 -17 -2q-32 0 -49.5 22.5t-10.5 54.5
q7 31 33.5 53t58.5 22q18 0 32 -8q32 33 68 48l45 -30q-58 -25 -84 -55q5 -16 1 -36zM398 331q3 14 -5 24t-22 10t-26 -10t-15 -24t5 -24t22 -10t26 10t15 24zM146 331q3 14 -5 24t-22 10t-26 -10t-15 -24t5 -24t22 -10t26 10t15 24z" />
    <glyph glyph-name="uni0E2D" unicode="&#xe2d;" horiz-adv-x="394" 
d="M318 90q-11 -52 -64 -77q-42 -21 -102 -21t-93 21q-39 25 -28 77l21 101q8 36 33 60.5t62 24.5q32 0 49.5 -21.5t10.5 -53.5q-6 -31 -33 -53t-59 -22q-9 0 -14 2l-7 -31q-11 -52 70 -52q82 0 93 53l41 192q7 33 -20 50q-23 14 -61 14q-95 0 -114 -49h-60q35 101 180 102
q67 0 105 -25q45 -32 31 -96zM165 201q3 14 -5 24t-22 10t-26 -10t-15 -24t5 -24t22 -10t26 10t15 24z" />
    <glyph glyph-name="uni0E2E" unicode="&#xe2e;" horiz-adv-x="385" 
d="M309 90q-11 -52 -64 -77q-42 -21 -102 -21t-93 21q-39 25 -28 77l17 82q8 36 33 60.5t62 24.5q32 0 49.5 -21.5t10.5 -53.5q-6 -31 -33 -53t-59 -22q-9 0 -14 2l-3 -12q-11 -52 70 -52q82 0 93 53l47 219q-41 -36 -120 -36q-127 0 -116 53q16 74 163 74q44 0 75 -15
q34 36 74 54l45 -30q-53 -23 -77 -56q19 -29 11 -78zM274 355q-31 8 -70 8q-80 0 -86 -25q-3 -16 71 -16q60 0 85 33zM152 182q3 14 -5 24t-22 10t-26 -10t-15 -24t5 -24t22 -10t26 10t15 24z" />
    <glyph glyph-name="uni0E2F" unicode="&#xe2f;" horiz-adv-x="380" 
d="M160 330q3 14 -5 24t-22 10t-26 -10t-15 -24t4.5 -24t21.5 -10t26.5 10t15.5 24zM294 47q-12 -57 -47 -74l-49 27q29 17 39 70l51 245q8 36 -2 38q-14 -47 -62 -75.5t-97 -28.5q-39 0 -60 20q-26 22 -17 61q6 32 33 54.5t59 22.5t49.5 -22.5t11.5 -54.5q-1 -5 -6 -15
q39 25 58 84h45q68 0 53 -72z" />
    <glyph glyph-name="uni0E30" unicode="&#xe30;" horiz-adv-x="340" 
d="M342 397q-39 -159 -183 -159q-60 0 -86.5 24.5t-18.5 62.5q6 29 30 49t53 20q31 0 46.5 -20.5t9.5 -48.5q-6 -27 -24 -40q94 4 117 112h56zM153 325q2 13 -5 22t-20 9t-23.5 -9t-12.5 -22q-3 -13 3.5 -21.5t19.5 -8.5t24 8.5t14 21.5zM294 170q-39 -159 -183 -159
q-60 0 -86.5 24.5t-19.5 62.5q6 29 30.5 49t53.5 20q31 0 46 -20.5t9 -48.5q-5 -27 -23 -40q94 4 117 112h56zM104 98q3 13 -4 22t-20 9t-23.5 -9t-13.5 -22q-2 -13 4.5 -21.5t19.5 -8.5t24 8.5t13 21.5z" />
    <glyph glyph-name="uni0E31" unicode="&#xe31;" 
d="M142 643q-61 -166 -214 -166q-60 0 -87 24.5t-19 62.5q7 29 31 49t53 20q31 0 46 -20.5t9 -48.5q-5 -27 -23 -40q104 4 145 119h59zM-79 564q3 13 -4 22t-20 9t-23.5 -9t-13.5 -22q-2 -13 4.5 -21.5t19.5 -8.5t24 8.5t13 21.5z" />
    <glyph glyph-name="uni0E32" unicode="&#xe32;" horiz-adv-x="343" 
d="M258 47q-12 -57 -47 -74l-49 27q29 17 39 70l46 221q6 28 -9 45.5t-48 17.5t-59 -22t-34 -56h-60q16 60 60 95.5t104 35.5q56 0 88.5 -28.5t20.5 -86.5z" />
    <glyph glyph-name="uni0E33" unicode="&#xe33;" horiz-adv-x="343" 
d="M258 47q-12 -57 -47 -74l-49 27q29 17 39 70l46 221q6 28 -9 45.5t-48 17.5t-59 -22t-34 -56h-60q16 60 60 95.5t104 35.5q56 0 88.5 -28.5t20.5 -86.5zM61 549q-7 -35 -36.5 -59.5t-64.5 -24.5q-36 0 -55 24.5t-12 59.5q8 35 38 60t65 25q34 0 53.5 -24.5t11.5 -60.5z
M17 549q4 17 -5 29t-25 12q-17 0 -31.5 -12t-18.5 -29q-3 -17 6.5 -28.5t26.5 -11.5t30.5 11.5t16.5 28.5z" />
    <glyph glyph-name="uni0E34" unicode="&#xe34;" 
d="M2 450q-114 40 -217 40q-47 0 -97 -6q41 134 175 134q77 0 111.5 -46.5t27.5 -121.5zM-48 509q-1 25 -26.5 47t-63.5 22q-36 0 -65 -14.5t-41 -38.5q18 4 54 4q74 0 142 -20z" />
    <glyph glyph-name="uni0E35" unicode="&#xe35;" 
d="M2 450q-114 40 -217 40q-47 0 -97 -6q41 134 175 134q71 0 106 -39l14 69h59l-39 -184q0 -7 -1 -14zM-48 509q-1 25 -26.5 47t-63.5 22q-36 0 -65 -14.5t-41 -38.5q18 4 54 4q74 0 142 -20z" />
    <glyph glyph-name="uni0E36" unicode="&#xe36;" 
d="M-48 509q-1 25 -26.5 47t-63.5 22q-36 0 -65 -14.5t-41 -38.5q18 4 54 4q74 0 142 -20zM14 598q2 12 -4.5 20.5t-16.5 8.5q-11 0 -22 -8.5t-13 -20.5q-3 -12 4.5 -20t18.5 -8t20.5 8t12.5 20zM45 598q-5 -20 -19.5 -36t-33.5 -21q15 -39 10 -91q-114 40 -217 40
q-47 0 -97 -6q41 134 175 134q39 0 67 -12q8 22 27 37t42 15q24 0 37.5 -17.5t8.5 -42.5z" />
    <glyph glyph-name="uni0E37" unicode="&#xe37;" 
d="M2 450q-114 40 -217 40q-47 0 -97 -6q41 134 175 134q15 0 27 -2l7 32h45l-9 -42q20 -9 36 -27l14 69h59l-39 -184zM-48 509q-1 25 -26.5 47t-63.5 22q-36 0 -65 -14.5t-41 -38.5q18 4 54 4q74 0 142 -20z" />
    <glyph glyph-name="uni0E38" unicode="&#xe38;" 
d="M-150 -97q2 11 -4 19t-17 8t-21.5 -8t-12.5 -19t4.5 -19.5t17.5 -8.5t21 8.5t12 19.5zM-136 -197q-12 -57 -47 -74l-44 25q25 17 36 53l8 35l-9 -1q-25 0 -39 17.5t-9 41.5q6 25 27 43t47 18q25 0 40.5 -16t9.5 -44z" />
    <glyph glyph-name="uni0E39" unicode="&#xe39;" 
d="M-133 -182q-7 -33 -39 -50q-27 -15 -66 -15q-34 0 -56 14q-25 16 -19 44l7 30h-6q-25 0 -39 17.5t-9 41.5q6 25 27 43t47 18q25 0 40.5 -16t9.5 -44l-19 -90q-3 -15 27 -15q32 0 35 15l17 80q12 57 47 74l44 -25q-25 -17 -34 -53zM-270 -97q2 11 -4 19t-17 8t-21.5 -8
t-12.5 -19t4.5 -19.5t17.5 -8.5t21 8.5t12 19.5z" />
    <glyph glyph-name="uni0E3A" unicode="&#xe3a;" 
d="M-97 -76q-3 -14 -15.5 -24.5t-26.5 -10.5t-22.5 10.5t-5.5 24.5t16 24.5t27 10.5t22 -10.5t5 -24.5z" />
    <glyph glyph-name="uni0E3F" unicode="&#xe3f;" horiz-adv-x="389" 
d="M323 151q-23 -107 -150 -126l-17 -81h-55l16 77q-35 0 -91 10l87 411q61 13 96 14l14 66h55l-14 -69q103 -17 83 -111q-11 -55 -66 -90q55 -37 42 -101zM265 150q16 73 -94 73h-45l-31 -146q16 -3 37 -3q47 0 83 17q42 20 50 59zM288 341q13 62 -85 62q-6 0 -40 -5
l-25 -120h55q38 0 63.5 18t31.5 45z" />
    <glyph glyph-name="uni0E40" unicode="&#xe40;" horiz-adv-x="208" 
d="M174 68q-7 -32 -34 -54t-58 -22q-34 0 -52 23t-11 58l61 287q12 56 47 73l55 -23q-33 -15 -45 -73l-41 -195q5 2 18 2q31 0 49 -22t11 -54zM132 68q3 14 -5 24t-22 10t-26 -10t-15 -24t5 -24t22 -10t26 10t15 24z" />
    <glyph glyph-name="uni0E41" unicode="&#xe41;" horiz-adv-x="395" 
d="M174 68q-7 -32 -34 -54t-58 -22q-34 0 -52 23t-11 58l61 287q12 56 47 73l55 -23q-33 -15 -45 -73l-41 -195q5 2 18 2q31 0 49 -22t11 -54zM361 68q-7 -32 -34 -54t-58 -22q-34 0 -52 23t-11 58l61 287q12 56 47 73l55 -23q-33 -15 -45 -73l-41 -195q5 2 18 2
q31 0 49 -22t11 -54zM132 68q3 14 -5 24t-22 10t-26 -10t-15 -24t5 -24t22 -10t26 10t15 24zM319 68q3 14 -5 24t-22 10t-26 -10t-15 -24t5 -24t22 -10t26 10t15 24z" />
    <glyph glyph-name="uni0E42" unicode="&#xe42;" horiz-adv-x="252" 
d="M218 68q-7 -32 -34 -54t-58 -22q-34 0 -52 23t-11 58l84 397q3 34 -38 55q-33 17 -71 17q29 114 126 114q26 0 55 -16.5t42 -16.5q25 0 44 39l44 -12q-36 -77 -91 -77q-19 0 -50.5 16.5t-54.5 16.5q-35 0 -51 -25q124 -34 106 -116l-68 -323q5 2 18 2q31 0 49 -22t11 -54
zM176 68q3 14 -5 24t-22 10t-26 -10t-15 -24t5 -24t22 -10t26 10t15 24z" />
    <glyph glyph-name="uni0E43" unicode="&#xe43;" horiz-adv-x="269" 
d="M235 68q-7 -32 -34 -54t-58 -22q-34 0 -52 23t-11 58l80 377q5 23 30.5 60.5t29.5 56.5q5 22 -8 35t-35 13q-34 0 -52 -12q25 0 38 -19q10 -17 5 -40q-6 -27 -29 -46.5t-51 -19.5q-29 0 -42.5 21t-7.5 49q11 54 54 84q39 27 93 27q44 0 72 -23q31 -26 22 -67
q-4 -23 -29 -64.5t-30 -62.5l-63 -300q5 2 18 2q31 0 49 -22t11 -54zM193 68q3 14 -5 24t-22 10t-26 -10t-15 -24t5 -24t22 -10t26 10t15 24zM133 543q3 13 -4 22t-20 9t-24 -9t-14 -22t4 -22t20 -9t24 9t14 22z" />
    <glyph glyph-name="uni0E44" unicode="&#xe44;" horiz-adv-x="252" 
d="M218 68q-7 -32 -34 -54t-58 -22q-34 0 -52 23t-11 58l105 494l-79 -88l-37 12q16 94 9 175h54q-5 -79 -12 -119l94 111q20 -3 32.5 -19t7.5 -38l-97 -459q5 2 18 2q31 0 49 -22t11 -54zM176 68q3 14 -5 24t-22 10t-26 -10t-15 -24t5 -24t22 -10t26 10t15 24z" />
    <glyph glyph-name="uni0E45" unicode="&#xe45;" horiz-adv-x="209" 
d="M91 -107q-12 -57 -47 -74l-49 27q29 17 39 70l79 375q6 28 -9 45.5t-48 17.5t-58.5 -22t-33.5 -56h-60q16 60 59.5 95.5t103.5 35.5q56 0 88.5 -28.5t20.5 -86.5z" />
    <glyph glyph-name="uni0E46" unicode="&#xe46;" horiz-adv-x="437" 
d="M316 -98q-12 -57 -47 -74l-49 27q29 17 39 70l77 364q9 41 -25 66l-54 -36l-51 37q-19 -11 -30 -31h7q32 0 49.5 -22.5t10.5 -54.5t-34 -54.5t-59 -22.5q-40 0 -56.5 31t-7.5 72q10 50 50 88.5t91 50.5l40 -38l51 38q46 -12 68 -44.5t12 -78.5zM201 248q3 15 -5.5 26
t-23.5 11t-28.5 -11t-16.5 -26t5.5 -26t23.5 -11t28.5 11t16.5 26z" />
    <glyph glyph-name="uni0E47" unicode="&#xe47;" 
d="M3 521q-3 -21 -21.5 -36.5t-40.5 -15.5q-49 0 -103 42q-14 -4 -32.5 -19.5t-23.5 -27.5q-45 35 -35 85q8 39 44 61q31 20 74 20h68q49 0 59 44l5 23h47l-5 -22q-9 -41 -40 -63t-73 -22h-73q-16 0 -31.5 -10.5t-18.5 -27.5q-4 -16 0 -26q20 23 51 25q19 -15 49 -26
q4 20 22.5 34t37.5 14q22 0 33.5 -15.5t6.5 -36.5zM-26 521q2 9 -3 15.5t-14 6.5t-17 -6.5t-10 -15.5t3.5 -15.5t14.5 -6.5t16.5 6.5t9.5 15.5z" />
    <glyph glyph-name="uni0E48" unicode="&#xe48;" 
d="M48 677h-59l24 114h60z" />
    <glyph glyph-name="uni0E49" unicode="&#xe49;" 
d="M155 835q-38 -95 -94.5 -131.5t-148.5 -36.5h-28l7 33q41 3 55 29q-48 13 -38 59q5 24 25.5 40t44.5 16q26 0 38 -16.5t6 -42.5q-8 -39 -60 -83q50 10 88.5 46.5t52.5 86.5h52zM-9 786q2 11 -4 18.5t-17 7.5t-20 -7.5t-11 -18.5q-3 -11 3 -18.5t17 -7.5t20 7.5t12 18.5z
" />
    <glyph glyph-name="uni0E4A" unicode="&#xe4a;" 
d="M192 829q-38 -157 -185 -157l7 29q43 19 51 60q5 29 -21 37l-38 -32l-24 34q-18 -4 -35 -22q24 0 37 -16t8 -40q-5 -22 -24.5 -38t-42.5 -16q-24 0 -36.5 15.5t-6.5 42.5q4 18 13.5 36t24.5 34t35 26.5t44 13.5l18 -26l28 26q30 -1 46 -21t10 -51q-6 -28 -23 -50
q53 29 72 115h42zM-39 722q2 11 -3.5 18.5t-16.5 7.5t-20 -7.5t-11 -18.5t4 -18t17 -7t19.5 7t10.5 18z" />
    <glyph glyph-name="uni0E4B" unicode="&#xe4b;" 
d="M108 721h-52l-10 -44h-54l9 44h-47l8 41h47l9 42h55l-9 -42h52z" />
    <glyph glyph-name="uni0E4C" unicode="&#xe4c;" 
d="M123 835q-11 -37 -37 -56q-20 -16 -63 -27q30 -16 22 -53q-5 -25 -26 -42.5t-46 -17.5t-38.5 18t-8.5 43q14 63 85 85q33 10 44 16q22 12 27 34h41zM11 699q2 11 -3 18.5t-15 7.5q-11 0 -20.5 -7.5t-11.5 -18.5t4 -18t17 -7t19 7t10 18z" />
    <glyph glyph-name="uni0E4D" unicode="&#xe4d;" 
d="M61 549q-7 -35 -36.5 -59.5t-64.5 -24.5q-36 0 -55 24.5t-12 59.5q8 35 38 60t65 25q34 0 53.5 -24.5t11.5 -60.5zM17 549q4 17 -5 29t-25 12q-17 0 -31.5 -12t-18.5 -29q-3 -17 6.5 -28.5t26.5 -11.5t30.5 11.5t16.5 28.5z" />
    <glyph glyph-name="uni0E4E" unicode="&#xe4e;" 
d="M-47 464q-22 -9 -52 -9q-27 0 -43.5 16.5t-10.5 42.5q5 24 24 41.5t43 21.5q-7 15 -3 31q7 33 36 50q26 14 58 14q28 0 52 -10l-23 -37q-18 7 -37 7q-37 0 -42 -24q-6 -27 45 -32l-24 -38q-18 7 -31 7q-50 0 -56 -32q-5 -20 33 -20q15 0 39 9z" />
    <glyph glyph-name="uni0E4F" unicode="&#xe4f;" horiz-adv-x="450" 
d="M279 163q6 26 -8.5 45t-41.5 19t-49.5 -19t-28.5 -45q-6 -27 9 -45.5t42 -18.5t49 18.5t28 45.5zM314 163q-9 -41 -44 -70.5t-76 -29.5t-64 29.5t-14 70.5t44 70t76 29t64 -29t14 -70zM349 163q12 56 -18.5 95t-86.5 39q-55 0 -103 -39t-60 -95t19 -95.5t86 -39.5t103 40
t60 95zM384 163q-15 -70 -75 -119.5t-130 -49.5t-109 49.5t-24 119.5t75 119.5t130 49.5q68 0 108 -50.5t25 -118.5z" />
    <glyph glyph-name="uni0E50" unicode="&#xe50;" horiz-adv-x="456" 
d="M325 146q9 46 -17.5 73t-71.5 27t-83.5 -27t-47.5 -73q-10 -46 16.5 -73t71.5 -27t83.5 27t48.5 73zM391 146q-15 -69 -82 -114q-60 -41 -127 -41q-68 0 -112 41q-47 45 -32 114q14 69 81 114q60 41 128 41q67 0 111 -41q47 -45 33 -114z" />
    <glyph glyph-name="uni0E51" unicode="&#xe51;" horiz-adv-x="456" 
d="M389 119q-17 -80 -83 -139h-74q82 65 98 139q12 57 -14 91.5t-83 34.5q-49 0 -90 -30.5t-51 -75.5q-8 -40 8 -67.5t53 -27.5q15 0 31 5q-35 0 -51 24q-15 21 -9 49q7 31 34.5 52.5t57.5 21.5q37 0 54 -25t9 -62q-11 -51 -52.5 -83.5t-94.5 -32.5q-58 0 -85.5 42.5
t-14.5 101.5q15 71 78.5 117t135.5 46q80 0 119.5 -53t23.5 -128zM235 122q3 14 -4.5 24t-21.5 10t-26.5 -10t-15.5 -24t5 -24t22 -10t26 10t15 24z" />
    <glyph glyph-name="uni0E52" unicode="&#xe52;" horiz-adv-x="456" 
d="M391 70q-14 -70 -81 -70h-259q-56 0 -43 65l60 283q3 13 -6 17q-1 0 -17 2l10 51q44 0 62 -13q21 -16 12 -58l-56 -263q-6 -32 22 -32h206q26 0 31 24l28 135q8 36 -14 36q-32 0 -44 -58h-40q1 60 -35 60q-15 0 -27 -13t-17 -29h8q29 0 44.5 -19.5t9.5 -47.5
q-6 -29 -29.5 -48.5t-52.5 -19.5q-78 0 -59 90q12 59 46 97q37 43 89 43q49 0 55 -39q26 39 68 39q37 0 52 -27t8 -62zM207 139q3 13 -4 21.5t-20 8.5t-22.5 -8.5t-12.5 -21.5t3.5 -21t19.5 -8t23 8t13 21z" />
    <glyph glyph-name="uni0E53" unicode="&#xe53;" horiz-adv-x="456" 
d="M372 0h-58l40 190q12 57 -28 57q-20 0 -38 -19t-23 -41l-39 -187h-59l39 187q13 59 -51 59q-36 0 -62 -43q-19 -31 -28 -72q18 9 37 9q31 0 49 -20.5t11 -52.5q-7 -30 -31 -50q-26 -23 -61 -24q-48 -1 -62 46q-9 37 1 90q14 68 54 116q45 56 106 56q59 0 80 -45
q38 46 90 45q46 0 64.5 -31.5t8.5 -78.5zM119 64q3 14 -4.5 23.5t-21.5 9.5t-25 -9.5t-14 -23.5t4 -23t21 -9t25.5 9t14.5 23z" />
    <glyph glyph-name="uni0E54" unicode="&#xe54;" horiz-adv-x="456" 
d="M356 -9q-51 27 -88 27q-25 0 -74.5 -12.5t-73.5 -12.5q-66 0 -98 43q-30 40 -18 102q35 165 249 165q85 0 124 13q63 21 93 102h57q-45 -109 -114 -145q-49 -25 -158 -25q-77 0 -114 -14q-60 -24 -74 -92q-9 -39 11.5 -68.5t50.5 -29.5q6 0 78 11q-87 24 -71 96
q7 33 33.5 54t56.5 21q32 0 47 -22.5t9 -51.5q-8 -35 -43 -59q15 -8 41 -13q27 -4 53 -10.5t62 -31.5zM238 153q3 13 -4 21.5t-20 8.5t-23 -8.5t-13 -21.5t4 -21.5t20 -8.5t23 8.5t13 21.5z" />
    <glyph glyph-name="uni0E55" unicode="&#xe55;" horiz-adv-x="456" 
d="M356 -9q-51 27 -88 27q-25 0 -74.5 -12.5t-73.5 -12.5q-66 0 -98 43q-30 40 -18 102q32 151 213 164q-15 19 -9 48t30 48.5t52 19.5q29 0 44.5 -19.5t9.5 -48.5q-6 -26 -27 -46q34 3 60 12q63 22 93 102h57q-45 -109 -114 -145q-49 -25 -158 -25q-77 0 -114 -14
q-60 -24 -74 -92q-9 -39 11.5 -68.5t50.5 -29.5q6 0 78 11q-87 24 -71 96q7 33 33.5 54t56.5 21q32 0 47 -22.5t9 -51.5q-8 -35 -43 -59q15 -8 41 -13q30 -5 54.5 -11t60.5 -31zM238 153q3 13 -4 21.5t-20 8.5t-23 -8.5t-13 -21.5t4 -21.5t20 -8.5t23 8.5t13 21.5zM306 349
q2 13 -4.5 21.5t-19.5 8.5t-23.5 -8.5t-12.5 -21.5q-3 -13 3.5 -21.5t19.5 -8.5t23.5 8.5t13.5 21.5z" />
    <glyph glyph-name="uni0E56" unicode="&#xe56;" horiz-adv-x="456" 
d="M415 153q-17 -80 -88 -124q-61 -38 -138 -38q-65 0 -96 14q-62 27 -49 85q7 33 32 55t58 22t50.5 -22t10.5 -53q-6 -28 -22 -44q6 -1 22 -1q56 0 99 24q49 27 61 80q10 47 -23 72q-28 22 -76 22q-109 0 -169 -63h-21q15 82 15 123q0 66 -26 113h68q23 -65 11 -144
q48 27 131 27q76 0 118 -35q48 -40 32 -113zM153 92q3 14 -4.5 23.5t-21.5 9.5t-25 -9.5t-14 -23.5t4 -23t21 -9t25.5 9t14.5 23z" />
    <glyph glyph-name="uni0E57" unicode="&#xe57;" horiz-adv-x="456" 
d="M442 231q-26 -119 -73 -172q-56 -62 -160 -62q64 111 81 191q4 19 1 37q-5 24 -21 24q-18 0 -33 -23q-13 -19 -17 -39l-8 -40h-60l8 38q13 64 -32 64q-24 0 -44 -34q-16 -27 -23 -64l-3 -11q20 8 34 8q31 0 49 -22.5t11 -55.5q-6 -32 -32.5 -53t-59.5 -21q-49 0 -62 50
q-10 38 2 95q12 61 43 104q39 56 94 56q54 0 68 -39q31 39 72 39q49 0 66 -39q14 -32 4 -83q-12 -52 -38 -108q48 28 73 148q33 156 62 199h61q-33 -37 -47 -107zM109 72q3 14 -5.5 24.5t-22.5 10.5t-26 -10.5t-15 -24.5t5 -24t22 -10t26.5 10t15.5 24z" />
    <glyph glyph-name="uni0E58" unicode="&#xe58;" horiz-adv-x="456" 
d="M398 78q-7 -34 -37.5 -60t-65.5 -26q-72 0 -138 76q-24 -8 -55 -35.5t-40 -48.5q-73 59 -52 166q20 92 81 125q48 26 154 26q77 0 110 14q45 20 57 79l2 9h58q-1 -8 -4 -22q-18 -88 -96 -116q-47 -17 -160 -17q-124 0 -145 -100q-13 -60 11 -78q16 23 50 40.5t59 17.5
q16 -30 45 -44q8 33 38 56t61 23q36 0 55.5 -25t11.5 -60zM349 78q3 14 -5 25t-23 11t-28 -11t-16 -25q-3 -15 5 -25.5t23 -10.5t28 10.5t16 25.5z" />
    <glyph glyph-name="uni0E59" unicode="&#xe59;" horiz-adv-x="456" 
d="M351 -10q-61 57 -98 184l-6 26.5t-13 22.5q-26 23 -62 23t-65 -31t-37 -67q-7 -35 3 -64q27 53 82 53q29 0 45.5 -21t9.5 -51q-6 -29 -31.5 -50.5t-54.5 -21.5q-64 0 -96 47q-30 44 -17 107q14 65 65.5 109.5t112.5 44.5q56 0 85 -33q18 32 49 32q14 0 34.5 -14.5
t34.5 -14.5q19 0 31 57q11 50 7 87h49q0 -50 -10 -97q-21 -101 -79 -101q-13 0 -33.5 15t-29.5 15q-18 0 -22 -19q-7 -35 30 -110t65 -90zM171 64q3 14 -4.5 23.5t-21.5 9.5t-25 -9.5t-14 -23.5t4 -23t21 -9t25.5 9t14.5 23z" />
    <glyph glyph-name="uni0E5A" unicode="&#xe5a;" horiz-adv-x="525" 
d="M160 330q3 14 -5 24t-22 10t-26 -10t-15 -24t4.5 -24t21.5 -10t26.5 10t15.5 24zM445 47q-12 -57 -47 -74l-49 27q29 17 39 70l51 245q8 36 -2 38q-20 -66 -98 -93l-45 -213q-12 -57 -47 -74l-49 27q29 17 39 70l51 245q8 36 -2 38q-14 -47 -62 -75.5t-97 -28.5
q-39 0 -62.5 21t-14.5 60q6 32 33 54.5t59 22.5t49.5 -22.5t11.5 -54.5q-1 -5 -6 -15q39 25 58 84h45q68 0 53 -72l-2 -11q37 26 55 83h45q68 0 53 -72z" />
    <glyph glyph-name="uni0E5B" unicode="&#xe5b;" horiz-adv-x="697" 
d="M212 320l1 6h3q3 0 2 -3q0 -3 -3 -3h-3zM210 313l1 6h3q5 0 6 4t-4 4h-5l-3 -14h2zM241 320l1 6h3q3 0 2 -3q0 -3 -3 -3h-3zM206 313v2h-7l3 12h-2l-3 -14h9zM180 318q-1 -4 -5 -4t-2 6q1 6 5 6q3 0 3 -4h2q-1 5 -5 5q-6 0 -7 -7q-2 -7 4 -7t7 5h-2zM236 323q1 4 -3 4
q-5 0 -6 -4q3 -3 7 -6q-1 -3 -4 -3t-2 4h-2q-1 -5 4 -5t6 4q-2 3 -7 6q1 3 4 3q1 -2 1 -3h2zM194 313l3 14h-2l-1 -6h-7l1 6h-2l-3 -14h2l2 7h7l-2 -7h2zM260 313l-3 8l6 6h-3l-6 -7l1 7h-2l-3 -14h2l1 5l3 2l1 -7h3zM239 313l1 6h3q5 0 6 4t-4 4h-5l-3 -14h2zM203 156
q28 0 34 28t-22 28t-34 -28t22 -28zM663 179q-23 -11 -44 -11q-33 0 -52 25q-17 -48 -40 -55q-9 0 -13 33q-5 42 -11 49q-19 -92 -46 -92q-6 0 -10 36q-3 40 -10 51q-27 -98 -59 -98q-6 0 -8 39q-4 50 -9 59q-40 -191 -189 -191q-62 0 -89 43t-12 116q16 75 56 116t96 41
q45 0 65 -27.5t10 -75.5q-9 -43 -32 -72q-29 -36 -69 -36q-22 0 -34.5 16.5t-7.5 38.5q4 23 23 39t42 16q26 0 39 -20v2l8 24q18 64 -48 64q-41 0 -70.5 -35t-42.5 -96q-11 -55 9.5 -88t63.5 -33q59 0 99.5 43t57.5 122q6 31 7 47q53 -11 52 -106q15 29 21 56q4 19 2 48
q40 -12 55 -87q10 25 13 37q2 9 2 37q41 -12 47 -84q12 13 17 35q3 12 3 27q5 -1 37 -28q29 -25 66 -25h5z" />
    <glyph glyph-name="zerowidthnonjoiner" unicode="&#x200c;" 
d="M18 -250h-35v537h35v-537z" />
    <glyph glyph-name="zerowidthjoiner" unicode="&#x200d;" 
d="M18 -250h-35v448l-20 -20l-17 17l37 37l-37 39l18 16l36 -37l37 37l18 -16l-37 -39l37 -37l-18 -17l-19 20v-448z" />
    <glyph glyph-name="lefttorightmark" unicode="&#x200e;" 
d="M18 -250h-35v502h132l-17 18l16 16l52 -52l-52 -52l-16 17l17 18h-97v-467z" />
    <glyph glyph-name="righttoleftmark" unicode="&#x200f;" 
d="M18 -250h-35v467h-97l17 -18l-16 -17l-52 52l52 52q2 -3 7 -8t9 -8l-17 -18h132v-502z" />
    <glyph glyph-name="endash" unicode="&#x2013;" horiz-adv-x="335" 
d="M315 157h-316l10 54h317z" />
    <glyph glyph-name="emdash" unicode="&#x2014;" horiz-adv-x="693" 
d="M673 157h-674l10 54h675z" />
    <glyph glyph-name="quoteleft" unicode="&#x2018;" horiz-adv-x="253" 
d="M199 373q-4 -19 -20.5 -32t-35.5 -13t-29 13t-7 32q14 60 50 96.5t61 45.5l11 -17q-58 -33 -76 -80q2 0 5 0.5t5 0.5q19 0 29.5 -13.5t6.5 -32.5z" />
    <glyph glyph-name="quoteright" unicode="&#x2019;" horiz-adv-x="253" 
d="M233 456q-13 -60 -49.5 -96.5t-61.5 -45.5l-11 17q58 33 76 80q-2 0 -4.5 -0.5t-4.5 -0.5q-19 0 -30 13.5t-7 32.5t20.5 32t35.5 13t29 -13t7 -32z" />
    <glyph glyph-name="quotesinglbase" unicode="&#x201a;" horiz-adv-x="253" 
d="M145 42q-13 -60 -49.5 -96.5t-61.5 -45.5l-11 17q58 33 76 80q-2 0 -4.5 -0.5t-4.5 -0.5q-19 0 -30 13.5t-7 32.5t20.5 32t35.5 13t29 -13t7 -32z" />
    <glyph glyph-name="quotedblleft" unicode="&#x201c;" horiz-adv-x="384" 
d="M199 373q-4 -19 -20.5 -32t-35.5 -13t-29 13t-7 32q14 60 50 96.5t61 45.5l11 -17q-58 -33 -76 -80q2 0 5 0.5t5 0.5q19 0 29.5 -13.5t6.5 -32.5zM330 373q-4 -19 -20.5 -32t-35.5 -13t-29 13t-7 32q14 60 50 96.5t61 45.5l11 -17q-58 -33 -76 -80q2 0 5 0.5t5 0.5
q19 0 29.5 -13.5t6.5 -32.5z" />
    <glyph glyph-name="quotedblright" unicode="&#x201d;" horiz-adv-x="384" 
d="M233 456q-13 -60 -49.5 -96.5t-61.5 -45.5l-11 17q58 33 76 80q-2 0 -4.5 -0.5t-4.5 -0.5q-19 0 -30 13.5t-7 32.5t20.5 32t35.5 13t29 -13t7 -32zM364 456q-13 -60 -49.5 -96.5t-61.5 -45.5l-11 17q58 33 76 80q-2 0 -4.5 -0.5t-4.5 -0.5q-19 0 -30 13.5t-7 32.5
t20.5 32t35.5 13t29 -13t7 -32z" />
    <glyph glyph-name="quotedblbase" unicode="&#x201e;" horiz-adv-x="384" 
d="M145 42q-13 -60 -49.5 -96.5t-61.5 -45.5l-11 17q58 33 76 80q-2 0 -4.5 -0.5t-4.5 -0.5q-19 0 -30 13.5t-7 32.5t20.5 32t35.5 13t29 -13t7 -32zM276 42q-13 -60 -49.5 -96.5t-61.5 -45.5l-11 17q58 33 76 80q-2 0 -4.5 -0.5t-4.5 -0.5q-19 0 -30 13.5t-7 32.5t20.5 32
t35.5 13t29 -13t7 -32z" />
    <glyph glyph-name="dagger" unicode="&#x2020;" horiz-adv-x="380" 
d="M163 -33h-50l68 317l-127 -4l10 48l125 -4l32 151h50l-32 -151l127 4l-10 -48l-125 4z" />
    <glyph glyph-name="daggerdbl" unicode="&#x2021;" horiz-adv-x="380" 
d="M163 -33h-50l31 145l-126 -3l10 47l125 -4l28 132l-127 -4l10 48l125 -4l32 151h50l-32 -151l127 4l-10 -48l-125 4l-28 -132l127 4l-10 -47l-126 3z" />
    <glyph glyph-name="bullet" unicode="&#x2022;" horiz-adv-x="226" 
d="M197 200q0 -35 -24.5 -59.5t-59.5 -24.5t-59.5 24.5t-24.5 59.5t24 59.5t60 24.5q35 0 59.5 -25t24.5 -59z" />
    <glyph glyph-name="ellipsis" unicode="&#x2026;" horiz-adv-x="504" 
d="M98 39q-4 -20 -21 -34t-37 -14t-30.5 14t-7.5 34q4 20 21 34t37 14t31 -14t7 -34zM264 39q-4 -20 -21 -34t-37 -14t-31 14t-7 34t21 34t37 14t31 -14t7 -34zM430 39q-4 -20 -21 -34t-37 -14t-31 14t-7 34t21 34t37 14t31 -14t7 -34z" />
    <glyph glyph-name="perthousand" unicode="&#x2030;" horiz-adv-x="972" 
d="M171 -9h-61l408 485h61zM303 338q-31 -146 -150 -146q-118 0 -87 146q32 147 150 147q119 0 87 -147zM244 338q20 94 -40 94q-58 0 -78 -94q-19 -92 39 -92q60 0 79 92zM634 139q-31 -147 -151 -147q-119 0 -88 147q31 146 150 146q120 0 89 -146zM574 139q20 94 -40 94
q-59 0 -79 -94q-20 -93 39 -93q60 0 80 93zM918 139q-31 -147 -151 -147q-119 0 -88 147q31 146 150 146q120 0 89 -146zM858 139q20 94 -40 94q-59 0 -79 -94q-20 -93 39 -93q60 0 80 93z" />
    <glyph glyph-name="minute" unicode="&#x2032;" horiz-adv-x="131" 
d="M79 371h-27l61 105h55z" />
    <glyph glyph-name="second" unicode="&#x2033;" horiz-adv-x="220" 
d="M79 371h-27l61 105h55zM168 371h-27l61 105h55z" />
    <glyph glyph-name="guilsinglleft" unicode="&#x2039;" horiz-adv-x="234" 
d="M169 47h-60l-85 132l140 136h61l-141 -136z" />
    <glyph glyph-name="guilsinglright" unicode="&#x203a;" horiz-adv-x="234" 
d="M55 47h-59l142 133l-85 135h60l85 -136z" />
    <glyph glyph-name="fraction" unicode="&#x2044;" horiz-adv-x="147" 
d="M-38 0h-60l300 477h59z" />
    <glyph glyph-name="Euro" unicode="&#x20ac;" horiz-adv-x="518" 
d="M449 25q-38 -16 -82.5 -25t-86.5 -9q-36 0 -69 11t-60 31.5t-46.5 48.5t-28.5 61h-61l11 54h47q5 37 16 73h-47l11 53h61q51 75 127 118t160 43q68 0 136 -30l-31 -56q-49 31 -114 31q-70 0 -124.5 -27.5t-89.5 -78.5h246l-11 -53h-263q-12 -36 -15 -73h262l-11 -54h-244
q16 -42 56.5 -69t104.5 -27q33 0 66 6.5t66 20.5z" />
    <glyph glyph-name="uni2113" unicode="&#x2113;" horiz-adv-x="254" 
d="M178 44q-25 -23 -51.5 -36t-47.5 -13q-24 0 -36 19t-4 61l23 108l-38 -23l-16 40l66 36l26 123q10 46 37.5 68.5t58.5 22.5q32 0 50 -22.5t9 -61.5q-5 -26 -19 -49t-32 -42t-38.5 -34t-39.5 -27l-29 -135q-2 -9 -1.5 -20.5t14.5 -11.5q9 0 24 9t37 29zM198 360q3 16 1 27
t-16 11q-12 0 -17 -9.5t-9 -29.5l-17 -79q15 11 34 34.5t24 45.5z" />
    <glyph glyph-name="trademark" unicode="&#x2122;" horiz-adv-x="608" 
d="M230 180h-45v253h-100v42h245v-42h-100v-253zM646 180h-46l-12 211l-83 -211h-34l-80 211l-15 -211h-44l18 295h49l90 -232l90 232h48z" />
    <glyph glyph-name="Ohm" unicode="&#x2126;" horiz-adv-x="476" 
d="M401 0h-173l27 131q106 43 127 138q12 57 -17 94.5t-85 37.5t-101.5 -37.5t-57.5 -94.5q-21 -95 67 -138l-27 -131h-173l12 54h117l8 39q-36 20 -58 68.5t-10 104.5q19 91 82.5 140t151.5 49q87 0 129.5 -49.5t23.5 -139.5q-13 -61 -54.5 -108t-87.5 -65l-8 -39h118z" />
    <glyph glyph-name="estimated" unicode="&#x212e;" horiz-adv-x="349" 
d="M254 236q10 99 -53 99t-96 -99h149zM287 121q-56 -128 -159 -128q-135 0 -92 209q20 93 68 138.5t108 45.5q66 0 88 -52t4 -149h-212q-12 -73 0 -106.5t47 -33.5q26 0 49.5 20.5t41.5 55.5h57z" />
    <glyph glyph-name="partialdiff" unicode="&#x2202;" horiz-adv-x="349" 
d="M330 281q-20 -97 -80 -181q-75 -105 -164 -105q-40 0 -62.5 29.5t-11.5 83.5q19 88 98 140q70 45 153 45h9q17 103 -21 103q-37 0 -77 -72l-48 30q67 101 136 101q105 0 68 -174zM258 237h-7q-67 0 -116 -42q-44 -36 -55 -87q-10 -51 31 -51q46 0 92 68q33 48 55 112z
" />
    <glyph glyph-name="Delta" unicode="&#x2206;" horiz-adv-x="480" 
d="M358 47l-86 314l-220 -314h306zM433 0h-474l337 472z" />
    <glyph glyph-name="product" unicode="&#x220f;" horiz-adv-x="493" 
d="M379 -75h-63l105 497h-259l-105 -497h-63l116 551h386z" />
    <glyph glyph-name="summation" unicode="&#x2211;" horiz-adv-x="417" 
d="M346 -75h-380l12 59l233 229l-142 205l13 58h366l-12 -54h-302l140 -188l-7 -35l-227 -220h317z" />
    <glyph glyph-name="minus" unicode="&#x2212;" horiz-adv-x="417" 
d="M342 157h-290l11 54h290z" />
    <glyph glyph-name="radical" unicode="&#x221a;" horiz-adv-x="387" 
d="M150 -10h-47l-23 231h-54l11 48h98l14 -192l227 395h61z" />
    <glyph glyph-name="infinity" unicode="&#x221e;" horiz-adv-x="632" 
d="M281 220q-46 63 -91 63q-35 0 -57 -18.5t-28 -43.5q-14 -68 58 -68q55 0 118 67zM586 212q-10 -46 -48.5 -78t-102.5 -32q-71 0 -128 79q-77 -79 -156 -79q-57 0 -85 32.5t-16 88.5q10 46 47.5 78t101.5 32q67 0 129 -78q77 78 155 78q58 0 86 -32.5t17 -88.5zM530 214
q14 68 -59 68q-58 0 -117 -67q48 -63 91 -63q35 0 57.5 18.5t27.5 43.5z" />
    <glyph glyph-name="integral" unicode="&#x222b;" horiz-adv-x="248" 
d="M53 -1q-36 -97 -117 -97q-21 0 -54 7l22 53q16 -4 28 -4q48 0 65 46l148 383q36 97 121 96q24 0 48 -6l-21 -51q-17 5 -33 5q-42 0 -60 -48z" />
    <glyph glyph-name="approxequal" unicode="&#x2248;" horiz-adv-x="417" 
d="M388 263q-9 -46 -40 -72.5t-71 -26.5q-24 0 -74.5 31t-67.5 31q-35 0 -51 -62h-55l4 19q10 44 42 70t71 26q27 0 76.5 -29.5t68.5 -29.5q31 0 47 59h54zM355 112q-9 -46 -40 -72.5t-71 -26.5q-24 0 -75 31t-68 31q-35 0 -50 -62h-54l3 19q10 44 42 70t71 26
q27 0 76.5 -29.5t68.5 -29.5q31 0 47 59h54z" />
    <glyph glyph-name="notequal" unicode="&#x2260;" horiz-adv-x="417" 
d="M347 97h-180l-35 -48.5l-34 -48.5h-65l68 97h-80l11 53h106l27.5 35.5l27.5 37.5h-145l11 53h171l82 111h67l-81 -111h87l-11 -53h-115q-13 -19 -26 -35.5t-28 -37.5h153z" />
    <glyph glyph-name="lessequal" unicode="&#x2264;" horiz-adv-x="417" 
d="M344 15h-353l10 52h354zM332 88l-284 124l12 60l338 124l-14 -62l-261 -93l222 -92z" />
    <glyph glyph-name="greaterequal" unicode="&#x2265;" horiz-adv-x="417" 
d="M344 15h-353l10 52h354zM359 212l-338 -124l13 61l262 92l-223 93l14 62l284 -124z" />
    <glyph glyph-name="lozenge" unicode="&#x25ca;" horiz-adv-x="405" 
d="M379 220l-193 -220h-55l-101 220l194 221h55zM319 220l-77 171l-152 -171l79 -171z" />
    <glyph glyph-name="dottedcircle" unicode="&#x25cc;" horiz-adv-x="406" 
d="M251 368q0 -8 -5.5 -13.5t-13.5 -5.5t-13.5 5.5t-5.5 13.5t5.5 13.5t13.5 5.5t13.5 -5.5t5.5 -13.5zM251 41q0 -8 -5.5 -13.5t-13.5 -5.5t-13.5 5.5t-5.5 13.5t5.5 13.5t13.5 5.5t13.5 -5.5t5.5 -13.5zM87 205q0 -8 -5.5 -13t-13.5 -5t-13 5t-5 13t5 13.5t13 5.5
t13.5 -5.5t5.5 -13.5zM415 205q0 -8 -5.5 -13t-13.5 -5t-13 5t-5 13t5 13.5t13 5.5t13.5 -5.5t5.5 -13.5zM100 266q0 -8 -5.5 -13t-13.5 -5t-13 5t-5 13t5 13.5t13 5.5t13.5 -5.5t5.5 -13.5zM135 321q0 -8 -5.5 -13t-13.5 -5t-13 5t-5 13t5 13.5t13 5.5t13.5 -5.5t5.5 -13.5
zM188 356q0 -8 -5.5 -13t-13.5 -5t-13 5t-5 13t5 13.5t13 5.5t13.5 -5.5t5.5 -13.5zM401 266q0 -8 -5 -13t-13 -5t-13.5 5t-5.5 13t5.5 13.5t13.5 5.5t13 -5.5t5 -13.5zM366 321q0 -8 -5 -13t-13 -5t-13.5 5t-5.5 13t5.5 13.5t13.5 5.5t13 -5.5t5 -13.5zM313 356
q0 -8 -5 -13t-13 -5t-13.5 5t-5.5 13t5.5 13.5t13.5 5.5t13 -5.5t5 -13.5zM100 143q0 -8 -5.5 -13.5t-13.5 -5.5t-13 5.5t-5 13.5t5 13t13 5t13.5 -5t5.5 -13zM135 88q0 -8 -5.5 -13.5t-13.5 -5.5t-13 5.5t-5 13.5t5 13t13 5t13.5 -5t5.5 -13zM188 53q0 -8 -5.5 -13.5
t-13.5 -5.5t-13 5.5t-5 13.5t5 13t13 5t13.5 -5t5.5 -13zM397 129q-5 -5 -13 -5t-13.5 5.5t-5.5 13.5t5.5 13t13.5 5t13 -5t5 -13t-5 -14zM362 74q-5 -5 -13 -5t-13.5 5.5t-5.5 13.5t5.5 13t13.5 5t13 -5t5 -13t-5 -14zM309 39q-5 -5 -13 -5t-13.5 5.5t-5.5 13.5t5.5 13
t13.5 5t13 -5t5 -13t-5 -14z" />
    <glyph glyph-name="uni0E10.alt1" unicode="&#xf700;" horiz-adv-x="372" 
d="M287 83q-19 -91 -114 -91q-92 0 -74 86l7 33q-8 -2 -14 -2q-29 0 -44 19.5t-9 47.5q6 29 31.5 48t52.5 19q30 0 47.5 -18.5t11.5 -47.5l-20 -97q-8 -36 23 -36q32 0 40 36l30 144q5 21 -85 42q-77 17 -120 17q19 64 67 97q40 27 90 27q19 0 54.5 -10t56.5 -10q24 0 37 45
l48 -13q-32 -90 -101 -90q-19 0 -52.5 12.5t-53.5 12.5q-15 0 -36.5 -8t-29.5 -19q111 -19 161 -44q35 -18 27 -53zM135 176q2 12 -4.5 20.5t-18.5 8.5t-22.5 -8.5t-12.5 -20.5q-3 -12 4 -20.5t19 -8.5t22 8.5t13 20.5z" />
    <glyph glyph-name="uni0E34.alt1" unicode="&#xf701;" 
d="M-92 450q-115 40 -218 40q-47 0 -97 -6q41 134 175 134q77 0 112 -46.5t28 -121.5zM-143 509q-1 25 -26.5 47t-63.5 22q-36 0 -65 -14.5t-41 -38.5q18 4 54 4q74 0 142 -20z" />
    <glyph glyph-name="uni0E35.alt1" unicode="&#xf702;" 
d="M-92 450q-115 40 -218 40q-47 0 -97 -6q41 134 175 134q71 0 106 -39l14 69h60l-39 -184q0 -7 -1 -14zM-143 509q-1 25 -26.5 47t-63.5 22q-36 0 -65 -14.5t-41 -38.5q18 4 54 4q74 0 142 -20z" />
    <glyph glyph-name="uni0E36.alt1" unicode="&#xf703;" 
d="M-143 509q-1 25 -26.5 47t-63.5 22q-36 0 -65 -14.5t-41 -38.5q18 4 54 4q74 0 142 -20zM-80 598q2 12 -4.5 20.5t-17.5 8.5t-22 -8.5t-13 -20.5q-3 -12 4.5 -20t18.5 -8t21 8t13 20zM-49 598q-5 -20 -19.5 -36t-34.5 -21q16 -39 11 -91q-115 40 -218 40q-47 0 -97 -6
q41 134 175 134q39 0 67 -12q8 22 27 37t42 15q25 0 38.5 -17.5t8.5 -42.5z" />
    <glyph glyph-name="uni0E37.alt1" unicode="&#xf704;" 
d="M-92 450q-115 40 -218 40q-47 0 -97 -6q41 134 175 134q15 0 27 -2l7 32h45l-9 -42q20 -9 36 -27l14 69h60l-39 -184zM-143 509q-1 25 -26.5 47t-63.5 22q-36 0 -65 -14.5t-41 -38.5q18 4 54 4q74 0 142 -20z" />
    <glyph glyph-name="uni0E48.alt1" unicode="&#xf705;" 
d="M-116 464h-62l30 141h62z" />
    <glyph glyph-name="uni0E49.alt1" unicode="&#xf706;" 
d="M8 628q-13 -49 -37.5 -82.5t-57 -54.5t-73 -30.5t-86.5 -9.5h-30l8 38q21 1 36 13.5t21 24.5q-21 5 -31.5 22.5t-5.5 40.5q5 26 27 43t47 17q29 0 41.5 -18t6.5 -46q-5 -25 -25 -51.5t-37 -41.5q50 10 87.5 47.5t50.5 87.5h58zM-164 588q3 11 -2.5 18t-16.5 7
q-10 0 -18.5 -7t-11.5 -18q-2 -10 3.5 -17t15.5 -7q11 0 19.5 7t10.5 17z" />
    <glyph glyph-name="uni0E4A.alt1" unicode="&#xf707;" 
d="M8 629q-40 -171 -200 -171l7 32q46 21 55 65q7 32 -22 40l-41 -34l-27 37q-9 -2 -20 -9.5t-17 -14.5q26 0 40 -17.5t9 -43.5q-6 -25 -27.5 -42t-45.5 -17q-25 0 -39.5 16.5t-8.5 46.5q5 20 14 40t24.5 36.5t37.5 28.5t52 15l19 -29l31 29q35 -1 51.5 -23t9.5 -56
q-6 -31 -24 -54q26 14 47 47t30 78h45zM-242 513q2 11 -4.5 19.5t-17.5 8.5t-21 -8.5t-12 -19.5q-3 -11 4 -19t18 -8t20.5 8t12.5 19z" />
    <glyph glyph-name="uni0E4B.alt1" unicode="&#xf708;" 
d="M-80 514h-57l-11 -50h-56l11 50h-57l8 41h57l11 48h56l-11 -48h57z" />
    <glyph glyph-name="uni0E4C.alt1" unicode="&#xf709;" 
d="M-10 667q-13 -42 -40 -60.5t-68 -29.5q14 -8 20.5 -23.5t2.5 -34.5q-6 -27 -29 -46t-50 -19t-42 19t-9 47q15 72 94 93q44 11 59 28t17 26h45zM-131 519q2 11 -4.5 19.5t-17.5 8.5t-21.5 -8.5t-12.5 -19.5q-3 -11 4 -19.5t18 -8.5t21 8.5t13 19.5z" />
    <glyph glyph-name="uni0E48.alt2" unicode="&#xf70a;" 
d="M3 464h-61l30 141h61z" />
    <glyph glyph-name="uni0E49.alt2" unicode="&#xf70b;" 
d="M101 637q-21 -53 -47 -89t-58 -57.5t-71.5 -30.5t-88.5 -9h-33l9 40q20 1 36.5 14t23.5 26q-24 4 -34.5 22t-5.5 44q6 27 29.5 45t49.5 18q30 0 43 -19t7 -48q-7 -29 -26.5 -56t-37.5 -42q52 9 91 48.5t53 93.5h60zM-78 595q2 11 -4 18.5t-17 7.5t-19.5 -7.5t-10.5 -18.5
t3 -18.5t16 -7.5t20.5 7.5t11.5 18.5z" />
    <glyph glyph-name="uni0E4A.alt2" unicode="&#xf70c;" 
d="M68 629q-41 -171 -200 -171l7 32q46 21 55 65q7 32 -22 40l-41 -34l-27 37q-9 -2 -20 -9.5t-17 -14.5q26 0 40 -17.5t9 -43.5q-6 -25 -27.5 -42t-45.5 -17q-25 0 -39.5 16.5t-8.5 46.5q5 20 14 40t24.5 36.5t37.5 28.5t52 15l19 -29l31 29q35 -1 51.5 -23t9.5 -56
q-6 -31 -24 -54q26 14 46.5 47t29.5 78h46zM-182 513q2 11 -4.5 19.5t-17.5 8.5t-21 -8.5t-12 -19.5q-3 -11 4 -19t18 -8t20.5 8t12.5 19z" />
    <glyph glyph-name="uni0E4B.alt2" unicode="&#xf70d;" 
d="M68 514h-57l-11 -50h-55l11 50h-57l8 41h57l11 48h55l-11 -48h57z" />
    <glyph glyph-name="uni0E4C.alt2" unicode="&#xf70e;" 
d="M87 667q-13 -42 -40 -60.5t-67 -29.5q14 -8 20 -23.5t2 -34.5q-5 -27 -28 -46t-50 -19t-42 19t-9 47q15 72 94 93q43 11 58 28t17 26h45zM-33 519q2 11 -4.5 19.5t-17.5 8.5t-21.5 -8.5t-12.5 -19.5q-3 -11 4 -19.5t18 -8.5t21 8.5t13 19.5z" />
    <glyph glyph-name="uni0E0D.alt1" unicode="&#xf70f;" horiz-adv-x="565" 
d="M489 94q-10 -50 -55 -78q-39 -24 -90 -24q-52 0 -79 24q-31 27 -21 78l37 171q8 39 -11 63.5t-55 24.5q-61 0 -98 -50q41 -8 56 -45q-57 -28 -66 -72l-10 -47q8 4 20 4q31 0 48 -21.5t10 -53.5t-33.5 -54t-58.5 -22q-33 0 -51 23t-11 58l25 117q9 42 55 66q-21 17 -59 12
q16 62 68 102q49 37 113 37q67 0 100.5 -38t19.5 -105l-38 -179q-5 -21 11 -30.5t40 -9.5q23 0 44 9.5t26 30.5l58 275q12 56 47 73l55 -23q-33 -15 -45 -73zM135 67q3 14 -5 24t-22 10t-26 -10t-15 -24t5 -24t22 -10t26 10t15 24z" />
    <glyph glyph-name="uni0E31.alt1" unicode="&#xf710;" 
d="M38 643q-60 -166 -214 -166q-60 0 -87 24.5t-19 62.5q7 29 31 49t53 20q31 0 46 -20.5t9 -48.5q-5 -27 -23 -40q105 4 146 119h58zM-183 564q3 13 -4 22t-20 9t-23.5 -9t-13.5 -22q-2 -13 4.5 -21.5t19.5 -8.5t24 8.5t13 21.5z" />
    <glyph glyph-name="uni0E4D.alt1" unicode="&#xf711;" 
d="M-84 549q-7 -35 -37 -59.5t-65 -24.5q-36 0 -55 24.5t-12 59.5q8 35 38 60t65 25t54.5 -24.5t11.5 -60.5zM-128 549q4 17 -5 29t-26 12t-31.5 -12t-18.5 -29q-3 -17 6.5 -28.5t26.5 -11.5t31 11.5t17 28.5z" />
    <glyph glyph-name="uni0E47.alt1" unicode="&#xf712;" 
d="M-73 521q-4 -21 -22.5 -36.5t-40.5 -15.5q-49 0 -103 42q-14 -4 -32.5 -19.5t-23.5 -27.5q-45 35 -35 85q8 39 44 61q31 20 74 20h68q49 0 59 44l5 23h48l-5 -22q-9 -41 -40.5 -63t-73.5 -22h-73q-16 0 -31.5 -10.5t-18.5 -27.5q-4 -16 0 -26q20 23 51 25q19 -15 49 -26
q4 20 22.5 34t37.5 14q22 0 34 -15.5t7 -36.5zM-103 521q2 9 -3 15.5t-14 6.5t-17 -6.5t-10 -15.5t3.5 -15.5t14.5 -6.5t16.5 6.5t9.5 15.5z" />
    <glyph glyph-name="uni0E48.alt3" unicode="&#xf713;" 
d="M-46 677h-60l25 114h60z" />
    <glyph glyph-name="uni0E49.alt3" unicode="&#xf714;" 
d="M60 835q-38 -95 -94 -131.5t-149 -36.5h-28l7 33q41 3 55 29q-48 13 -38 59q5 24 25.5 40t44.5 16q27 0 39 -16.5t6 -42.5q-8 -39 -61 -83q51 10 89.5 46.5t51.5 86.5h52zM-104 786q2 11 -4 18.5t-17 7.5t-20 -7.5t-11 -18.5q-3 -11 3 -18.5t17 -7.5t20 7.5t12 18.5z" />
    <glyph glyph-name="uni0E4A.alt3" unicode="&#xf715;" 
d="M69 829q-37 -157 -185 -157l7 29q43 19 51 60q6 29 -21 37l-38 -32l-24 34q-18 -4 -35 -22q24 0 37 -16t8 -40q-5 -22 -24.5 -38t-42.5 -16q-24 0 -36.5 15.5t-6.5 42.5q4 18 13.5 36t24.5 34t35 26.5t44 13.5l18 -26l28 26q31 -1 47 -21t10 -51q-6 -28 -23 -50
q53 29 72 115h41zM-162 722q2 11 -3.5 18.5t-16.5 7.5t-20 -7.5t-11 -18.5t4 -18t17 -7t19.5 7t10.5 18z" />
    <glyph glyph-name="uni0E4B.alt3" unicode="&#xf716;" 
d="M13 721h-51l-10 -44h-55l10 44h-48l8 41h48l9 42h55l-9 -42h51z" />
    <glyph glyph-name="uni0E4C.alt3" unicode="&#xf717;" 
d="M28 835q-11 -37 -36 -56q-20 -16 -63 -27q30 -16 22 -53q-5 -25 -26.5 -42.5t-46.5 -17.5t-38.5 18t-8.5 43q14 63 86 85q33 10 44 16q22 12 27 34h40zM-83 699q2 11 -3 18.5t-16 7.5t-20.5 -7.5t-11.5 -18.5t4 -18t17 -7t19.5 7t10.5 18z" />
    <glyph glyph-name="uni0E38.alt1" unicode="&#xf718;" 
d="M-194 -307q2 11 -4 19t-17 8t-21.5 -8t-12.5 -19t4.5 -19.5t17.5 -8.5t21 8.5t12 19.5zM-180 -407q-12 -57 -47 -74l-44 25q25 17 36 53l8 35l-9 -1q-25 0 -39 17.5t-9 41.5q6 25 27 43t47 18q25 0 40.5 -16t9.5 -44z" />
    <glyph glyph-name="uni0E39.alt1" unicode="&#xf719;" 
d="M-177 -392q-7 -33 -39 -50q-27 -15 -66 -15q-34 0 -56 14q-25 16 -19 44l7 30h-6q-25 0 -39 17.5t-9 41.5q6 25 27 43t47 18q25 0 40.5 -16t9.5 -44l-19 -90q-3 -15 27 -15q32 0 35 15l17 80q12 57 47 74l44 -25q-25 -17 -34 -53zM-314 -307q2 11 -4 19t-17 8t-21.5 -8
t-12.5 -19t4.5 -19.5t17.5 -8.5t21 8.5t12 19.5z" />
    <glyph glyph-name="uni0E3A.alt1" unicode="&#xf71a;" 
d="M-149 -286q-3 -14 -16 -24.5t-27 -10.5t-22 10.5t-5 24.5t15.5 24.5t26.5 10.5t22.5 -10.5t5.5 -24.5z" />
    <glyph glyph-name="uni0E0F.alt1" unicode="&#xf71c;" horiz-adv-x="425" 
d="M52 -137q-9 5 -27 5q-31 0 -36 -27q-6 -25 19 -25q34 0 44 47zM88 68q3 14 -5 24t-22 10t-26 -10t-15 -24t5 -24t22 -10t26 10t15 24zM280 -231h-56l-37 68l-64 -68l-32 63q-10 -28 -36 -47.5t-52 -19.5q-32 0 -49.5 21.5t-11.5 53.5q16 74 100 74q19 0 27 -3
q19 37 64 58l26 -42q-39 -10 -50 -41l29 -48l61 61l36 -54l89 420q8 40 -13 64.5t-61 24.5q-61 0 -100 -51q41 -8 57 -45q-30 -15 -41 -25q-16 -16 -22 -43q-5 -22 -8.5 -63.5t-7.5 -58.5q-7 -32 -33 -54t-57 -22q-32 0 -49 22t-10 54q7 31 33 53t56 22q12 0 14 -3l7 62
q8 35 46 54q-23 17 -59 12q15 62 68 102q51 37 116 37q70 0 104.5 -39t21.5 -104z" />
    <glyph glyph-name="uni0E2C.alt1" unicode="&#xf71d;" horiz-adv-x="475" 
d="M373 0h-63l-57 178l-130 -178h-64l54 257q-10 -2 -17 -2q-32 0 -49.5 22.5t-10.5 54.5q7 31 33.5 53t58.5 22q34 0 51.5 -23t10.5 -58l-34 -160q-7 -31 -33 -98q14 24 32 48l85 105h44l41 -105q8 -24 12 -48q2 67 9 98l19 91q-10 -2 -17 -2q-32 0 -49.5 22.5t-10.5 54.5
q7 31 33.5 53t58.5 22q18 0 32 -8q32 33 68 48l45 -30q-58 -25 -84 -55q5 -16 1 -36zM398 331q3 14 -5 24t-22 10t-26 -10t-15 -24t5 -24t22 -10t26 10t15 24zM146 331q3 14 -5 24t-22 10t-26 -10t-15 -24t5 -24t22 -10t26 10t15 24z" />
    <glyph glyph-name="franc" unicode="&#x20a3;" horiz-adv-x="393" 
d="M239 90h-128l-19 -90h-60l19 90h-69l11 52h69l71 335h279l-12 -54h-219l-31 -150h205l-12 -54h-205l-16 -77h128z" />
    <glyph glyph-name="dong" unicode="&#x20ab;" horiz-adv-x="435" 
d="M341 0h-60q-1 11 4 37q-56 -46 -130 -46t-113.5 52.5t-22.5 133.5q16 75 75.5 125.5t132.5 50.5q75 0 112 -47l22 104h-98l9 44h98l11 50h63l-11 -50h58l-9 -44h-58l-68 -319q-9 -42 -15 -91zM301 129l16 78q9 38 -22.5 66t-73.5 28q-52 0 -90 -35t-50 -89
q-13 -61 10.5 -96t79.5 -35q50 0 86 22.5t44 60.5zM349 -103h-380l12 58h380z" />
    <glyph glyph-name="Abreve" unicode="&#x102;" horiz-adv-x="451" 
d="M408 0h-69l-30 159h-191l-95 -159h-68l302 483h54zM297 213l-28 198l-116 -198h144zM432 627q-22 -57 -58 -84.5t-84 -27.5t-72 27.5t-22 84.5h54q0 -25 11 -44.5t39 -19.5t48.5 19.5t30.5 44.5h53z" />
    <glyph glyph-name="abreve" unicode="&#x103;" horiz-adv-x="431" 
d="M366 4l-63 -12q-12 16 -15 58q-49 -59 -130 -59q-63 0 -103.5 38t-40.5 101q0 90 61.5 156.5t151.5 66.5q111 0 170 -63l-42 -199q-8 -48 11 -87zM304 142l25 120q-39 39 -108 39q-59 0 -102.5 -48.5t-43.5 -113.5q0 -93 96 -93q47 0 86 28.5t47 67.5zM413 491
q-22 -57 -58 -84.5t-84 -27.5t-72 27.5t-22 84.5h54q0 -25 11 -44.5t39 -19.5t48.5 19.5t30.5 44.5h53z" />
    <glyph glyph-name="Cacute" unicode="&#x106;" horiz-adv-x="432" 
d="M371 25q-80 -32 -181 -32q-95 0 -138 67.5t-20 176.5q23 108 93 174q77 72 188 72q85 0 149 -29l-31 -50q-54 25 -127 25q-92 0 -150 -68q-42 -50 -59 -126q-14 -70 10 -122q29 -66 109 -66q83 0 151 30zM316 636l53 -18l-105 -97h-48z" />
    <glyph glyph-name="cacute" unicode="&#x107;" horiz-adv-x="347" 
d="M282 21q-54 -30 -123 -30q-81 0 -119.5 50.5t-21.5 130.5q17 81 77 131t141 50q68 0 110 -30l-33 -52q-41 29 -91 29q-51 0 -89.5 -35.5t-50.5 -92.5q-12 -58 11.5 -93t74.5 -35q50 0 103 29zM245 500l53 -18l-105 -97h-48z" />
    <glyph glyph-name="Ccaron" unicode="&#x10c;" horiz-adv-x="432" 
d="M371 25q-80 -32 -181 -32q-95 0 -138 67.5t-20 176.5q23 108 93 174q77 72 188 72q85 0 149 -29l-31 -50q-54 25 -127 25q-92 0 -150 -68q-42 -50 -59 -126q-14 -70 10 -122q29 -66 109 -66q83 0 151 30zM299 521h-35l-52 115h54l26 -71l55 71h55z" />
    <glyph glyph-name="ccaron" unicode="&#x10d;" horiz-adv-x="347" 
d="M282 21q-54 -30 -123 -30q-81 0 -119.5 50.5t-21.5 130.5q17 81 77 131t141 50q68 0 110 -30l-33 -52q-41 29 -91 29q-51 0 -89.5 -35.5t-50.5 -92.5q-12 -58 11.5 -93t74.5 -35q50 0 103 29zM227 385h-35l-52 115h54l26 -71l55 71h55z" />
    <glyph glyph-name="Dcroat" unicode="&#x110;" horiz-adv-x="459" 
d="M441 248q-23 -108 -89 -173q-80 -79 -213 -79q-41 0 -132 10l42 200h-41l12 54h41l44 208q117 13 157 13q122 0 165 -73q36 -59 14 -160zM377 248q38 179 -130 179q-28 0 -89 -6l-34 -161h160l-12 -54h-160l-32 -153q32 -3 82 -3q97 0 156 69q43 51 59 129z" />
    <glyph glyph-name="dcroat" unicode="&#x111;" horiz-adv-x="435" 
d="M341 0h-60q-1 11 4 37q-56 -46 -130 -46t-113.5 52.5t-22.5 133.5q16 75 75.5 125.5t132.5 50.5q75 0 112 -47l22 104h-98l9 44h98l11 50h63l-11 -50h58l-9 -44h-58l-68 -319q-9 -42 -15 -91zM301 129l16 78q9 38 -22.5 66t-73.5 28q-52 0 -90 -35t-50 -89
q-13 -61 10.5 -96t79.5 -35q50 0 86 22.5t44 60.5z" />
    <glyph glyph-name="Gbreve" unicode="&#x11e;" horiz-adv-x="454" 
d="M372 11l-30 8q-64 -26 -152 -26q-95 0 -138 67.5t-20 176.5q23 108 93 174q77 72 188 72q85 0 149 -29l-31 -50q-54 25 -127 25q-92 0 -150 -68q-42 -50 -59 -126q-14 -70 10 -122q29 -66 109 -66q59 0 106 16l29 135h-120l11 53h183zM434 627q-22 -57 -58 -84.5
t-84 -27.5t-72 27.5t-22 84.5h54q0 -25 11 -44.5t39 -19.5t48.5 19.5t30.5 44.5h53z" />
    <glyph glyph-name="gbreve" unicode="&#x11f;" horiz-adv-x="332" 
d="M238 -45q-10 -47 -50 -76t-105 -29q-54 0 -103 34l31 50q47 -31 87 -31q31 0 54.5 14.5t27.5 34.5q7 30 -44 53q-39 17 -73.5 38t-27.5 55q4 16 18 41q-28 39 -18 83q11 55 55.5 90t96.5 35h144l-9 -43h-50q31 -23 22 -75q-12 -59 -52 -93.5t-101 -34.5q-22 0 -42 7
q-6 -5 -7 -13q-3 -15 64 -35q98 -29 82 -105zM240 224q6 30 -11 51t-47 21t-56 -21t-32 -51t11 -50.5t47 -20.5q36 0 59 20.5t29 50.5zM349 491q-22 -57 -58 -84.5t-84 -27.5t-72 27.5t-22 84.5h54q0 -25 11 -44.5t39 -19.5t48.5 19.5t30.5 44.5h53z" />
    <glyph glyph-name="Idotaccent" unicode="&#x130;" horiz-adv-x="163" 
d="M69 0h-63l101 476h63zM201 545q-4 -19 -19.5 -31.5t-32.5 -12.5t-28 12.5t-7 31.5q4 18 20.5 31t33.5 13t27 -13t6 -31z" />
    <glyph glyph-name="Scedilla" unicode="&#x15e;" horiz-adv-x="365" 
d="M322 130q-13 -62 -70.5 -100.5t-131.5 -38.5q-79 0 -137 43l38 57q48 -43 115 -43q49 0 81.5 21.5t39.5 57.5q13 60 -76 91q-132 45 -112 138q12 56 64.5 92.5t123.5 36.5t116 -32l-38 -50q-45 25 -92 25q-43 0 -73.5 -19.5t-36.5 -47.5q-11 -55 78 -86q73 -25 98 -58
t13 -87zM190 -90q-6 -32 -31 -50.5t-63 -18.5q-14 0 -29.5 4.5t-28.5 13.5l20 32q12 -7 25.5 -11t21.5 -4q32 0 39 30q5 28 -56 39l57 66h43l-36 -39q25 -8 34 -23.5t4 -38.5z" />
    <glyph glyph-name="scedilla" unicode="&#x15f;" horiz-adv-x="296" 
d="M247 97q-10 -47 -52.5 -76.5t-104.5 -29.5q-51 0 -102 33l34 50q35 -28 82 -28q70 0 80 48q8 37 -55 58q-94 31 -80 95q9 43 49 72.5t97 29.5q58 0 92 -29l-33 -46q-30 26 -74 26q-26 0 -46 -13.5t-25 -34.5q-5 -26 62 -51q91 -34 76 -104zM155 -90q-6 -32 -31 -50.5
t-63 -18.5q-14 0 -29.5 4.5t-28.5 13.5l20 32q12 -7 25.5 -11t21.5 -4q32 0 39 30q5 28 -56 39l57 66h43l-36 -39q25 -8 34 -23.5t4 -38.5z" />
    <glyph glyph-name="Ohorn" unicode="&#x1a0;" horiz-adv-x="518" 
d="M498 237q-22 -105 -102.5 -176t-183.5 -71t-152.5 71t-27.5 176t102.5 176.5t183.5 71.5q72 0 120 -37q33 33 43 79h54q-13 -58 -67 -111q53 -71 30 -179zM436 238q18 82 -17.5 137.5t-112.5 55.5t-135.5 -55.5t-76.5 -137.5q-17 -82 18 -137.5t112 -55.5t136 55.5
t76 137.5z" />
    <glyph glyph-name="ohorn" unicode="&#x1a1;" horiz-adv-x="412" 
d="M378 172q-16 -76 -78 -128t-140 -52t-118 52t-24 128t78.5 128.5t140.5 52.5q70 0 110 -45q27 33 35 71h54q-12 -55 -65 -109q19 -44 7 -98zM316 172q12 54 -13.5 90.5t-77.5 36.5t-92.5 -36.5t-52.5 -90.5q-11 -54 14 -90.5t77 -36.5t93 36.5t52 90.5z" />
    <glyph glyph-name="Uhorn" unicode="&#x1af;" horiz-adv-x="482" 
d="M431 203q-45 -212 -236 -212t-146 212l58 273h64l-58 -273q-34 -158 93 -158t161 158l58 273h64l-9 -40q25 12 44 38.5t25 52.5h54q-13 -47 -52 -90.5t-83 -58.5z" />
    <glyph glyph-name="uhorn" unicode="&#x1b0;" horiz-adv-x="414" 
d="M354 4l-63 -12q-12 16 -15 58q-73 -59 -131 -59q-114 0 -114 105q0 26 7 58l24 111q3 14 3 29q0 22 -6 44l60 12q9 -27 9 -54q0 -19 -4 -38l-21 -98q-6 -28 -6 -45q0 -68 67 -68q37 0 77.5 28.5t48.5 63.5l43 201h63l-13 -60q20 12 40 37q22 28 27 54h54q-8 -39 -46 -84
q-42 -48 -87 -64l-28 -132q-2 -9 -2 -21q0 -30 13 -66z" />
    <glyph glyph-name="hookabovecomb" unicode="&#x309;" 
d="M15 477q-4 -17 -15.5 -30.5t-24 -25.5l-23.5 -23.5t-14 -24.5h-45q3 16 15 29t25.5 24.5t24.5 22.5t14 23q4 17 -2.5 22.5t-19.5 5.5q-17 0 -32.5 -11t-20.5 -17l-21 22q11 16 33 30.5t54 14.5q29 0 44 -15t8 -47z" />
    <glyph glyph-name="tildecomb" unicode="&#x303;" 
d="M22 456q-8 -35 -26.5 -55.5t-47.5 -20.5q-8 0 -18.5 4.5t-21.5 10t-21.5 10t-17.5 4.5q-8 0 -11.5 -7.5t-5.5 -16.5h-44q7 30 25.5 50.5t45.5 20.5q9 0 20 -4t20.5 -9.5t19.5 -9.5t17 -4q19 0 24 27h42z" />
    <glyph glyph-name="acutecomb" unicode="&#x301;" 
d="M-69 500l53 -18l-105 -97h-48z" />
    <glyph glyph-name="dotbelowcomb" unicode="&#x323;" 
d="M-118 -96q-4 -20 -21 -34t-36 -14t-29.5 14t-6.5 34t20.5 34t35.5 14t30 -14t7 -34z" />
    <glyph glyph-name="gravecomb" unicode="&#x300;" 
d="M-15 385h-48l-63 97l61 18z" />
    <glyph glyph-name="oneeighth" unicode="&#x215b;" horiz-adv-x="542" 
d="M96 -9h-49l386 477h49zM434 79q4 17 -4 33t-34 18q-26 -2 -41.5 -18t-19.5 -33q-4 -20 7.5 -31t33.5 -11q23 0 38.5 11t19.5 31zM454 209q3 14 -5.5 23.5t-28.5 9.5t-32.5 -9.5t-15.5 -23.5q-3 -12 6.5 -21t25.5 -14q22 6 35 15t15 20zM484 80q-9 -41 -40.5 -64.5
t-77.5 -23.5q-45 0 -66 23.5t-12 64.5q4 22 19 42t34 31q-11 10 -16.5 24t-2.5 30q8 35 38.5 57.5t69.5 22.5q38 0 59 -22.5t13 -57.5q-6 -32 -41 -54q16 -11 21.5 -30.5t1.5 -42.5zM173 176h-134l8 39h43l37 174l-45 -33l-20 36l100 74q30 -2 23 -35l-46 -216h42z" />
    <glyph glyph-name="threeeighths" unicode="&#x215c;" horiz-adv-x="542" 
d="M96 -9h-49l386 477h49zM434 79q4 17 -4 33t-34 18q-26 -2 -41.5 -18t-19.5 -33q-4 -20 7.5 -31t33.5 -11q23 0 38.5 11t19.5 31zM454 209q3 14 -5.5 23.5t-28.5 9.5t-32.5 -9.5t-15.5 -23.5q-3 -12 6.5 -21t25.5 -14q22 6 35 15t15 20zM484 80q-9 -41 -40.5 -64.5
t-77.5 -23.5q-45 0 -66 23.5t-12 64.5q4 22 19 42t34 31q-11 10 -16.5 24t-2.5 30q8 35 38.5 57.5t69.5 22.5q38 0 59 -22.5t13 -57.5q-6 -32 -41 -54q16 -11 21.5 -30.5t1.5 -42.5zM239 285q-5 -26 -19.5 -46t-33.5 -33.5t-42 -20.5t-45 -7q-41 0 -69 25l29 43
q11 -11 24 -16.5t27 -5.5q32 0 54 17t28 43q7 35 -26 35q-25 0 -50 -18l-9 30q49 23 68 41t24 38q1 8 -3.5 13.5t-17.5 5.5q-40 0 -68 -49l-33 19q46 72 113 72q35 0 48 -16t8 -38q-7 -34 -44 -62q26 -4 34.5 -23t2.5 -47z" />
    <glyph glyph-name="fiveeighths" unicode="&#x215d;" horiz-adv-x="542" 
d="M96 -9h-49l386 477h49zM434 79q4 17 -4 33t-34 18q-26 -2 -41.5 -18t-19.5 -33q-4 -20 7.5 -31t33.5 -11q23 0 38.5 11t19.5 31zM454 209q3 14 -5.5 23.5t-28.5 9.5t-32.5 -9.5t-15.5 -23.5q-3 -12 6.5 -21t25.5 -14q22 6 35 15t15 20zM484 80q-9 -41 -40.5 -64.5
t-77.5 -23.5q-45 0 -66 23.5t-12 64.5q4 22 19 42t34 31q-11 10 -16.5 24t-2.5 30q8 35 38.5 57.5t69.5 22.5q38 0 59 -22.5t13 -57.5q-6 -32 -41 -54q16 -11 21.5 -30.5t1.5 -42.5zM240 287q-11 -48 -51 -78t-94 -30q-44 0 -75 29l30 38q12 -8 25 -15.5t32 -7.5
q27 0 51 17.5t30 45.5q5 22 -8 35t-39 13q-8 0 -21 -5.5t-20 -16.5h-33l43 161h162l-18 -44h-106l-15 -57q6 3 15.5 5t15.5 2q39 0 61.5 -25t14.5 -67z" />
    <glyph glyph-name="seveneighths" unicode="&#x215e;" horiz-adv-x="542" 
d="M96 -9h-49l386 477h49zM434 79q4 17 -4 33t-34 18q-26 -2 -41.5 -18t-19.5 -33q-4 -20 7.5 -31t33.5 -11q23 0 38.5 11t19.5 31zM454 209q3 14 -5.5 23.5t-28.5 9.5t-32.5 -9.5t-15.5 -23.5q-3 -12 6.5 -21t25.5 -14q22 6 35 15t15 20zM484 80q-9 -41 -40.5 -64.5
t-77.5 -23.5q-45 0 -66 23.5t-12 64.5q4 22 19 42t34 31q-11 10 -16.5 24t-2.5 30q8 35 38.5 57.5t69.5 22.5q38 0 59 -22.5t13 -57.5q-6 -32 -41 -54q16 -11 21.5 -30.5t1.5 -42.5zM139 183h-53q18 74 48.5 136t77.5 107h-138l22 45h196l-15 -40q-26 -26 -47.5 -51.5
t-38.5 -54.5t-29.5 -63.5t-22.5 -78.5z" />
    <glyph glyph-name="space" unicode=" " horiz-adv-x="226" 
 />
    <glyph glyph-name="uni0E0E.alt1" unicode="&#xf71b;" horiz-adv-x="425" 
d="M281 -230h-63q-2 53 -75 84q-25 -88 -96 -88q-33 0 -51.5 21t-12.5 53q16 71 109 71q14 0 22 -1q9 19 17 28q14 16 37 29l37 -22q-35 -17 -47 -45q53 -20 78 -50l88 415q8 40 -13 64.5t-61 24.5q-61 0 -100 -51q41 -8 57 -45q-30 -15 -41 -25q-16 -16 -22 -43
q-5 -22 -8.5 -63.5t-7.5 -58.5q-7 -32 -33 -54t-57 -22q-32 0 -49 22t-10 54q7 31 33 53t56 22q12 0 14 -3l7 62q8 35 46 54q-23 17 -59 12q15 62 68 102q51 37 116 37q70 0 104.5 -39t21.5 -104zM100 -135q-9 3 -24 3q-41 0 -47 -24q-7 -32 26 -32q19 2 29.5 15t15.5 38z
M88 68q3 14 -5 24t-22 10t-26 -10t-15 -24t5 -24t22 -10t26 10t15 24z" />
    <glyph glyph-name="onethird" unicode="&#x2153;" horiz-adv-x="542" 
d="M96 -9h-49l386 477h49zM173 176h-134l8 39h43l37 174l-45 -33l-20 36l100 74q30 -2 23 -35l-46 -216h42zM492 99q-6 -26 -20 -46t-33 -33.5t-42 -20.5t-45 -7q-41 0 -70 25l29 43q12 -11 25 -16.5t27 -5.5q32 0 54 17t27 43q8 35 -25 35q-25 0 -50 -18l-10 30
q49 23 68.5 41t23.5 38q2 8 -3 13.5t-18 5.5q-40 0 -67 -49l-33 19q45 72 112 72q35 0 48 -16t9 -38q-8 -34 -45 -62q27 -4 35 -23t3 -47z" />
    <glyph glyph-name="twothirds" unicode="&#x2154;" horiz-adv-x="542" 
d="M96 -9h-49l386 477h49zM492 99q-6 -26 -20 -46t-33 -33.5t-42 -20.5t-45 -7q-41 0 -70 25l29 43q12 -11 25 -16.5t27 -5.5q32 0 54 17t27 43q8 35 -25 35q-25 0 -50 -18l-10 30q49 23 68.5 41t23.5 38q2 8 -3 13.5t-18 5.5q-40 0 -67 -49l-33 19q45 72 112 72
q35 0 48 -16t9 -38q-8 -34 -45 -62q27 -4 35 -23t3 -47zM180 182h-178q6 23 29 51.5t65 60.5l31.5 24.5t29 25t23 25t12.5 25.5q8 37 -26 37q-20 0 -36.5 -14t-23.5 -40l-45 7q14 42 44.5 65t66.5 23q39 0 60 -18t12 -60q-4 -20 -20 -40t-39 -40.5t-51.5 -43l-57.5 -47.5
h119z" />
    <glyph glyph-name="uni2155" unicode="&#x2155;" horiz-adv-x="542" 
d="M96 -9h-49l386 477h49zM173 176h-134l8 39h43l37 174l-45 -33l-20 36l100 74q30 -2 23 -35l-46 -216h42zM496 100q-10 -48 -50.5 -78t-94.5 -30q-44 0 -75 29l30 38q12 -8 25 -15.5t32 -7.5q27 0 51.5 17.5t30.5 45.5q4 22 -8.5 35t-38.5 13q-8 0 -21.5 -5.5t-20.5 -16.5
h-33l43 161h162l-18 -44h-106l-15 -57q6 3 15.5 5t15.5 2q39 0 62 -25t14 -67z" />
    <glyph glyph-name="uni2156" unicode="&#x2156;" horiz-adv-x="542" 
d="M96 -9h-49l386 477h49zM496 100q-10 -48 -50.5 -78t-94.5 -30q-44 0 -75 29l30 38q12 -8 25 -15.5t32 -7.5q27 0 51.5 17.5t30.5 45.5q4 22 -8.5 35t-38.5 13q-8 0 -21.5 -5.5t-20.5 -16.5h-33l43 161h162l-18 -44h-106l-15 -57q6 3 15.5 5t15.5 2q39 0 62 -25t14 -67z
M180 182h-178q6 23 29 51.5t65 60.5l31.5 24.5t29 25t23 25t12.5 25.5q8 37 -26 37q-20 0 -36.5 -14t-23.5 -40l-45 7q14 42 44.5 65t66.5 23q39 0 60 -18t12 -60q-4 -20 -20 -40t-39 -40.5t-51.5 -43l-57.5 -47.5h119z" />
    <glyph glyph-name="uni2157" unicode="&#x2157;" horiz-adv-x="542" 
d="M96 -9h-49l386 477h49zM496 100q-10 -48 -50.5 -78t-94.5 -30q-44 0 -75 29l30 38q12 -8 25 -15.5t32 -7.5q27 0 51.5 17.5t30.5 45.5q4 22 -8.5 35t-38.5 13q-8 0 -21.5 -5.5t-20.5 -16.5h-33l43 161h162l-18 -44h-106l-15 -57q6 3 15.5 5t15.5 2q39 0 62 -25t14 -67z
M239 285q-5 -26 -19.5 -46t-33.5 -33.5t-42 -20.5t-45 -7q-41 0 -69 25l29 43q11 -11 24 -16.5t27 -5.5q32 0 54 17t28 43q7 35 -26 35q-25 0 -50 -18l-9 30q49 23 68 41t24 38q1 8 -3.5 13.5t-17.5 5.5q-40 0 -68 -49l-33 19q46 72 113 72q35 0 48 -16t8 -38
q-7 -34 -44 -62q26 -4 34.5 -23t2.5 -47z" />
    <glyph glyph-name="uni2158" unicode="&#x2158;" horiz-adv-x="542" 
d="M96 -9h-49l386 477h49zM496 100q-10 -48 -50.5 -78t-94.5 -30q-44 0 -75 29l30 38q12 -8 25 -15.5t32 -7.5q27 0 51.5 17.5t30.5 45.5q4 22 -8.5 35t-38.5 13q-8 0 -21.5 -5.5t-20.5 -16.5h-33l43 161h162l-18 -44h-106l-15 -57q6 3 15.5 5t15.5 2q39 0 62 -25t14 -67z
M149 282l27 125q-28 -29 -52 -63.5t-33 -61.5h58zM232 240h-41l-13 -61h-50l13 61h-110q17 71 57.5 127t76.5 78.5t74 23.5l-40 -187h43z" />
    <glyph glyph-name="uni2159" unicode="&#x2159;" horiz-adv-x="542" 
d="M96 -9h-49l386 477h49zM173 176h-134l8 39h43l37 174l-45 -33l-20 36l100 74q30 -2 23 -35l-46 -216h42zM476 89q-8 -41 -37.5 -67.5t-71.5 -26.5q-50 0 -69 31.5t-10 75.5q7 32 25.5 63.5t46.5 58t63.5 45t76.5 24.5l-7 -35q-34 -11 -66.5 -30.5t-56.5 -49.5
q9 3 19.5 4.5t21.5 1.5q35 0 55 -24t10 -71zM428 89q6 25 -3 41t-29 16q-21 0 -37.5 -16t-22.5 -41q-4 -23 5.5 -38.5t30.5 -15.5q22 0 37 15.5t19 38.5z" />
    <glyph glyph-name="uni215A" unicode="&#x215a;" horiz-adv-x="542" 
d="M96 -9h-49l386 477h49zM476 89q-8 -41 -37.5 -67.5t-71.5 -26.5q-50 0 -69 31.5t-10 75.5q7 32 25.5 63.5t46.5 58t63.5 45t76.5 24.5l-7 -35q-34 -11 -66.5 -30.5t-56.5 -49.5q9 3 19.5 4.5t21.5 1.5q35 0 55 -24t10 -71zM428 89q6 25 -3 41t-29 16q-21 0 -37.5 -16
t-22.5 -41q-4 -23 5.5 -38.5t30.5 -15.5q22 0 37 15.5t19 38.5zM240 287q-11 -48 -51 -78t-94 -30q-44 0 -75 29l30 38q12 -8 25 -15.5t32 -7.5q27 0 51 17.5t30 45.5q5 22 -8 35t-39 13q-8 0 -21 -5.5t-20 -16.5h-33l43 161h162l-18 -44h-106l-15 -57q6 3 15.5 5t15.5 2
q39 0 61.5 -25t14.5 -67z" />
    <glyph glyph-name="nonmarkingreturn" 
 />
    </font>
</defs>
</svg>
